<svg width="16" height="16" viewBox="0 0 16 16" fill="none" xmlns="http://www.w3.org/2000/svg">
<path d="M12.5 2.25C12.7308 2.25 12.9487 2.35628 13.0908 2.53809L15.0908 5.09863C15.1937 5.23036 15.2499 5.39244 15.25 5.55957C15.25 6.53341 14.5961 7.28328 13.75 7.59375V13C13.75 13.4142 13.4142 13.75 13 13.75H3C2.58579 13.75 2.25 13.4142 2.25 13V7.59375C1.40393 7.28328 0.75 6.53341 0.75 5.55957C0.750096 5.39244 0.806313 5.23036 0.90918 5.09863L2.90918 2.53809L2.96582 2.47363C3.10592 2.33143 3.29801 2.25 3.5 2.25H12.5ZM11.25 7.15625C10.8114 7.53134 10.2275 7.75 9.625 7.75C9.0225 7.75 8.43857 7.53134 8 7.15625C7.56143 7.53134 6.9775 7.75 6.375 7.75C5.7725 7.75 5.18857 7.53134 4.75 7.15625C4.46624 7.39893 4.12111 7.57408 3.75 7.66895V12.25H12.25V7.66895C11.8789 7.57408 11.5338 7.39893 11.25 7.15625ZM2.29395 5.75977C2.39523 6.00787 2.67678 6.25 3.125 6.25C3.69602 6.25 4 5.85801 4 5.55957C4.00023 5.14555 4.33593 4.80957 4.75 4.80957C5.16407 4.80957 5.49977 5.14555 5.5 5.55957C5.5 5.85801 5.80398 6.25 6.375 6.25C6.94602 6.25 7.25 5.85801 7.25 5.55957C7.25023 5.14555 7.58593 4.80957 8 4.80957C8.41407 4.80957 8.74977 5.14555 8.75 5.55957C8.75 5.85801 9.05398 6.25 9.625 6.25C10.196 6.25 10.5 5.85801 10.5 5.55957C10.5002 5.14555 10.8359 4.80957 11.25 4.80957C11.6641 4.80957 11.9998 5.14555 12 5.55957C12 5.85801 12.304 6.25 12.875 6.25C13.323 6.25 13.6037 6.00775 13.7051 5.75977L12.1348 3.75H3.86523L2.29395 5.75977Z" fill="#FF00FF"/>
</svg>
