<svg width="16" height="16" viewBox="0 0 16 16" fill="none" xmlns="http://www.w3.org/2000/svg">
<path fill-rule="evenodd" clip-rule="evenodd" d="M7.55859 1.39326C7.82155 1.20208 8.17845 1.20208 8.44141 1.39326L13.9414 5.39326C14.1353 5.53437 14.2499 5.75992 14.25 5.99971V12.9997C14.25 13.4139 13.9142 13.7497 13.5 13.7497H9.5C9.30109 13.7497 9.11038 13.6706 8.96973 13.53C8.82913 13.3893 8.75 13.1986 8.75 12.9997V10.2497H7.25V12.9997C7.25 13.4139 6.91421 13.7497 6.5 13.7497H2.5C2.08579 13.7497 1.75 13.4139 1.75 12.9997V5.99971C1.75006 5.75992 1.86472 5.53437 2.05859 5.39326L7.55859 1.39326ZM3.25 6.38155V12.2497H5.75V9.49971C5.7501 9.08558 6.08585 8.74971 6.5 8.74971H9.5C9.91415 8.74971 10.2499 9.08558 10.25 9.49971V12.2497H12.75V6.38155L8 2.92647L3.25 6.38155Z" fill="#FF00FF"/>
</svg>
