<svg width="16" height="16" viewBox="0 0 16 16" fill="none" xmlns="http://www.w3.org/2000/svg">
<path d="M0.417226 5.52793C3.91721 1.20746 9.3751 0.560269 13.4592 3.71933L13.0002 4.31308L12.5412 4.90586C9.29305 2.39347 5.01357 2.7144 2.00902 5.98105L8.00023 12.4L9.45238 10.8453L10.5481 11.8687L8.54809 14.0113C8.40628 14.1633 8.20805 14.2496 8.00023 14.2496C7.79238 14.2496 7.59422 14.1633 7.45238 14.0113L0.452382 6.51133C0.197193 6.23791 0.181879 5.81858 0.417226 5.52793ZM15.9905 5.49765L11.9905 9.99765C11.8436 10.1628 11.6313 10.2553 11.4104 10.2496C11.1895 10.2438 10.982 10.1409 10.844 9.96836L8.84398 7.46836L10.0159 6.53086L11.4602 8.33652L14.8694 4.50156L15.9905 5.49765Z" fill="#FF00FF"/>
</svg>
