<svg width="16" height="16" viewBox="0 0 16 16" fill="none" xmlns="http://www.w3.org/2000/svg">
<path d="M0.464747 5.01353C4.75759 0.761677 11.2433 0.761527 15.536 5.01353C15.8074 5.28265 15.8073 5.71598 15.5536 6.00181L8.56045 13.869C8.26209 14.2045 7.73766 14.2046 7.43936 13.869L0.447169 6.00181C0.193135 5.71594 0.193145 5.28274 0.464747 5.01353ZM7.9999 9.49986C7.44816 9.50009 7.00001 9.9481 6.9999 10.4999C6.99997 11.0517 7.44814 11.4996 7.9999 11.4999C8.55174 11.4997 8.99983 11.0517 8.9999 10.4999C8.99979 9.94804 8.55172 9.5 7.9999 9.49986ZM7.2499 7.99986H8.7499V3.99986H7.2499V7.99986Z" fill="#FF00FF"/>
</svg>
