<svg width="16" height="16" viewBox="0 0 16 16" fill="none" xmlns="http://www.w3.org/2000/svg">
<path d="M2.87256 2.87256C5.70372 0.0414001 10.2951 0.0416847 13.1265 2.87256C15.9578 5.70386 15.9578 10.2952 13.1265 13.1265C10.2952 15.9578 5.70386 15.9578 2.87256 13.1265C0.0416846 10.2951 0.0414004 5.70372 2.87256 2.87256ZM12.0649 3.93408C9.81939 1.68899 6.17945 1.68871 3.93408 3.93408C1.68871 6.17945 1.68899 9.81939 3.93408 12.0649C6.1796 14.3105 9.81943 14.3105 12.0649 12.0649C14.3105 9.81943 14.3105 6.1796 12.0649 3.93408ZM7.99951 9.99951C8.55137 9.99951 8.99928 10.4477 8.99951 10.9995C8.99951 11.5515 8.55151 11.9995 7.99951 11.9995C7.44771 11.9993 6.99951 11.5514 6.99951 10.9995C6.99974 10.4479 7.44785 9.99974 7.99951 9.99951ZM8.74951 8.49951H7.24951V3.99951H8.74951V8.49951Z" fill="#FF00FF"/>
</svg>
