<svg width="16" height="16" viewBox="0 0 16 16" fill="none" xmlns="http://www.w3.org/2000/svg">
<path d="M7.36038 1.53652C7.6535 1.0613 8.34494 1.06117 8.63772 1.53652L15.2949 12.3539C15.6028 12.8541 15.2417 13.4986 14.6543 13.4975L1.34085 13.4721C0.754503 13.4709 0.396344 12.8276 0.704129 12.3285L7.36038 1.53652ZM8.00003 10.0004C7.4481 10.0005 7.00003 10.4484 7.00003 11.0004C7.00022 11.5522 7.44821 12.0003 8.00003 12.0004C8.5518 12.0003 8.99984 11.5521 9.00003 11.0004C9.00002 10.4485 8.55192 10.0005 8.00003 10.0004ZM7.25003 8.50039H8.75003V4.50039H7.25003V8.50039Z" fill="#FF00FF"/>
</svg>
