<svg width="16" height="16" viewBox="0 0 16 16" fill="none" xmlns="http://www.w3.org/2000/svg">
<path d="M7.75 0C7.9652 0 8.17013 0.0925311 8.3125 0.253906L8.31445 0.255859C8.31545 0.256994 8.31671 0.258856 8.31836 0.260742C8.32181 0.264683 8.32692 0.270337 8.33301 0.277344C8.34532 0.291526 8.36283 0.312171 8.38477 0.337891C8.42876 0.389475 8.49137 0.463036 8.56543 0.553711C8.713 0.734396 8.91138 0.986403 9.11133 1.26758C9.30935 1.54605 9.51992 1.86806 9.68359 2.1875C9.83425 2.48154 9.99999 2.87597 10 3.26855C9.99997 4.24541 9.36966 5.06457 8.5 5.37012V7H11.75C13.2688 7 14.5 8.23123 14.5 9.75V14.25C14.5 14.6642 14.1642 15 13.75 15H1.75C1.33579 15 1.00001 14.6642 1 14.25V9.75C1.00001 8.23123 2.23123 7 3.75 7H7V5.37012C6.13034 5.06457 5.50003 4.24541 5.5 3.26855C5.50001 2.87597 5.66575 2.48154 5.81641 2.1875C5.98008 1.86806 6.19065 1.54605 6.38867 1.26758C6.58862 0.986403 6.787 0.734396 6.93457 0.553711C7.00863 0.463036 7.07124 0.389475 7.11523 0.337891C7.13717 0.312171 7.15468 0.291526 7.16699 0.277344C7.17308 0.270337 7.17819 0.264683 7.18164 0.260742C7.18329 0.258856 7.18455 0.256994 7.18555 0.255859L7.1875 0.253906L7.24414 0.196289C7.38163 0.0706796 7.56185 0 7.75 0ZM3.75 8.5C3.05965 8.5 2.50001 9.05966 2.5 9.75V13.5H13V9.75C13 9.05966 12.4403 8.5 11.75 8.5H3.75ZM7.61133 2.13672C7.43437 2.38557 7.26991 2.64261 7.15234 2.87207C7.09393 2.98607 7.05267 3.08222 7.02734 3.15918C7.00077 3.24003 7 3.27332 7 3.26855C7.00003 3.66377 7.32701 4 7.75 4C8.17299 4 8.49997 3.66377 8.5 3.26855C8.5 3.27332 8.49923 3.24003 8.47266 3.15918C8.44733 3.08222 8.40607 2.98607 8.34766 2.87207C8.23009 2.64261 8.06563 2.38557 7.88867 2.13672C7.84275 2.07215 7.79533 2.01009 7.75 1.94922C7.70467 2.01009 7.65725 2.07215 7.61133 2.13672Z" fill="#FF00FF"/>
</svg>
