<svg width="16" height="16" viewBox="0 0 16 16" fill="none" xmlns="http://www.w3.org/2000/svg">
<path fill-rule="evenodd" clip-rule="evenodd" d="M8.59766 3.12207C8.65607 3.23608 8.69733 3.33222 8.72266 3.40918C8.74518 3.47772 8.74916 3.51208 8.74986 3.51805C8.74998 3.51912 8.75 3.51928 8.75 3.51855C8.74997 3.91377 8.42299 4.25 8 4.25C7.57701 4.25 7.25003 3.91377 7.25 3.51855C7.25 3.51928 7.25002 3.51912 7.25014 3.51805C7.25084 3.51208 7.25482 3.47772 7.27734 3.40918C7.30267 3.33222 7.34393 3.23608 7.40234 3.12207C7.51991 2.89261 7.68437 2.63557 7.86133 2.38672C7.89523 2.33905 7.92994 2.29276 7.96402 2.24731C7.97612 2.23118 7.98813 2.21516 8 2.19922C8.01187 2.21516 8.02388 2.23118 8.03598 2.24731C8.07006 2.29276 8.10477 2.33905 8.13867 2.38672C8.31563 2.63557 8.48009 2.89261 8.59766 3.12207ZM8.75 5.62012C9.61966 5.31458 10.25 4.49541 10.25 3.51855C10.25 3.12596 10.0843 2.73154 9.93359 2.4375C9.76992 2.11805 9.55936 1.79606 9.36133 1.51758C9.16137 1.2364 8.963 0.9844 8.81543 0.803711C8.74137 0.713029 8.67876 0.639477 8.63477 0.587891C8.62916 0.581318 8.62384 0.575077 8.61883 0.569191C8.60422 0.552041 8.59218 0.537904 8.58301 0.527344L8.56836 0.510742C8.56743 0.509684 8.56663 0.508637 8.56593 0.507721C8.56538 0.507 8.56489 0.50636 8.56445 0.505859L8.5625 0.503906C8.42013 0.342522 8.21521 0.25 8 0.25C7.81185 0.25 7.63163 0.320673 7.49414 0.446289L7.4375 0.503906L7.43555 0.505859C7.43511 0.50636 7.43462 0.507 7.43407 0.507721C7.43337 0.508637 7.43257 0.509684 7.43164 0.510742L7.41699 0.527344C7.40782 0.537904 7.39578 0.552041 7.38117 0.569191C7.37616 0.575077 7.37084 0.581318 7.36523 0.587891C7.32124 0.639477 7.25863 0.713029 7.18457 0.803711C7.037 0.9844 6.83863 1.2364 6.63867 1.51758C6.44064 1.79606 6.23008 2.11805 6.06641 2.4375C5.91575 2.73154 5.75 3.12596 5.75 3.51855C5.75003 4.49541 6.38034 5.31458 7.25 5.62012V7.74997H4C2.61929 7.74997 1.5 8.86926 1.5 10.25V14.5C1.5 14.7761 1.72386 15 2 15H14C14.2761 15 14.5 14.7761 14.5 14.5V10.25C14.5 8.86926 13.3807 7.74997 12 7.74997H8.75V5.62012Z" fill="#FF00FF"/>
</svg>
