<svg width="16" height="16" viewBox="0 0 16 16" fill="none" xmlns="http://www.w3.org/2000/svg">
<path d="M2.75 2.25L13 2.25L13.2305 2.26172C14.3648 2.37714 15.25 3.33517 15.25 4.5L15.25 11.5C15.25 12.7426 14.2426 13.75 13 13.75L2.75 13.75L2.75 14.5L1.25 14.5L1.25 1.5L2.75 1.5L2.75 2.25ZM2.75 12.25L13 12.25C13.4142 12.25 13.75 11.9142 13.75 11.5L13.75 4.5C13.75 4.11183 13.4551 3.79253 13.0771 3.75391L13 3.75L2.75 3.75L2.75 12.25ZM6.75 6C6.88807 6 7 6.11193 7 6.25L7 7.75C7 7.88807 6.88807 8 6.75 8L4.75 8C4.61193 8 4.5 7.88807 4.5 7.75L4.5 6.25C4.5 6.11193 4.61193 6 4.75 6L6.75 6Z" fill="#FF00FF"/>
</svg>
