<svg width="16" height="16" viewBox="0 0 16 16" fill="none" xmlns="http://www.w3.org/2000/svg">
<path d="M6.26074 1.99121C8.13894 0.281193 11.0405 0.338354 12.8506 2.16211C14.6576 3.98301 14.7148 6.89794 13.0205 8.78711L12.8506 8.96582L7.62207 14.2344C6.32065 15.5457 4.2343 15.5868 2.88379 14.3574L2.75488 14.2344C1.41506 12.8839 1.41501 10.6971 2.75488 9.34668L7.9834 4.07812L8.14258 3.93262C8.96593 3.2561 10.1829 3.30501 10.9502 4.07812C11.7142 4.84831 11.7615 6.06481 11.0928 6.89062L10.9502 7.05078L5.72168 12.3193L5.18848 11.791L4.65625 11.2627L9.88477 5.99414L9.96191 5.89844C10.116 5.66281 10.0902 5.3418 9.88477 5.13477C9.68212 4.93059 9.37139 4.90461 9.1416 5.05762L9.04883 5.13477L3.82031 10.4033C3.06046 11.169 3.06046 12.4121 3.82031 13.1777L3.9668 13.3125C4.7276 13.938 5.84821 13.8926 6.55762 13.1777L11.7861 7.90918L11.9033 7.78613C13.0702 6.48457 13.0308 4.473 11.7861 3.21875C10.5444 1.96759 8.55776 1.92848 7.26953 3.10156L7.14746 3.21875L6.43457 3.9375L5.90137 3.40918L5.36914 2.88086L6.08203 2.16211L6.26074 1.99121Z" fill="#FF00FF"/>
</svg>
