<svg width="16" height="16" viewBox="0 0 16 16" fill="none" xmlns="http://www.w3.org/2000/svg">
<path d="M8 8.25C9.68057 8.25 11.114 8.97158 12.1211 9.9668C13.1155 10.9496 13.75 12.257 13.75 13.5C13.75 13.9142 13.4142 14.25 13 14.25H3C2.58579 14.25 2.25 13.9142 2.25 13.5C2.25 12.257 2.8845 10.9496 3.87891 9.9668C4.88598 8.97158 6.31943 8.25 8 8.25ZM8 9.75C6.76402 9.75 5.69734 10.2785 4.93359 11.0332C4.39896 11.5615 4.03923 12.1733 3.86719 12.75H12.1328C11.9608 12.1733 11.601 11.5615 11.0664 11.0332C10.3027 10.2785 9.23598 9.75 8 9.75ZM8 1.75C9.51878 1.75 10.75 2.98122 10.75 4.5C10.75 6.01878 9.51878 7.25 8 7.25C6.48122 7.25 5.25 6.01878 5.25 4.5C5.25 2.98122 6.48122 1.75 8 1.75ZM8 3.25C7.30964 3.25 6.75 3.80964 6.75 4.5C6.75 5.19036 7.30964 5.75 8 5.75C8.69036 5.75 9.25 5.19036 9.25 4.5C9.25 3.80964 8.69036 3.25 8 3.25Z" fill="#FF00FF"/>
</svg>
