<svg width="16" height="16" viewBox="0 0 16 16" fill="none" xmlns="http://www.w3.org/2000/svg">
<path d="M8 0.75C12.0041 0.75 15.25 3.99594 15.25 8C15.25 12.0041 12.0041 15.25 8 15.25C3.99594 15.25 0.75 12.0041 0.75 8C0.75 3.99594 3.99594 0.75 8 0.75ZM8 2.25C4.82436 2.25 2.25 4.82436 2.25 8C2.25 11.1756 4.82436 13.75 8 13.75C11.1756 13.75 13.75 11.1756 13.75 8C13.75 4.82436 11.1756 2.25 8 2.25ZM7.39648 3.50977V4.89746H8.76562C10.1786 4.89754 11.1621 5.65065 11.1621 6.98242C11.162 7.48435 10.8846 7.9861 10.5205 8.2998C11.1104 8.65538 11.497 9.28301 11.4971 9.99414C11.4971 11.0819 10.5938 11.968 9.46484 12.0029H6.15723C6.02637 11.9889 5.94629 11.9187 5.94629 11.7725V6.62598L6.92969 6.28516H4.49707V4.89062H5.9541V3.50977H7.39648ZM7.38867 6.24316V10.3496C7.39596 10.496 7.48367 10.5732 7.62207 10.5732H9.45703C9.87222 10.5384 10.2002 10.2033 10.2002 9.79883C10.2 9.36672 9.83617 9.01866 9.38477 9.01855H8.70703C8.56869 9.01852 8.47408 8.94118 8.4668 8.80176V7.92383C8.4668 7.79837 8.54682 7.70711 8.69238 7.70703L8.96191 7.69336C9.37711 7.69336 9.71191 7.3651 9.71191 6.97461C9.71166 6.58431 9.37695 6.24316 8.96191 6.24316H7.38867ZM5.9541 3.50977H5.94629L5.9541 3.50293V3.50977Z" fill="#FF00FF"/>
</svg>
