<svg width="16" height="16" viewBox="0 0 16 16" fill="none" xmlns="http://www.w3.org/2000/svg">
<path fill-rule="evenodd" clip-rule="evenodd" d="M12.8179 1.27209C13.1747 1.1829 13.5437 1.366 13.689 1.70373L15.5591 6.06702C15.7454 6.50157 15.6935 7.11016 15.2115 7.48108C14.5777 7.96839 13.7708 8.19006 12.9996 8.19006C12.2286 8.18992 11.4223 7.96831 10.7886 7.48108C10.3068 7.11013 10.2548 6.5015 10.441 6.06702L11.7144 3.09338L8.74958 3.83459V13.2496H10.9996V14.7496H4.99958V13.2496H7.24958V4.20959L4.03571 5.0133L5.56013 8.56994C5.74579 9.00318 5.69326 9.60027 5.22907 9.97326C3.9777 10.9784 2.02131 10.9787 0.770086 9.97326C0.306438 9.60028 0.253507 9.00299 0.439032 8.56994L2.31013 4.20373C2.40245 3.98864 2.59089 3.82901 2.81794 3.77209L12.8179 1.27209ZM1.91169 8.94006C2.55066 9.31941 3.44701 9.31967 4.08649 8.94104L2.99958 6.40393L1.91169 8.94006ZM11.9175 6.42932C12.22 6.59483 12.5985 6.68995 12.9996 6.69006C13.4006 6.69006 13.7791 6.59472 14.0816 6.42932L12.9996 3.90393L11.9175 6.42932Z" fill="#FF00FF"/>
</svg>
