<svg width="16" height="16" viewBox="0 0 16 16" fill="none" xmlns="http://www.w3.org/2000/svg">
<path d="M7.75 2.25C9.78975 2.25 11.4717 3.77692 11.7178 5.75H11.75C13.9591 5.75 15.75 7.54086 15.75 9.75C15.75 11.9591 13.9591 13.75 11.75 13.75H8.25C6.21025 13.75 4.52835 12.2231 4.28223 10.25H4.25C2.04086 10.25 0.25 8.45914 0.25 6.25C0.25 4.04086 2.04086 2.25 4.25 2.25H7.75ZM11.624 7.25C11.18 8.97523 9.61384 10.25 7.75 10.25H5.7998C6.03142 11.3911 7.04051 12.25 8.25 12.25H11.75C13.1307 12.25 14.25 11.1307 14.25 9.75C14.25 8.36929 13.1307 7.25 11.75 7.25H11.624ZM8.25 7.25C7.22512 7.25 6.3459 7.86743 5.95996 8.75H7.75C8.77488 8.75 9.6541 8.13257 10.04 7.25H8.25ZM4.25 3.75C2.86929 3.75 1.75 4.86929 1.75 6.25C1.75 7.63071 2.86929 8.75 4.25 8.75H4.37598C4.82002 7.02477 6.38616 5.75 8.25 5.75H10.2002C9.96858 4.60886 8.95949 3.75 7.75 3.75H4.25Z" fill="#FF00FF"/>
</svg>
