<svg width="16" height="16" viewBox="0 0 16 16" fill="none" xmlns="http://www.w3.org/2000/svg">
<path d="M7.68164 1.82129C7.91671 1.71096 8.19551 1.729 8.41602 1.87598L14.416 5.87598L14.5117 5.95215C14.718 6.1447 14.8016 6.44104 14.7178 6.71777C14.6219 7.03386 14.3304 7.25 14 7.25H13.25V12.75H14.5V14.25H1.5V12.75H2.75V7.25H2C1.66967 7.24997 1.37812 7.03385 1.28223 6.71777C1.18647 6.40147 1.30902 6.05931 1.58398 5.87598L7.58398 1.87598L7.68164 1.82129ZM8.75 7.25V12.75H11.75V7.25H8.75ZM4.25 12.75H7.25V7.25H4.25V12.75ZM4.47656 5.75H11.5234L8 3.40137L4.47656 5.75Z" fill="#FF00FF"/>
</svg>
