<svg width="16" height="16" viewBox="0 0 16 16" fill="none" xmlns="http://www.w3.org/2000/svg">
<path d="M13.0859 1.25488C13.284 1.27782 13.4666 1.37917 13.5908 1.53809C13.7152 1.69744 13.7692 1.89955 13.7432 2.09766L13.7275 2.18164C13.0892 4.73522 13.25 6.95045 13.25 8H11.75C11.75 7.1574 11.6149 5.13494 12.0684 2.75H3.57324C3.14701 4.51289 3.3506 6.05858 3.61523 7.75977C3.86865 9.38888 4.17707 11.163 3.8916 13.25H7.5V14.75H3C2.77368 14.7499 2.55831 14.6477 2.41602 14.4717C2.27382 14.2956 2.21921 14.0641 2.2666 13.8428L2.34473 13.4385C2.69463 11.4406 2.40939 9.76191 2.13379 7.99023C1.84123 6.10952 1.56163 4.12445 2.2832 1.7793L2.32812 1.66602C2.45315 1.41444 2.71224 1.25018 3 1.25H13L13.0859 1.25488ZM15.5605 9.99805L11.5605 14.498C11.4137 14.6632 11.2014 14.7557 10.9805 14.75C10.7596 14.7442 10.5521 14.6413 10.4141 14.4688L8.41406 11.9688L9.58594 11.0312L11.0303 12.8369L14.4395 9.00195L15.5605 9.99805Z" fill="#FF00FF"/>
</svg>
