<svg width="16" height="16" viewBox="0 0 16 16" fill="none" xmlns="http://www.w3.org/2000/svg">
<path d="M11.0977 7.95117L11.8359 8.08203C11.6657 9.03784 11.2284 10.3586 10.6865 11.6123C10.1473 12.8599 9.46735 14.1289 8.77734 14.9443L7.63281 13.9756C8.17996 13.3289 8.78982 12.2201 9.30957 11.0176C9.82668 9.82113 10.2171 8.61812 10.3594 7.81934L11.0977 7.95117ZM6.67578 1.05859C10.2325 0.663404 12.5224 2.35281 13.5449 3.77344C14.4846 5.07924 14.8915 6.67944 14.6904 8.25977L14.6416 8.57617C14.4019 9.90951 13.7418 11.7532 13.2344 12.9453L12.5439 12.6514L11.8545 12.3574C12.3459 11.2028 12.9548 9.47982 13.165 8.31055C13.394 7.03217 13.0945 5.71551 12.3271 4.64941C11.5796 3.6109 9.79321 2.22105 6.8418 2.54883L6.67578 1.05859ZM7.76172 3.89062C9.43455 3.67337 10.9623 4.5567 11.7686 6.16895L11.0977 6.50488L10.4268 6.83984C9.877 5.74054 8.93347 5.24748 7.94141 5.37988L7.74219 5.41504C7.30856 5.509 6.93191 5.77123 6.57617 6.21191C6.21332 6.66146 5.90315 7.25941 5.60645 7.95215C5.2976 8.67325 5.0623 9.34452 4.75879 10.0898C4.47723 10.7813 4.15402 11.4872 3.73438 12.0273L3.14258 11.5664L2.55078 11.1064C2.83358 10.7423 3.09279 10.2054 3.37012 9.52441C3.62555 8.89715 3.92613 8.06506 4.22754 7.36133C4.54101 6.62946 4.91575 5.88079 5.40918 5.26953C5.90971 4.64949 6.5613 4.13626 7.4248 3.94922L7.76172 3.89062ZM8.33594 6.85059C8.71809 6.91835 8.98104 7.26467 8.95312 7.64355L8.94336 7.71973C8.8397 8.305 8.48745 9.12774 8.14551 9.84375C7.79 10.5881 7.39557 11.318 7.14941 11.7559L6.49609 11.3877L5.8418 11.0205C6.07735 10.6015 6.45512 9.90264 6.79199 9.19727C7.14238 8.46357 7.40366 7.81446 7.4668 7.45801L7.4834 7.38379C7.58709 7.01806 7.95358 6.78298 8.33594 6.85059ZM5.3125 2.52734L5.64746 3.19824C4.77498 3.63465 4.14528 4.45945 3.63281 5.48438C3.10657 6.53695 2.78783 7.60366 2.39258 8.5918L1.69629 8.3125L1 8.03418C1.32785 7.2145 1.73269 5.93022 2.29102 4.81348C2.8632 3.66911 3.67993 2.50492 4.97656 1.85645L5.3125 2.52734Z" fill="#FF00FF"/>
</svg>
