<svg width="16" height="16" viewBox="0 0 16 16" fill="none" xmlns="http://www.w3.org/2000/svg">
<path d="M3.25 12.75H6V14.25H2.5C2.08579 14.25 1.75 13.9142 1.75 13.5V10H3.25V12.75ZM14.25 13.5C14.25 13.9142 13.9142 14.25 13.5 14.25H10V12.75H12.75V10H14.25V13.5ZM10.6709 9.66895C10.1688 10.6714 9.1889 11.416 8 11.416C6.8111 11.416 5.8312 10.6714 5.3291 9.66895L6.6709 8.99707C6.96724 9.58869 7.47969 9.91602 8 9.91602C8.52031 9.91602 9.03276 9.58869 9.3291 8.99707L10.6709 9.66895ZM6 3.25H3.25V6H1.75V2.5L1.75391 2.42285C1.79253 2.04488 2.11183 1.75 2.5 1.75H6V3.25ZM13.5771 1.75391C13.9551 1.79253 14.25 2.11183 14.25 2.5V6H12.75V3.25H10V1.75H13.5L13.5771 1.75391Z" fill="#FF00FF"/>
</svg>
