<svg width="16" height="16" viewBox="0 0 16 16" fill="none" xmlns="http://www.w3.org/2000/svg">
<path d="M2.87256 2.87256C5.70372 0.041402 10.2951 0.0416864 13.1265 2.87256C15.9578 5.70386 15.9578 10.2952 13.1265 13.1265C10.2952 15.9578 5.70386 15.9578 2.87256 13.1265C0.041686 10.2951 0.041401 5.70372 2.87256 2.87256ZM4.49951 12.5601C6.75431 14.295 9.99921 14.1307 12.0649 12.0649C14.1307 9.9992 14.295 6.75431 12.5601 4.49951L4.49951 12.5601ZM11.4985 3.43799C9.2438 1.7043 5.99934 1.86882 3.93408 3.93408C1.86882 5.99934 1.7043 9.2438 3.43799 11.4985L11.4985 3.43799Z" fill="#FF00FF"/>
</svg>
