<svg width="16" height="16" viewBox="0 0 16 16" fill="none" xmlns="http://www.w3.org/2000/svg">
<path d="M13.5303 3.46973C13.6709 3.61036 13.75 3.80111 13.75 4C13.75 4.14914 13.7055 4.29373 13.624 4.41602L13.5303 4.53027L10.5303 7.53027L9.46973 6.46973L11.1895 4.75H5.5C4.78756 4.75 4.2982 4.75026 3.91895 4.78125C3.64074 4.80399 3.45934 4.84156 3.3252 4.88965L3.20508 4.94043C2.91701 5.08726 2.67592 5.31084 2.50781 5.58496L2.44043 5.70508C2.36705 5.8491 2.31152 6.04855 2.28125 6.41895C2.25026 6.79819 2.25 7.28759 2.25 8V9C2.25 9.71241 2.25027 10.2018 2.28125 10.5811C2.31152 10.9515 2.36706 11.1509 2.44043 11.2949L2.50781 11.415C2.67591 11.6892 2.917 11.9127 3.20508 12.0596L3.3252 12.1113C3.45931 12.1594 3.64095 12.196 3.91895 12.2188C4.2982 12.2497 4.78756 12.25 5.5 12.25H10.5C11.2124 12.25 11.7018 12.2497 12.0811 12.2188C12.4515 12.1885 12.6509 12.133 12.7949 12.0596L12.915 11.9922C13.1892 11.8241 13.4127 11.583 13.5596 11.2949L13.6104 11.1748C13.6584 11.0407 13.696 10.8592 13.7188 10.5811C13.7497 10.2018 13.75 9.71241 13.75 9V8H15.25V9C15.25 9.68766 15.251 10.2486 15.2139 10.7031C15.1808 11.1083 15.1141 11.4791 14.9648 11.8271L14.8955 11.9756C14.6229 12.5106 14.2083 12.9583 13.6992 13.2705L13.4756 13.3955C13.0849 13.5946 12.6664 13.676 12.2031 13.7139C11.7486 13.751 11.1877 13.75 10.5 13.75H5.5C4.81231 13.75 4.25138 13.751 3.79688 13.7139C3.39166 13.6808 3.02093 13.6141 2.67285 13.4648L2.52441 13.3955C1.98939 13.1228 1.54172 12.7083 1.22949 12.1992L1.10449 11.9756C0.905419 11.5849 0.823982 11.1664 0.786133 10.7031C0.749003 10.2486 0.75 9.68766 0.75 9V8C0.75 7.31234 0.748999 6.75137 0.786133 6.29688C0.823986 5.83365 0.905411 5.41513 1.10449 5.02441L1.22949 4.80078C1.54172 4.29171 1.98939 3.87715 2.52441 3.60449L2.67285 3.53516C3.02093 3.38592 3.39166 3.31924 3.79688 3.28613C4.25138 3.249 4.81231 3.25 5.5 3.25H11.1895L9.46973 1.53027L10.5303 0.469727L13.5303 3.46973Z" fill="#FF00FF"/>
</svg>
