<svg width="16" height="16" viewBox="0 0 16 16" fill="none" xmlns="http://www.w3.org/2000/svg">
<path d="M3.74951 7.5C3.74951 9.84704 5.65252 11.7497 7.99951 11.75C10.3467 11.75 12.2495 9.84719 12.2495 7.5V7H13.7495V7.5C13.7495 10.4213 11.5706 12.8316 8.74951 13.1992V15.5H7.24951V13.1992C4.42863 12.8314 2.24951 10.4212 2.24951 7.5V7H3.74951V7.5ZM7.99951 0.75C9.51822 0.750023 10.7494 1.98131 10.7495 3.5V7.5C10.7495 9.01877 9.51828 10.25 7.99951 10.25C6.48096 10.2497 5.24953 9.0186 5.24951 7.5V3.5C5.2496 1.98145 6.481 0.750245 7.99951 0.75ZM7.99951 2.25C7.30942 2.25024 6.7496 2.80987 6.74951 3.5V7.5C6.74953 8.19018 7.30938 8.74974 7.99951 8.75C8.68986 8.75 9.2495 8.19034 9.24951 7.5V3.5C9.24942 2.80973 8.6898 2.25001 7.99951 2.25Z" fill="#FF00FF"/>
</svg>
