<svg width="16" height="16" viewBox="0 0 16 16" fill="none" xmlns="http://www.w3.org/2000/svg">
<path fill-rule="evenodd" clip-rule="evenodd" d="M7.62363 1.93015C7.82284 1.70248 8.17735 1.70248 8.37656 1.93015L11.2115 5.17038C11.3765 5.35889 11.3765 5.64105 11.2115 5.82956L8.43808 8.99948H14.1373C14.5214 8.99948 14.7618 9.41518 14.5709 9.74851L12.4244 13.4966C12.2462 13.8076 11.9148 13.9995 11.5562 13.9995H4.44297C4.08458 13.9994 3.7539 13.8076 3.57578 13.4966L1.42832 9.74851C1.23744 9.41518 1.47877 8.99948 1.86289 8.99948H7.56211L4.78769 5.82956C4.62275 5.64105 4.62274 5.35889 4.78769 5.17038L7.62363 1.93015Z" fill="#FF00FF"/>
</svg>
