<svg width="16" height="16" viewBox="0 0 16 16" fill="none" xmlns="http://www.w3.org/2000/svg">
<path fill-rule="evenodd" clip-rule="evenodd" d="M9.5 1.75C10.4665 1.75 11.25 2.5335 11.25 3.5V4.5H13C14.1046 4.5 15 5.39543 15 6.5V11.5C15 12.6046 14.1046 13.5 13 13.5H3C1.89543 13.5 1 12.6046 1 11.5V6.5C1 5.39543 1.89543 4.5 3 4.5H4.75V3.5C4.75 2.5335 5.5335 1.75 6.5 1.75H9.5ZM12.0098 6.87207C12.0012 6.87732 11.9861 6.88712 11.9648 6.89941C11.9222 6.9241 11.8543 6.96141 11.7637 7.00781C11.5817 7.10092 11.3075 7.22864 10.9541 7.35742C10.2461 7.61539 9.22827 7.87498 8 7.875C6.77181 7.87498 5.75386 7.61537 5.0459 7.35742C4.69265 7.22869 4.41825 7.1009 4.23633 7.00781C4.14564 6.9614 4.07781 6.92409 4.03516 6.89941C4.01391 6.88712 3.99887 6.87735 3.99023 6.87207C3.98618 6.8696 3.98242 6.86816 3.98242 6.86816L3.1748 8.13184L3.17578 8.13281L3.17871 8.13477C3.1807 8.13599 3.18374 8.13693 3.18652 8.13867C3.19225 8.14225 3.19991 8.1468 3.20898 8.15234C3.22734 8.16355 3.25245 8.17891 3.28418 8.19727C3.34778 8.23406 3.43771 8.28488 3.55273 8.34375C3.78289 8.46152 4.11408 8.6152 4.53223 8.76758C5.36793 9.07207 6.56133 9.37498 8 9.375C9.43875 9.37498 10.6321 9.07209 11.4678 8.76758C11.886 8.61517 12.2171 8.46154 12.4473 8.34375C12.5623 8.28489 12.6522 8.23407 12.7158 8.19727C12.7476 8.17888 12.7736 8.16355 12.792 8.15234C12.8009 8.14688 12.8088 8.1422 12.8145 8.13867C12.817 8.1371 12.8195 8.13593 12.8213 8.13477L12.8242 8.13281L12.8252 8.13184L12.0166 6.86816L12.0098 6.87207ZM6.5 3.25C6.36193 3.25 6.25 3.36193 6.25 3.5V4.5H9.75V3.5C9.75 3.36193 9.63807 3.25 9.5 3.25H6.5Z" fill="#FF00FF"/>
</svg>
