<svg width="16" height="16" viewBox="0 0 16 16" fill="none" xmlns="http://www.w3.org/2000/svg">
<path d="M9.33398 1.91699C10.3002 1.91734 11.084 2.70071 11.084 3.66699V4.75H13.5C14.4665 4.75 15.25 5.5335 15.25 6.5V12C15.25 12.9665 14.4665 13.75 13.5 13.75H2.5C1.5335 13.75 0.75 12.9665 0.75 12V6.5C0.75 5.5335 1.5335 4.75 2.5 4.75H4.91699V3.66699C4.91699 2.70049 5.70049 1.91699 6.66699 1.91699H9.33398ZM2.5 6.25C2.36193 6.25 2.25 6.36193 2.25 6.5V12C2.25 12.1381 2.36193 12.25 2.5 12.25H13.5C13.6381 12.25 13.75 12.1381 13.75 12V6.5C13.75 6.36193 13.6381 6.25 13.5 6.25H2.5ZM12.3994 8.63477L12.3975 8.63574L12.3955 8.6377C12.3937 8.63885 12.3913 8.64001 12.3887 8.6416C12.3832 8.64494 12.3757 8.64918 12.3672 8.6543C12.3501 8.66453 12.3271 8.67869 12.2979 8.69531C12.2393 8.72858 12.156 8.77325 12.0508 8.82617C11.8404 8.93194 11.5383 9.06965 11.1572 9.20605C10.3957 9.47862 9.3097 9.75 8 9.75C6.6903 9.75 5.60427 9.47862 4.84277 9.20605C4.46173 9.06965 4.15963 8.93194 3.94922 8.82617C3.84395 8.77325 3.76068 8.72858 3.70215 8.69531C3.67291 8.67869 3.64988 8.66453 3.63281 8.6543C3.62427 8.64918 3.61675 8.64494 3.61133 8.6416C3.60875 8.64001 3.60635 8.63885 3.60449 8.6377L3.60254 8.63574L3.60059 8.63477L4.39941 7.36523C4.40055 7.36592 4.40227 7.36695 4.4043 7.36816C4.41164 7.37256 4.42479 7.38007 4.44336 7.39062C4.48098 7.41201 4.54105 7.44559 4.62207 7.48633C4.78457 7.56802 5.0306 7.68044 5.34766 7.79395C5.98285 8.02134 6.89678 8.25 8 8.25C9.10322 8.25 10.0171 8.02134 10.6523 7.79395C10.9694 7.68044 11.2154 7.56802 11.3779 7.48633C11.459 7.44559 11.519 7.41201 11.5566 7.39062C11.5752 7.38007 11.5884 7.37256 11.5957 7.36816L11.6006 7.36523L12.3994 8.63477ZM6.66699 3.41699C6.52892 3.41699 6.41699 3.52892 6.41699 3.66699V4.75H9.58398V3.66699C9.58398 3.52914 9.47176 3.41734 9.33398 3.41699H6.66699Z" fill="#FF00FF"/>
</svg>
