<svg width="16" height="16" viewBox="0 0 16 16" fill="none" xmlns="http://www.w3.org/2000/svg">
<path d="M9.5 1.75C10.4665 1.75 11.25 2.5335 11.25 3.5V4.75H13.5C14.4665 4.75 15.25 5.5335 15.25 6.5V9.5H13.75V6.5C13.75 6.36193 13.6381 6.25 13.5 6.25H2.5C2.36193 6.25 2.25 6.36193 2.25 6.5V12C2.25 12.1381 2.36193 12.25 2.5 12.25H3.25V13.75H2.5C1.5335 13.75 0.75 12.9665 0.75 12V6.5C0.75 5.5335 1.5335 4.75 2.5 4.75H4.75V3.5C4.75 2.5335 5.5335 1.75 6.5 1.75H9.5ZM6.25 13.75H4.75V11H6.25V13.75ZM9.25 13.75H7.75V8H9.25V13.75ZM12.25 13.75H10.75V9.66699H12.25V13.75ZM15.25 13.75H13.75V11H15.25V13.75ZM6.5 3.25C6.36193 3.25 6.25 3.36193 6.25 3.5V4.75H9.75V3.5C9.75 3.36193 9.63807 3.25 9.5 3.25H6.5Z" fill="#FF00FF"/>
</svg>
