<svg width="16" height="16" viewBox="0 0 16 16" fill="none" xmlns="http://www.w3.org/2000/svg">
<path d="M13 3.50024C14.1046 3.50024 15 4.39567 15 5.50024V10.5002C14.9998 11.6047 14.1045 12.5002 13 12.5002H3C1.89554 12.5002 1.00018 11.6047 1 10.5002V5.50024C1 4.39567 1.89543 3.50024 3 3.50024H13ZM8 5.00024C6.34315 5.00024 5 6.34339 5 8.00024C5.00018 9.65695 6.34325 11.0002 8 11.0002C9.65675 11.0002 10.9998 9.65695 11 8.00024C11 6.34339 9.65685 5.00024 8 5.00024ZM8 6.25024C8.9665 6.25024 9.75 7.03375 9.75 8.00024C9.74982 8.96659 8.96639 9.75024 8 9.75024C7.03361 9.75024 6.25018 8.96659 6.25 8.00024C6.25 7.03375 7.0335 6.25024 8 6.25024ZM8 0.583252C8.79591 0.583252 9.40993 0.782935 9.83496 0.995361C10.0463 1.10101 10.21 1.20976 10.3252 1.29614C10.3827 1.33927 10.4288 1.37669 10.4629 1.40649C10.48 1.42143 10.4936 1.43499 10.5049 1.44556C10.5104 1.45074 10.5154 1.45522 10.5195 1.45923C10.5216 1.46123 10.5237 1.46339 10.5254 1.46509C10.5262 1.46591 10.5276 1.46629 10.5283 1.46704L10.5293 1.46899H10.5303C10.5304 1.46942 10.521 1.47927 10 2.00024C9.48899 2.51126 9.47015 2.52961 9.46973 2.53052L9.47363 2.53442C9.47457 2.53534 9.47586 2.53569 9.47656 2.53638C9.47813 2.53789 9.47906 2.5389 9.47949 2.53931C9.48035 2.54011 9.47837 2.53869 9.47461 2.5354C9.46693 2.52869 9.45015 2.51437 9.4248 2.49536C9.37331 2.45677 9.28669 2.398 9.16504 2.33716C8.92342 2.21635 8.53709 2.08325 8 2.08325C7.46291 2.08325 7.07658 2.21635 6.83496 2.33716C6.71331 2.398 6.62669 2.45677 6.5752 2.49536C6.54985 2.51437 6.53307 2.52869 6.52539 2.5354C6.52163 2.53869 6.51965 2.54011 6.52051 2.53931C6.52094 2.5389 6.52187 2.53789 6.52344 2.53638C6.52414 2.53569 6.52543 2.53534 6.52637 2.53442L6.53027 2.53052C6.52985 2.52961 6.51101 2.51126 6 2.00024C5.47903 1.47927 5.46963 1.46942 5.46973 1.46899H5.4707L5.47168 1.46704C5.47243 1.46629 5.47377 1.46591 5.47461 1.46509C5.47633 1.46339 5.4784 1.46123 5.48047 1.45923C5.48461 1.45522 5.48959 1.45074 5.49512 1.44556C5.50639 1.43499 5.52004 1.42143 5.53711 1.40649C5.57117 1.37669 5.61732 1.33927 5.6748 1.29614C5.78998 1.20976 5.95374 1.10101 6.16504 0.995361C6.59007 0.782935 7.20409 0.583252 8 0.583252Z" fill="#FF00FF"/>
</svg>
