<svg width="16" height="16" viewBox="0 0 16 16" fill="none" xmlns="http://www.w3.org/2000/svg">
<path d="M13.5039 2.75C14.4061 2.75 14.8469 3.85071 14.1943 4.47363L5.43457 12.835C5.15564 13.1012 4.785 13.2499 4.39941 13.25H2.75C1.92157 13.25 1.25 12.5784 1.25 11.75V4.25C1.25 3.42157 1.92157 2.75 2.75 2.75H13.5039ZM8.95508 10.5771C9.43099 10.0615 10.2114 10.0527 10.6982 10.5576C11.1849 11.0625 11.1936 11.8896 10.7178 12.4053C10.0999 13.0749 8.48708 13.1932 8 12.6885C8.73539 12.2881 8.47917 11.0929 8.95508 10.5771ZM15.3779 5.10059C15.5232 4.96381 15.7476 4.96702 15.8887 5.1084C16.0297 5.24986 16.0376 5.48005 15.9072 5.63184L12.0557 10.1152C11.8694 10.332 11.5434 10.3444 11.3418 10.1426L11.0762 9.87598C10.8749 9.67391 10.8795 9.34009 11.0869 9.14453L15.3779 5.10059ZM4.25 5.5C4.11193 5.5 4 5.61193 4 5.75V7.25C4 7.38807 4.11193 7.5 4.25 7.5H6.25C6.38807 7.5 6.5 7.38807 6.5 7.25V5.75C6.5 5.61193 6.38807 5.5 6.25 5.5H4.25Z" fill="#FF00FF"/>
</svg>
