<svg width="16" height="16" viewBox="0 0 16 16" fill="none" xmlns="http://www.w3.org/2000/svg">
<path d="M13 2.25C14.2426 2.25 15.25 3.25736 15.25 4.5V11.5C15.25 12.7426 14.2426 13.75 13 13.75H3C1.75736 13.75 0.75 12.7426 0.75 11.5V4.5C0.75 3.25736 1.75736 2.25 3 2.25H13ZM3 3.75C2.58579 3.75 2.25 4.08579 2.25 4.5V11.5C2.25 11.9142 2.58579 12.25 3 12.25H13C13.4142 12.25 13.75 11.9142 13.75 11.5V4.5C13.75 4.08579 13.4142 3.75 13 3.75H3ZM8.5 10.25H4V8.75H8.5V10.25ZM12 10.25H10V8.75H12V10.25Z" fill="#FF00FF"/>
</svg>
