<svg width="16" height="16" viewBox="0 0 16 16" fill="none" xmlns="http://www.w3.org/2000/svg">
<path d="M12.0303 7.03027L11.3105 7.75L12.25 7.75C14.183 7.75 15.75 9.317 15.75 11.25C15.75 13.183 14.183 14.75 12.25 14.75C11.163 14.75 10.1915 14.2533 9.55078 13.4775C9.05121 12.8726 8.75 12.0955 8.75 11.25H10.25C10.25 11.7342 10.4213 12.1764 10.707 12.5225C11.0751 12.968 11.6292 13.25 12.25 13.25C13.3546 13.25 14.25 12.3546 14.25 11.25C14.25 10.1454 13.3546 9.25 12.25 9.25L11.3105 9.25L12.0303 9.96973L10.9697 11.0303L8.96973 9.03027C8.67683 8.73738 8.67683 8.26262 8.96973 7.96973L10.9697 5.96973L12.0303 7.03027ZM13 2.25C14.2426 2.25 15.25 3.25736 15.25 4.5V6H13.75V4.5C13.75 4.08579 13.4142 3.75 13 3.75L3 3.75C2.58579 3.75 2.25 4.08579 2.25 4.5L2.25 11.5C2.25 11.9142 2.58579 12.25 3 12.25H7L7 13.75H3C1.75736 13.75 0.75 12.7426 0.75 11.5L0.75 4.5C0.75 3.25736 1.75736 2.25 3 2.25L13 2.25Z" fill="#FF00FF"/>
</svg>
