<svg width="16" height="16" viewBox="0 0 16 16" fill="none" xmlns="http://www.w3.org/2000/svg">
<path d="M8 3.75H3C2.5858 3.75 2.25002 4.0858 2.25 4.5V11.5C2.25 11.9142 2.58579 12.25 3 12.25H13C13.4142 12.25 13.75 11.9142 13.75 11.5V8H15.25V11.5C15.25 12.7426 14.2426 13.75 13 13.75H3C1.75736 13.75 0.75 12.7426 0.75 11.5V4.5C0.750016 3.25737 1.75737 2.25 3 2.25H8V3.75ZM12.4414 1.24219C12.5287 0.919319 12.987 0.919202 13.0742 1.24219L13.543 2.9834C13.5733 3.09619 13.6616 3.18448 13.7744 3.21484L15.5146 3.68359C15.838 3.77066 15.838 4.22934 15.5146 4.31641L13.7744 4.78516C13.6616 4.81552 13.5733 4.90381 13.543 5.0166L13.0742 6.75781C12.987 7.0808 12.5287 7.08068 12.4414 6.75781L11.9727 5.0166C11.9423 4.90388 11.8539 4.81557 11.7412 4.78516L10 4.31641C9.67664 4.22933 9.67664 3.77067 10 3.68359L11.7412 3.21484C11.8539 3.18443 11.9423 3.09612 11.9727 2.9834L12.4414 1.24219Z" fill="#FF00FF"/>
</svg>
