<svg width="16" height="16" viewBox="0 0 16 16" fill="none" xmlns="http://www.w3.org/2000/svg">
<g clip-path="url(#clip0_10708_2975)">
<path d="M8.25 3.75H3C2.58579 3.75 2.25001 4.08579 2.25 4.5V11.5C2.25002 11.9142 2.5858 12.25 3 12.25H13C13.4142 12.25 13.75 11.9142 13.75 11.5V8.25H15.25V11.5C15.25 12.7426 14.2426 13.75 13 13.75H3C1.75737 13.75 0.750018 12.7426 0.75 11.5V4.5C0.750007 3.25736 1.75737 2.25 3 2.25H8.25V3.75ZM13.5 1C13.6989 1 13.8896 1.07907 14.0303 1.21973L15.7803 2.96973L15.832 3.02637C16.0723 3.32095 16.0549 3.75567 15.7803 4.03027L11.9199 7.89062C11.7988 8.0117 11.6611 8.1146 11.5107 8.19531L11.3555 8.26855L8.53809 9.44238C8.26342 9.55667 7.94758 9.49746 7.73242 9.29199C7.51729 9.08654 7.44346 8.77375 7.54492 8.49414L8.46973 5.95215C8.55712 5.71189 8.69617 5.49328 8.87695 5.3125L12.9697 1.21973L13.084 1.12598C13.2063 1.04445 13.3508 1 13.5 1ZM9.9375 6.37305C9.91167 6.39888 9.89139 6.43051 9.87891 6.46484L9.53809 7.40039L10.7793 6.88379L10.8223 6.86035C10.8355 6.85144 10.848 6.8414 10.8594 6.83008L14.1895 3.5L13.5 2.81055L9.9375 6.37305Z" fill="#FF00FF"/>
</g>
<defs>
<clipPath id="clip0_10708_2975">
<rect width="16" height="16" fill="white"/>
</clipPath>
</defs>
</svg>
