<svg width="16" height="16" viewBox="0 0 16 16" fill="none" xmlns="http://www.w3.org/2000/svg">
<path d="M13.5 13.5C14.0523 13.5 14.5 13.9477 14.5 14.5C14.5 15.0523 14.0523 15.5 13.5 15.5C12.9477 15.5 12.5 15.0523 12.5 14.5C12.5 13.9477 12.9477 13.5 13.5 13.5ZM13 2.25C14.2426 2.25 15.25 3.25736 15.25 4.5V6H13.75V4.5C13.75 4.08579 13.4142 3.75 13 3.75H3C2.58579 3.75 2.25 4.08579 2.25 4.5V11.5C2.25 11.9142 2.58579 12.25 3 12.25H11V13.75H3C1.75736 13.75 0.75 12.7426 0.75 11.5V4.5C0.75 3.25736 1.75736 2.25 3 2.25H13ZM13.5 7.25C14.879 7.25015 15.917 8.30721 15.917 9.64062C15.9169 10.3192 15.6368 10.8924 15.1738 11.293C14.9055 11.525 14.5879 11.6871 14.25 11.7891V12.5H12.75V10.4619L13.4541 10.418C13.7916 10.3968 14.0412 10.289 14.1924 10.1582C14.3292 10.0397 14.4169 9.87916 14.417 9.64062C14.417 9.13841 14.0533 8.75014 13.5 8.75C12.951 8.75014 12.5248 9.14577 12.4033 9.78125L11.667 9.64062L10.9307 9.49902C11.1511 8.34655 12.054 7.25015 13.5 7.25Z" fill="#FF00FF"/>
</svg>
