<svg width="16" height="16" viewBox="0 0 16 16" fill="none" xmlns="http://www.w3.org/2000/svg">
<path d="M13 2.25C14.2426 2.25 15.25 3.25736 15.25 4.5V11.5C15.25 12.7426 14.2426 13.75 13 13.75H3C1.83517 13.75 0.877138 12.8648 0.761719 11.7305L0.75 11.5V4.5C0.75 3.25736 1.75736 2.25 3 2.25H13ZM2.25 11.5L2.25391 11.5771C2.29253 11.9551 2.61183 12.25 3 12.25H13C13.4142 12.25 13.75 11.9142 13.75 11.5V6.75H2.25V11.5ZM3 3.75C2.58579 3.75 2.25 4.08579 2.25 4.5V5.25H13.75V4.5C13.75 4.08579 13.4142 3.75 13 3.75H3Z" fill="#FF00FF"/>
</svg>
