<svg width="16" height="16" viewBox="0 0 16 16" fill="none" xmlns="http://www.w3.org/2000/svg">
<path d="M15.5605 9.49805L11.5605 13.998C11.4137 14.1632 11.2014 14.2557 10.9805 14.25C10.7596 14.2442 10.5521 14.1413 10.4141 13.9688L8.41406 11.4688L9.58594 10.5312L11.0303 12.3369L14.4395 8.50195L15.5605 9.49805ZM13 2.25C14.2426 2.25 15.25 3.25736 15.25 4.5V7H13.75V4.5C13.75 4.08579 13.4142 3.75 13 3.75H3C2.58579 3.75 2.25 4.08579 2.25 4.5V11.5C2.25 11.9142 2.58579 12.25 3 12.25H7V13.75H3C1.75736 13.75 0.75 12.7426 0.75 11.5V4.5C0.75 3.25736 1.75736 2.25 3 2.25H13Z" fill="#FF00FF"/>
</svg>
