<svg width="16" height="16" viewBox="0 0 16 16" fill="none" xmlns="http://www.w3.org/2000/svg">
<path d="M15.5303 9.53027L13.5605 11.5L15.5303 13.4697L14.4697 14.5303L12.5 12.5605L10.5303 14.5303L9.46973 13.4697L11.4395 11.5L9.46973 9.53027L10.5303 8.46973L12.5 10.4395L14.4697 8.46973L15.5303 9.53027ZM13 2.25C14.2426 2.25 15.25 3.25736 15.25 4.5V7H13.75V4.5C13.75 4.08579 13.4142 3.75 13 3.75H3C2.58579 3.75 2.25 4.08579 2.25 4.5V11.5C2.25 11.9142 2.58579 12.25 3 12.25H8V13.75H3C1.75736 13.75 0.75 12.7426 0.75 11.5V4.5C0.75 3.25736 1.75736 2.25 3 2.25H13Z" fill="#FF00FF"/>
</svg>
