<svg width="16" height="16" viewBox="0 0 16 16" fill="none" xmlns="http://www.w3.org/2000/svg">
<path fill-rule="evenodd" clip-rule="evenodd" d="M7.00037 3.7505H3.00037C2.58615 3.7505 2.25037 4.08629 2.25037 4.5005V11.5005C2.25054 11.9146 2.58626 12.2505 3.00037 12.2505H13.0004C13.4143 12.2503 13.7502 11.9144 13.7504 11.5005V8.0005H15.2504V11.5005C15.2502 12.7429 14.2427 13.7503 13.0004 13.7505H3.00037C1.75784 13.7505 0.750544 12.743 0.750366 11.5005V4.5005C0.750366 3.25786 1.75773 2.2505 3.00037 2.2505H7.00037V3.7505ZM10.1039 2.70167C10.1039 1.65054 11.1915 0.994833 12.0619 1.51612L13.3793 2.30519L14.6771 3.08155C15.5513 3.60716 15.5513 4.92886 14.681 5.45851L13.3832 6.23585L12.0658 7.02394C11.1954 7.54954 10.1078 6.89065 10.1078 5.83937V5.63136C10.1077 5.5841 10.0952 5.53756 10.0726 5.49659C10.0501 5.45572 10.0179 5.42173 9.97888 5.39796C9.93979 5.37415 9.89522 5.36114 9.84998 5.36085C9.80483 5.36059 9.76037 5.37277 9.72107 5.39601L8.5199 6.11769L7.32361 6.83546C7.28438 6.859 7.25158 6.89319 7.22888 6.93409C7.20623 6.97498 7.19476 7.02161 7.1947 7.06886C7.1947 7.1161 7.2063 7.16272 7.22888 7.20362C7.25157 7.24458 7.28435 7.27869 7.32361 7.30226L8.5199 8.02003L9.72107 8.74269C9.76033 8.76587 9.80489 8.7781 9.84998 8.77784C9.8952 8.77755 9.9398 8.76453 9.97888 8.74073C10.0178 8.71702 10.0501 8.68289 10.0726 8.6421C10.0951 8.60123 10.1077 8.55448 10.1078 8.50734V8.08741C10.1075 8.0409 10.119 7.99501 10.141 7.9546C10.163 7.91423 10.1944 7.8804 10.2328 7.85695C10.2712 7.83348 10.3153 7.82103 10.3597 7.82081C10.4041 7.82064 10.4481 7.83292 10.4867 7.85597L11.098 8.22023C11.1381 8.24335 11.1716 8.27754 11.1947 8.31886C11.2178 8.36022 11.2293 8.4077 11.2289 8.45558V8.63234C11.2289 9.68362 10.1413 10.3386 9.27087 9.81691L7.95349 9.02882L6.65564 8.25148C5.78165 7.72575 5.78151 6.40403 6.65564 5.87843L7.95349 5.10206L9.26697 4.30909C10.1374 3.78364 11.226 4.44342 11.226 5.49464V5.70167C11.226 5.74887 11.2377 5.7955 11.2601 5.83644C11.2827 5.87743 11.3148 5.91224 11.3539 5.93605C11.393 5.95986 11.4375 5.97189 11.4828 5.97218C11.528 5.97247 11.5723 5.96033 11.6117 5.93702L12.8129 5.21534L14.0092 4.49757C14.0484 4.474 14.0812 4.43992 14.1039 4.39894C14.1265 4.358 14.139 4.31145 14.139 4.26417C14.139 4.2169 14.1265 4.17032 14.1039 4.12941C14.0812 4.08851 14.0484 4.05431 14.0092 4.03077L12.8129 3.313L11.6117 2.59132C11.5724 2.56809 11.528 2.55588 11.4828 2.55616C11.4375 2.55645 11.393 2.56946 11.3539 2.59327C11.3149 2.61706 11.2826 2.65103 11.2601 2.69191C11.2376 2.73289 11.226 2.77939 11.226 2.82667V3.24659C11.2262 3.29306 11.2148 3.33903 11.1927 3.37941C11.1707 3.41982 11.1384 3.4536 11.1 3.47706C11.0616 3.50045 11.0174 3.51298 10.973 3.5132C10.9287 3.51334 10.8846 3.50106 10.8461 3.47804L10.2347 3.1128C10.1947 3.08964 10.1611 3.0555 10.1381 3.01417C10.115 2.97279 10.1034 2.92534 10.1039 2.87745V2.70167Z" fill="#FF00FF"/>
</svg>
