<svg width="16" height="16" viewBox="0 0 16 16" fill="none" xmlns="http://www.w3.org/2000/svg">
<path d="M12 1C13.6569 1 15 2.34315 15 4V12C15 13.6569 13.6569 15 12 15H4C2.34315 15 1 13.6569 1 12V4C1 2.34315 2.34315 1 4 1H12ZM8.58105 2.5C8.496 2.5 8.42282 2.5636 8.40527 2.65234L8.21387 3.61816C6.47699 3.76126 5.3253 4.86285 5.3252 6.32031C5.3252 7.57664 6.09677 8.34631 8.04883 8.78223C9.18166 9.03864 9.51953 9.26941 9.51953 9.78223C9.51941 10.4487 8.84471 10.9101 7.95312 10.9102C6.96362 10.9102 6.14178 10.4411 5.60547 9.64941C5.54318 9.55768 5.42181 9.53502 5.33789 9.60449L4.31934 10.4473C4.24767 10.5066 4.2275 10.6143 4.27832 10.6943C4.71479 11.3776 5.46961 11.9325 6.4082 12.2168L6.17383 13.2637C6.14696 13.3842 6.23343 13.5 6.34961 13.5H7.80762C7.8925 13.4998 7.96592 13.4363 7.9834 13.3477L8.16797 12.4121C10.0494 12.2889 11.2546 11.1264 11.2549 9.55176C11.2549 8.37392 10.5774 7.64638 9.10254 7.24316L8.79688 7.16699H8.7959C7.47048 6.85933 7.03711 6.60238 7.03711 6.11523C7.03721 5.52566 7.61501 5.11535 8.48242 5.11523C9.27988 5.11523 10.0168 5.46176 10.4863 6.0752C10.5531 6.16248 10.6741 6.18171 10.7559 6.11035L11.6846 5.2998C11.7551 5.23819 11.7719 5.13004 11.7178 5.05176C11.3398 4.50598 10.7278 4.06321 9.97461 3.81641L10.1953 2.73242C10.2195 2.61307 10.134 2.50027 10.0195 2.5H8.58105Z" fill="#FF00FF"/>
</svg>
