<svg width="16" height="16" viewBox="0 0 16 16" fill="none" xmlns="http://www.w3.org/2000/svg">
<path d="M2.75 13.25H5.5V14.75H2C1.58579 14.75 1.25 14.4142 1.25 14V10.5H2.75V13.25ZM14.75 14C14.75 14.4142 14.4142 14.75 14 14.75H10.5V13.25H13.25V10.5H14.75V14ZM9.61523 3.5C9.70703 3.5 9.77535 3.59086 9.75586 3.68652L9.5791 4.55273C10.1818 4.75015 10.6722 5.10431 10.9746 5.54102C11.0179 5.60359 11.0046 5.6909 10.9482 5.74023L10.2051 6.38867C10.1397 6.44574 10.0427 6.43014 9.98926 6.36035C9.61367 5.86949 9.02379 5.59277 8.38574 5.59277C7.69184 5.59292 7.22949 5.92089 7.22949 6.39258C7.22965 6.78212 7.57663 6.98733 8.63672 7.2334H8.6377C9.98705 7.54107 10.6043 8.13582 10.6045 9.14062C10.6045 10.4006 9.63925 11.3312 8.13379 11.4297L7.98633 12.1777C7.97232 12.2488 7.91377 12.2998 7.8457 12.2998H6.67969C6.58686 12.2998 6.51783 12.2076 6.53906 12.1113L6.72656 11.2734C5.97576 11.0461 5.37263 10.6022 5.02344 10.0557C4.9826 9.99173 4.99759 9.90602 5.05469 9.8584L5.87012 9.18359C5.93724 9.12803 6.03414 9.14637 6.08398 9.21973C6.51298 9.85302 7.17046 10.2284 7.96191 10.2285C8.67536 10.2285 9.21582 9.85853 9.21582 9.3252C9.21563 8.91525 8.945 8.73044 8.03906 8.52539C6.47758 8.17669 5.86045 7.56156 5.86035 6.55664C5.86035 5.39049 6.78211 4.50889 8.17188 4.39453L8.32422 3.62207C8.33823 3.55103 8.39677 3.5 8.46484 3.5H9.61523ZM5.5 2.75H2.75V5.5H1.25V2L1.25391 1.92285C1.29253 1.54488 1.61184 1.25 2 1.25H5.5V2.75ZM14.0771 1.25391C14.4551 1.29253 14.75 1.61183 14.75 2V5.5H13.25V2.75H10.5V1.25H14L14.0771 1.25391Z" fill="#FF00FF"/>
</svg>
