<svg width="16" height="16" viewBox="0 0 16 16" fill="none" xmlns="http://www.w3.org/2000/svg">
<path d="M9.75391 2.29182C9.96544 2.21828 10.2011 2.24265 10.3945 2.36213C10.6154 2.49878 10.7499 2.74009 10.75 2.99983V12.9998C10.75 13.2596 10.6154 13.5008 10.3945 13.6375C10.1735 13.7741 9.89745 13.7868 9.66504 13.6707L3.66504 10.6707C3.411 10.5437 3.25 10.2839 3.25 9.99983V5.99983L3.25781 5.89436C3.29216 5.65283 3.44288 5.44001 3.66504 5.32893L9.66504 2.32893L9.75391 2.29182ZM14.9502 11.4002L14.0498 12.5994L12.0498 11.0994L12.9502 9.90022L14.9502 11.4002ZM4.75 6.46272V9.53596L9.25 11.786V4.21272L4.75 6.46272ZM2.25 9.99983H0.75V5.99983H2.25V9.99983ZM15.5 8.74983H13V7.24983H15.5V8.74983ZM14.9502 4.59944L12.9502 6.09944L12.0498 4.90022L14.0498 3.40022L14.9502 4.59944Z" fill="#FF00FF"/>
</svg>
