<svg width="16" height="16" viewBox="0 0 16 16" fill="none" xmlns="http://www.w3.org/2000/svg">
<path d="M3.25 4.5C3.25 5.74264 4.25736 6.75 5.5 6.75C6.74264 6.75 7.75 5.74264 7.75 4.5V2H9.25V4.5C9.25 6.31421 7.96166 7.82734 6.25 8.1748V10.5C6.25 12.0188 7.48122 13.25 9 13.25C10.4798 13.25 11.6822 12.081 11.7432 10.6162C10.8734 10.3051 10.25 9.47671 10.25 8.5C10.25 7.25736 11.2574 6.25 12.5 6.25C13.7426 6.25 14.75 7.25736 14.75 8.5C14.75 9.48075 14.1215 10.3121 13.2461 10.6201C13.1825 12.9118 11.307 14.75 9 14.75C6.65279 14.75 4.75 12.8472 4.75 10.5V8.1748C3.03834 7.82734 1.75 6.3142 1.75 4.5V2H3.25V4.5ZM12.5 7.75C12.0858 7.75 11.75 8.08579 11.75 8.5C11.75 8.91421 12.0858 9.25 12.5 9.25C12.9142 9.25 13.25 8.91421 13.25 8.5C13.25 8.08579 12.9142 7.75 12.5 7.75Z" fill="#FF00FF"/>
</svg>
