<svg width="16" height="16" viewBox="0 0 16 16" fill="none" xmlns="http://www.w3.org/2000/svg">
<path fill-rule="evenodd" clip-rule="evenodd" d="M6.59902 0.916992C8.91403 0.917045 10.7982 2.78365 10.7982 5.0957C10.7982 5.84458 10.643 6.60476 10.3031 7.26953H14.0736L14.1732 7.27637C14.4039 7.30734 14.6095 7.44458 14.726 7.65039C15.1048 8.31994 15.7493 9.17246 15.7494 10.8096C15.7492 12.8713 13.9244 14.417 11.8373 14.417H5.16152C3.07455 14.4168 1.24962 12.8712 1.24941 10.8096C1.24953 9.39499 2.14691 8.27228 3.34121 7.6875C3.18956 7.49829 3.05325 7.29484 2.93301 7.08105L0.721091 6.19629C0.419147 6.07543 0.229348 5.77372 0.251364 5.44922C0.273393 5.12472 0.50227 4.85142 0.817771 4.77246L2.46426 4.36035C2.81367 2.40034 4.5353 0.917145 6.59902 0.916992ZM6.59902 2.41699C5.10386 2.41716 3.89883 3.6208 3.89883 5.0957C3.89902 6.01494 4.44757 6.89653 5.21523 7.38867C5.48119 7.55931 5.61157 7.87841 5.5414 8.18652C5.47106 8.49448 5.21531 8.72611 4.90175 8.76465C3.62744 8.92132 2.74958 9.84171 2.74941 10.8096C2.74962 11.9033 3.75628 12.9168 5.16152 12.917H11.8373C13.2427 12.917 14.2492 11.9034 14.2494 10.8096C14.2494 9.84688 13.9778 9.3421 13.642 8.76953H8.67519C8.34434 8.76939 8.05178 8.55218 7.95644 8.23535C7.86154 7.91877 7.98568 7.57709 8.26113 7.39453C8.91777 6.96061 9.29812 6.12189 9.29824 5.0957C9.29824 3.62073 8.09428 2.41705 6.59902 2.41699Z" fill="#FF00FF"/>
</svg>
