<svg width="16" height="16" viewBox="0 0 16 16" fill="none" xmlns="http://www.w3.org/2000/svg">
<path d="M8.42851 2.22449C9.91462 0.882005 12.2092 0.926272 13.6414 2.35828C15.0736 3.79049 15.1177 6.08498 13.7752 7.57117L13.6414 7.71277L10.6766 10.6766L7.71269 13.6415C6.23416 15.1196 3.83656 15.1198 2.3582 13.6415C0.880051 12.1631 0.880174 9.76545 2.3582 8.28699L5.32304 5.32312L8.28691 2.35828L8.42851 2.22449ZM3.41972 9.34753C2.5272 10.2402 2.52726 11.6873 3.41972 12.58C4.3124 13.4726 5.75942 13.4726 6.65214 12.58L9.08574 10.1464L5.85332 6.91394L3.41972 9.34753ZM12.5799 3.4198C11.743 2.58312 10.4191 2.5304 9.52128 3.26257L9.34746 3.4198L6.91386 5.85339L10.1463 9.08581L12.5799 6.65222L12.7371 6.47839C13.4693 5.58054 13.4168 4.25669 12.5799 3.4198Z" fill="#FF00FF"/>
</svg>
