<svg width="16" height="16" viewBox="0 0 16 16" fill="none" xmlns="http://www.w3.org/2000/svg">
<path d="M8.65063 0.750366C8.84935 0.750509 9.04038 0.829568 9.18091 0.970093L11.1301 2.92029C11.4227 3.2132 11.4229 3.68804 11.1301 3.98083C10.885 4.22645 10.8847 4.62504 11.1301 4.87048C11.3756 5.11564 11.7743 5.11555 12.0198 4.87048L12.134 4.77673C12.2563 4.6951 12.4008 4.6508 12.55 4.65076C12.7489 4.6508 12.9397 4.72987 13.0803 4.87048L15.0305 6.8197C15.1709 6.96024 15.2501 7.15134 15.2502 7.34998C15.2501 7.54865 15.1709 7.73971 15.0305 7.88025L7.88013 15.0306C7.73954 15.1711 7.54856 15.2503 7.34985 15.2504C7.15121 15.2503 6.96011 15.171 6.81958 15.0306L4.87036 13.0804C4.72981 12.9399 4.65074 12.7489 4.65063 12.5502C4.65069 12.3514 4.72984 12.1605 4.87036 12.0199C5.11556 11.7744 5.11557 11.3758 4.87036 11.1302C4.62487 10.8848 4.22632 10.885 3.98071 11.1302C3.6879 11.4229 3.21304 11.4228 2.92017 11.1302L0.969971 9.18103C0.829508 9.04057 0.750457 8.84938 0.750244 8.65076C0.750244 8.452 0.829524 8.2611 0.969971 8.12048L8.12036 0.970093L8.23462 0.876343C8.35686 0.794928 8.50159 0.750366 8.65063 0.750366ZM2.56079 8.64978L3.54712 9.63708C4.33128 9.28198 5.28625 9.42504 5.93091 10.0697C6.57521 10.7142 6.71735 11.6685 6.36255 12.4525L7.34985 13.4388L13.4387 7.34998L12.4524 6.36267C11.6684 6.71745 10.7141 6.57532 10.0696 5.93103C9.425 5.28645 9.28202 4.33135 9.63696 3.54724L8.64966 2.56091L2.56079 8.64978Z" fill="#FF00FF"/>
</svg>
