<svg width="16" height="16" viewBox="0 0 16 16" fill="none" xmlns="http://www.w3.org/2000/svg">
<path d="M11.0731 1.75C11.9253 1.75008 12.7047 2.23194 13.0858 2.99414L14.4598 5.74219L14.5272 5.8877C14.5381 5.91316 14.5454 5.94007 14.5555 5.96582C14.8098 5.90645 15.0577 5.84454 15.2977 5.77734L15.702 7.22266C15.3952 7.30855 15.0771 7.38706 14.7499 7.46094V13.5C14.7499 13.9142 14.4141 14.25 13.9999 14.25H10.9999C10.5857 14.2499 10.2499 13.9142 10.2499 13.5V12.25H5.74988V13.5C5.74988 13.9142 5.41409 14.25 4.99988 14.25H1.99988C1.5857 14.25 1.24988 13.9142 1.24988 13.5V7.46094C0.922645 7.38706 0.604488 7.30855 0.297729 7.22266L0.702026 5.77734C0.940839 5.84421 1.18736 5.9067 1.44031 5.96582C1.4701 5.88999 1.50333 5.81537 1.53992 5.74219L2.91492 2.99414L2.99011 2.85449C3.39275 2.17336 4.12764 1.75013 4.92664 1.75H11.0731ZM13.2499 7.74805C9.95978 8.27371 6.03996 8.27373 2.74988 7.74805V12.75H4.24988V11.5C4.24988 11.0858 4.58573 10.7501 4.99988 10.75H10.9999C11.4141 10.75 11.7499 11.0858 11.7499 11.5V12.75H13.2499V7.74805ZM4.92664 3.25C4.67802 3.25012 4.44805 3.37311 4.30945 3.57422L4.25574 3.66504L2.95691 6.26074C6.10207 6.76727 9.89653 6.7681 13.0419 6.26172L11.744 3.66504C11.617 3.41102 11.3571 3.25008 11.0731 3.25H4.92664Z" fill="#FF00FF"/>
</svg>
