<svg width="16" height="16" viewBox="0 0 16 16" fill="none" xmlns="http://www.w3.org/2000/svg">
<path d="M5.25 2C5.25 2.80625 5.47324 3.78675 5.94727 4.54102C6.4065 5.27161 7.06589 5.75 8 5.75C8.93411 5.75 9.5935 5.27161 10.0527 4.54102C10.5268 3.78675 10.75 2.80625 10.75 2H12.25C12.25 2.74242 12.5623 3.70905 13.1572 4.4834C13.7432 5.24617 14.5422 5.75 15.5 5.75V7.25C14.1308 7.25 13.0318 6.59809 12.25 5.7334V10.25H15.5V11.75H12.25V14H10.75V11.75H5.25V14H3.75V11.75H0.5V10.25H3.75V5.7334C2.96824 6.59809 1.86919 7.25 0.5 7.25V5.75C1.45776 5.75 2.25677 5.24617 2.84277 4.4834C3.43766 3.70905 3.75 2.74242 3.75 2H5.25ZM10.75 6.07617C10.0883 6.76681 9.17907 7.25 8 7.25C6.82093 7.25 5.91173 6.76681 5.25 6.07617V10.25H10.75V6.07617Z" fill="#FF00FF"/>
</svg>
