<svg width="16" height="16" viewBox="0 0 16 16" fill="none" xmlns="http://www.w3.org/2000/svg">
<path fill-rule="evenodd" clip-rule="evenodd" d="M1.1649 2.92175C1.33747 2.77935 1.56534 2.72118 1.78502 2.76355L1.78795 2.76453C1.79039 2.76499 1.79459 2.76553 1.79967 2.76648C1.81037 2.76849 1.82705 2.77135 1.84849 2.77527C1.89215 2.78325 1.95798 2.79547 2.0399 2.80945C2.20409 2.83746 2.43685 2.87455 2.70787 2.91199C3.25692 2.98782 3.94006 3.06037 4.53111 3.06042C5.11813 3.06042 5.71759 2.98903 6.1776 2.91492C6.40537 2.87821 6.59507 2.84154 6.72642 2.81433C6.79182 2.80078 6.84317 2.78872 6.87681 2.78113C6.89324 2.77742 6.90609 2.77513 6.91392 2.77331C6.91731 2.77252 6.92012 2.77176 6.92174 2.77136H6.92271C7.23116 2.69681 7.55381 2.8241 7.7274 3.08972V3.0907L7.72838 3.09167C7.72933 3.09313 7.73133 3.09559 7.73326 3.09851C7.73721 3.10455 7.74306 3.11399 7.75084 3.12585C7.76653 3.14978 7.79034 3.18505 7.82017 3.23035C7.87997 3.32115 7.96613 3.4529 8.07213 3.61218C8.28432 3.93104 8.57517 4.36304 8.88756 4.81726C9.53446 5.75788 10.2122 6.69721 10.5184 7.00378C10.878 7.36347 11.4357 7.73767 12.0663 8.08777C12.6866 8.43217 13.3345 8.73011 13.8436 8.94714C14.6677 9.29842 15.2498 10.1072 15.2499 11.0409C15.2499 12.2609 14.2609 13.2499 13.0409 13.2499H9.02525C7.73648 13.2497 6.90506 12.5023 6.3192 11.8954C6.04398 11.6103 5.85042 11.3908 5.64439 11.1903L5.25767 12.6874C5.17206 13.0184 4.87299 13.2499 4.53111 13.2499H2.28404C1.92821 13.2495 1.62111 12.9989 1.54967 12.6503L0.908064 9.51746C0.906631 9.51045 0.90539 9.50301 0.904157 9.49597C0.729333 8.49765 0.731784 7.43059 0.772321 6.41492C0.814214 5.36556 0.892437 4.41388 0.892439 3.49988C0.892449 3.27626 0.992567 3.06422 1.1649 2.92175ZM2.89634 11.7499H3.95103L4.24498 10.6083L2.59947 10.3055L2.89634 11.7499ZM6.41588 4.39539C5.91302 4.47639 5.22762 4.56042 4.53111 4.56042C3.83854 4.56037 3.07682 4.4776 2.50279 4.39831C2.45817 4.39214 2.41448 4.38393 2.37193 4.37781C2.34524 5.07721 2.2982 5.80181 2.27134 6.47449C2.23957 7.27043 2.23677 8.02864 2.31138 8.72742L5.30943 9.27917L5.34947 9.28796C5.85004 9.40896 6.2432 9.70071 6.55162 9.9823C6.84388 10.2492 7.15809 10.6055 7.3983 10.8544C7.93563 11.411 8.38859 11.7497 9.02525 11.7499H13.0409C13.4324 11.7499 13.7499 11.4324 13.7499 11.0409C13.7498 10.7457 13.5621 10.4576 13.2557 10.327C12.7189 10.0982 12.0194 9.77773 11.3378 9.39929C10.666 9.02633 9.96512 8.57175 9.45787 8.06433C9.0315 7.63767 8.26516 6.56052 7.65123 5.66785C7.3332 5.20542 7.03806 4.76624 6.8231 4.44324C6.79789 4.40535 6.77379 4.36844 6.75084 4.33386C6.65039 4.35246 6.538 4.37571 6.41588 4.39539Z" fill="#FF00FF"/>
</svg>
