<svg width="16" height="16" viewBox="0 0 16 16" fill="none" xmlns="http://www.w3.org/2000/svg">
<path d="M7.99961 0.916748C11.2422 0.916748 13.258 3.58764 12.9391 6.24976H12.9996C13.2746 6.24976 13.5276 6.40071 13.6588 6.64233C13.7735 6.85402 13.7785 7.10602 13.6773 7.32007L13.6275 7.40991L8.62754 15.0769C8.48903 15.2888 8.25281 15.4167 7.99961 15.4167C7.7465 15.4166 7.5101 15.2888 7.37168 15.0769L2.37168 7.40991C2.22148 7.17945 2.20947 6.88424 2.34043 6.64233C2.47154 6.40073 2.72472 6.24991 2.99961 6.24976H3.06016C2.74122 3.58777 4.75727 0.916978 7.99961 0.916748ZM11.6324 7.72241C10.2502 7.64181 9.14272 7.98595 7.89707 8.23511C6.87078 8.44034 5.80018 8.5557 4.63828 8.14038L7.99961 13.2937L11.6324 7.72241ZM7.99961 2.41675C5.50772 2.41699 4.12427 4.57303 4.63047 6.49976C5.62673 7.0396 6.51096 6.98259 7.60215 6.7644C8.62789 6.55926 9.90568 6.18066 11.4293 6.2146C11.7361 4.36637 10.3695 2.41675 7.99961 2.41675Z" fill="#FF00FF"/>
</svg>
