<svg width="16" height="16" viewBox="0 0 16 16" fill="none" xmlns="http://www.w3.org/2000/svg">
<path d="M4.38574 6.40332C5.7979 6.3659 7.35774 6.85523 9.04688 8.05469C9.63516 8.47247 10.8316 9.40225 11.8643 10.2139C12.3837 10.6221 12.8678 11.0053 13.2217 11.2861C13.2896 11.3401 13.3534 11.3905 13.4111 11.4365C13.8681 11.2599 14.3483 11.0237 14.8535 10.709L15.6465 11.9824C13.9425 13.0441 12.4095 13.4003 10.9873 13.373C9.5903 13.3462 8.33985 12.9471 7.23828 12.5869C6.10026 12.2148 5.1501 11.8965 4.18848 11.875C3.27768 11.8547 2.32133 12.105 1.21875 12.9883L0.75 12.4023L0.28125 11.8174C1.64616 10.724 2.94275 10.3475 4.22168 10.376C4.63712 10.3853 5.04637 10.4394 5.44824 10.5186L7.38379 8.7666C6.23975 8.10711 5.25567 7.88037 4.42578 7.90234C3.40958 7.92937 2.53715 8.33068 1.80176 8.91895L0.864258 7.74707C1.7953 7.00229 2.9739 6.44089 4.38574 6.40332ZM7.16602 10.9863C7.34781 11.0451 7.5275 11.1034 7.7041 11.1611C8.81725 11.5251 9.87035 11.851 11.0156 11.873C11.1836 11.8763 11.3543 11.8705 11.5283 11.8594C11.3407 11.7111 11.1419 11.5532 10.9375 11.3926C10.1413 10.7668 9.27334 10.0915 8.66211 9.63281L7.16602 10.9863ZM12.667 3.25C14.1857 3.25013 15.417 4.4813 15.417 6C15.417 7.5187 14.1857 8.74987 12.667 8.75C11.1482 8.75 9.91699 7.51878 9.91699 6C9.91699 4.48122 11.1482 3.25 12.667 3.25ZM12.667 4.75C11.9766 4.75 11.417 5.30964 11.417 6C11.417 6.69036 11.9766 7.25 12.667 7.25C13.3572 7.24987 13.917 6.69027 13.917 6C13.917 5.30973 13.3572 4.75013 12.667 4.75Z" fill="#FF00FF"/>
</svg>
