<svg width="16" height="16" viewBox="0 0 16 16" fill="none" xmlns="http://www.w3.org/2000/svg">
<path d="M11.6475 1.73535L9.65918 2.13281L9.48242 3.25H14V4.75H13.1758L12.2461 13.5781C12.2059 13.9598 11.8838 14.25 11.5 14.25H4.5C4.1162 14.25 3.79409 13.9598 3.75391 13.5781L2.82422 4.75H2V3.25H7.96387L8.25879 1.38281L8.28613 1.26953C8.36856 1.01405 8.58351 0.818597 8.85254 0.764648L11.3525 0.264648L11.6475 1.73535ZM5.17578 12.75H10.8242L11.667 4.75H9.24609L8.24121 11.1172L6.75879 10.8828L7.72754 4.75H4.33301L5.17578 12.75Z" fill="#FF00FF"/>
</svg>
