<svg width="16" height="16" viewBox="0 0 16 16" fill="none" xmlns="http://www.w3.org/2000/svg">
<path d="M1.75 11H14.25V5.75H15.75V11.75C15.75 12.1642 15.4142 12.5 15 12.5H13.75V14.5H12.25V12.5H3.75V14.5H2.25V12.5H1C0.801088 12.5 0.610379 12.4209 0.469727 12.2803C0.329074 12.1396 0.25 11.9489 0.25 11.75V5.75H1.75V11ZM10.75 1.5C11.9926 1.5 13 2.50736 13 3.75V9C13 9.41421 12.6642 9.75 12.25 9.75H3.75C3.33579 9.75 3 9.41421 3 9V3.75C3 2.50736 4.00736 1.5 5.25 1.5H10.75ZM5.25 3C4.83579 3 4.5 3.33579 4.5 3.75V8.25H11.5V3.75C11.5 3.33579 11.1642 3 10.75 3H5.25Z" fill="#FF00FF"/>
</svg>
