<svg width="16" height="16" viewBox="0 0 16 16" fill="none" xmlns="http://www.w3.org/2000/svg">
<path d="M10.0002 1.75C11.8149 1.75 13.4127 2.94557 13.925 4.68652L15.7199 10.7881C15.7865 11.0148 15.7423 11.26 15.6007 11.4492C15.4591 11.6384 15.2365 11.75 15.0002 11.75H14.6681C14.3544 13.1695 13.1561 14.25 11.5002 14.25C9.84412 14.25 8.64587 13.1695 8.33219 11.75H7.66812C7.35444 13.1695 6.1562 14.25 4.50015 14.25C2.84416 14.25 1.64587 13.1695 1.33219 11.75H1.00015C0.763802 11.75 0.541174 11.6385 0.399569 11.4492C0.258031 11.26 0.213763 11.0148 0.280428 10.7881L2.07535 4.68652C2.58756 2.94557 4.18539 1.75 6.00015 1.75V3.25C4.85069 3.25 3.83817 4.00759 3.51383 5.11035L2.55973 8.35449C3.08438 7.97514 3.74464 7.75001 4.50015 7.75C6.15618 7.75 7.35447 8.83042 7.66812 10.25H8.33219C8.64584 8.83041 9.84412 7.75 11.5002 7.75C12.2557 7.75001 12.9159 7.97514 13.4406 8.35449L12.4865 5.11035C12.1621 4.00759 11.1496 3.25 10.0002 3.25V1.75ZM4.50015 9.25C3.43791 9.25003 2.75015 10.0096 2.75015 11C2.75018 11.9903 3.43788 12.75 4.50015 12.75C5.56243 12.75 6.25013 11.9904 6.25015 11C6.25015 10.0096 5.56241 9.25 4.50015 9.25ZM11.5002 9.25C10.4379 9.25 9.75015 10.0096 9.75015 11C9.75019 11.9904 10.4379 12.75 11.5002 12.75C12.5624 12.75 13.2501 11.9903 13.2502 11C13.2502 10.0096 12.5624 9.25002 11.5002 9.25Z" fill="#FF00FF"/>
</svg>
