<svg width="16" height="16" viewBox="0 0 16 16" fill="none" xmlns="http://www.w3.org/2000/svg">
<path d="M2.62 2.2876C3.52806 1.55286 4.898 1.63131 6.2948 2.16846L6.56238 2.27686C7.04339 2.48055 7.52514 2.73488 7.9989 3.02686C8.56413 2.67834 9.13765 2.38568 9.70496 2.16748C11.1946 1.59463 12.6537 1.54427 13.5546 2.44482C14.3991 3.2894 14.4078 4.62491 13.9335 6.01611L13.8319 6.29443C13.6229 6.83797 13.2983 7.42543 12.9315 7.99951C13.2985 8.57382 13.6228 9.16181 13.8319 9.70557L13.9335 9.98389C14.4078 11.3751 14.3991 12.7106 13.5546 13.5552C12.6537 14.4557 11.1946 14.4054 9.70496 13.8325C9.1375 13.6143 8.56427 13.3208 7.9989 12.9722C7.525 13.2643 7.04354 13.5194 6.56238 13.7231L6.2948 13.8315C4.898 14.3687 3.52806 14.4471 2.62 13.7124L2.44519 13.5542C1.54463 12.6533 1.59499 11.1943 2.16785 9.70459L2.28503 9.41455C2.48636 8.94272 2.73633 8.46811 3.02527 7.99951C2.73652 7.53114 2.48626 7.05705 2.28503 6.58545L2.16785 6.29541C1.59498 4.80573 1.54462 3.3467 2.44519 2.4458L2.62 2.2876ZM3.98035 9.354C3.86477 9.57132 3.75791 9.78557 3.66687 9.99854L3.56824 10.2427C3.0514 11.5864 3.2638 12.2513 3.50574 12.4937L3.55554 12.5386C3.83277 12.7596 4.4959 12.9161 5.75671 12.4312L5.97839 12.3423C6.19793 12.2493 6.41989 12.14 6.64539 12.02C6.15514 11.6316 5.68127 11.2092 5.23621 10.7642C4.79101 10.319 4.36889 9.84433 3.98035 9.354ZM12.494 3.50537C12.2517 3.26343 11.5868 3.05105 10.243 3.56787C8.95114 4.06477 7.53228 5.0609 6.29675 6.29639C5.75591 6.83723 5.26222 7.4145 4.83484 7.99951C5.26232 8.58475 5.75571 9.16257 6.29675 9.70361C7.53228 10.9391 8.95114 11.9352 10.243 12.4321C11.5868 12.949 12.2517 12.7366 12.494 12.4946C12.7209 12.2677 12.922 11.6692 12.5204 10.4878L12.4315 10.2437C12.3253 9.96741 12.1729 9.66169 11.9891 9.33936C11.5028 9.98009 11.0123 10.566 10.6161 11.0034L9.50476 9.99561C9.96184 9.49091 10.5618 8.76818 11.1161 7.99951C10.562 7.23108 9.96171 6.50894 9.50476 6.00439L10.6161 4.99658C11.0121 5.43386 11.503 6.01917 11.9891 6.65967C12.1728 6.33761 12.3254 6.03237 12.4315 5.75635L12.5204 5.51221C12.922 4.33085 12.7209 3.73229 12.494 3.50537ZM5.75671 3.56885C4.4959 3.08392 3.83277 3.24035 3.55554 3.46143L3.50574 3.50635C3.26379 3.74867 3.05139 4.41353 3.56824 5.75732L3.66687 6.00146C3.75791 6.21443 3.86477 6.42868 3.98035 6.646C4.36889 6.15567 4.79101 5.68104 5.23621 5.23584C5.68141 4.79065 6.15497 4.3675 6.64539 3.979C6.42003 3.85914 6.1978 3.75065 5.97839 3.65771L5.75671 3.56885Z" fill="#FF00FF"/>
</svg>
