<svg width="16" height="16" viewBox="0 0 16 16" fill="none" xmlns="http://www.w3.org/2000/svg">
<path d="M8 1.25C8.32979 1.25 8.62042 1.46586 8.7168 1.78125L10.0039 5.99512L14.2188 7.2832C14.5341 7.37958 14.75 7.67021 14.75 8C14.75 8.32979 14.5341 8.62042 14.2188 8.7168L10.0039 10.0039L8.7168 14.2188C8.62042 14.5341 8.32979 14.75 8 14.75C7.67021 14.75 7.37958 14.5341 7.2832 14.2188L5.99512 10.0039L1.78125 8.7168C1.46586 8.62042 1.25 8.32979 1.25 8C1.25 7.67021 1.46586 7.37958 1.78125 7.2832L5.99512 5.99512L7.2832 1.78125L7.32812 1.66699C7.45302 1.41478 7.71164 1.25 8 1.25ZM7.3125 6.81445C7.23962 7.05297 7.05297 7.23962 6.81445 7.3125L4.56445 8L6.81445 8.6875L6.90137 8.71973C7.09802 8.80751 7.2487 8.97675 7.3125 9.18555L8 11.4346L8.6875 9.18555L8.71973 9.09863C8.80751 8.90198 8.97675 8.7513 9.18555 8.6875L11.4346 8L9.18555 7.3125C8.94703 7.23962 8.76038 7.05297 8.6875 6.81445L8 4.56445L7.3125 6.81445Z" fill="#FF00FF"/>
</svg>
