<svg width="16" height="16" viewBox="0 0 16 16" fill="none" xmlns="http://www.w3.org/2000/svg">
<path d="M3.75 8C3.75 9.79492 5.20508 11.25 7 11.25H9C10.7949 11.25 12.25 9.79492 12.25 8H13.75C13.75 10.6234 11.6234 12.75 9 12.75H8.75V13.75H10V15.25H6V13.75H7.25V12.75H7C4.37665 12.75 2.25 10.6234 2.25 8H3.75ZM8 1.25C9.79492 1.25 11.25 2.70508 11.25 4.5V7C11.25 8.79493 9.79492 10.25 8 10.25C6.20507 10.25 4.75 8.79493 4.75 7V4.5C4.75 2.70507 6.20507 1.25 8 1.25ZM8 2.75C7.0335 2.75 6.25 3.5335 6.25 4.5V7C6.25 7.9665 7.0335 8.75 8 8.75C8.9665 8.75 9.75 7.9665 9.75 7V4.5C9.75 3.5335 8.9665 2.75 8 2.75Z" fill="#FF00FF"/>
</svg>
