<svg width="16" height="16" viewBox="0 0 16 16" fill="none" xmlns="http://www.w3.org/2000/svg">
<path d="M8 1.91699C9.33454 1.91717 10.417 2.9994 10.417 4.33398V4.37012C10.4167 5.23118 9.96485 6.0295 9.22656 6.47266L8.75 6.75781V7.24902L14.8877 11.0488C15.4236 11.3807 15.75 11.9663 15.75 12.5967C15.7498 13.6018 14.9349 14.4169 13.9297 14.417H2.07031C1.06511 14.4169 0.250221 13.6018 0.25 12.5967C0.25 11.9663 0.576357 11.3807 1.1123 11.0488L7.25 7.24902V6.33398C7.25 6.07057 7.3884 5.82598 7.61426 5.69043L8.4541 5.18652C8.74076 5.01449 8.91671 4.7044 8.91699 4.37012V4.33398C8.91699 3.82783 8.50611 3.41717 8 3.41699C7.49389 3.41717 7.08398 3.82783 7.08398 4.33398V4.66699H5.58398V4.33398C5.58398 2.9994 6.66546 1.91717 8 1.91699ZM1.90137 12.3242C1.80729 12.3827 1.75 12.4859 1.75 12.5967C1.75022 12.7734 1.89354 12.9169 2.07031 12.917H13.9297C14.1065 12.9169 14.2498 12.7734 14.25 12.5967C14.25 12.4859 14.1927 12.3827 14.0986 12.3242L8 8.54883L1.90137 12.3242Z" fill="#FF00FF"/>
</svg>
