<svg width="16" height="16" viewBox="0 0 16 16" fill="none" xmlns="http://www.w3.org/2000/svg">
<path d="M14.5 2.75C14.9142 2.75 15.25 3.08579 15.25 3.5C15.25 5.31147 14.9927 6.62758 14.5078 7.60645C14.0105 8.61046 13.3033 9.1992 12.5352 9.60156C11.8264 9.97278 10.9735 10.2197 10.335 10.46C9.64821 10.7184 9.04473 11.0158 8.53027 11.5303C8.23738 11.8232 7.76262 11.8232 7.46973 11.5303C6.95527 11.0158 6.35179 10.7184 5.66504 10.46C5.02654 10.2197 4.17358 9.97278 3.46484 9.60156C3.03148 9.37456 2.61775 9.08799 2.25 8.70117V14H0.75V3.5C0.75 3.08579 1.08579 2.75 1.5 2.75H14.5ZM2.26953 4.25C2.33088 5.51196 2.54663 6.35628 2.83594 6.94043C3.16667 7.60813 3.61591 7.98833 4.16016 8.27344C4.76376 8.58961 5.3798 8.74912 6.19434 9.05566C6.7816 9.27669 7.40793 9.55871 8 10.0088C8.59207 9.55871 9.2184 9.27669 9.80566 9.05566C10.6202 8.74912 11.2362 8.58961 11.8398 8.27344C12.3841 7.98833 12.8333 7.60813 13.1641 6.94043C13.4534 6.35628 13.6691 5.51196 13.7305 4.25H2.26953Z" fill="#FF00FF"/>
</svg>
