<svg width="16" height="16" viewBox="0 0 16 16" fill="none" xmlns="http://www.w3.org/2000/svg">
<path fill-rule="evenodd" clip-rule="evenodd" d="M7.99947 1.25C9.00057 1.25 9.78608 1.55282 10.3735 2.05469C10.948 2.5457 11.2804 3.18064 11.4731 3.76465C11.666 4.34935 11.7327 4.9217 11.7534 5.33789C11.7557 5.38487 11.7551 5.43022 11.7563 5.47363C12.808 5.3476 13.8388 5.17109 14.8286 4.9375C15.0847 4.8773 15.3539 4.95511 15.5376 5.14355C15.7211 5.33222 15.7932 5.6039 15.726 5.8584L13.9096 12.7412C13.6489 13.7286 12.7551 14.4168 11.7338 14.417H4.26705C3.24569 14.417 2.35208 13.7287 2.09127 12.7412L0.274865 5.8584C0.20768 5.60371 0.279548 5.33223 0.463341 5.14355C0.647079 4.95507 0.916119 4.87713 1.17233 4.9375C2.16835 5.17255 3.20548 5.35044 4.26412 5.47656C4.26518 5.43373 4.26601 5.38907 4.26803 5.34277C4.28617 4.9266 4.34914 4.35368 4.53854 3.76855C4.72775 3.18422 5.05565 2.54771 5.62838 2.05566C6.21407 1.55258 6.99859 1.2501 7.99947 1.25ZM13.9643 6.64941C10.1312 7.37563 5.86865 7.37568 2.03561 6.64941L3.54147 12.3584C3.62849 12.6874 3.9267 12.917 4.26705 12.917H11.7338C12.0741 12.9168 12.3725 12.6874 12.4594 12.3584L13.9643 6.64941ZM7.99947 2.75C7.32046 2.75009 6.89301 2.94769 6.60592 3.19434C6.30593 3.45214 6.09977 3.816 5.96529 4.23145C5.83117 4.64599 5.78065 5.07359 5.76608 5.40723C5.76275 5.48344 5.76139 5.55362 5.76119 5.61621C7.25276 5.72056 8.76889 5.72059 10.2602 5.61523C10.2595 5.55415 10.258 5.48596 10.2544 5.41211C10.2377 5.07845 10.1852 4.65043 10.0483 4.23535C9.91116 3.81958 9.70265 3.45421 9.39986 3.19531C9.10972 2.94735 8.67873 2.75 7.99947 2.75Z" fill="#FF00FF"/>
</svg>
