<svg width="16" height="16" viewBox="0 0 16 16" fill="none" xmlns="http://www.w3.org/2000/svg">
<path d="M11.5 3.25C12.7426 3.25 13.75 4.25737 13.75 5.5V12.5C13.75 13.7426 12.7426 14.75 11.5 14.75H4.5C3.25736 14.75 2.25 13.7426 2.25 12.5V5.5C2.25001 4.25737 3.25736 3.25 4.5 3.25H11.5ZM3.75 12.5C3.75 12.9142 4.08579 13.25 4.5 13.25H11.5C11.9142 13.25 12.25 12.9142 12.25 12.5V11.75H3.75V12.5ZM4.5 4.75C4.08579 4.75 3.75001 5.08579 3.75 5.5V10.25H12.25V5.5C12.25 5.08579 11.9142 4.75 11.5 4.75H4.5ZM8 0.166992C8.89886 0.166992 9.8578 0.464241 10.5303 1.13672L9.46973 2.19727C9.14221 1.86975 8.60114 1.66699 8 1.66699C7.39886 1.66699 6.85779 1.86974 6.53027 2.19727L5.46973 1.13672C6.14221 0.464236 7.10114 0.166994 8 0.166992Z" fill="#FF00FF"/>
</svg>
