<svg width="16" height="16" viewBox="0 0 16 16" fill="none" xmlns="http://www.w3.org/2000/svg">
<path d="M15 5.25H11.9941C11.9165 5.25002 11.8432 5.28609 11.7959 5.34766L5.5957 13.4561C5.45379 13.6414 5.23346 13.75 5 13.75H1V12.25H2.09473L2.51953 9.13672C2.70615 7.76935 3.87481 6.75001 5.25488 6.75C6.29649 6.75014 7.23141 7.33488 7.7002 8.2334L10.6045 4.43652C10.9356 4.00385 11.4493 3.75002 11.9941 3.75H15V5.25ZM5.25488 8.25C4.62481 8.25001 4.09099 8.71555 4.00586 9.33984L3.60938 12.25H4.62891L6.6123 9.65527L6.46094 9.14746C6.30091 8.61493 5.81095 8.25017 5.25488 8.25ZM5.25 1.75C6.35457 1.75 7.25 2.64543 7.25 3.75C7.25 4.85457 6.35457 5.75 5.25 5.75C4.14543 5.75 3.25 4.85457 3.25 3.75C3.25 2.64543 4.14543 1.75 5.25 1.75ZM5.25 3.25C4.97386 3.25 4.75 3.47386 4.75 3.75C4.75 4.02614 4.97386 4.25 5.25 4.25C5.52614 4.25 5.75 4.02614 5.75 3.75C5.75 3.47386 5.52614 3.25 5.25 3.25Z" fill="#FF00FF"/>
</svg>
