<svg width="16" height="16" viewBox="0 0 16 16" fill="none" xmlns="http://www.w3.org/2000/svg">
<path d="M10.4998 1.25012C10.7443 1.25012 10.9736 1.36924 11.114 1.56946C11.2543 1.76975 11.2883 2.02614 11.2048 2.25598V2.25696H11.2039V2.25793L11.2 2.26965C11.1974 2.27661 11.1937 2.28623 11.1892 2.29797C11.18 2.32205 11.1661 2.3566 11.1492 2.39856C11.1154 2.48248 11.0663 2.60045 11.0027 2.74036C10.8762 3.01868 10.6881 3.39552 10.4451 3.77747C10.2768 4.04185 10.0719 4.32248 9.83276 4.57922C11.8284 5.32285 13.2498 7.24538 13.2498 9.50012C13.2495 12.3994 10.8991 14.7501 7.99976 14.7501C5.10052 14.75 2.74999 12.3993 2.74976 9.50012C2.74976 7.24554 4.17137 5.32297 6.16675 4.57922C5.92762 4.3225 5.72265 4.0418 5.55444 3.77747C5.3114 3.39548 5.12334 3.01868 4.99683 2.74036C4.93321 2.6004 4.88413 2.48248 4.85034 2.39856C4.83343 2.35655 4.81949 2.32205 4.8103 2.29797C4.8058 2.28618 4.80215 2.27662 4.79956 2.26965L4.79565 2.25793V2.25696H4.79468V2.25598C4.71127 2.02621 4.74531 1.76971 4.8855 1.56946C5.02582 1.36926 5.25527 1.2502 5.49976 1.25012H10.4998ZM7.99976 5.75012C5.9288 5.75025 4.24976 7.42914 4.24976 9.50012C4.24999 11.5709 5.92895 13.25 7.99976 13.2501C10.0707 13.2501 11.7495 11.571 11.7498 9.50012C11.7498 7.42905 10.0708 5.75012 7.99976 5.75012ZM6.82007 2.97278C7.01729 3.28267 7.23587 3.55789 7.46069 3.74817C7.68573 3.93857 7.86382 4.00005 7.99976 4.00012C8.13569 4.00012 8.31372 3.93858 8.53882 3.74817C8.76365 3.55792 8.98221 3.28267 9.17944 2.97278C9.22661 2.89865 9.27172 2.82374 9.31421 2.75012H6.6853C6.7278 2.82376 6.77288 2.89863 6.82007 2.97278Z" fill="#FF00FF"/>
</svg>
