<svg width="16" height="16" viewBox="0 0 16 16" fill="none" xmlns="http://www.w3.org/2000/svg">
<path d="M12.1133 1.75879C12.3731 1.79842 12.5966 1.97253 12.6963 2.22168L13.5078 4.25H14.5V5.75H13.6289L12.2383 13.6299C12.175 13.9883 11.8639 14.25 11.5 14.25H4.5C4.18147 14.25 3.90278 14.05 3.7959 13.7598L3.76172 13.6299L2.37109 5.75H1.5V4.25H2.49219L3.30371 2.22168L3.35352 2.11914C3.48682 1.89274 3.73172 1.75 4 1.75H12L12.1133 1.75879ZM5.12891 12.75H10.8711L12.1064 5.75H3.89355L5.12891 12.75ZM4.10742 4.25H11.8926L11.4922 3.25H4.50781L4.10742 4.25Z" fill="#FF00FF"/>
</svg>
