<svg width="16" height="16" viewBox="0 0 16 16" fill="none" xmlns="http://www.w3.org/2000/svg">
<path d="M5.25 12.7497H10.75V8.9997H12.25V13.4997C12.25 13.9139 11.9142 14.2497 11.5 14.2497H4.5C4.08579 14.2497 3.75 13.9139 3.75 13.4997V8.9997H5.25V12.7497ZM5.42676 1.49188C5.89581 1.2404 6.443 1.41409 6.72754 1.79071L6.78418 1.8747L6.88477 2.02899C7.13841 2.39059 7.52321 2.7497 8 2.7497C8.54456 2.7497 8.96952 2.2815 9.21582 1.87567L9.27246 1.79169C9.55774 1.41428 10.1067 1.24005 10.5762 1.49384L10.6748 1.55438L12.4141 2.75751L12.4434 2.77899C14.0365 3.99936 14.7499 6.28817 14.75 7.9997V13.9997H13.25V7.9997C13.2499 6.57749 12.633 4.82183 11.5391 3.97724L10.2148 3.06024C9.80846 3.57835 9.07974 4.2497 8 4.2497C6.91848 4.2497 6.18826 3.57683 5.78223 3.05829L4.44629 3.97724C3.36518 4.82305 2.75007 6.57886 2.75 7.9997V13.9997H1.25V7.9997C1.25007 6.28859 1.96347 4.00229 3.54102 2.78192L3.5752 2.75653L5.32715 1.55243L5.42676 1.49188ZM10.5 7.2497H8V5.7497H10.5V7.2497Z" fill="#FF00FF"/>
</svg>
