<svg width="16" height="16" viewBox="0 0 16 16" fill="none" xmlns="http://www.w3.org/2000/svg">
<path fill-rule="evenodd" clip-rule="evenodd" d="M9.16693 2.83496C9.93805 2.83515 10.6184 3.34005 10.8417 4.07812L11.5302 6.35645L15.5478 10.6494C15.7998 10.9191 15.818 11.3321 15.5908 11.623C15.3633 11.9141 14.9574 11.9961 14.6347 11.8164C12.1655 10.441 10.1785 11.356 7.92084 12.3242C6.83265 12.7909 5.6355 13.2867 4.38666 13.332C3.07834 13.3795 1.78285 12.9358 0.484314 11.7061C0.20228 11.439 0.171039 11.0009 0.412048 10.6963L3.82318 6.3877L4.52142 4.07812C4.74476 3.33986 5.42587 2.83496 6.1972 2.83496H9.16693ZM2.03705 11.0586C2.86197 11.6786 3.61201 11.8591 4.33197 11.833C5.26 11.7993 6.20911 11.4256 7.32904 10.9453C8.81931 10.3062 10.5582 9.49217 12.5439 9.63477L10.539 7.49219H4.86224L2.03705 11.0586ZM6.1972 4.33496C6.08702 4.33496 5.98985 4.40723 5.95795 4.5127L5.51068 5.99219H9.85345L9.40619 4.5127C9.37434 4.40735 9.27695 4.33515 9.16693 4.33496H6.1972Z" fill="#FF00FF"/>
</svg>
