<svg width="16" height="16" viewBox="0 0 16 16" fill="none" xmlns="http://www.w3.org/2000/svg">
<path d="M3.25 6.08594C3.25002 6.12117 3.25702 6.14481 3.26172 6.15527L3.2627 6.15723C3.60543 6.40514 4.22605 6.75 5 6.75C5.77347 6.75 6.39346 6.4051 6.73633 6.15723L6.73828 6.15527C6.74298 6.14481 6.74998 6.12117 6.75 6.08594V2H8.25V6.08594C8.24996 6.48216 8.11148 6.91939 7.77637 7.24023L7.62109 7.37012C7.24916 7.63978 6.59841 8.02444 5.75 8.17969V14H4.25V8.18066C3.53701 8.05024 2.96366 7.75743 2.57812 7.50683L2.37891 7.37012C1.93065 7.04502 1.75004 6.53862 1.75 6.08594V2H3.25V6.08594ZM12.7686 1.28613C12.9791 1.21796 13.2117 1.24614 13.4014 1.36621C13.6183 1.5037 13.7499 1.74319 13.75 2V14H12.25V11.25H10C9.80129 11.2499 9.61028 11.1707 9.46973 11.0303C9.32926 10.8896 9.25 10.6988 9.25 10.5V9.61816C9.25836 8.60346 9.31115 7.23357 9.5957 5.89648C9.97095 4.13346 10.7957 2.21192 12.6797 1.32226L12.7686 1.28613ZM12.25 3.50879C11.6649 4.19408 11.2905 5.13767 11.0625 6.20898C10.7963 7.46008 10.7563 8.75669 10.751 9.75H12.25V3.50879ZM5.75 6H4.25V2H5.75V6Z" fill="#FF00FF"/>
</svg>
