<svg width="16" height="16" viewBox="0 0 16 16" fill="none" xmlns="http://www.w3.org/2000/svg">
<path d="M8 10C9.24264 10 10.25 11.0074 10.25 12.25C10.25 13.4926 9.24264 14.5 8 14.5C6.75736 14.5 5.75 13.4926 5.75 12.25H7.25C7.25 12.6642 7.58579 13 8 13C8.41421 13 8.75 12.6642 8.75 12.25C8.75 11.8358 8.41421 11.5 8 11.5H1V10H8ZM13.5 7.25C14.7426 7.25 15.75 8.25736 15.75 9.5C15.75 10.7426 14.7426 11.75 13.5 11.75C12.2574 11.75 11.25 10.7426 11.25 9.5H12.75C12.75 9.91421 13.0858 10.25 13.5 10.25C13.9142 10.25 14.25 9.91421 14.25 9.5C14.25 9.08579 13.9142 8.75 13.5 8.75H1V7.25H13.5ZM8 0.75C9.59036 0.75 11.0195 1.40933 12.0488 2.375C13.0713 3.33432 13.75 4.64666 13.75 6H12.25C12.25 5.14438 11.8094 4.2071 11.0225 3.46875C10.2421 2.7367 9.17106 2.25 8 2.25C6.82894 2.25 5.75785 2.7367 4.97754 3.46875C4.19057 4.2071 3.75 5.14438 3.75 6H2.25C2.25 4.64666 2.92874 3.33432 3.95117 2.375C4.9805 1.40933 6.40964 0.75 8 0.75Z" fill="#FF00FF"/>
</svg>
