<svg width="16" height="16" viewBox="0 0 16 16" fill="none" xmlns="http://www.w3.org/2000/svg">
<path d="M4.54199 1.90633C4.72606 1.76444 4.96565 1.71551 5.19043 1.7745L14.6904 4.2745C15.0199 4.3612 15.25 4.65938 15.25 5.00008V13.0001C15.25 13.4143 14.9142 13.7501 14.5 13.7501H1.5C1.08579 13.7501 0.75 13.4143 0.75 13.0001V9.00008C0.750002 8.73094 0.89425 8.48225 1.12793 8.34872L4.25 6.56454V2.50008C4.25 2.26759 4.35791 2.04833 4.54199 1.90633ZM2.25 9.43465V12.2501H4.25V8.29208L2.25 9.43465ZM5.75 12.2501H13.75V5.57821L5.75 3.47274V12.2501Z" fill="#FF00FF"/>
</svg>
