<svg width="16" height="16" viewBox="0 0 16 16" fill="none" xmlns="http://www.w3.org/2000/svg">
<path fill-rule="evenodd" clip-rule="evenodd" d="M13.4997 1.5C13.7642 1.50014 14.0102 1.63968 14.1452 1.86719C14.2801 2.09468 14.2845 2.37716 14.1579 2.60938L11.2136 8.00684C11.8582 8.75192 12.2496 9.72259 12.2497 10.7852C12.2497 13.1322 10.3467 15.0349 7.9997 15.0352C5.65249 15.0352 3.7497 13.1324 3.7497 10.7852C3.74977 9.72234 4.13993 8.75101 4.78486 8.00586L1.8415 2.60938C1.71474 2.37699 1.72005 2.09481 1.85517 1.86719C1.9903 1.63976 2.23515 1.50004 2.4997 1.5H13.4997ZM7.9997 8.03516C6.48101 8.03516 5.24986 9.26651 5.2497 10.7852C5.2497 12.3039 6.48092 13.5352 7.9997 13.5352C9.51827 13.5349 10.7497 12.3038 10.7497 10.7852C10.7495 9.26666 9.51817 8.03541 7.9997 8.03516ZM10.4636 3L8.66864 6.58789C9.15367 6.66463 9.61127 6.82363 10.027 7.0498L12.236 3H10.4636ZM3.76337 3L5.97138 7.04883C6.27764 6.88227 6.6069 6.75262 6.95282 6.66504L8.78583 3H3.76337Z" fill="#FF00FF"/>
</svg>
