<svg width="16" height="16" viewBox="0 0 16 16" fill="none" xmlns="http://www.w3.org/2000/svg">
<path d="M7.5984 1.86623C7.88354 1.6853 8.26395 1.71563 8.51734 1.95705V1.95803H8.51832L8.52515 1.96486C8.52939 1.96896 8.53573 1.97459 8.54273 1.98146C8.55672 1.99521 8.57621 2.01458 8.60035 2.03908C8.64873 2.0882 8.71615 2.159 8.79859 2.24904C8.96342 2.42908 9.18864 2.68911 9.43629 3.01564C9.78366 3.47371 10.1827 4.07441 10.5232 4.77834C11.1117 4.38396 11.6821 4.09165 12.1492 3.88479C12.4901 3.73383 12.7807 3.62638 12.988 3.55568C13.0918 3.52032 13.175 3.49344 13.2341 3.47561C13.2637 3.46669 13.2874 3.45994 13.3045 3.4551L13.3318 3.44729H13.3337L13.3347 3.44631C13.3349 3.44627 13.3356 3.44737 13.4539 3.88967L13.3357 3.44631C13.6973 3.34973 14.0749 3.53509 14.2205 3.8799L14.2214 3.88088L14.2244 3.88967C14.2264 3.89461 14.229 3.90136 14.2322 3.9092C14.2385 3.92498 14.2473 3.94663 14.2576 3.97365C14.2782 4.02801 14.3066 4.10488 14.3386 4.20119C14.4025 4.39353 14.4832 4.66671 14.5564 5.00002C14.6837 5.5799 14.7909 6.35928 14.7341 7.22561L14.699 7.60256C14.5997 8.42933 14.3135 9.13722 13.9246 9.84768L13.7517 10.1533C12.912 11.5921 11.4991 12.6043 10.364 13.2432C9.78741 13.5677 9.2602 13.8082 8.87672 13.9678C8.68477 14.0476 8.52758 14.1078 8.41676 14.1485C8.3613 14.1688 8.31691 14.1836 8.2859 14.1944C8.27062 14.1996 8.25859 14.2041 8.24976 14.2071C8.24542 14.2085 8.24172 14.2101 8.23902 14.211C8.23766 14.2114 8.23603 14.2116 8.23511 14.2119L8.23414 14.2129L7.99976 13.5L8.23316 14.2129C8.08155 14.2625 7.91798 14.2625 7.76636 14.2129L7.99976 13.5L7.76539 14.2129L7.76441 14.2119C7.76349 14.2116 7.76186 14.2114 7.76051 14.211C7.75781 14.2101 7.75411 14.2085 7.74976 14.2071C7.74094 14.2041 7.72891 14.1996 7.71363 14.1944C7.68262 14.1836 7.63822 14.1688 7.58277 14.1485C7.47195 14.1078 7.31476 14.0476 7.12281 13.9678C6.73932 13.8082 6.21212 13.5677 5.63551 13.2432C4.57139 12.6442 3.26308 11.717 2.41187 10.418L2.24781 10.1533C1.83136 9.43966 1.50533 8.74545 1.35426 7.95021L1.30054 7.60256C1.17858 6.58645 1.29757 5.66288 1.44312 5.00002C1.51632 4.66671 1.59701 4.39353 1.6609 4.20119C1.69289 4.10488 1.72132 4.02801 1.74195 3.97365C1.75221 3.94663 1.76101 3.92498 1.76734 3.9092C1.77049 3.90136 1.77312 3.89461 1.77515 3.88967L1.77808 3.88088L1.77906 3.8799L1.84449 3.75783C2.01919 3.4929 2.34752 3.36182 2.66383 3.44631L2.47047 4.17092L2.6648 3.44631L2.66578 3.44729H2.66773L2.69508 3.4551C2.71212 3.45994 2.7358 3.46669 2.76539 3.47561C2.82456 3.49344 2.90776 3.52032 3.01148 3.55568C3.21882 3.62638 3.50945 3.73383 3.85035 3.88479C4.31728 4.09157 4.88705 4.38418 5.47535 4.77834C5.81589 4.07425 6.2158 3.47379 6.56324 3.01564C6.81088 2.68911 7.03611 2.42908 7.20093 2.24904C7.28338 2.15899 7.35079 2.0882 7.39918 2.03908C7.42331 2.01458 7.44281 1.99521 7.45679 1.98146C7.46379 1.97459 7.47013 1.96896 7.47437 1.96486L7.48121 1.95803H7.48218V1.95705L7.5984 1.86623ZM7.75855 3.92189C7.37866 4.42282 6.94586 5.09227 6.63258 5.86232L6.5066 6.19826C6.31636 6.74827 6.19803 7.33194 6.19801 7.93068C6.19801 9.22825 6.75514 10.4783 7.35914 11.4414C7.5831 11.7985 7.80749 12.1068 7.99976 12.3516C8.19203 12.1068 8.41643 11.7985 8.64039 11.4414C9.24439 10.4783 9.80152 9.22825 9.80152 7.93068C9.8015 7.40683 9.71141 6.89455 9.56129 6.40627L9.49293 6.19826C9.17774 5.28711 8.67511 4.49434 8.24097 3.92189C8.15714 3.81136 8.07519 3.71085 7.99976 3.61916C7.92433 3.71085 7.84238 3.81136 7.75855 3.92189ZM2.90797 5.32131C2.78634 5.87514 2.69365 6.62279 2.7898 7.42385L2.82691 7.66604C2.93251 8.22597 3.16844 8.75338 3.54371 9.3965L3.66968 9.59963C4.1717 10.3641 4.91071 10.9997 5.66871 11.5039C5.14896 10.5141 4.698 9.27514 4.698 7.93068C4.69803 7.33259 4.78628 6.76045 4.92945 6.22658C4.33335 5.78913 3.73023 5.47168 3.24293 5.25588C3.14089 5.21069 3.04346 5.17191 2.95386 5.13576C2.93921 5.19466 2.92226 5.25622 2.90797 5.32131ZM12.7566 5.25588C12.2691 5.47175 11.6654 5.78889 11.0691 6.22658C11.2123 6.76052 11.3015 7.33249 11.3015 7.93068C11.3015 9.27533 10.8497 10.514 10.3298 11.5039C11.1542 10.9556 11.9565 10.2522 12.4558 9.3965L12.6082 9.12795C12.9438 8.51475 13.141 7.99604 13.2097 7.42385L13.2371 7.126C13.2819 6.43877 13.198 5.80588 13.0916 5.32131C13.0772 5.25613 13.0594 5.19473 13.0447 5.13576C12.9553 5.17182 12.8583 5.21084 12.7566 5.25588Z" fill="#FF00FF"/>
</svg>
