<svg width="16" height="16" viewBox="0 0 16 16" fill="none" xmlns="http://www.w3.org/2000/svg">
<path d="M11.0731 3.25C11.9253 3.2501 12.7037 3.73196 13.0848 4.49414L14.4598 7.24219L14.5272 7.3877C14.5381 7.41316 14.5454 7.44007 14.5555 7.46582C14.8098 7.40643 15.0577 7.34456 15.2977 7.27734L15.702 8.72266C15.3952 8.80857 15.0771 8.88705 14.7499 8.96094V13.5C14.7499 13.9142 14.4141 14.25 13.9999 14.25H10.9999C10.801 14.25 10.6102 14.1709 10.4696 14.0303C10.329 13.8896 10.2499 13.6989 10.2499 13.5V12.75H5.74988V13.5C5.74985 13.9142 5.41408 14.25 4.99988 14.25H1.99988C1.80099 14.25 1.61024 14.1709 1.4696 14.0303C1.32897 13.8896 1.24989 13.6989 1.24988 13.5V8.96094C0.922648 8.88706 0.60448 8.80855 0.297729 8.72266L0.499878 8L0.702026 7.27832C0.940833 7.34519 1.18736 7.40768 1.44031 7.4668C1.47019 7.39067 1.50319 7.31564 1.53992 7.24219L2.91492 4.49414L2.99011 4.35449C3.39276 3.67337 4.12764 3.25013 4.92664 3.25H11.0731ZM13.2499 9.24805C9.95982 9.77378 6.03991 9.77378 2.74988 9.24805V12.75H4.24988V12C4.24988 11.5858 4.58573 11.2501 4.99988 11.25H10.9999C11.1988 11.25 11.3895 11.3291 11.5302 11.4697C11.6708 11.6104 11.7499 11.8011 11.7499 12V12.75H13.2499V9.24805ZM4.92664 4.75C4.67803 4.75012 4.44805 4.87313 4.30945 5.07422L4.25574 5.16504L2.95691 7.76172C6.10203 8.26811 9.8966 8.26834 13.0419 7.76172L11.744 5.16504C11.617 4.91103 11.3571 4.7501 11.0731 4.75H4.92664ZM7.99988 0.5C8.89871 0.5 9.85767 0.797301 10.5302 1.46973L9.4696 2.53027C9.14208 2.2028 8.601 2 7.99988 2C7.39878 2.00003 6.85765 2.2028 6.53015 2.53027L5.4696 1.46973C6.14206 0.797306 7.10106 0.500025 7.99988 0.5Z" fill="#FF00FF"/>
</svg>
