<svg width="16" height="16" viewBox="0 0 16 16" fill="none" xmlns="http://www.w3.org/2000/svg">
<path d="M10.9998 2.25H8.74978V3.75H11.9998L12.0769 3.75391C12.4549 3.79254 12.7498 4.11184 12.7498 4.5V5.75H13.6668C14.6331 5.75018 15.4168 6.53361 15.4168 7.5V10.5C15.4168 11.4664 14.6331 12.2498 13.6668 12.25H12.7498V13.5C12.7498 13.6989 12.6707 13.8896 12.5301 14.0303C12.3894 14.1709 12.1987 14.25 11.9998 14.25H3.99978C3.58557 14.25 3.24979 13.9142 3.24978 13.5V6.74902L1.90017 4.9502C1.72981 4.72305 1.70207 4.41904 1.82888 4.16504C1.95592 3.91095 2.2157 3.75 2.49978 3.75H7.24978V2.25H4.99978V0.75H10.9998V2.25ZM4.59939 6.0498C4.69675 6.17962 4.74978 6.33773 4.74978 6.5V12.75H11.2498V5.25H8.74978V10.25H9.99978V11.75H5.99978V10.25H7.24978V5.25H3.99978L4.59939 6.0498ZM12.7498 10.75H13.6668C13.8047 10.7498 13.9168 10.6379 13.9168 10.5V7.5C13.9168 7.36204 13.8047 7.25018 13.6668 7.25H12.7498V10.75Z" fill="#FF00FF"/>
</svg>
