<svg width="16" height="16" viewBox="0 0 16 16" fill="none" xmlns="http://www.w3.org/2000/svg">
<path d="M1.0332 2.41264C1.21201 2.27053 1.44638 2.21776 1.66895 2.26909L14.6689 5.26909C15.0089 5.34772 15.2498 5.65062 15.25 5.99956V13.9996H13.75V6.59526L2.25 3.94194V13.9996H0.75V2.99956C0.75013 2.77115 0.854449 2.55484 1.0332 2.41264ZM9.43359 7.74956C10.0482 7.74956 10.6183 8.07224 10.9346 8.59916L11.7979 10.0386C12.0287 9.96613 12.2546 9.89009 12.4717 9.80327L13.0283 11.1958C12.7767 11.2965 12.5165 11.3875 12.25 11.4712V13.9996H10.75V11.8414C8.97149 12.171 7.0289 12.1728 5.25 11.8453V13.9996H3.75V11.4761C3.48362 11.3926 3.22325 11.3023 2.97168 11.2017L3.52832 9.80913C3.7441 9.89544 3.96883 9.97051 4.19824 10.0425L5.06543 8.59916C5.38173 8.07224 5.95182 7.74956 6.56641 7.74956H9.43359ZM6.56641 9.24956C6.47875 9.24956 6.39679 9.29559 6.35156 9.37065L5.72949 10.4068C7.20065 10.652 8.79592 10.6499 10.2676 10.4029L9.64844 9.37065C9.60321 9.29559 9.52125 9.24956 9.43359 9.24956H6.56641Z" fill="#FF00FF"/>
</svg>
