<svg width="16" height="16" viewBox="0 0 16 16" fill="none" xmlns="http://www.w3.org/2000/svg">
<path d="M8 0.916992C11.7279 0.916992 14.75 3.93907 14.75 7.66699V11.667C14.7498 13.1856 13.5187 14.417 12 14.417H11C10.5859 14.4169 10.2502 14.081 10.25 13.667V7.66699C10.25 7.25281 10.5858 6.91704 11 6.91699H12C12.442 6.91699 12.8585 7.02366 13.2285 7.20898C12.9965 4.52388 10.7452 2.41699 8 2.41699C5.25473 2.41699 3.00243 4.52384 2.77051 7.20898C3.14077 7.02339 3.55762 6.91699 4 6.91699H5C5.41421 6.91699 5.75 7.25278 5.75 7.66699V13.667C5.74982 14.0811 5.41411 14.417 5 14.417H4C2.48133 14.417 1.25018 13.1856 1.25 11.667V7.66699C1.25 3.93907 4.27208 0.916992 8 0.916992ZM4 8.41699C3.30964 8.41699 2.75 8.97664 2.75 9.66699V11.667C2.75018 12.3572 3.30975 12.917 4 12.917H4.25V8.41699H4ZM11.75 12.917H12C12.6902 12.917 13.2498 12.3572 13.25 11.667V9.66699C13.25 8.97664 12.6904 8.41699 12 8.41699H11.75V12.917Z" fill="#FF00FF"/>
</svg>
