<svg width="16" height="16" viewBox="0 0 16 16" fill="none" xmlns="http://www.w3.org/2000/svg">
<path d="M3.66699 2.25C5.04756 2.25016 6.16699 3.36939 6.16699 4.75C6.16698 4.97076 6.13705 5.18516 6.08301 5.38965L8.57031 7.09082L13.9932 3.38086L14.8408 4.61914L9.89844 8L14.8408 11.3809L13.9932 12.6191L8.57031 8.9082L6.08301 10.6104C6.13703 10.8148 6.16699 11.0293 6.16699 11.25C6.1669 12.6305 5.04751 13.7498 3.66699 13.75C2.28634 13.75 1.16708 12.6306 1.16699 11.25C1.16699 9.86929 2.28628 8.75 3.66699 8.75C4.28277 8.75007 4.84614 8.97341 5.28125 9.3418L7.24219 8L5.28125 6.6582C4.84614 7.02659 4.28277 7.24993 3.66699 7.25C2.28634 7.25 1.16708 6.13063 1.16699 4.75C1.16699 3.36929 2.28628 2.25 3.66699 2.25ZM3.66699 10.25C3.11471 10.25 2.66699 10.6977 2.66699 11.25C2.66708 11.8022 3.11476 12.25 3.66699 12.25C4.21908 12.2498 4.6669 11.8021 4.66699 11.25C4.66699 11.0572 4.61263 10.879 4.51953 10.7275C4.34242 10.4396 4.02649 10.2501 3.66699 10.25ZM3.66699 3.75C3.11471 3.75 2.66699 4.19772 2.66699 4.75C2.66708 5.30221 3.11476 5.75 3.66699 5.75C4.02649 5.74989 4.34242 5.56039 4.51953 5.27246C4.61269 5.12096 4.66696 4.94287 4.66699 4.75C4.66699 4.19782 4.21914 3.75016 3.66699 3.75Z" fill="#FF00FF"/>
</svg>
