<svg width="16" height="16" viewBox="0 0 16 16" fill="none" xmlns="http://www.w3.org/2000/svg">
<path fill-rule="evenodd" clip-rule="evenodd" d="M9.57227 1.80594C9.75881 1.72948 9.96914 1.73204 10.1543 1.8118L14.7969 3.8118C15.0718 3.93037 15.25 4.20088 15.25 4.50028V8.00028C15.2499 8.25254 15.1228 8.48854 14.9121 8.62723C14.7014 8.76568 14.4347 8.78847 14.2031 8.68875L12.9365 8.14285L12.9746 13.4954C12.9759 13.695 12.8975 13.8869 12.7568 14.0286C12.616 14.1703 12.4244 14.2503 12.2246 14.2503H3.82129C3.40721 14.2502 3.0714 13.9143 3.07129 13.5003V8.13895L1.79688 8.68875C1.56529 8.78847 1.29859 8.76568 1.08789 8.62723C0.877153 8.48854 0.750071 8.25254 0.75 8.00028V4.50028C0.75 4.20088 0.928234 3.93037 1.20312 3.8118L5.8457 1.8118C6.03086 1.73204 6.24119 1.72948 6.42773 1.80594C6.61413 1.88244 6.76202 2.03138 6.83789 2.21805C6.94704 2.48588 7.35434 2.76102 8 2.76102C8.64566 2.76102 9.05296 2.48588 9.16211 2.21805C9.23798 2.03138 9.38587 1.88244 9.57227 1.80594ZM10.1299 3.43387C9.57036 4.02607 8.7165 4.26102 8 4.26102C7.2833 4.26102 6.42866 4.02643 5.86914 3.43387L2.25 4.99344V6.86063L3.52441 6.3118C3.75616 6.21198 4.02261 6.2356 4.2334 6.3743C4.4441 6.51301 4.57125 6.74801 4.57129 7.00028V12.7503H11.4697L11.4287 7.00614C11.4269 6.75297 11.5528 6.5153 11.7637 6.37528C11.9748 6.23527 12.2429 6.2116 12.4756 6.3118L13.75 6.86063V4.99344L10.1299 3.43387Z" fill="#FF00FF"/>
</svg>
