<svg width="16" height="16" viewBox="0 0 16 16" fill="none" xmlns="http://www.w3.org/2000/svg">
<path d="M4.02655 1.91771C4.32113 1.67765 4.75595 1.69496 5.03046 1.96947L9.53046 6.46947L9.58222 6.52611C9.80641 6.80098 9.80628 7.19844 9.58222 7.47338L9.53046 7.53002L8.81073 8.24974L12.6769 12.116L13.0002 11.7927L14.7072 13.4997L13.0002 15.2068L11.2932 13.4997L11.6164 13.1765L7.75019 9.31029L7.03046 10.03C6.75589 10.3046 6.32113 10.322 6.02655 10.0818L5.96991 10.03L1.46991 5.53002C1.17702 5.23712 1.17702 4.76236 1.46991 4.46947L3.96991 1.96947L4.02655 1.91771ZM3.06073 4.99974L6.50019 8.4392L7.93964 6.99974L4.50019 3.56029L3.06073 4.99974Z" fill="#FF00FF"/>
</svg>
