<svg width="16" height="16" viewBox="0 0 16 16" fill="none" xmlns="http://www.w3.org/2000/svg">
<path d="M4.60545 0.36208C4.89101 0.185595 5.25935 0.220206 5.50681 0.447041L11.292 5.74978H13.75C14.8545 5.74978 15.75 6.64521 15.75 7.74978C15.75 8.85435 14.8545 9.74978 13.75 9.74978H11.3105L5.53025 15.53C5.2843 15.776 4.90132 15.8203 4.60545 15.6375C4.34675 15.4774 4.21426 15.1803 4.25877 14.8875L4.28806 14.7625L5.95896 9.74978H2.99998C2.77215 9.74977 2.55637 9.64643 2.41404 9.46853L0.414039 6.96853C0.233943 6.7434 0.199307 6.43443 0.324196 6.17458C0.449148 5.91492 0.711796 5.74978 0.999977 5.74978H9.07224L6.40427 3.30349C6.46623 3.54567 6.52433 3.78004 6.5742 3.99196C6.62216 4.19583 6.66314 4.38525 6.69334 4.54372C6.71958 4.68152 6.74998 4.85687 6.74998 4.99978H5.24998C5.24998 5.01767 5.24905 4.97399 5.22068 4.82497C5.19619 4.69641 5.159 4.53012 5.11326 4.33571C5.02202 3.94795 4.89966 3.47177 4.77537 3.00564C4.65136 2.54059 4.52684 2.08988 4.43357 1.75564C4.38702 1.58883 4.34838 1.45112 4.32127 1.35524C4.3077 1.30728 4.29725 1.26935 4.29002 1.24392C4.28646 1.23141 4.28306 1.22202 4.28123 1.2156C4.2803 1.21236 4.27973 1.20939 4.27927 1.20778V1.20583C4.18709 0.883171 4.32011 0.538627 4.60545 0.36208ZM3.3613 8.24978H6.99998C7.24106 8.24978 7.46741 8.36573 7.60838 8.5613C7.74933 8.75687 7.78812 9.00838 7.71189 9.23708L6.71677 12.2224L10.4697 8.4695C10.6104 8.32885 10.8011 8.24978 11 8.24978H13.75C14.0261 8.24978 14.25 8.02592 14.25 7.74978C14.25 7.47364 14.0261 7.24978 13.75 7.24978H2.5615L3.3613 8.24978Z" fill="#FF00FF"/>
</svg>
