<svg width="16" height="16" viewBox="0 0 16 16" fill="none" xmlns="http://www.w3.org/2000/svg">
<path fill-rule="evenodd" clip-rule="evenodd" d="M4.2823 7.1748C6.33672 4.94229 9.69567 4.94227 11.7501 7.1748C13.7776 9.3784 13.7327 12.5681 11.7178 14.7578C11.5759 14.9121 11.3757 14.9999 11.1661 15H4.80183C4.59218 14.9999 4.39205 14.9121 4.25007 14.7578C2.22239 12.5543 2.26752 9.36455 4.2823 7.1748ZM10.6466 8.19043C9.18635 6.60361 6.84603 6.60363 5.38582 8.19043C3.95982 9.74039 3.87337 11.9022 5.14753 13.5H10.8204C12.1108 11.8901 12.061 9.72788 10.6466 8.19043ZM9.00007 1C9.41426 1.00003 9.75007 1.3358 9.75007 1.75V3.47852C10.2797 3.61637 10.8086 3.81591 11.335 4.0791L10.6651 5.4209C8.87627 4.52647 7.12388 4.52649 5.33503 5.4209L4.66511 4.0791C5.19157 3.81591 5.7204 3.61636 6.25007 3.47852V1.75C6.25007 1.33579 6.58586 1 7.00007 1H9.00007ZM7.75007 3.25684C7.91679 3.25066 8.08336 3.25065 8.25007 3.25684V2.5H7.75007V3.25684Z" fill="#FF00FF"/>
</svg>
