<svg width="16" height="16" viewBox="0 0 16 16" fill="none" xmlns="http://www.w3.org/2000/svg">
<path d="M2.61747 1.52368C2.89867 1.26359 3.2818 1.19293 3.61747 1.29517C3.93222 1.39115 4.18714 1.63171 4.30594 1.94947C6.52813 5.55198 9.95235 7.09017 13.719 6.53247L13.8245 6.52076C14.349 6.48164 14.835 6.73305 15.0852 7.16431C15.3524 7.6252 15.2975 8.20436 14.9065 8.62622L14.8235 8.70826C13.9224 9.53401 12.6171 10.3201 11.137 10.6975C11.5254 10.8022 11.9361 10.8958 12.3714 10.9758L12.8626 11.0588L12.9036 11.0667C13.6626 11.2303 14.0432 12.1815 13.5061 12.802L13.386 12.9211C10.5552 15.3649 6.07655 15.4225 3.2034 12.7122L2.92997 12.4417C0.0861568 9.47105 0.110839 4.67063 2.50321 1.64673L2.61747 1.52368ZM3.1077 3.44068C1.74697 5.90487 1.9761 9.27472 4.01395 11.4036L4.23172 11.6204C6.27564 13.5471 9.36225 13.7279 11.6194 12.3547C9.24736 11.8537 7.40708 10.9592 6.00711 9.47974C4.60756 8.00064 3.71448 6.00732 3.1077 3.44068ZM5.29422 5.47974C5.77499 6.70548 6.36654 7.67656 7.09696 8.44849C7.3741 8.74136 7.67653 9.00828 8.00516 9.25318C9.86348 9.7633 11.8214 9.08678 13.1907 8.10181C10.2362 8.35092 7.48939 7.45292 5.29422 5.47974Z" fill="#FF00FF"/>
</svg>
