<svg width="16" height="16" viewBox="0 0 16 16" fill="none" xmlns="http://www.w3.org/2000/svg">
<path d="M6.75 3.25H9.25V1H10.75V3.25H12L12.0771 3.25391C12.4551 3.29253 12.75 3.61183 12.75 4V5.25H15V6.75H12.75V9.25H15V10.75H12.75V12C12.75 12.4142 12.4142 12.75 12 12.75H10.75V15H9.25V12.75H6.75V15H5.25V12.75H4C3.58579 12.75 3.25 12.4142 3.25 12V10.75H1V9.25H3.25V6.75H1V5.25H3.25V4L3.25391 3.92285C3.29253 3.54488 3.61183 3.25 4 3.25H5.25V1H6.75V3.25ZM4.75 11.25H11.25V4.75H4.75V11.25Z" fill="#FF00FF"/>
</svg>
