<svg width="16" height="16" viewBox="0 0 16 16" fill="none" xmlns="http://www.w3.org/2000/svg">
<path d="M5.44824 2.03015L4.26953 3.20789L7.65137 6.5907L9.51367 4.72937L9.62793 4.63562C9.75019 4.55401 9.89479 4.50973 10.0439 4.50964C10.2428 4.50964 10.4336 4.58879 10.5742 4.72937L13.9297 8.08386C14.5692 8.7234 14.8606 9.63313 14.7119 10.5253L14.2021 13.5848C14.1495 13.9009 13.9011 14.1493 13.585 14.202L10.5254 14.7118C9.63324 14.8605 8.72353 14.5691 8.08398 13.9296L4.72949 10.5741C4.43672 10.2812 4.43664 9.8064 4.72949 9.51355L6.59082 7.65125L3.20801 4.26941L2.03027 5.44812L0.969727 4.38757L4.3877 0.969604L5.44824 2.03015ZM6.31934 10.0438L9.14453 12.869C9.44151 13.166 9.86404 13.3013 10.2783 13.2323L12.8105 12.8104L13.2324 10.2782C13.3014 9.86392 13.1661 9.44138 12.8691 9.14441L10.0439 6.31921L6.31934 10.0438Z" fill="#FF00FF"/>
</svg>
