<svg width="16" height="16" viewBox="0 0 16 16" fill="none" xmlns="http://www.w3.org/2000/svg">
<path d="M3.5 7.25C5.29493 7.25 6.75 8.70507 6.75 10.5C6.74997 12.2949 5.29491 13.75 3.5 13.75C1.70509 13.75 0.250029 12.2949 0.25 10.5C0.25 8.70507 1.70507 7.25 3.5 7.25ZM8 3.25H4.58496L4.3584 4.15527L10.4326 7.99121C10.9944 7.52777 11.7149 7.25 12.5 7.25C14.2949 7.25 15.75 8.70507 15.75 10.5C15.75 12.2949 14.2949 13.75 12.5 13.75C10.7051 13.75 9.25003 12.2949 9.25 10.5C9.25 10.0344 9.34809 9.59178 9.52441 9.19141L3.09961 5.13379C2.82603 4.96094 2.6941 4.63233 2.77246 4.31836L3.27246 2.31836C3.35592 1.98451 3.65588 1.75004 4 1.75H8V3.25ZM3.5 8.75C2.5335 8.75 1.75 9.5335 1.75 10.5C1.75003 11.4665 2.53352 12.25 3.5 12.25C4.46648 12.25 5.24997 11.4665 5.25 10.5C5.25 9.5335 4.4665 8.75 3.5 8.75ZM12.5 8.75C12.266 8.75 12.0429 8.79653 11.8389 8.87988L13.4004 9.86621L12.5996 11.1338L10.8203 10.0098C10.775 10.1654 10.75 10.3298 10.75 10.5C10.75 11.4665 11.5335 12.25 12.5 12.25C13.4665 12.25 14.25 11.4665 14.25 10.5C14.25 9.5335 13.4665 8.75 12.5 8.75ZM14 6.25H10V4.75H14V6.25Z" fill="#FF00FF"/>
</svg>
