<svg width="16" height="16" viewBox="0 0 16 16" fill="none" xmlns="http://www.w3.org/2000/svg">
<path d="M10 1.75C13.1756 1.75 15.75 4.32436 15.75 7.5V11.25C15.75 12.9069 14.4069 14.25 12.75 14.25C11.2635 14.25 10.0301 13.1688 9.79199 11.75H6.20801C5.96993 13.1688 4.73647 14.25 3.25 14.25C1.59315 14.25 0.25 12.9069 0.25 11.25V7.5C0.25 4.32436 2.82436 1.75 6 1.75H10ZM6 3.25C3.65279 3.25 1.75 5.15279 1.75 7.5V11.25C1.75 12.0784 2.42157 12.75 3.25 12.75C4.07843 12.75 4.75 12.0784 4.75 11.25V11C4.75 10.5858 5.08579 10.25 5.5 10.25H10.5C10.9142 10.25 11.25 10.5858 11.25 11V11.25C11.25 12.0784 11.9216 12.75 12.75 12.75C13.5784 12.75 14.25 12.0784 14.25 11.25V7.5C14.25 5.15279 12.3472 3.25 10 3.25H6ZM6.25 6.25H7.5V7.75H6.25V9H4.75V7.75H3.5V6.25H4.75V5H6.25V6.25Z" fill="#FF00FF"/>
</svg>
