<svg width="16" height="16" viewBox="0 0 16 16" fill="none" xmlns="http://www.w3.org/2000/svg">
<path d="M3.25 12.5C3.25 12.6381 3.36193 12.75 3.5 12.75H12.5C12.6381 12.75 12.75 12.6381 12.75 12.5V11.5H14.25V12.5C14.25 13.4665 13.4665 14.25 12.5 14.25H3.5C2.5335 14.25 1.75 13.4665 1.75 12.5V11.5H3.25V12.5ZM15 9.75C14.2807 9.75 13.8729 9.88544 13.4277 10.041C12.9415 10.2109 12.3855 10.417 11.5 10.417C10.6082 10.417 10.0779 10.2093 9.63672 10.0254C9.24654 9.86277 8.9902 9.75 8.5 9.75C8.08447 9.75 7.79257 9.92076 7.24512 10.2344C6.71279 10.5393 6.01874 10.917 5 10.917C4.03651 10.917 3.42955 10.5036 2.95117 10.2402C2.49651 9.98992 1.98722 9.75 1 9.75V8.25C2.31121 8.25 3.07007 8.5938 3.6748 8.92676C4.25587 9.24668 4.5001 9.41699 5 9.41699C5.60723 9.41699 6.01311 9.21098 6.49902 8.93262C6.96975 8.66295 7.61477 8.25 8.5 8.25C9.31046 8.25 9.80436 8.46994 10.2139 8.64062C10.5725 8.79008 10.8918 8.91699 11.5 8.91699C12.1144 8.91699 12.4661 8.78839 12.9336 8.625C13.442 8.4473 14.0345 8.25 15 8.25V9.75ZM8 1.25C11.6052 1.25 14.25 3.47286 14.25 6.5C14.25 6.91421 13.9142 7.25 13.5 7.25H2.5C2.08579 7.25 1.75 6.91421 1.75 6.5C1.75 3.47286 4.39485 1.25 8 1.25ZM8 2.75C5.36752 2.75 3.71783 4.09846 3.33594 5.75H12.6641C12.2822 4.09846 10.6325 2.75 8 2.75Z" fill="#FF00FF"/>
</svg>
