<svg width="16" height="16" viewBox="0 0 16 16" fill="none" xmlns="http://www.w3.org/2000/svg">
<path fill-rule="evenodd" clip-rule="evenodd" d="M7.99971 1.75C9.34727 1.75 10.3113 2.12655 10.9519 2.5332C11.2689 2.73452 11.5013 2.93996 11.6589 3.10156C11.7375 3.18221 11.7973 3.25289 11.8405 3.30664C11.862 3.33341 11.88 3.35595 11.8933 3.37402C11.8997 3.38284 11.9053 3.39095 11.9099 3.39746C11.9121 3.4006 11.9149 3.40368 11.9167 3.40625C11.9175 3.40736 11.918 3.40911 11.9187 3.41016L11.9206 3.41211V3.41309C11.9166 3.41629 11.8674 3.44969 11.2995 3.83301L11.9216 3.41406C12.1001 3.6788 12.0916 4.02768 11.9001 4.2832L10.9587 5.53809C11.2154 5.66655 11.5124 5.82222 11.821 6.00879C12.7137 6.54857 13.8617 7.40793 14.3796 8.56348C14.6194 9.0988 14.7007 9.74519 14.7312 10.2012C14.7471 10.4399 14.7504 10.65 14.7497 10.8008C14.7494 10.8762 14.7481 10.9378 14.7468 10.9814C14.7461 11.003 14.7453 11.0207 14.7448 11.0332V14.5H13.2448V11.7686H11.7468V14.5H10.2468V11.7686H8.74971V14.5H7.24971V11.7686H5.75264V14.5H4.25264V11.7686H2.75459V14.5H1.25459V11.0332C1.25408 11.0207 1.25328 11.003 1.25264 10.9814C1.25134 10.9378 1.25004 10.8762 1.24971 10.8008C1.24906 10.65 1.25232 10.4399 1.26826 10.2012C1.29873 9.74523 1.38002 9.09878 1.61983 8.56348C2.13768 7.40798 3.28571 6.5486 4.17842 6.00879C4.48669 5.82241 4.78325 5.66649 5.03975 5.53809L4.09932 4.2832C3.908 4.02774 3.89948 3.67873 4.07783 3.41406L4.6999 3.83301C4.12079 3.44211 4.08125 3.41525 4.07881 3.41309V3.41211L4.08076 3.41016C4.08145 3.40916 4.08197 3.40741 4.08272 3.40625C4.08448 3.40369 4.08732 3.40061 4.08955 3.39746C4.09413 3.39096 4.09968 3.38284 4.10615 3.37402C4.11944 3.35595 4.13737 3.33342 4.15889 3.30664C4.20207 3.25291 4.26191 3.18223 4.34053 3.10156C4.49808 2.93997 4.73051 2.73454 5.04756 2.5332C5.68809 2.12653 6.65216 1.75006 7.99971 1.75ZM7.99971 3.25C6.94764 3.25006 6.26065 3.53988 5.85127 3.7998C5.79367 3.8364 5.74086 3.87294 5.69307 3.9082L6.79951 5.38379C6.94064 5.57208 6.98593 5.81592 6.92061 6.04199C6.85519 6.2679 6.68719 6.45024 6.46748 6.53418C6.46675 6.53436 6.46516 6.53454 6.46358 6.53516C6.45943 6.5368 6.45235 6.54025 6.44307 6.54395C6.42399 6.55154 6.39371 6.56302 6.35518 6.5791C6.27775 6.61142 6.16399 6.66089 6.02412 6.72559C5.74249 6.85588 5.3588 7.04809 4.95381 7.29297C4.10856 7.80415 3.30861 8.46352 2.98897 9.17676C2.86504 9.45336 2.79726 9.8658 2.76826 10.2686H13.2312C13.2022 9.86574 13.1344 9.45335 13.0105 9.17676C12.6907 8.46351 11.8909 7.80415 11.0456 7.29297C10.6406 7.04808 10.2569 6.85586 9.9753 6.72559C9.83539 6.66087 9.72163 6.6114 9.64424 6.5791C9.60565 6.563 9.57537 6.55153 9.55635 6.54395C9.547 6.54021 9.53992 6.53674 9.53584 6.53516C9.53415 6.53455 9.53255 6.53442 9.53194 6.53418C9.31234 6.45018 9.14418 6.26784 9.07881 6.04199C9.01355 5.81601 9.05889 5.57204 9.1999 5.38379L10.3054 3.9082C10.2577 3.87308 10.2055 3.83623 10.1481 3.7998C9.7387 3.53989 9.05177 3.25 7.99971 3.25Z" fill="#FF00FF"/>
</svg>
