<svg width="16" height="16" viewBox="0 0 16 16" fill="none" xmlns="http://www.w3.org/2000/svg">
<g clip-path="url(#clip0_3347_4664)">
<path d="M8.76538 1.50659C9.77419 0.497784 11.4099 0.497821 12.4187 1.50659L12.5271 1.62085C12.8493 1.98428 13.0494 2.41733 13.1316 2.86694C13.6299 2.9578 14.1073 3.19518 14.4929 3.58081L14.6707 3.7771C15.4979 4.79173 15.4386 6.28846 14.4929 7.23413C13.6685 8.05832 12.4263 8.20733 11.449 7.68433L7.68433 11.449C8.20734 12.4263 8.05833 13.6685 7.23413 14.4929C6.28846 15.4386 4.79174 15.4979 3.7771 14.6707L3.58081 14.4929C3.19518 14.1073 2.9578 13.6299 2.86694 13.1316C2.41733 13.0494 1.98428 12.8493 1.62085 12.5271L1.50659 12.4187C0.497822 11.4099 0.497783 9.77419 1.50659 8.76538C2.33071 7.94152 3.57239 7.79194 4.54956 8.31421L8.31421 4.54956C7.79194 3.57239 7.94152 2.33071 8.76538 1.50659ZM11.3582 2.56714C10.9351 2.14415 10.249 2.14412 9.82593 2.56714C9.40319 2.99019 9.40304 3.67641 9.82593 4.09937L9.91968 4.21362C10.0012 4.33592 10.0457 4.48049 10.0457 4.62964C10.0456 4.82844 9.96651 5.01933 9.82593 5.15991L5.15991 9.82593C4.86702 10.1188 4.39226 10.1188 4.09937 9.82593C3.67642 9.40304 2.99019 9.40319 2.56714 9.82593C2.14412 10.249 2.14416 10.9351 2.56714 11.3582L2.6648 11.4451C2.90233 11.6319 3.20011 11.7055 3.48706 11.6648C3.72045 11.6318 3.95612 11.71 4.1228 11.8767C4.28949 12.0434 4.36775 12.2791 4.33472 12.5125C4.28816 12.8403 4.39113 13.1821 4.64136 13.4324L4.72339 13.5066C5.14887 13.8537 5.77694 13.829 6.17359 13.4324C6.59632 13.0093 6.59648 12.3231 6.17359 11.9001C6.03293 11.7595 5.95386 11.5688 5.95386 11.3699C5.95394 11.1711 6.033 10.9802 6.17359 10.8396L10.8396 6.17358L10.8972 6.12183C11.1918 5.88169 11.6256 5.89904 11.9001 6.17358C12.3231 6.59647 13.0093 6.59632 13.4324 6.17358C13.829 5.77694 13.8537 5.14887 13.5066 4.72339L13.4324 4.64136C13.2135 4.42249 12.9248 4.31596 12.6365 4.32398L12.5125 4.33472C12.2791 4.36775 12.0434 4.28949 11.8767 4.1228C11.71 3.95612 11.6318 3.72045 11.6648 3.48706C11.7055 3.20011 11.6319 2.90233 11.4451 2.6648L11.3582 2.56714Z" fill="#FF00FF"/>
</g>
<defs>
<clipPath id="clip0_3347_4664">
<rect width="16" height="16" fill="white"/>
</clipPath>
</defs>
</svg>
