<svg width="16" height="16" viewBox="0 0 16 16" fill="none" xmlns="http://www.w3.org/2000/svg">
<path d="M9.49951 14.2502H6.49951V12.7502H9.49951V14.2502ZM13.5571 3.5022L9.0083 8.55493L12.2915 12.2034C12.4528 12.1812 12.6572 12.1542 12.8872 12.1194C13.4639 12.0322 14.1958 11.9096 14.8384 11.7678L15.1606 13.2327C14.4703 13.3849 13.7014 13.5126 13.1118 13.6018C12.8159 13.6466 12.5615 13.682 12.3813 13.7063C12.2914 13.7184 12.2189 13.7282 12.1694 13.7346C12.1451 13.7378 12.1259 13.7408 12.1128 13.7424C12.1064 13.7432 12.1006 13.743 12.0972 13.7434C12.0957 13.7437 12.0941 13.7443 12.0933 13.7444H12.0913C11.8484 13.7742 11.6056 13.6841 11.4419 13.5022L7.99951 9.677L4.55713 13.5022C4.3933 13.684 4.1506 13.7743 3.90771 13.7444H3.90576C3.90486 13.7442 3.90332 13.7436 3.90186 13.7434C3.89834 13.743 3.89255 13.7432 3.88623 13.7424C3.8731 13.7408 3.85385 13.7377 3.82959 13.7346C3.78005 13.7282 3.70761 13.7184 3.61768 13.7063C3.43747 13.682 3.18315 13.6466 2.88721 13.6018C2.29753 13.5126 1.52865 13.3849 0.838379 13.2327L1.16064 11.7678C1.80324 11.9096 2.53507 12.0321 3.11182 12.1194C3.34185 12.1542 3.54619 12.1812 3.70752 12.2034L6.98975 8.55493L2.44189 3.5022L3.55713 2.49829L7.99951 7.43384L12.4419 2.49829L13.5571 3.5022Z" fill="#FF00FF"/>
</svg>
