<svg width="16" height="16" viewBox="0 0 16 16" fill="none" xmlns="http://www.w3.org/2000/svg">
<path d="M2.40137 2.75H5.5L5.60547 2.75781C5.84708 2.7921 6.05979 2.94283 6.1709 3.16504L6.88379 4.59082C7.29115 5.40553 8.02168 6.01237 8.89746 6.2627L10.7061 6.7793L11.8018 7.0918C13.3093 7.52253 14.4114 8.77212 14.6836 10.2744C15.0088 10.3565 15.25 10.6493 15.25 11V13.5C15.25 13.9142 14.9142 14.25 14.5 14.25H1.5C1.08579 14.25 0.75 13.9142 0.75 13.5V11L0.753906 10.9229C0.783793 10.6304 0.982142 10.3888 1.25 10.2939V3.72656L0.375977 2.41602L1.62402 1.58398L2.40137 2.75ZM2.25 12.75H13.75V11.75H2.25V12.75ZM2.75 10.25H9.1875C9.17039 9.84344 9.17126 9.30902 9.26465 8.85059L9.33594 8.54883C9.38689 8.35554 9.4464 8.16607 9.50488 7.99512L8.48633 7.7041C7.20611 7.33832 6.13744 6.4526 5.54199 5.26172L5.03613 4.25H2.75V10.25ZM10.9521 8.4082C10.8935 8.57478 10.834 8.75342 10.7881 8.92676L10.7354 9.14941C10.675 9.44556 10.6695 9.86443 10.6885 10.25H13.1357C12.8863 9.4353 12.2418 8.77752 11.3906 8.53418L10.9521 8.4082Z" fill="#FF00FF"/>
</svg>
