<svg width="16" height="16" viewBox="0 0 16 16" fill="none" xmlns="http://www.w3.org/2000/svg">
<path fill-rule="evenodd" clip-rule="evenodd" d="M10.5308 13.5303C9.85838 14.2027 8.89927 14.4999 8.00051 14.5C7.10172 14.5 6.14271 14.2027 5.47023 13.5303L6.53078 12.4697C6.85832 12.7972 7.39946 13 8.00051 13C8.60151 12.9999 9.14277 12.7972 9.47023 12.4697L10.5308 13.5303ZM8.75051 3.75H11.5005C11.9146 3.75018 12.2505 4.0859 12.2505 4.5C12.2505 5.437 11.7239 6.37321 10.9907 7.05078C10.947 7.09119 10.9017 7.13083 10.856 7.16992C11.2267 7.27511 11.6025 7.40108 11.9732 7.55273C13.3919 8.13327 14.8177 9.10269 15.6587 10.6406C15.7854 10.8728 15.7809 11.1552 15.646 11.3828C15.511 11.6105 15.2652 11.7499 15.0005 11.75H1.00051C0.735743 11.75 0.490098 11.6105 0.355 11.3828C0.220015 11.1551 0.215477 10.8729 0.342305 10.6406C1.18343 9.10267 2.60908 8.13324 4.02785 7.55273C4.39822 7.40122 4.77361 7.27505 5.14406 7.16992C5.09849 7.13098 5.05383 7.09103 5.01027 7.05078C4.27703 6.37319 3.75051 5.43707 3.75051 4.5C3.75051 4.30109 3.82958 4.11038 3.97023 3.96973C4.11087 3.82918 4.30167 3.75 4.50051 3.75H7.25051V1H8.75051V3.75ZM8.00051 8.25C7.10684 8.25 5.81983 8.44083 4.59621 8.94141C3.821 9.25858 3.09935 9.68904 2.51613 10.25H13.4849C12.9017 9.68903 12.18 9.2586 11.4048 8.94141C10.1813 8.44081 8.89423 8.25005 8.00051 8.25ZM5.47512 5.25C5.60285 5.48273 5.78476 5.72454 6.02785 5.94922C6.54206 6.42432 7.24173 6.75 8.00051 6.75C8.75925 6.7499 9.45901 6.42434 9.97316 5.94922C10.2162 5.72454 10.3982 5.48271 10.5259 5.25H5.47512Z" fill="#FF00FF"/>
</svg>
