<svg width="16" height="16" viewBox="0 0 16 16" fill="none" xmlns="http://www.w3.org/2000/svg">
<path d="M9.50024 1.25C10.4667 1.25 11.2502 2.0335 11.2502 3V4.25H14.0002C14.2144 4.25 14.4185 4.34191 14.5608 4.50195C14.703 4.66198 14.7704 4.87529 14.7454 5.08789L13.7454 13.5879C13.7008 13.9655 13.3805 14.25 13.0002 14.25H3.00024C2.66748 14.25 2.38067 14.0321 2.28442 13.7246L2.25512 13.5879L1.25512 5.08789C1.23011 4.87529 1.29751 4.66197 1.43969 4.50195C1.58201 4.34191 1.78606 4.25 2.00024 4.25H4.75024V3C4.75024 2.0335 5.53374 1.25 6.50024 1.25H9.50024ZM3.66723 12.75H12.3332L13.1565 5.75H2.84399L3.66723 12.75ZM6.50024 2.75C6.36217 2.75 6.25024 2.86193 6.25024 3V4.25H9.75024V3C9.75024 2.86193 9.63831 2.75 9.50024 2.75H6.50024Z" fill="#FF00FF"/>
</svg>
