<svg width="16" height="16" viewBox="0 0 16 16" fill="none" xmlns="http://www.w3.org/2000/svg">
<path d="M5.5 1.75C6.42044 1.75 7.24569 2.06014 7.84277 2.65723C7.96134 2.77579 8.06831 2.90355 8.16406 3.03906C8.19326 3.00407 8.2226 2.96929 8.25293 2.93555C8.87266 2.246 9.80066 1.7481 10.873 1.92676L11.0615 1.96484C11.9777 2.18607 12.5512 2.83876 12.9502 3.21289C13.396 3.63089 13.7815 3.91699 14.5 3.91699V5.41699C13.2186 5.41699 12.4789 4.8271 11.9248 4.30762C11.4223 3.83654 11.1673 3.55984 10.7949 3.44531L10.627 3.40625C10.1939 3.33406 9.74692 3.51698 9.36816 3.93848C8.98491 4.36509 8.75001 4.96014 8.75 5.5V6.2002C9.25603 5.90308 9.85445 5.75 10.5 5.75C11.4204 5.75 12.2457 6.06014 12.8428 6.65723C13.4399 7.25431 13.75 8.07956 13.75 9H12.25C12.25 8.42044 12.0601 7.99569 11.7822 7.71777C11.5043 7.43986 11.0796 7.25 10.5 7.25C9.92044 7.25 9.49569 7.43986 9.21777 7.71777C8.93986 7.99569 8.75 8.42044 8.75 9V12.75H12V14.25H4V12.75H7.25V9C7.25 8.42044 7.06014 7.99569 6.78223 7.71777C6.50431 7.43986 6.07956 7.25 5.5 7.25C4.92044 7.25 4.49569 7.43986 4.21777 7.71777C3.93986 7.99569 3.75 8.42044 3.75 9H2.25C2.25 8.07956 2.56014 7.25431 3.15723 6.65723C3.75431 6.06014 4.57956 5.75 5.5 5.75C6.14555 5.75 6.74397 5.90308 7.25 6.2002V5C7.25 4.42044 7.06014 3.99569 6.78223 3.71777C6.50431 3.43986 6.07956 3.25 5.5 3.25C4.92044 3.25 4.49569 3.43986 4.21777 3.71777C3.93986 3.99569 3.75 4.42044 3.75 5H2.25C2.25 4.07956 2.56014 3.25431 3.15723 2.65723C3.75431 2.06014 4.57956 1.75 5.5 1.75Z" fill="#FF00FF"/>
</svg>
