<svg width="16" height="16" viewBox="0 0 16 16" fill="none" xmlns="http://www.w3.org/2000/svg">
<path d="M8.5 1.75C9.4665 1.75 10.25 2.5335 10.25 3.5V6.91699H11.5C11.9142 6.917 12.25 7.25279 12.25 7.66699V9.75C12.25 10.0261 12.4739 10.25 12.75 10.25C13.0261 10.25 13.25 10.0261 13.25 9.75V5.40137L12.084 4.62402L12.916 3.37598L14.416 4.37598C14.6247 4.51508 14.75 4.74924 14.75 5V9.75C14.75 10.8546 13.8546 11.75 12.75 11.75C11.6454 11.75 10.75 10.8546 10.75 9.75V8.41699H10.25V12.75H15V14.25H2C1.58579 14.25 1.25 13.9142 1.25 13.5V3.5C1.25 2.5335 2.0335 1.75 3 1.75H8.5ZM3 3.25C2.86193 3.25 2.75 3.36193 2.75 3.5V12.75H8.75V3.5C8.75 3.36193 8.63807 3.25 8.5 3.25H3Z" fill="#FF00FF"/>
</svg>
