<svg width="16" height="16" viewBox="0 0 16 16" fill="none" xmlns="http://www.w3.org/2000/svg">
<path fill-rule="evenodd" clip-rule="evenodd" d="M6.95215 1.82405C7.25992 1.79752 7.55876 1.96399 7.69434 2.25178L7.69531 2.25276C7.69576 2.25371 7.69635 2.25567 7.69727 2.25764C7.69942 2.26219 7.70362 2.2699 7.70801 2.27913C7.71683 2.29768 7.73 2.32564 7.74707 2.36116C7.78147 2.43272 7.83184 2.5368 7.89453 2.66389C8.02024 2.91872 8.19486 3.26633 8.39258 3.63752C8.80672 4.41501 9.26341 5.18543 9.56445 5.50764C9.92858 5.8972 10.6599 6.32939 11.5684 6.74202C12.4494 7.1422 13.4012 7.48243 14.1182 7.7176C14.5162 7.84825 14.854 8.06301 15.0859 8.38752C15.3158 8.70929 15.3879 9.06365 15.3965 9.37385C15.4048 9.67594 15.3538 9.97539 15.3008 10.2264C15.2905 10.2752 15.2776 10.3237 15.2666 10.3719C15.3833 10.4759 15.4815 10.5986 15.5566 10.7362C15.7473 11.0854 15.7769 11.4794 15.7314 11.8094C15.6854 12.1435 15.5523 12.4946 15.3203 12.7781C15.0824 13.069 14.7068 13.321 14.2178 13.3211H2.33398C1.15976 13.3211 0.250214 12.344 0.25 11.1922V9.71467C0.250038 9.37714 0.370268 9.04619 0.583008 8.78889V4.98518C0.583058 4.7507 0.693128 4.5293 0.879883 4.38752C1.06669 4.24584 1.30935 4.19947 1.53516 4.26252H1.53613L1.57031 4.27229C1.59506 4.27896 1.63264 4.28919 1.68066 4.30159C1.77689 4.32643 1.91595 4.36062 2.08398 4.39924C2.42261 4.47707 2.87035 4.56922 3.32129 4.62971C3.78382 4.69174 4.2002 4.71311 4.49512 4.67659C4.57237 4.66701 4.62787 4.65416 4.66602 4.64338C4.72623 4.43695 4.77253 4.26097 4.84473 4.01155C4.92038 3.75021 5.01466 3.45978 5.15527 3.18147C5.45977 2.57902 5.95955 2.08066 6.82031 1.84748L6.95215 1.82405ZM7.22266 10.3221C5.22897 9.90288 3.52481 9.61272 1.75 9.78401V11.1922C1.75021 11.5636 2.03546 11.8211 2.33398 11.8211H14.1631C14.1942 11.7798 14.2317 11.7019 14.2451 11.6043C14.2494 11.5732 14.2499 11.5451 14.249 11.5213C11.4813 11.2829 9.21566 10.7412 7.22266 10.3221ZM6.67871 3.58577C6.60295 3.66542 6.54521 3.75627 6.49414 3.85725C6.41704 4.00981 6.35294 4.19439 6.28516 4.42854C6.22751 4.62772 6.14457 4.95177 6.06641 5.20588C5.9544 5.56966 5.69781 5.8038 5.44043 5.94221C5.19533 6.07396 4.92301 6.1357 4.67969 6.16584C4.19181 6.22629 3.62367 6.18331 3.12207 6.11604C2.7525 6.06647 2.39222 5.99633 2.08301 5.93147V8.25471C3.93017 8.15004 5.68766 8.46667 7.53125 8.85432C9.42072 9.25162 11.418 9.72487 13.8193 9.97346C13.8235 9.95442 13.829 9.93565 13.833 9.91682C13.8793 9.69724 13.8998 9.53647 13.8965 9.41487C13.8933 9.30184 13.8707 9.2672 13.8652 9.25959C13.8614 9.2542 13.8226 9.19892 13.6504 9.14241C12.908 8.89889 11.8992 8.54013 10.9482 8.10823C10.0247 7.68877 9.05178 7.15501 8.46875 6.53108C8.0092 6.03922 7.46511 5.0856 7.06934 4.3426C6.92357 4.06895 6.79048 3.80815 6.67871 3.58577Z" fill="#FF00FF"/>
</svg>
