<svg width="16" height="16" viewBox="0 0 16 16" fill="none" xmlns="http://www.w3.org/2000/svg">
<path fill-rule="evenodd" clip-rule="evenodd" d="M7.26636 5.92517C8.07438 5.84783 8.67836 6.37736 8.88647 6.97497C8.99359 7.28297 9.01171 7.64403 8.88354 7.9906C8.84021 8.1076 8.78009 8.21679 8.70874 8.31775L13.6033 8.01501C14.6933 7.94768 15.4044 8.74747 15.5613 9.5531C15.6409 9.96242 15.5919 10.422 15.3542 10.8256C15.1102 11.2394 14.7015 11.5334 14.1794 11.6576L14.1804 11.6586L7.89233 13.2181C7.36088 13.3499 6.81489 13.4164 6.26733 13.4164H1.28394V11.9164H6.26733C6.69317 11.9164 7.11769 11.8646 7.53101 11.7621L13.8201 10.2025L13.8298 10.1996C13.9928 10.1614 14.0431 10.0962 14.0623 10.0638C14.0888 10.0186 14.1084 9.94072 14.0886 9.83923C14.0686 9.73722 14.0155 9.64716 13.95 9.59021C13.8931 9.54098 13.8154 9.50478 13.696 9.51208L5.47046 10.0218C5.11244 10.044 4.78849 9.80933 4.698 9.46228C4.60789 9.11515 4.77601 8.75219 5.09937 8.59704L7.46167 7.46423C7.4629 7.46348 7.46443 7.46188 7.46558 7.4613C7.46243 7.45403 7.45985 7.44555 7.45483 7.43884C7.44832 7.43018 7.44174 7.42439 7.43726 7.42126C7.4334 7.41861 7.43028 7.41783 7.42847 7.41736C7.42722 7.41704 7.41975 7.41568 7.40503 7.41736C7.39409 7.41862 7.38281 7.41951 7.37183 7.42029L4.23218 7.64001C3.89432 7.6637 3.57995 7.8241 3.36206 8.08337L1.90796 9.81579L0.759521 8.85095L2.21362 7.11853C2.69303 6.54787 3.38418 6.196 4.12769 6.14392L7.26636 5.92419V5.92517ZM11.6951 3.27868C12.1474 2.80326 12.8814 2.80326 13.3337 3.27868C13.7858 3.75409 13.7859 4.52504 13.3337 5.00036L11.5125 6.75427C11.4156 6.84759 11.2626 6.84759 11.1658 6.75427L9.34546 5.00036C8.8931 4.52494 8.8931 3.75411 9.34546 3.27868C9.79783 2.80332 10.5308 2.80328 10.9832 3.27868L11.3396 3.65271L11.6951 3.27868Z" fill="#FF00FF"/>
</svg>
