<svg width="16" height="16" viewBox="0 0 16 16" fill="none" xmlns="http://www.w3.org/2000/svg">
<path fill-rule="evenodd" clip-rule="evenodd" d="M8 3.75051H4C3.03352 3.75051 2.25003 4.53404 2.25 5.50051V10.0005C2.25025 10.9668 3.03366 11.7505 4 11.7505H6.58594C7.05001 11.7505 7.49509 11.9351 7.82324 12.2632L10.0303 14.4702L8.96973 15.5308L6.7627 13.3238C6.71585 13.2769 6.65219 13.2505 6.58594 13.2505H4C2.20523 13.2505 0.750253 11.7952 0.75 10.0005V5.50051C0.75003 3.70561 2.2051 2.25051 4 2.25051H8V3.75051ZM15.25 10.0005C15.2497 11.7952 13.7948 13.2505 12 13.2505H10V11.7505H12C12.9663 11.7505 13.7497 10.9668 13.75 10.0005V7.00051H15.25V10.0005ZM9.0957 5.38918C9.17108 5.15999 9.49591 5.15999 9.57129 5.38918L9.78906 6.05227C9.81392 6.12755 9.87292 6.18667 9.94824 6.21145L10.6113 6.42922C10.8405 6.5046 10.8405 6.82943 10.6113 6.90481L9.94824 7.12258C9.87289 7.14738 9.81388 7.20641 9.78906 7.28176L9.57129 7.94484C9.49591 8.17404 9.17108 8.17404 9.0957 7.94484L8.87793 7.28176C8.85316 7.20646 8.79401 7.14744 8.71875 7.12258L8.05566 6.90481C7.82647 6.82943 7.82647 6.5046 8.05566 6.42922L8.71875 6.21145C8.79398 6.18661 8.85311 6.1275 8.87793 6.05227L9.0957 5.38918ZM12.0957 1.38918C12.1711 1.15999 12.4959 1.15999 12.5713 1.38918L13.0361 2.80422C13.0609 2.87947 13.1201 2.9385 13.1953 2.9634L14.6113 3.42922C14.8404 3.5046 14.8403 3.82833 14.6113 3.90383L13.1953 4.36965C13.1201 4.39449 13.061 4.45365 13.0361 4.52883L12.5713 5.94484C12.4959 6.17401 12.1711 6.17396 12.0957 5.94484L11.6299 4.52883C11.605 4.45363 11.546 4.3944 11.4707 4.36965L10.0557 3.90383C9.82647 3.82845 9.82647 3.5046 10.0557 3.42922L11.4707 2.9634C11.5461 2.93859 11.6051 2.87964 11.6299 2.80422L12.0957 1.38918Z" fill="#FF00FF"/>
</svg>
