<svg width="16" height="16" viewBox="0 0 16 16" fill="none" xmlns="http://www.w3.org/2000/svg">
<path d="M9 1.25C10.5188 1.25 11.75 2.48122 11.75 4V5.25H13C14.5188 5.25 15.75 6.48122 15.75 8L15.75 11C15.75 12.5188 14.5188 13.75 13 13.75H12V12.25H13C13.6904 12.25 14.25 11.6904 14.25 11L14.25 8C14.25 7.30964 13.6904 6.75 13 6.75H11.75V7C11.75 8.51878 10.5188 9.75 9 9.75L5.75 9.75V11C5.75 11.6904 6.30964 12.25 7 12.25L8.58594 12.25C9.05001 12.25 9.49509 12.4345 9.82324 12.7627L11.5303 14.4697L10.4697 15.5303L8.7627 13.8232C8.71585 13.7764 8.65219 13.75 8.58594 13.75L7 13.75C5.48122 13.75 4.25 12.5188 4.25 11L4.25 9.75H3C1.48122 9.75 0.25 8.51878 0.25 7L0.25 4C0.250001 2.48122 1.48122 1.25 3 1.25L9 1.25ZM3 2.75C2.30964 2.75 1.75 3.30964 1.75 4L1.75 7C1.75 7.69036 2.30964 8.25 3 8.25H4.25V8C4.25 6.48122 5.48122 5.25 7 5.25H10.25V4C10.25 3.30964 9.69036 2.75 9 2.75L3 2.75ZM7 6.75C6.30964 6.75 5.75 7.30964 5.75 8V8.25H9C9.69036 8.25 10.25 7.69035 10.25 7V6.75H7Z" fill="#FF00FF"/>
</svg>
