<svg width="16" height="16" viewBox="0 0 16 16" fill="none" xmlns="http://www.w3.org/2000/svg">
<path d="M2.87256 2.87256C5.70372 0.0414019 10.2951 0.0416878 13.1265 2.87256C15.9578 5.70386 15.9578 10.2952 13.1265 13.1265C10.2952 15.9578 5.70386 15.9578 2.87256 13.1265C0.0416878 10.2951 0.0414021 5.70372 2.87256 2.87256ZM12.0649 3.93408C9.81939 1.689 6.17945 1.68871 3.93408 3.93408C1.68871 6.17945 1.689 9.81939 3.93408 12.0649C6.1796 14.3105 9.81943 14.3105 12.0649 12.0649C14.3105 9.81943 14.3105 6.1796 12.0649 3.93408ZM11.5601 5.99854L7.56006 10.4985C7.41323 10.6634 7.20073 10.7562 6.97998 10.7505C6.75926 10.7446 6.55155 10.6416 6.41357 10.4692L4.41357 7.96924L5.58545 7.03174L7.02979 8.8374L10.439 5.00244L11.5601 5.99854Z" fill="#FF00FF"/>
</svg>
