<svg width="16" height="16" viewBox="0 0 16 16" fill="none" xmlns="http://www.w3.org/2000/svg">
<path d="M14 5.25H13.1758L12.2461 14.0781C12.2059 14.4598 11.8838 14.75 11.5 14.75L4.5 14.75C4.11618 14.75 3.79409 14.4598 3.75391 14.0781L2.82422 5.25H2V3.75L14 3.75V5.25ZM5.17578 13.25L10.8242 13.25L11.667 5.25L4.33301 5.25L5.17578 13.25ZM8 0.75C8.79591 0.75 9.40993 0.949682 9.83496 1.16211C10.0463 1.26776 10.21 1.37651 10.3252 1.46289C10.3827 1.50602 10.4288 1.54344 10.4629 1.57324C10.48 1.58818 10.4936 1.60174 10.5049 1.6123C10.5104 1.61749 10.5154 1.62196 10.5195 1.62598C10.5216 1.62799 10.5237 1.63014 10.5254 1.63184C10.5262 1.63266 10.5276 1.63304 10.5283 1.63379L10.5293 1.63574H10.5303C10.5304 1.63618 10.5205 1.64644 10 2.16699C9.4882 2.67879 9.4701 2.69641 9.46973 2.69727L9.47168 2.69922L9.47363 2.7002L9.47949 2.70605C9.48035 2.70686 9.47837 2.70544 9.47461 2.70215C9.46693 2.69545 9.45016 2.68113 9.4248 2.66211C9.37332 2.62352 9.28669 2.56475 9.16504 2.50391C8.92342 2.3831 8.53709 2.25 8 2.25C7.46291 2.25 7.07658 2.3831 6.83496 2.50391C6.71331 2.56475 6.62668 2.62352 6.5752 2.66211C6.54984 2.68113 6.53307 2.69545 6.52539 2.70215C6.52163 2.70544 6.51965 2.70686 6.52051 2.70605L6.52637 2.7002L6.52832 2.69922L6.53027 2.69727C6.5299 2.69641 6.5118 2.67879 6 2.16699C5.47945 1.64644 5.46964 1.63618 5.46973 1.63574H5.4707L5.47168 1.63379C5.47244 1.63304 5.47377 1.63266 5.47461 1.63184C5.47633 1.63014 5.47839 1.62799 5.48047 1.62598C5.48461 1.62196 5.48959 1.61749 5.49512 1.6123C5.50639 1.60174 5.52004 1.58818 5.53711 1.57324C5.57117 1.54344 5.61732 1.50602 5.6748 1.46289C5.78998 1.37651 5.95374 1.26776 6.16504 1.16211C6.59007 0.949682 7.20409 0.75 8 0.75Z" fill="#FF00FF"/>
</svg>
