<svg width="16" height="16" viewBox="0 0 16 16" fill="none" xmlns="http://www.w3.org/2000/svg">
<path d="M7.41895 1.41532C7.7666 1.16706 8.2334 1.16706 8.58105 1.41532L14.5811 5.70048C14.8439 5.88819 15 6.19197 15 6.51493V12.5003C14.9998 13.0524 14.5522 13.5003 14 13.5003H2C1.44781 13.5003 1.00015 13.0524 1 12.5003V6.51493C1 6.19197 1.15614 5.88819 1.41895 5.70048L7.41895 1.41532ZM2.69043 6.50028C2.45682 6.50035 2.35116 6.79193 2.53027 6.94169L7.83984 11.3665C7.93256 11.4438 8.06744 11.4438 8.16016 11.3665L13.4697 6.94169C13.6488 6.79192 13.5432 6.50035 13.3096 6.50028H2.69043Z" fill="#FF00FF"/>
</svg>
