<svg width="16" height="16" viewBox="0 0 16 16" fill="none" xmlns="http://www.w3.org/2000/svg">
<path d="M12.167 2.25391C13.8843 2.34082 15.25 3.76109 15.25 5.5V10C15.25 11.7949 13.7949 13.25 12 13.25H10V11.75H12C12.9665 11.75 13.75 10.9665 13.75 10V5.5C13.75 4.59384 13.0613 3.84829 12.1787 3.75879L12 3.75H4C3.03352 3.75 2.25003 4.53353 2.25 5.5V10C2.25 10.9665 3.0335 11.75 4 11.75H6.58594L6.75879 11.7588C7.15938 11.7986 7.53609 11.9755 7.82324 12.2627L10.0303 14.4697L8.96973 15.5303L6.7627 13.3232C6.72753 13.2881 6.68283 13.2645 6.63477 13.2549L6.58594 13.25H4C2.20508 13.25 0.750004 11.7949 0.75 10V5.5C0.75003 3.7051 2.2051 2.25 4 2.25H12L12.167 2.25391Z" fill="#FF00FF"/>
</svg>
