<svg width="16" height="16" viewBox="0 0 16 16" fill="none" xmlns="http://www.w3.org/2000/svg">
<path d="M15.5303 9.53027L13.5605 11.5L15.5303 13.4697L14.4697 14.5303L12.5 12.5605L10.5303 14.5303L9.46973 13.4697L11.4395 11.5L9.46973 9.53027L10.5303 8.46973L12.5 10.4395L14.4697 8.46973L15.5303 9.53027ZM8 9.75C6.43031 9.75 5.09727 10.3106 4.16406 11.0791C3.5222 11.6077 3.10441 12.2028 2.89941 12.75H8V14.25H2C1.58579 14.25 1.25 13.9142 1.25 13.5C1.25 12.2043 2.03958 10.8855 3.21094 9.9209C4.40271 8.93951 6.0698 8.25 8 8.25V9.75ZM8 1.75C9.51878 1.75 10.75 2.98122 10.75 4.5C10.75 6.01878 9.51878 7.25 8 7.25C6.48122 7.24999 5.25 6.01878 5.25 4.5C5.25 2.98122 6.48122 1.75001 8 1.75ZM8 3.25C7.30965 3.25001 6.75 3.80965 6.75 4.5C6.75 5.19035 7.30965 5.74999 8 5.75C8.69036 5.75 9.25 5.19036 9.25 4.5C9.25 3.80964 8.69036 3.25 8 3.25Z" fill="#FF00FF"/>
</svg>
