<svg width="16" height="16" viewBox="0 0 16 16" fill="none" xmlns="http://www.w3.org/2000/svg">
<path fill-rule="evenodd" clip-rule="evenodd" d="M5.5 4.25C5.91421 4.25 6.25 4.58579 6.25 5C6.25 5.41421 5.91421 5.75 5.5 5.75C5.08579 5.75 4.75 5.41421 4.75 5C4.75 4.58579 5.08579 4.25 5.5 4.25ZM5.5 7.25C6.74264 7.25 7.75 6.24264 7.75 5C7.75 3.75736 6.74264 2.75 5.5 2.75C4.25736 2.75 3.25 3.75736 3.25 5C3.25 6.24264 4.25736 7.25 5.5 7.25ZM5.5 8.25C6.37599 8.25 7.2336 8.43121 7.99338 8.76114C8.74294 8.43283 9.59843 8.25 10.5 8.25C13.2132 8.25 15.75 9.9883 15.75 12.5C15.75 12.9142 15.4142 13.25 15 13.25H10H6H1C0.585786 13.25 0.25 12.9142 0.25 12.5C0.25 9.9883 2.78684 8.25 5.5 8.25ZM5.5 9.75C7.33805 9.75 8.6695 10.6751 9.10059 11.75H6H1.89941C2.3305 10.6751 3.66195 9.75 5.5 9.75ZM12.75 5C12.75 6.10457 11.8546 7 10.75 7C9.64543 7 8.75 6.10457 8.75 5C8.75 3.89543 9.64543 3 10.75 3C11.8546 3 12.75 3.89543 12.75 5Z" fill="#FF00FF"/>
</svg>
