<svg width="16" height="16" viewBox="0 0 16 16" fill="none" xmlns="http://www.w3.org/2000/svg">
<path d="M8.69531 1.74133C9.67067 1.74138 10.5141 2.02481 11.1895 2.5929C11.8542 3.1522 12.2978 3.93865 12.5781 4.84973L11.8613 5.07043L11.1445 5.29016C10.9209 4.56367 10.6045 4.06078 10.2236 3.74036C9.85334 3.42895 9.36544 3.24138 8.69531 3.24133C7.95204 3.24142 7.2275 3.53933 6.67188 4.24036C6.3541 4.64152 6.07633 5.19487 5.89355 5.93274L9.51855 5.93274V7.43274L5.68262 7.43274C5.67234 7.62303 5.66504 7.82113 5.66504 8.02747C5.66504 8.20016 5.66986 8.36708 5.67676 8.52844H8.97266V10.0284H5.86426C6.03996 10.8171 6.31725 11.4013 6.64258 11.8185C7.18263 12.5107 7.90193 12.8135 8.69531 12.8136C9.36569 12.8135 9.8535 12.6258 10.2236 12.3146C10.6045 11.9941 10.9209 11.4906 11.1445 10.7638L12.5781 11.2052C12.2978 12.1162 11.8542 12.9027 11.1895 13.462C10.5141 14.0301 9.67089 14.3135 8.69531 14.3136C7.47772 14.3135 6.30593 13.8262 5.45898 12.7404C4.91996 12.049 4.53737 11.1454 4.33398 10.0284H3V8.52844H4.17578C4.16961 8.36486 4.16504 8.1979 4.16504 8.02747C4.16504 7.82428 4.17152 7.62609 4.18066 7.43274H3L3 5.93274H4.35742C4.57332 4.85426 4.96427 3.98104 5.49609 3.30969C6.34926 2.23279 7.51499 1.74142 8.69531 1.74133Z" fill="#FF00FF"/>
</svg>
