<svg width="16" height="16" viewBox="0 0 16 16" fill="none" xmlns="http://www.w3.org/2000/svg">
<path d="M8.67215 1.72998C9.80527 1.72999 10.7812 2.12436 11.471 2.85791C12.1554 3.58582 12.4963 4.58176 12.4964 5.68018L10.9964 5.68018C10.9963 4.88901 10.7541 4.285 10.3782 3.88525C10.0075 3.49104 9.44627 3.22999 8.67215 3.22998C7.88708 3.22998 7.29804 3.48672 6.90945 3.86572C6.5216 4.24423 6.28055 4.79596 6.28055 5.48779C6.28066 6.19662 6.53 6.78982 6.87137 7.46729H10.1507V8.96729H7.58914C7.77855 9.45731 7.91917 10.0001 7.91922 10.603C7.91922 10.8792 7.88748 11.2059 7.82156 11.5503C7.87616 11.5969 7.93045 11.6417 7.98269 11.686C8.7418 12.3304 9.36708 12.7856 10.2014 12.7856C10.6779 12.7856 10.974 12.6211 11.1741 12.3647C11.396 12.0801 11.5652 11.594 11.5764 10.853L12.3264 10.8638L13.0764 10.8755C13.0623 11.8057 12.8497 12.6546 12.3557 13.2876C11.8397 13.9489 11.0857 14.2856 10.2014 14.2856C8.9271 14.2856 7.99328 13.6403 7.27859 13.0532C6.86075 13.763 6.15008 14.4194 5.05984 14.4194C4.50109 14.4194 3.9607 14.2379 3.55398 13.8579C3.14117 13.472 2.92123 12.932 2.9241 12.3306C2.92706 11.7208 3.16383 11.1755 3.59695 10.7896C4.0221 10.4107 4.58282 10.231 5.16922 10.231C5.63726 10.231 6.05079 10.3573 6.41531 10.5376C6.40141 10.0001 6.21842 9.52209 5.94754 8.96729H4.01785V7.46729H5.21316C4.97218 6.89341 4.78063 6.23988 4.78055 5.48779C4.78055 4.43254 5.15684 3.47982 5.86258 2.7915C6.56782 2.10367 7.54988 1.72998 8.67215 1.72998ZM5.16922 11.731C4.88229 11.731 4.69802 11.8171 4.595 11.9087C4.49999 11.9934 4.42519 12.1246 4.4241 12.3374C4.42303 12.5583 4.49698 12.6861 4.5784 12.7622C4.66608 12.8441 4.8209 12.9194 5.05984 12.9194C5.46749 12.9194 5.78635 12.6851 6.04324 12.1909C6.0605 12.1577 6.07512 12.1227 6.09109 12.0884C6.05435 12.0631 6.01861 12.0366 5.98172 12.0132C5.6755 11.8189 5.42106 11.731 5.16922 11.731Z" fill="#FF00FF"/>
</svg>
