<svg width="16" height="16" viewBox="0 0 16 16" fill="none" xmlns="http://www.w3.org/2000/svg">
<path d="M8.67749 2.26465C9.6151 2.32641 10.4421 2.58358 11.0476 3.11621C11.6906 3.68218 11.9861 4.4712 11.9861 5.36719C11.986 6.40688 11.5126 7.21112 10.7791 7.74805C10.9647 7.85345 11.1354 7.97149 11.2898 8.10059C12.0867 8.76726 12.3669 9.65401 12.3669 10.4688C12.3669 11.4426 12.0062 12.2966 11.2957 12.8936C10.6234 13.4581 9.71077 13.7289 8.67749 13.7461V15.334H7.17749V13.75H4.19995V2.25H4.94995C5.5526 2.25 6.15559 2.25195 6.75659 2.25391C6.89681 2.25436 7.03741 2.25347 7.17749 2.25391V0.666992H8.67749V2.26465ZM5.69995 12.25H8.573C9.41138 12.2499 9.98288 12.0373 10.3308 11.7451C10.6627 11.4664 10.8669 11.0539 10.8669 10.4688C10.8669 10.0022 10.7165 9.57623 10.3279 9.25098C9.91945 8.90951 9.14536 8.59382 7.72827 8.59375H5.69995V12.25ZM5.69995 7.09375H7.72827L8.04858 7.08496C8.7786 7.0456 9.38243 6.87132 9.79858 6.60352C10.2409 6.3187 10.486 5.92652 10.4861 5.36719C10.4861 4.81389 10.3157 4.46969 10.0574 4.24219C9.77935 3.99757 9.29943 3.7999 8.52808 3.75684C7.9355 3.75677 7.3427 3.75583 6.75171 3.75391C6.40091 3.75276 6.05003 3.75173 5.69995 3.75098V7.09375Z" fill="#FF00FF"/>
</svg>
