<svg width="16" height="16" viewBox="0 0 16 16" fill="none" xmlns="http://www.w3.org/2000/svg">
<path d="M8.75 2.10156C10.4156 2.34319 11.6112 3.37347 12.1895 4.52148L11.5205 4.8584L10.8506 5.19629C10.5026 4.50547 9.78859 3.8446 8.75 3.625V7.25C9.43205 7.40335 10.1591 7.6053 10.7549 7.9541C11.1559 8.18894 11.526 8.50553 11.793 8.94238C12.062 9.38268 12.1982 9.89971 12.1982 10.4902C12.1982 11.4986 11.763 12.396 10.9961 13.0264C10.4015 13.5151 9.63153 13.8244 8.75 13.9355V15H7.25V13.9404C5.27233 13.728 3.96693 12.6748 3.24609 11.2842L3.91211 10.9385L4.57812 10.5938C5.0498 11.5036 5.87186 12.2357 7.25 12.4297L7.25 8.46484C6.58461 8.31871 5.8771 8.13297 5.29785 7.81738C4.8997 7.60041 4.52411 7.30418 4.25098 6.88574C3.97406 6.4614 3.83399 5.95954 3.83398 5.38672C3.83398 4.43862 4.23614 3.57595 4.99219 2.96582C5.57957 2.49191 6.34838 2.19417 7.25 2.08984V1L8.75 1V2.10156ZM8.75 12.417C9.30314 12.3199 9.73489 12.1203 10.043 11.8672C10.4696 11.5166 10.6982 11.0418 10.6982 10.4902C10.6982 10.1373 10.6197 9.8984 10.5137 9.72461C10.4054 9.54737 10.2391 9.39085 9.99707 9.24902C9.66414 9.0541 9.24369 8.91505 8.75 8.79199L8.75 12.417ZM7.25 3.60449C6.66385 3.69651 6.23109 3.89367 5.93457 4.13281C5.53526 4.45501 5.33398 4.88691 5.33398 5.38672C5.33399 5.70575 5.40851 5.91461 5.50684 6.06543C5.60907 6.22206 5.77038 6.36635 6.01562 6.5C6.34741 6.68076 6.76303 6.80506 7.25 6.92188L7.25 3.60449Z" fill="#FF00FF"/>
</svg>
