<svg width="16" height="16" viewBox="0 0 16 16" fill="none" xmlns="http://www.w3.org/2000/svg">
<path d="M3.42676 10.5456C4.12965 9.81827 5.2697 9.81837 5.97266 10.5456C6.67558 11.2729 6.67554 12.452 5.97266 13.1793C5.05986 14.1238 2.70294 14.266 2 13.5387C3.07986 12.98 2.72402 11.273 3.42676 10.5456ZM12.9199 2.81704C13.1176 2.63925 13.4204 2.64761 13.6084 2.83559L13.6641 2.89223C13.8521 3.08023 13.8604 3.38205 13.6826 3.57973L7.80664 10.1081C7.61504 10.3209 7.2846 10.33 7.08203 10.1276L6.37305 9.4186C6.17051 9.21605 6.17874 8.88465 6.3916 8.69301L12.9199 2.81704Z" fill="#FF00FF"/>
</svg>
