<svg width="16" height="16" viewBox="0 0 16 16" fill="none" xmlns="http://www.w3.org/2000/svg">
<path d="M7.5 3.50195C5.24181 3.50195 3.25031 5.70901 3.25 8.24414C3.25 10.8703 5.37883 12.9998 8.00488 13C10.5409 13 12.75 11.0073 12.748 8.75H13.498L14.248 8.74902C14.2508 11.9917 11.2042 14.5 8.00488 14.5C4.55041 14.4998 1.75 11.6987 1.75 8.24414C1.75031 5.04438 4.25857 2.00195 7.5 2.00195V3.50195ZM9.5 1C12.6756 1 15.25 3.57436 15.25 6.75C15.25 7.16421 14.9142 7.5 14.5 7.5H9.5C9.08579 7.5 8.75 7.16421 8.75 6.75V1.75C8.75 1.33579 9.08579 1 9.5 1ZM10.25 6H13.6826C13.3717 4.25409 11.9959 2.8773 10.25 2.56641V6Z" fill="#FF00FF"/>
</svg>
