<svg width="16" height="16" viewBox="0 0 16 16" fill="none" xmlns="http://www.w3.org/2000/svg">
<path d="M12.5 1.75C13.4665 1.75 14.25 2.5335 14.25 3.5V12.5C14.25 13.4665 13.4665 14.25 12.5 14.25H3.5C2.5335 14.25 1.75 13.4665 1.75 12.5V3.5C1.75 2.5335 2.5335 1.75 3.5 1.75H12.5ZM3.5 3.25C3.36193 3.25 3.25 3.36193 3.25 3.5V12.5C3.25 12.6381 3.36193 12.75 3.5 12.75H12.5C12.6381 12.75 12.75 12.6381 12.75 12.5V3.5C12.75 3.36193 12.6381 3.25 12.5 3.25H3.5ZM10.25 9C10.9404 9 11.5 9.55964 11.5 10.25C11.5 10.9404 10.9404 11.5 10.25 11.5C9.55964 11.5 9 10.9404 9 10.25C9 9.55964 9.55964 9 10.25 9Z" fill="#FF00FF"/>
</svg>
