<svg width="16" height="16" viewBox="0 0 16 16" fill="none" xmlns="http://www.w3.org/2000/svg">
<path d="M12.5771 2.25391C12.9551 2.29253 13.25 2.61183 13.25 3V5.53613L14.835 6.3291L14.9258 6.38281C15.1269 6.52149 15.25 6.75132 15.25 7V11.5C15.25 11.9142 14.9142 12.25 14.5 12.25H13.2354C13.1109 13.3749 12.1581 14.25 11 14.25C9.8419 14.25 8.88906 13.3749 8.76465 12.25H5.23535C5.11094 13.3749 4.1581 14.25 3 14.25C1.75736 14.25 0.75 13.2426 0.75 12V3L0.753906 2.92285C0.792528 2.54488 1.11183 2.25 1.5 2.25H12.5L12.5771 2.25391ZM2.25 6.25H8.5V7.75H2.25V12C2.25 12.4142 2.58579 12.75 3 12.75C3.41421 12.75 3.75 12.4142 3.75 12V11.5C3.75 11.0858 4.08579 10.75 4.5 10.75H9.5C9.91421 10.75 10.25 11.0858 10.25 11.5V12C10.25 12.4142 10.5858 12.75 11 12.75C11.4142 12.75 11.75 12.4142 11.75 12V11.5C11.75 11.0858 12.0858 10.75 12.5 10.75H13.75V7.46289L12.165 6.6709C11.911 6.54385 11.75 6.28408 11.75 6V3.75H2.25V6.25Z" fill="#FF00FF"/>
</svg>
