<svg width="16" height="16" viewBox="0 0 16 16" fill="none" xmlns="http://www.w3.org/2000/svg">
<path d="M2.25 12.75H5V14.25H1.5L1.42285 14.2461C1.04488 14.2075 0.75 13.8882 0.75 13.5V10H2.25V12.75ZM15.25 13.5C15.25 13.9142 14.9142 14.25 14.5 14.25H11V12.75H13.75V10H15.25V13.5ZM7.80664 5.27539C9.04766 4.94445 10.5385 4.5295 12.3047 5.31445C12.5755 5.43482 12.75 5.70367 12.75 6V10C12.75 10.2538 12.621 10.4906 12.4082 10.6289C12.1954 10.767 11.9272 10.7886 11.6953 10.6855C10.4616 10.1373 9.45224 10.3889 8.19336 10.7246C6.95234 11.0555 5.46151 11.4705 3.69531 10.6855C3.42453 10.5652 3.25005 10.2963 3.25 10V6C3.25004 5.74619 3.37899 5.50942 3.5918 5.37109C3.80459 5.233 4.07285 5.21143 4.30469 5.31445C5.5384 5.86275 6.54774 5.6111 7.80664 5.27539ZM11.25 6.51758C10.21 6.19969 9.29753 6.43017 8.19336 6.72461C7.20736 6.98754 6.06413 7.30136 4.75 7.02637V9.48145C5.79014 9.79949 6.70234 9.56987 7.80664 9.27539C8.79259 9.01247 9.93595 8.69775 11.25 8.97266V6.51758ZM5 3.25H2.25V6H0.75V2.5L0.753906 2.42285C0.792528 2.04488 1.11183 1.75 1.5 1.75H5V3.25ZM14.5771 1.75391C14.9551 1.79253 15.25 2.11183 15.25 2.5V6H13.75V3.25H11V1.75H14.5L14.5771 1.75391Z" fill="#FF00FF"/>
</svg>
