<svg width="16" height="16" viewBox="0 0 16 16" fill="none" xmlns="http://www.w3.org/2000/svg">
<path d="M11.25 1.25C13.4591 1.25 15.25 3.04086 15.25 5.25V11C15.25 12.7949 13.7949 14.25 12 14.25H4C2.20507 14.25 0.75 12.7949 0.75 11V6.5C0.75 4.70507 2.20507 3.25 4 3.25H5.5V4.75H4C3.0335 4.75 2.25 5.5335 2.25 6.5V11C2.25 11.9665 3.0335 12.75 4 12.75H12C12.9665 12.75 13.75 11.9665 13.75 11V5.25C13.75 3.86929 12.6307 2.75 11.25 2.75C9.86929 2.75 8.75 3.86929 8.75 5.25V8.68945L10.4697 6.96973L11.5303 8.03027L8.53027 11.0303C8.38962 11.1709 8.19891 11.25 8 11.25C7.80109 11.25 7.61038 11.1709 7.46973 11.0303L4.46973 8.03027L5.53027 6.96973L7.25 8.68945V5.25C7.25 3.04086 9.04086 1.25 11.25 1.25Z" fill="#FF00FF"/>
</svg>
