<svg width="16" height="16" viewBox="0 0 16 16" fill="none" xmlns="http://www.w3.org/2000/svg">
<path fill-rule="evenodd" clip-rule="evenodd" d="M7.84863 3.15331C9.96529 2.62633 12.3979 1.9814 14.832 3.18358C15.0877 3.30986 15.2497 3.57034 15.25 3.85546V12.1103C15.25 12.3696 15.1157 12.6112 14.8955 12.748C14.6754 12.8846 14.4003 12.8979 14.168 12.7832C12.3037 11.8625 10.4249 12.3121 8.21094 12.8633C6.08426 13.3927 3.63577 14.0178 1.16406 12.7812C0.910337 12.6541 0.75 12.3942 0.75 12.1103V3.85546C0.750244 3.59583 0.884621 3.3543 1.10547 3.21776C1.32657 3.08121 1.60351 3.0693 1.83594 3.18553C3.74145 4.13862 5.64451 3.70206 7.84863 3.15331ZM13.75 4.34569C12.0212 3.6763 10.2598 4.09829 8.21094 4.60839C6.39624 5.06018 4.34768 5.58108 2.25 4.95604V11.623C4.01895 12.3272 5.80374 11.9173 7.84863 11.4082C9.65139 10.9594 11.6831 10.4254 13.75 11.0195V4.34569ZM8 5.99999C8.93743 5.99999 9.24995 6.89554 9.25 7.99999C9.25 9.10456 8.9375 9.99999 8 9.99999C7.0625 9.99999 6.75 9.10456 6.75 7.99999C6.75005 6.89554 7.06257 5.99999 8 5.99999Z" fill="#FF00FF"/>
</svg>
