<svg width="16" height="16" viewBox="0 0 16 16" fill="none" xmlns="http://www.w3.org/2000/svg">
<path d="M2.25 12.75H5V14.25H1.5L1.42285 14.2461C1.04488 14.2075 0.75 13.8882 0.75 13.5V10H2.25V12.75ZM15.25 13.5C15.25 13.9142 14.9142 14.25 14.5 14.25H11V12.75H13.75V10H15.25V13.5ZM5 10.5H3.5V5.5H5V10.5ZM7.25 10.5H6.25V5.5H7.25V10.5ZM10.25 10.5H8.75V5.5H10.25V10.5ZM12.5 10.5H11.5V5.5H12.5V10.5ZM5 3.25H2.25V6H0.75V2.5L0.753906 2.42285C0.792528 2.04488 1.11183 1.75 1.5 1.75H5V3.25ZM14.5771 1.75391C14.9551 1.79253 15.25 2.11183 15.25 2.5V6H13.75V3.25H11V1.75H14.5L14.5771 1.75391Z" fill="#FF00FF"/>
</svg>
