<svg width="16" height="16" viewBox="0 0 16 16" fill="none" xmlns="http://www.w3.org/2000/svg">
<path d="M7.00012 3.25H4.00012C3.86209 3.25 3.75019 3.36199 3.75012 3.5V13.5C3.75013 13.6381 3.86205 13.75 4.00012 13.75H11.0001C11.1382 13.75 11.2501 13.638 11.2501 13.5V7.5H12.7501V13.5C12.7501 14.4665 11.9666 15.25 11.0001 15.25H4.00012C3.03363 15.25 2.25013 14.4665 2.25012 13.5V3.5C2.25019 2.53358 3.03369 1.75003 4.00012 1.75H7.00012V3.25ZM8.50012 3.25C10.0189 3.25004 11.2501 4.48124 11.2501 6H9.75012C9.75012 5.30967 9.19044 4.75004 8.50012 4.75V3.25ZM8.50012 0.25C11.6757 0.250041 14.2501 2.82439 14.2501 6H12.7501C12.7501 3.65282 10.8473 1.75004 8.50012 1.75V0.25Z" fill="#FF00FF"/>
</svg>
