<svg width="16" height="16" viewBox="0 0 16 16" fill="none" xmlns="http://www.w3.org/2000/svg">
<path d="M10 14.7502H6.33301V13.2502H10V14.7502ZM11.333 1.00024L11.9004 1.49146L8.64258 5.25024H9.28516L13.9375 2.36255L14.7285 3.63794L12.1309 5.25024H15C15.4142 5.25024 15.75 5.58603 15.75 6.00024C15.7498 9.83235 12.1675 12.7502 8 12.7502C3.83251 12.7502 0.250152 9.83235 0.25 6.00024C0.25 5.58603 0.585786 5.25024 1 5.25024H6.6582L10.7666 0.509033L11.333 1.00024ZM1.81543 6.75024C2.24477 9.22007 4.75877 11.2502 8 11.2502C11.2412 11.2502 13.7552 9.22007 14.1846 6.75024H1.81543Z" fill="#FF00FF"/>
</svg>
