<svg width="16" height="16" viewBox="0 0 16 16" fill="none" xmlns="http://www.w3.org/2000/svg">
<path d="M12 9.75C13.2426 9.75 14.25 10.7574 14.25 12C14.25 13.2426 13.2426 14.25 12 14.25C10.7574 14.25 9.75 13.2426 9.75 12C9.75 10.7574 10.7574 9.75 12 9.75ZM14.0303 3.03027L3.03027 14.0303L1.96973 12.9697L12.9697 1.96973L14.0303 3.03027ZM12 11.25C11.5858 11.25 11.25 11.5858 11.25 12C11.25 12.4142 11.5858 12.75 12 12.75C12.4142 12.75 12.75 12.4142 12.75 12C12.75 11.5858 12.4142 11.25 12 11.25ZM4 1.75C5.24264 1.75 6.25 2.75736 6.25 4C6.25 5.24264 5.24264 6.25 4 6.25C2.75736 6.25 1.75 5.24264 1.75 4C1.75 2.75736 2.75736 1.75 4 1.75ZM4 3.25C3.58579 3.25 3.25 3.58579 3.25 4C3.25 4.41421 3.58579 4.75 4 4.75C4.41421 4.75 4.75 4.41421 4.75 4C4.75 3.58579 4.41421 3.25 4 3.25Z" fill="#FF00FF"/>
</svg>
