<svg width="16" height="16" viewBox="0 0 16 16" fill="none" xmlns="http://www.w3.org/2000/svg">
<path d="M7.42814 1.638C7.94323 1.12301 8.68166 0.899557 9.39591 1.0423L13.3188 1.82648C13.75 1.91281 14.087 2.25073 14.1733 2.68195L14.9574 6.60382C15.1003 7.31815 14.8768 8.05645 14.3617 8.5716L8.25235 14.681C7.82694 15.1062 7.13775 15.1061 6.71232 14.681L1.31876 9.28839C0.89335 8.86298 0.893491 8.17288 1.31876 7.74738L7.42814 1.638ZM10.7074 5.29328C10.3169 4.90275 9.68292 4.90275 9.29239 5.29328C8.90233 5.6838 8.90211 6.31695 9.29239 6.70734C9.68292 7.09786 10.3169 7.09786 10.7074 6.70734C11.0978 6.31694 11.0976 5.68381 10.7074 5.29328Z" fill="#FF00FF"/>
</svg>
