<svg width="16" height="16" viewBox="0 0 16 16" fill="none" xmlns="http://www.w3.org/2000/svg">
<path d="M8.03809 0.409424C8.20543 0.278569 8.42197 0.223577 8.63379 0.261963L14.1338 1.26196L14.2461 1.29126C14.4988 1.37892 14.6894 1.59751 14.7383 1.86646L15.7383 7.36646C15.7821 7.60841 15.7042 7.85663 15.5303 8.03052L8.03027 15.5305C7.73741 15.8232 7.26259 15.8232 6.96973 15.5305L0.469727 9.03052C0.329132 8.88992 0.250065 8.69907 0.25 8.50024C0.250001 8.30139 0.329152 8.11061 0.469727 7.96997L7.96973 0.469971L8.03809 0.409424ZM2.06055 8.50024L7.5 13.9397L14.1914 7.24731L13.3545 2.64478L8.75195 1.80786L2.06055 8.50024ZM9.73242 4.50024C10.2206 4.01209 11.0118 4.01209 11.5 4.50024C11.9881 4.9884 11.9881 5.77969 11.5 6.26782C11.0119 6.75595 10.2206 6.7559 9.73242 6.26782C9.24427 5.77967 9.24427 4.9884 9.73242 4.50024Z" fill="#FF00FF"/>
</svg>
