<svg width="16" height="16" viewBox="0 0 16 16" fill="none" xmlns="http://www.w3.org/2000/svg">
<path d="M14.5771 2.25391C14.9551 2.29253 15.25 2.61183 15.25 3V13C15.25 13.4142 14.9142 13.75 14.5 13.75H1.5C1.08579 13.75 0.75 13.4142 0.75 13V3L0.753906 2.92285C0.792528 2.54488 1.11183 2.25 1.5 2.25H14.5L14.5771 2.25391ZM9.25 10.5V12.25H13.75V10.5H9.25ZM2.25 12.25H7.75V7.25H2.25V12.25ZM9.25 7.25V9H13.75V7.25H9.25ZM9.25 5.75H13.75V3.75H9.25V5.75ZM2.25 5.75H7.75V3.75H2.25V5.75Z" fill="#FF00FF"/>
</svg>
