<svg width="16" height="16" viewBox="0 0 16 16" fill="none" xmlns="http://www.w3.org/2000/svg">
<path d="M9.33691 1C9.5815 1 9.70425 0.999714 9.81934 1.02734C9.92136 1.05184 10.0189 1.09264 10.1084 1.14746C10.2093 1.2093 10.2959 1.29587 10.4688 1.46875L13.5312 4.53125C13.7041 4.70413 13.7907 4.79074 13.8525 4.8916C13.9074 4.98106 13.9482 5.07864 13.9727 5.18066C14.0003 5.29575 14 5.4185 14 5.66309V13.4004C14 13.9602 13.9996 14.2402 13.8906 14.4541C13.7948 14.6421 13.6421 14.7948 13.4541 14.8906C13.2402 14.9996 12.9602 15 12.4004 15H3.59961C3.03982 15 2.75976 14.9996 2.5459 14.8906C2.35793 14.7948 2.20522 14.6421 2.10938 14.4541C2.00041 14.2402 2 13.9602 2 13.4004V2.59961C2 2.03982 2.00041 1.75976 2.10938 1.5459C2.20522 1.35793 2.35793 1.20522 2.5459 1.10938C2.75976 1.00041 3.03982 1 3.59961 1H9.33691ZM5 10.75H11V9.25H5V10.75ZM5 5.25V6.75H9.5V5.25H5Z" fill="#FF00FF"/>
</svg>
