<svg width="16" height="16" viewBox="0 0 16 16" fill="none" xmlns="http://www.w3.org/2000/svg">
<path d="M7.84863 2.95471C10.1087 2.38229 12.669 1.69555 15.3262 2.97913L15.4189 3.03284C15.6238 3.1708 15.7499 3.40334 15.75 3.65491V12.3082C15.75 12.5663 15.617 12.8068 15.3984 12.944C15.1799 13.081 14.9061 13.0962 14.6738 12.984C12.5801 11.9726 10.5591 12.4689 8.2168 13.0621C6.01754 13.6192 3.5298 14.2614 0.922852 13.1002L0.669922 12.9821C0.412972 12.8561 0.25 12.5944 0.25 12.3082V3.65491C0.250123 3.39634 0.383213 3.15514 0.602539 3.01819C0.822027 2.88131 1.09771 2.86743 1.33008 2.98108C3.46934 4.02778 5.51627 3.54544 7.84863 2.95471ZM14.25 4.14514C12.3053 3.38621 10.4008 3.85566 8.2168 4.40881C6.25121 4.90665 4.05559 5.4709 1.75 4.75647V11.8209C3.73918 12.6173 5.66921 12.16 7.84863 11.608C9.80197 11.1133 11.9795 10.5341 14.25 11.2145V4.14514ZM11.75 9.49963H10.25V5.49963H11.75V9.49963Z" fill="#FF00FF"/>
</svg>
