<svg width="16" height="16" viewBox="0 0 16 16" fill="none" xmlns="http://www.w3.org/2000/svg">
<path d="M13 1.25C13.2306 1.25013 13.4488 1.35641 13.5908 1.53809C13.7329 1.72003 13.7834 1.95768 13.7275 2.18164C13.4942 3.11504 13.2998 3.85712 13.2998 4.5H11.7998C11.7998 3.93468 11.9113 3.33538 12.0459 2.75H3.57324C3.14701 4.51289 3.3506 6.05858 3.61523 7.75977C3.86865 9.38888 4.17707 11.163 3.8916 13.25H7.5V14.75H3C2.77368 14.7499 2.55831 14.6477 2.41602 14.4717C2.27382 14.2956 2.21921 14.0641 2.2666 13.8428L2.34473 13.4385C2.69463 11.4406 2.40939 9.76191 2.13379 7.99023C1.84123 6.10952 1.56163 4.12445 2.2832 1.7793L2.32812 1.66602C2.45315 1.41444 2.71224 1.25018 3 1.25H13ZM14.7373 5.29785C14.9667 5.21199 15.2265 5.24259 15.4307 5.38574C15.6642 5.54955 15.7845 5.83233 15.7412 6.11426C15.519 7.56138 15.1473 9.32162 14.3643 10.751C13.6502 12.0543 12.5517 13.1426 10.8936 13.4131C10.8853 13.4638 10.8756 13.5167 10.8672 13.5713C10.8046 13.9796 10.75 14.4366 10.75 14.75H9.25C9.25 14.3135 9.32108 13.7592 9.38477 13.3438C9.41757 13.1298 9.45005 12.9405 9.47461 12.8047C9.48688 12.7368 9.49759 12.6819 9.50488 12.6436C9.50853 12.6244 9.51164 12.6091 9.51367 12.5986C9.51463 12.5937 9.51507 12.5898 9.51562 12.5869C9.51591 12.5855 9.51643 12.5838 9.5166 12.583V12.582C9.51661 12.582 9.51733 12.5815 10.2529 12.7275L9.5166 12.5811L9.51758 12.5781L9.64648 12.0195C10.3642 9.24345 12.1719 6.68954 14.6406 5.3418L14.7373 5.29785ZM13.9033 7.69922C12.7269 8.75842 11.8117 10.188 11.29 11.7539C12.04 11.4471 12.6037 10.8428 13.0488 10.0303C13.4262 9.34133 13.6977 8.53275 13.9033 7.69922Z" fill="#FF00FF"/>
</svg>
