<svg width="16" height="16" viewBox="0 0 16 16" fill="none" xmlns="http://www.w3.org/2000/svg">
<path d="M8 13.25H9V14.75H2V13.25H3V12.25H8V13.25ZM14.0762 5.06543L13.5459 5.59668L13.0156 6.12695L12.4844 5.5957L11.0596 7.02051L15.0293 10.9678L13.9707 12.0322L9.99805 8.08203L8.5957 9.48438L9.12695 10.0156L8.59668 10.5459L8.06543 11.0762L3.46973 6.48047L4 5.9502L4.53027 5.41895L5.06055 5.94922L8.94922 2.06055L8.41895 1.53027L8.9502 1L9.48047 0.469727L14.0762 5.06543ZM6.12109 7.01074L7.53516 8.4248L11.4248 4.53516L10.0107 3.12109L6.12109 7.01074Z" fill="#FF00FF"/>
</svg>
