<svg width="16" height="16" viewBox="0 0 16 16" fill="none" xmlns="http://www.w3.org/2000/svg">
<path d="M12.5 8.25C14.0188 8.25 15.25 9.48122 15.25 11C15.25 11.7296 14.9636 12.3906 14.5 12.8828V15.5C14.5 15.706 14.2644 15.8238 14.0996 15.7002L12.6504 14.6123C12.5615 14.5456 12.4385 14.5456 12.3496 14.6123L10.9004 15.7002C10.7356 15.8238 10.5 15.706 10.5 15.5V12.8828C10.0364 12.3906 9.75 11.7295 9.75 11C9.75 9.48123 10.9812 8.25003 12.5 8.25ZM13.0859 1.25488C13.284 1.27782 13.4666 1.37917 13.5908 1.53809C13.7329 1.72003 13.7834 1.95768 13.7275 2.18164C13.3149 3.83216 13.2353 5.3577 13.2314 6.50293L11.7314 6.49707C11.7348 5.49923 11.7951 4.19531 12.0703 2.75H3.57324C3.14701 4.51289 3.3506 6.05858 3.61523 7.75977C3.86865 9.38888 4.17707 11.163 3.8916 13.25H8.5V14.75H3C2.77368 14.7499 2.55831 14.6477 2.41602 14.4717C2.27382 14.2956 2.21921 14.0641 2.2666 13.8428L2.34473 13.4385C2.69463 11.4406 2.40939 9.76191 2.13379 7.99023C1.84123 6.10952 1.56163 4.12445 2.2832 1.7793L2.32812 1.66602C2.45315 1.41444 2.71224 1.25018 3 1.25H13L13.0859 1.25488ZM12.5 9.75C11.8097 9.75003 11.25 10.3097 11.25 11C11.25 11.6903 11.8097 12.25 12.5 12.25C13.1904 12.25 13.75 11.6904 13.75 11C13.75 10.3096 13.1904 9.75 12.5 9.75Z" fill="#FF00FF"/>
</svg>
