<svg width="16" height="16" viewBox="0 0 16 16" fill="none" xmlns="http://www.w3.org/2000/svg">
<path d="M13 1.25C13.2378 1.25014 13.4612 1.36349 13.6025 1.55469C13.7263 1.72229 13.7743 1.93235 13.7373 2.13477L13.7168 2.2207C13.1051 4.2087 13.3245 5.89061 13.6152 7.75977C13.9046 9.61987 14.2665 11.6692 13.7334 14.1572C13.6593 14.5028 13.3534 14.7498 13 14.75H3C2.77368 14.7499 2.55831 14.6477 2.41602 14.4717C2.27382 14.2956 2.21921 14.0641 2.2666 13.8428L2.34473 13.4385C2.69463 11.4406 2.40939 9.76191 2.13379 7.99023C1.84123 6.10952 1.56163 4.12445 2.2832 1.7793L2.32812 1.66602C2.45315 1.41444 2.71224 1.25018 3 1.25H13ZM3.57324 2.75C3.14701 4.51289 3.3506 6.05858 3.61523 7.75977C3.86865 9.38888 4.17707 11.163 3.8916 13.25H12.374C12.6747 11.3343 12.4007 9.706 12.1338 7.99023C11.8824 6.37437 11.6426 4.68206 12.0371 2.75H3.57324ZM10.5 7.25H5V5.75H10.5V7.25Z" fill="#FF00FF"/>
</svg>
