<svg width="16" height="16" viewBox="0 0 16 16" fill="none" xmlns="http://www.w3.org/2000/svg">
<path d="M15.1919 4.28772C14.534 5.86659 13.7407 6.82722 12.7749 7.25159C11.7992 7.68006 10.8385 7.47755 10.064 7.19104C9.67459 7.04697 9.29772 6.86759 8.96631 6.71057C8.62161 6.54726 8.33122 6.41016 8.06494 6.31409C7.51638 6.11631 7.36433 6.1954 7.2583 6.30139C7.17072 6.38898 7.14861 6.45919 7.14404 6.53479C7.13817 6.63435 7.16397 6.79256 7.26611 7.026C7.47808 7.51003 7.90024 8.07026 8.40771 8.72327C8.87888 9.32955 9.4373 10.0323 9.75342 10.693C9.91464 11.0301 10.046 11.4215 10.0405 11.8326C10.0345 12.2733 9.87068 12.689 9.52979 13.0299C9.20626 13.3534 8.81964 13.5285 8.39795 13.5612C8.00157 13.5918 7.62318 13.4931 7.29541 13.3658C6.67927 13.1266 5.95054 12.6553 5.34619 12.317C4.68278 11.9458 4.04569 11.6524 3.40576 11.5699C2.79988 11.4921 2.1521 11.5978 1.43506 12.11L0.563965 10.8893C1.59651 10.1518 2.62523 9.95765 3.59717 10.0826C4.53477 10.2034 5.37998 10.6165 6.07861 11.0074C6.83621 11.4314 7.35184 11.7785 7.83838 11.9674C8.06137 12.0539 8.19969 12.0722 8.28174 12.066C8.33853 12.0616 8.39281 12.0458 8.46924 11.9694C8.52814 11.9105 8.53973 11.8702 8.54053 11.8121C8.54162 11.7246 8.51129 11.5734 8.3999 11.3405C8.16994 10.8599 7.73559 10.3036 7.22314 9.64417C6.74706 9.03156 6.1939 8.31679 5.89209 7.62756C5.73759 7.27457 5.62107 6.87008 5.646 6.4469C5.67244 5.99987 5.85359 5.58501 6.19775 5.24084C6.95569 4.48299 7.89564 4.65899 8.57471 4.90393C8.92231 5.02938 9.28214 5.20029 9.60889 5.3551C9.94891 5.5162 10.2671 5.6664 10.5845 5.78381C11.2239 6.02033 11.726 6.07311 12.1714 5.87756C12.627 5.67734 13.215 5.13242 13.8071 3.71155L15.1919 4.28772Z" fill="#FF00FF"/>
</svg>
