<svg width="16" height="16" viewBox="0 0 16 16" fill="none" xmlns="http://www.w3.org/2000/svg">
<path d="M10.7498 1.75024C10.9487 1.75024 11.1394 1.82932 11.28 1.96997L14.03 4.71997C14.3229 5.01287 14.3229 5.48764 14.03 5.78052L7.15503 12.6555C7.09338 12.7171 7.02164 12.7682 6.94312 12.8049L6.86206 12.8372L2.73706 14.2122C2.46766 14.3018 2.17029 14.2313 1.96948 14.0305C1.76869 13.8297 1.69818 13.5324 1.78784 13.2629L3.16284 9.13794L3.19507 9.05688C3.23185 8.97836 3.28289 8.90662 3.34448 8.84497L10.2195 1.96997L10.3337 1.87622C10.456 1.79473 10.6007 1.75029 10.7498 1.75024ZM4.53101 9.77954L3.68628 12.3137L6.22046 11.469L12.4392 5.25024L10.7498 3.56079L4.53101 9.77954Z" fill="#FF00FF"/>
</svg>
