<svg width="16" height="16" viewBox="0 0 16 16" fill="none" xmlns="http://www.w3.org/2000/svg">
<path d="M2.87256 2.87256C5.70372 0.0414019 10.2951 0.0416878 13.1265 2.87256C15.9578 5.70386 15.9578 10.2952 13.1265 13.1265C10.2952 15.9578 5.70386 15.9578 2.87256 13.1265C0.0416878 10.2951 0.0414021 5.70372 2.87256 2.87256ZM12.0649 3.93408C9.81939 1.689 6.17945 1.68871 3.93408 3.93408C1.68871 6.17945 1.689 9.81939 3.93408 12.0649C6.1796 14.3105 9.81943 14.3105 12.0649 12.0649C14.3105 9.81943 14.3105 6.1796 12.0649 3.93408ZM11.5298 5.52979L9.06006 7.99951L11.5298 10.4692L10.4692 11.5298L7.99951 9.06006L5.52979 11.5298L4.46924 10.4692L6.93896 7.99951L4.46924 5.52979L5.52979 4.46924L7.99951 6.93896L10.4692 4.46924L11.5298 5.52979Z" fill="#FF00FF"/>
</svg>
