<svg width="16" height="16" viewBox="0 0 16 16" fill="none" xmlns="http://www.w3.org/2000/svg">
<path d="M8 9.25C6.75302 9.24999 5.13527 9.60666 3.85352 10.3496C2.82327 10.9469 2.08414 11.7429 1.83887 12.75H6.36523C6.57287 12.0606 7.04601 11.417 7.64844 10.9209C8.48605 10.2312 9.65313 9.75 11 9.75C12.3469 9.75 13.514 10.2312 14.3516 10.9209C15.1687 11.5939 15.75 12.5376 15.75 13.5C15.75 13.9142 15.4142 14.25 15 14.25H1C0.585786 14.25 0.25 13.9142 0.25 13.5C0.25 11.4049 1.55717 9.94699 3.10156 9.05176C4.63838 8.16096 6.52126 7.74999 8 7.75V9.25ZM11 11.25C10.0136 11.25 9.18061 11.6022 8.60156 12.0791C8.33687 12.2971 8.14235 12.5289 8.00488 12.75H13.9951C13.8577 12.5289 13.6631 12.2971 13.3984 12.0791C12.8194 11.6022 11.9864 11.25 11 11.25ZM11 4.5C12.2426 4.5 13.25 5.50736 13.25 6.75C13.25 7.99264 12.2426 9 11 9C9.75736 9 8.75 7.99264 8.75 6.75C8.75 5.50736 9.75736 4.5 11 4.5ZM11 6C10.5858 6 10.25 6.33579 10.25 6.75C10.25 7.16421 10.5858 7.5 11 7.5C11.4142 7.5 11.75 7.16421 11.75 6.75C11.75 6.33579 11.4142 6 11 6ZM6 1.5C7.51878 1.5 8.75 2.73122 8.75 4.25C8.75 5.76878 7.51878 7 6 7C4.48122 7 3.25 5.76878 3.25 4.25C3.25 2.73122 4.48122 1.5 6 1.5ZM6 3C5.30964 3 4.75 3.55964 4.75 4.25C4.75 4.94036 5.30964 5.5 6 5.5C6.69036 5.5 7.25 4.94036 7.25 4.25C7.25 3.55964 6.69036 3 6 3Z" fill="#FF00FF"/>
</svg>
