<svg width="16" height="16" viewBox="0 0 16 16" fill="none" xmlns="http://www.w3.org/2000/svg">
<path d="M4.33301 12.667C4.88529 12.667 5.33301 13.1147 5.33301 13.667C5.33283 14.2191 4.88518 14.667 4.33301 14.667C3.78098 14.6668 3.33318 14.219 3.33301 13.667C3.33301 13.1148 3.78087 12.6672 4.33301 12.667ZM13 12.667C13.5523 12.667 14 13.1147 14 13.667C13.9998 14.2191 13.5522 14.667 13 14.667C12.4478 14.667 12.0002 14.2191 12 13.667C12 13.1147 12.4477 12.667 13 12.667ZM9.5 2.25C11.1049 2.25001 12.6492 2.70074 13.8105 3.58887C14.9883 4.48961 15.75 5.82859 15.75 7.5C15.75 9.0509 14.8639 10.3829 13.5547 11.2969C12.2446 12.2113 10.464 12.75 8.5 12.75C6.53598 12.75 4.75539 12.2113 3.44531 11.2969C2.13605 10.3829 1.25 9.05091 1.25 7.5V6C1.25 5.86194 1.13805 5.75002 1 5.75H0V4.25H1C1.96648 4.25002 2.75 5.03351 2.75 6V6.75H8.75V3C8.75 2.58579 9.08579 2.25 9.5 2.25ZM2.86719 8.25C3.07448 8.91529 3.55762 9.54592 4.30469 10.0674C5.32792 10.7814 6.79764 11.25 8.5 11.25C10.2024 11.25 11.6721 10.7814 12.6953 10.0674C13.4424 9.54593 13.9255 8.91528 14.1328 8.25H2.86719ZM10.25 6.75H14.1729C14.0007 5.93482 13.5469 5.27552 12.8994 4.78027C12.2095 4.25265 11.2873 3.90377 10.25 3.79004V6.75Z" fill="#FF00FF"/>
</svg>
