<svg width="16" height="16" viewBox="0 0 16 16" fill="none" xmlns="http://www.w3.org/2000/svg">
<path d="M7.23722 0.74417C7.5474 0.124464 8.45236 0.124539 8.76261 0.74417L8.81925 0.886748L10.2577 5.53909L14.8915 5.53909C15.3291 5.53925 15.618 5.8466 15.7109 6.14651C15.7915 6.40714 15.7524 6.74326 15.5214 6.99124L15.4101 7.09183L11.6308 9.97562L13.079 14.6582L13.1103 14.7979C13.1555 15.1222 13.011 15.4258 12.7782 15.6035C12.5406 15.7849 12.186 15.8483 11.872 15.6866L11.7401 15.6035L7.99991 12.7481L4.25968 15.6035C3.91758 15.8644 3.49315 15.8108 3.22159 15.6035C2.95576 15.4005 2.80504 15.0332 2.92081 14.6582L4.36808 9.97562L0.589757 7.09183C0.261351 6.84096 0.19688 6.4444 0.288976 6.14651C0.381814 5.84664 0.670829 5.53938 1.10831 5.53909L5.7421 5.53909L7.18058 0.886748L7.23722 0.74417ZM7.03507 6.43265C6.92943 6.77367 6.61164 7.03894 6.21573 7.03909L2.99308 7.03909L5.63175 9.05374L5.73429 9.14554C5.92122 9.3425 6.00051 9.61272 5.96183 9.87112L5.93253 9.99808L4.94425 13.1934L7.48136 11.2569L7.60148 11.1807C7.85066 11.0491 8.14914 11.0492 8.39835 11.1807L8.51847 11.2569L11.0546 13.1934L10.0673 9.99808C9.96366 9.66219 10.0715 9.28052 10.3681 9.05374L13.0067 7.03909L9.78409 7.03909C9.43771 7.03886 9.15051 6.83603 9.01359 6.55667L8.96476 6.43265L7.99991 3.31253L7.03507 6.43265Z" fill="#FF00FF"/>
</svg>
