<svg width="16" height="16" viewBox="0 0 16 16" fill="none" xmlns="http://www.w3.org/2000/svg">
<path d="M7.85364 0.764282C7.99844 0.73548 8.14987 0.7497 8.28821 0.807251L14.2882 3.30725L14.3771 3.3512C14.5743 3.46581 14.7109 3.66574 14.7433 3.89514C15.1254 6.61463 14.7473 8.8459 13.6134 10.7145C12.4887 12.5675 10.6714 13.9778 8.34094 15.1676C8.1364 15.272 7.89526 15.2772 7.68665 15.1813C5.29229 14.0788 3.47518 12.6217 2.36243 10.7203C1.24618 8.81273 0.885576 6.53842 1.25696 3.89514L1.27747 3.79846C1.33872 3.57878 1.49819 3.39635 1.71204 3.30725L7.71204 0.807251L7.85364 0.764282ZM2.68958 4.52405C2.44925 6.71654 2.80137 8.49967 3.65735 9.96252C4.52498 11.445 5.9548 12.6713 7.9845 13.6608C10.0119 12.5816 11.453 11.3831 12.3312 9.93616C13.1934 8.51522 13.5585 6.77847 13.3087 4.52405L8.00012 2.31116L2.68958 4.52405ZM8.00012 4.22913C8.0003 4.12109 8.11106 4.04908 8.21008 4.09241L11.8497 5.6842C11.9407 5.72402 12.0003 5.81439 11.9982 5.9137C11.9516 8.06514 10.9778 10.4155 8.21594 11.8883C8.11762 11.9406 8.00021 11.8688 8.00012 11.7574V4.22913Z" fill="#FF00FF"/>
</svg>
