<svg width="16" height="16" viewBox="0 0 16 16" fill="none" xmlns="http://www.w3.org/2000/svg">
<path d="M8.66016 2.35547L6.82422 5.76367L8.26465 7.2041L11.3936 6.75781C11.6737 6.71779 11.9532 6.83833 12.1152 7.07031C12.2772 7.30241 12.2943 7.60626 12.1602 7.85547L11.0244 9.96387L13.5303 12.4697L12.4697 13.5303L10.2822 11.3428L8.66016 14.3555L7.33984 13.6445L9.1748 10.2354L7.73437 8.79492L4.60645 9.24219C4.32632 9.28221 4.04679 9.16167 3.88477 8.92969C3.74299 8.72657 3.7125 8.46848 3.79687 8.24023L3.83984 8.14453L4.97461 6.03516L2.46973 3.53027L3.53027 2.46973L5.7168 4.65625L7.33984 1.64453L8.66016 2.35547ZM9.59082 8.53027L9.91797 8.85742L10.1357 8.45312L9.59082 8.53027ZM5.86523 7.54785L6.40918 7.46973L6.08203 7.14258L5.86523 7.54785Z" fill="#FF00FF"/>
</svg>
