<svg width="16" height="16" viewBox="0 0 16 16" fill="none" xmlns="http://www.w3.org/2000/svg">
<path d="M11.5 2.25C11.7422 2.25 11.9696 2.36736 12.1104 2.56445L14.6104 6.06445C14.7964 6.3251 14.7964 6.6749 14.6104 6.93555L13.6113 8.33301C14.0818 8.51244 14.417 8.96652 14.417 9.5L14.417 13.5C14.417 14.1902 13.8571 14.7497 13.167 14.75L8.16699 14.75C7.47664 14.75 6.91699 14.1904 6.91699 13.5L6.91699 9.5C6.91699 8.80964 7.47664 8.25 8.16699 8.25H8.58301V8C8.58301 6.48133 9.81437 5.25018 11.333 5.25V6.75C10.6428 6.75018 10.083 7.30975 10.083 8V8.25H11.8281L13.0781 6.49902L11.1143 3.75L2.75 3.75L2.75 9.25H5V10.75H2C1.58579 10.75 1.25 10.4142 1.25 10L1.25 3C1.25 2.58579 1.58579 2.25 2 2.25L11.5 2.25ZM8.41699 13.25L12.917 13.25V9.75L8.41699 9.75L8.41699 13.25Z" fill="#FF00FF"/>
</svg>
