<svg width="16" height="16" viewBox="0 0 16 16" fill="none" xmlns="http://www.w3.org/2000/svg">
<path d="M8.75 15H7.25V10.7998H8.75V15ZM6.55078 10.5098L3.58105 13.4805L3.0498 12.9502L2.51953 12.4199L5.49023 9.44922L6.55078 10.5098ZM13.4805 12.4189L12.9502 12.9502L12.4199 13.4805L9.44922 10.5107L9.97949 9.97949L10.5098 9.44922L13.4805 12.4189ZM5.2002 8.75H1V7.25H5.2002V8.75ZM15 8.75H10.7998V7.25H15V8.75ZM6.55078 5.49023L5.49023 6.55078L2.51953 3.58105L3.0498 3.0498L3.58105 2.51953L6.55078 5.49023ZM12.9502 3.0498L13.4805 3.58105L10.5098 6.55078L9.44922 5.49023L12.4199 2.51953L12.9502 3.0498ZM8.75 5.2002H7.25V1H8.75V5.2002Z" fill="#FF00FF"/>
</svg>
