<svg width="16" height="16" viewBox="0 0 16 16" fill="none" xmlns="http://www.w3.org/2000/svg">
<path d="M11.9648 1.75684C13.4276 1.82605 14.4409 2.41243 15.042 3.43164C15.6317 4.43173 15.75 5.737 15.75 7H14.25C14.25 5.76306 14.1185 4.81825 13.75 4.19336C13.5074 3.78195 13.1245 3.44782 12.417 3.31348V4.81152C12.417 6.72565 11.0704 8.62741 9.00195 8.74414L8.7998 8.75C7.81598 8.75004 7.36884 9.04404 7.16406 9.31348C6.94599 9.60046 6.86162 10.0435 6.97461 10.6016C7.08658 11.1543 7.37675 11.7214 7.75195 12.1406C8.13846 12.5724 8.52183 12.7499 8.7998 12.75C8.99193 12.75 9.20799 12.6668 9.45508 12.458C9.70448 12.2472 9.94067 11.9449 10.1494 11.6064C10.3553 11.2725 10.5171 10.933 10.6279 10.6738C10.6829 10.5453 10.7238 10.4389 10.751 10.3662C10.7645 10.3299 10.775 10.3019 10.7812 10.2842C10.7843 10.2756 10.7859 10.2693 10.7871 10.2656L10.7891 10.2617V10.2627L12.2109 10.7373V10.7393C12.2107 10.7401 12.2103 10.741 12.21 10.7422C12.2091 10.7446 12.2083 10.7481 12.207 10.752C12.2044 10.7596 12.1999 10.7702 12.1953 10.7832C12.1861 10.8094 12.1733 10.8461 12.1562 10.8916C12.1221 10.983 12.0721 11.111 12.0068 11.2637C11.8771 11.567 11.6823 11.9775 11.4258 12.3936C11.3535 12.5107 11.2737 12.63 11.1885 12.75H13V14.25H6.5C3.04822 14.25 0.25 11.4518 0.25 8C0.25 4.54822 3.04822 1.75 6.5 1.75H11.667L11.9648 1.75684ZM1.83984 7.0791C1.7813 7.37706 1.75 7.68489 1.75 8C1.75 10.5635 3.78077 12.6511 6.32129 12.7451C5.93096 12.1997 5.63765 11.5542 5.50488 10.8984C5.40087 10.3845 5.38761 9.8247 5.5332 9.29492L1.83984 7.0791ZM6.5 3.25C4.73236 3.25 3.19102 4.21599 2.37305 5.64844L6.32812 8.02148C6.91616 7.5113 7.75596 7.25003 8.7998 7.25L9.01367 7.2373C10.0711 7.11426 10.917 6.08811 10.917 4.81152V3.25H6.5ZM8.25 4.25C8.80224 4.25 9.24993 4.69777 9.25 5.25C9.25 5.80228 8.80229 6.25 8.25 6.25C7.69772 6.25 7.25 5.80228 7.25 5.25C7.25007 4.69777 7.69776 4.25 8.25 4.25Z" fill="#FF00FF"/>
</svg>
