<svg width="16" height="16" viewBox="0 0 16 16" fill="none" xmlns="http://www.w3.org/2000/svg">
<path fill-rule="evenodd" clip-rule="evenodd" d="M4.84375 1.51082C5.27674 1.07783 5.91322 0.928119 6.54004 1.10457C7.23215 1.29955 7.79631 1.86458 7.99121 2.55672L8 2.58895C8.27616 2.16767 8.70153 1.84594 9.19043 1.70809C9.8173 1.53156 10.4547 1.68033 10.8877 2.11336C11.3204 2.54637 11.4694 3.18299 11.293 3.80965C11.2495 3.96386 11.1869 4.11126 11.1094 4.25008H14C14.4142 4.25008 14.7499 4.58594 14.75 5.00008V8.00008C14.75 8.32624 14.5407 8.60092 14.25 8.70418V14.0001C14.25 14.4143 13.9142 14.75 13.5 14.7501H2.5C2.08579 14.7501 1.75 14.4143 1.75 14.0001V8.70418C1.45926 8.60092 1.25 8.32624 1.25 8.00008V5.00008C1.25008 4.58594 1.58584 4.25008 2 4.25008H5.12207C4.79849 3.98014 4.55378 3.61626 4.43848 3.20711C4.26196 2.58027 4.41078 1.94385 4.84375 1.51082ZM3.25 8.75008V13.2501H7.28711L7.2666 8.75008H3.25ZM8.7666 8.75008L8.78711 13.2501H12.75V8.75008H8.7666ZM8.75977 7.25008H13.25V5.75008H8.75293L8.75977 7.25008ZM2.75 7.25008H7.25977L7.25293 5.75008H2.75V7.25008ZM9.59766 3.15145C9.40844 3.20479 9.23709 3.37631 9.18359 3.56551L9.08398 3.91512L9.43457 3.81746C9.62377 3.76418 9.79506 3.59255 9.84863 3.4034C9.87115 3.32345 9.86672 3.26854 9.85938 3.23738C9.85196 3.20633 9.83949 3.18639 9.82715 3.17391C9.81472 3.16147 9.79493 3.14821 9.76367 3.1407C9.73263 3.13329 9.67792 3.12888 9.59766 3.15145ZM5.96777 2.53817C5.93639 2.54566 5.91676 2.55891 5.9043 2.57137C5.89186 2.58383 5.87857 2.60352 5.87109 2.63484C5.86377 2.66595 5.85947 2.7202 5.88184 2.79988C5.93518 2.98918 6.10662 3.16149 6.2959 3.21492L6.64551 3.31258L6.54785 2.96297C6.49448 2.77378 6.32296 2.60239 6.13379 2.54891C6.05374 2.52636 5.9989 2.5308 5.96777 2.53817Z" fill="#FF00FF"/>
</svg>
