<svg width="16" height="16" viewBox="0 0 16 16" fill="none" xmlns="http://www.w3.org/2000/svg">
<path d="M9.52441 0.297363C10.1651 0.158493 10.7967 0.329539 11.2334 0.766113C11.6701 1.20278 11.8409 1.8344 11.7021 2.4751L11.6709 2.604C11.606 2.83454 11.5028 3.05222 11.3701 3.24951H13C14.2425 3.24951 15.2497 4.25708 15.25 5.49951V12.4995C15.25 13.7422 14.2426 14.7495 13 14.7495H3C1.75738 14.7495 0.75 13.7421 0.75 12.4995V5.49951C0.750251 4.2571 1.75753 3.24953 3 3.24951H4.62988C4.49725 3.05222 4.39403 2.83453 4.3291 2.604L4.29785 2.4751C4.1591 1.8344 4.32993 1.20278 4.7666 0.766113C5.20333 0.329523 5.83488 0.158513 6.47559 0.297363L6.60449 0.328613C7.19781 0.495721 7.70537 0.91296 8 1.44971C8.29463 0.912951 8.80218 0.495723 9.39551 0.328613L9.52441 0.297363ZM10.2051 13.2495H13C13.4142 13.2495 13.75 12.9137 13.75 12.4995V10.522L10.2051 13.2495ZM2.25 9.36865V12.4995C2.25 12.9137 2.5858 13.2495 3 13.2495H7.74512L13.75 8.62939V5.49951C13.7497 5.08551 13.4141 4.74951 13 4.74951H8.25391L2.25 9.36865ZM3 4.74951C2.58596 4.74953 2.25025 5.08552 2.25 5.49951V7.4751L5.79297 4.74951H3ZM6.12402 1.75635C5.96143 1.72971 5.86954 1.78438 5.82715 1.82666C5.78487 1.86894 5.73028 1.96089 5.75684 2.12354L5.77344 2.19678C5.83607 2.41921 6.01697 2.61975 6.23145 2.71436L6.3252 2.74854L6.91602 2.91455L6.74902 2.32471C6.67731 2.07067 6.45133 1.84449 6.19727 1.77295L6.12402 1.75635ZM9.87598 1.75635L9.80273 1.77295C9.54867 1.84449 9.32268 2.07067 9.25098 2.32471L9.08398 2.91455L9.6748 2.74854L9.76855 2.71436C9.98305 2.61976 10.1639 2.41923 10.2266 2.19678L10.2432 2.12354C10.2697 1.96089 10.2151 1.86894 10.1729 1.82666C10.1304 1.78438 10.0386 1.72969 9.87598 1.75635Z" fill="#FF00FF"/>
</svg>
