<svg width="16" height="16" viewBox="0 0 16 16" fill="none" xmlns="http://www.w3.org/2000/svg">
<path d="M4.32629 3.44812L4.99036 3.79773L2.53918 8.46179C1.93346 9.61454 2.3174 11.0593 3.30286 11.6844L4.51575 12.454L4.69446 12.5546C5.60551 13.006 6.7258 12.6592 7.27649 11.6112L9.72766 6.94714L11.0558 7.64441L8.60461 12.3094C7.67493 14.0787 5.58954 14.7801 3.87708 13.8182L3.71204 13.7206L2.49915 12.951C0.805019 11.8764 0.270733 9.55598 1.21204 7.76453L3.66321 3.09949L4.32629 3.44812ZM7.48938 3.52234C8.49214 1.82306 10.6006 1.20956 12.2872 2.27917L13.5001 3.04871L13.6564 3.1532C15.1761 4.23215 15.6684 6.35755 14.8722 8.06628L14.7882 8.23523L12.337 12.9003L11.673 12.5516L11.0089 12.202L13.4601 7.53796L13.5626 7.31824C13.9854 6.28179 13.6698 5.07504 12.8751 4.44226L12.6974 4.31531L11.4845 3.54578C10.6048 2.98775 9.46405 3.23445 8.84094 4.18835L8.72278 4.38855L6.27258 9.05261L4.94446 8.35535L7.39563 3.69031L7.48938 3.52234Z" fill="#FF00FF"/>
</svg>
