<svg width="16" height="16" viewBox="0 0 16 16" fill="none" xmlns="http://www.w3.org/2000/svg">
<path d="M4.25 2.49902L4.68066 2.4082C6.04464 2.11832 7.46859 2.22872 8.76758 2.72559C9.79509 3.11866 10.9248 3.20644 12.0068 2.97656L13.3438 2.69238C13.5649 2.64537 13.7959 2.70057 13.9717 2.84277C14.1475 2.98515 14.25 3.19956 14.25 3.42578V9.57422C14.2499 9.92817 14.0024 10.2339 13.6562 10.3076L12.3193 10.5918C10.9554 10.8817 9.53141 10.7713 8.23242 10.2744C7.20491 9.88134 6.07522 9.79356 4.99316 10.0234L4.25 10.1807V14H2.75V2H4.25V2.49902ZM12.3193 4.44336C11.3039 4.65917 10.2556 4.65186 9.25 4.42969V6C9.25 6.24108 9.13405 6.46743 8.93848 6.6084C8.7429 6.74935 8.4914 6.78815 8.2627 6.71191C7.0809 6.31798 5.52346 6.26959 4.25 6.56738V8.64746L4.68066 8.55664C6.04468 8.26675 7.46857 8.37713 8.76758 8.87402C9.79507 9.26709 10.9248 9.35486 12.0068 9.125L12.75 8.9668V4.35156L12.3193 4.44336ZM7.75 3.96875C6.85718 3.71607 5.90849 3.68055 4.99316 3.875L4.25 4.03223V5.03418C5.3756 4.82126 6.6244 4.82126 7.75 5.03418V3.96875Z" fill="#FF00FF"/>
</svg>
