<svg width="16" height="16" viewBox="0 0 16 16" fill="none" xmlns="http://www.w3.org/2000/svg">
<path d="M6.49963 8.75C6.91385 8.75 7.24963 9.08579 7.24963 9.5V13.5C7.24963 13.9142 6.91385 14.25 6.49963 14.25H2.49963C2.08561 14.2498 1.74963 13.9141 1.74963 13.5V9.5C1.74963 9.08593 2.08561 8.75023 2.49963 8.75H6.49963ZM13.4996 8.75C13.9138 8.75 14.2496 9.08579 14.2496 9.5V13.5C14.2496 13.9142 13.9138 14.25 13.4996 14.25H9.49963C9.08561 14.2498 8.74963 13.9141 8.74963 13.5V9.5C8.74963 9.08593 9.08561 8.75023 9.49963 8.75H13.4996ZM3.24963 12.75H5.74963V10.25H3.24963V12.75ZM10.2496 12.75H12.7496V10.25H10.2496V12.75ZM6.49963 1.75C6.91385 1.75 7.24963 2.08579 7.24963 2.5V6.5C7.24963 6.91421 6.91385 7.25 6.49963 7.25H2.49963C2.08561 7.24977 1.74963 6.91407 1.74963 6.5V2.5C1.74963 2.08593 2.08561 1.75023 2.49963 1.75H6.49963ZM13.4996 1.75C13.9138 1.75 14.2496 2.08579 14.2496 2.5V6.5C14.2496 6.91421 13.9138 7.25 13.4996 7.25H9.49963C9.08561 7.24977 8.74963 6.91407 8.74963 6.5V2.5C8.74963 2.08593 9.08561 1.75023 9.49963 1.75H13.4996ZM3.24963 5.75H5.74963V3.25H3.24963V5.75ZM10.2496 5.75H12.7496V3.25H10.2496V5.75Z" fill="#FF00FF"/>
</svg>
