<svg width="16" height="16" viewBox="0 0 16 16" fill="none" xmlns="http://www.w3.org/2000/svg">
<path fill-rule="evenodd" clip-rule="evenodd" d="M9.0297 5.92578L9.03068 5.9248L12.4516 6.16406C13.0148 6.20358 13.5386 6.46999 13.9018 6.90234L15.5375 8.85156L14.3891 9.81641L12.7533 7.86719C12.6517 7.74617 12.5047 7.67129 12.3471 7.66016L8.92521 7.4209C8.91422 7.42012 8.90296 7.41923 8.89201 7.41797C8.87754 7.41629 8.87015 7.41759 8.86857 7.41797C8.86685 7.41843 8.8644 7.41942 8.86076 7.42188C8.85631 7.42495 8.84968 7.43087 8.84318 7.43945C8.83805 7.44633 8.83369 7.45449 8.83049 7.46191C8.83192 7.4627 8.83379 7.46409 8.83537 7.46484L11.1977 8.59766C11.521 8.75292 11.6893 9.11574 11.599 9.46289C11.5085 9.80955 11.1852 10.0443 10.8276 10.0225L2.60099 9.5127C2.48147 9.50534 2.40395 9.54153 2.34709 9.59082C2.28145 9.64784 2.22834 9.73773 2.20842 9.83984C2.18871 9.94151 2.20816 10.0193 2.23478 10.0645C2.25404 10.097 2.30457 10.1622 2.4672 10.2002L2.47795 10.2031L9.00334 11.8213C9.25915 11.8847 9.52201 11.917 9.78556 11.917H15.0131V13.417H9.78556C9.40027 13.417 9.01598 13.3701 8.64201 13.2773L2.11662 11.6592V11.6582C1.59505 11.5339 1.18675 11.2397 0.94279 10.8262C0.70494 10.4226 0.657175 9.96311 0.736736 9.55371C0.893532 8.74796 1.60352 7.94817 2.69377 8.01562L7.58732 8.31836C7.51609 8.21754 7.4568 8.10802 7.41349 7.99121C7.2852 7.6446 7.30348 7.28365 7.41056 6.97559C7.61851 6.37803 8.22192 5.84883 9.0297 5.92578ZM4.50041 2.58301C5.8348 2.58321 6.91622 3.6656 6.91642 5C6.91625 6.33441 5.83482 7.41581 4.50041 7.41602C3.16583 7.41602 2.08359 6.33454 2.08342 5C2.08361 3.66548 3.16584 2.58301 4.50041 2.58301ZM4.50041 4.08301C3.99427 4.08301 3.58361 4.49391 3.58342 5C3.58359 5.50611 3.99426 5.91602 4.50041 5.91602C5.00639 5.91581 5.41625 5.50599 5.41642 5C5.41623 4.49403 5.00638 4.08321 4.50041 4.08301Z" fill="#FF00FF"/>
</svg>
