<svg width="16" height="16" viewBox="0 0 16 16" fill="none" xmlns="http://www.w3.org/2000/svg">
<path fill-rule="evenodd" clip-rule="evenodd" d="M8.54793 3.44025C10.1955 1.85333 12.8556 1.85316 14.503 3.44025C16.166 5.04253 16.1658 7.65234 14.503 9.25471C14.4953 9.26217 14.4867 9.27004 14.4786 9.27717L8.49618 14.5623C8.21271 14.8123 7.78746 14.8123 7.50399 14.5623L1.52157 9.27717C1.51349 9.27003 1.50491 9.26218 1.49715 9.25471C-0.165644 7.65234 -0.165791 5.04253 1.49715 3.44025C3.1447 1.85309 5.80566 1.85308 7.45321 3.44025L8.00008 3.96662L8.54793 3.44025ZM6.12411 8.91584C5.98501 9.12449 5.75084 9.24982 5.50008 9.24982H3.75594L8.00008 12.9988L12.2442 9.24982H10.3106L9.03036 10.5301C8.87147 10.689 8.64946 10.7681 8.42586 10.7459C8.2024 10.7237 8.00063 10.6027 7.87606 10.4158L6.50008 8.35139L6.12411 8.91584ZM13.462 4.52033C12.3954 3.49287 10.6546 3.49285 9.58797 4.52033L8.52059 5.54865C8.23012 5.82848 7.77004 5.82849 7.47957 5.54865L6.41219 4.52033C5.3456 3.49284 3.60479 3.49288 2.53817 4.52033C1.62423 5.40081 1.506 6.74771 2.18172 7.74982H5.09871L5.87606 6.58381L5.9327 6.50959C6.07413 6.34591 6.28072 6.24982 6.50008 6.24982C6.75081 6.24983 6.985 6.37521 7.12411 6.58381L8.61629 8.82209L9.46981 7.96955L9.58407 7.8758C9.70635 7.7943 9.85095 7.74982 10.0001 7.74982H13.8184C14.4942 6.74771 14.3759 5.4008 13.462 4.52033Z" fill="#FF00FF"/>
</svg>
