<svg width="16" height="16" viewBox="0 0 16 16" fill="none" xmlns="http://www.w3.org/2000/svg">
<path d="M2.87256 2.87256C5.70372 0.0414 10.2951 0.0416846 13.1265 2.87256C15.9578 5.70386 15.9578 10.2952 13.1265 13.1265C10.2952 15.9578 5.70386 15.9578 2.87256 13.1265C0.0416846 10.2951 0.0414004 5.70372 2.87256 2.87256ZM12.0649 3.93408C9.81939 1.68899 6.17945 1.68871 3.93408 3.93408C1.68871 6.17945 1.68899 9.81939 3.93408 12.0649C6.1796 14.3105 9.81943 14.3105 12.0649 12.0649C14.3105 9.81943 14.3105 6.1796 12.0649 3.93408ZM8.00049 10.3335C8.55255 10.3338 9.00049 10.7814 9.00049 11.3335C9.00042 11.8856 8.55251 12.3332 8.00049 12.3335C7.44825 12.3335 7.00055 11.8857 7.00049 11.3335C7.00049 10.7812 7.4482 10.3335 8.00049 10.3335ZM7.99951 4.0835C9.37863 4.0835 10.4165 5.1406 10.4165 6.47412C10.4163 7.15266 10.1364 7.72596 9.67334 8.12646C9.40495 8.35848 9.0874 8.52059 8.74951 8.62256V9.3335H7.24951V7.29541L7.95361 7.25146C8.29112 7.23034 8.5406 7.12242 8.69189 6.9917C8.82883 6.87323 8.91635 6.71266 8.9165 6.47412C8.9165 5.97181 8.55299 5.5835 7.99951 5.5835C7.45062 5.58373 7.02424 5.9793 6.90283 6.61475L6.1665 6.47412L5.43018 6.33252C5.65055 5.18007 6.5536 4.08374 7.99951 4.0835Z" fill="#FF00FF"/>
</svg>
