<svg width="16" height="16" viewBox="0 0 16 16" fill="none" xmlns="http://www.w3.org/2000/svg">
<path d="M8 12.5C8.55226 12.5 9 12.9477 9 13.5C8.99999 14.0523 8.55225 14.5 8 14.5C7.44772 14.5 7.00001 14.0523 7 13.5C7 12.9477 7.44772 12.5 8 12.5ZM8 1.25C10.3452 1.2502 12.083 3.02899 12.083 5.28027C12.083 6.41818 11.619 7.35926 10.8555 8.01953C10.2748 8.52148 9.54263 8.84177 8.75 8.99219V11H7.25V7.62891L7.95312 7.58496C8.75633 7.53486 9.42247 7.27498 9.87402 6.88477C10.3114 6.50654 10.583 5.9782 10.583 5.28027C10.583 3.8602 9.51955 2.75019 8 2.75C6.45332 2.75016 5.36163 3.89124 5.06934 5.4209L3.59668 5.13965C3.98775 3.09281 5.55604 1.25017 8 1.25Z" fill="#FF00FF"/>
</svg>
