<svg width="16" height="16" viewBox="0 0 16 16" fill="none" xmlns="http://www.w3.org/2000/svg">
<path d="M8 1C11.866 1 15 4.13401 15 8C15 11.866 11.866 15 8 15C4.13401 15 1 11.866 1 8C1 4.13401 4.13401 1 8 1ZM8 10.333C7.44789 10.333 7.00023 10.7809 7 11.333C7 11.8853 7.44774 12.333 8 12.333C8.55228 12.333 9 11.8853 9 11.333C8.99977 10.7809 8.55214 10.333 8 10.333ZM8 4.08301C6.55415 4.08316 5.65118 5.17968 5.43066 6.33203L6.16699 6.47363L6.90332 6.61426C7.02484 5.97897 7.45113 5.58315 8 5.58301C8.55321 5.58312 8.91682 5.97157 8.91699 6.47363C8.91689 6.71208 8.82917 6.87274 8.69238 6.99121C8.54115 7.12198 8.29162 7.2298 7.9541 7.25098L7.25 7.29492V9.33301H8.75V8.62207C9.08785 8.52008 9.40548 8.358 9.67383 8.12598C10.1367 7.72545 10.4169 7.1521 10.417 6.47363C10.4168 5.14036 9.37887 4.08313 8 4.08301Z" fill="#FF00FF"/>
</svg>
