<svg width="16" height="16" viewBox="0 0 16 16" fill="none" xmlns="http://www.w3.org/2000/svg">
<path fill-rule="evenodd" clip-rule="evenodd" d="M8.00012 3.75022H3.00012C2.58591 3.75022 2.25012 4.08601 2.25012 4.50022V11.5002C2.25027 11.9143 2.586 12.2502 3.00012 12.2502H13.0001C13.4142 12.2502 13.75 11.9143 13.7501 11.5002V8.00022H15.2501V11.5002C15.25 12.7427 14.2426 13.7502 13.0001 13.7502H3.00012C1.75757 13.7502 0.750266 12.7427 0.750122 11.5002V4.50022C0.750122 3.25758 1.75748 2.25022 3.00012 2.25022H8.00012V3.75022ZM13.0734 2.41624C13.5904 1.86158 14.4284 1.86158 14.9454 2.41624C15.4623 2.97084 15.4622 3.8694 14.9454 4.42405L12.8419 6.49436C12.7447 6.58987 12.5886 6.58992 12.4913 6.49436L10.3878 4.42405C9.87109 3.86942 9.87103 2.97083 10.3878 2.41624C10.9048 1.86158 11.7429 1.86158 12.2599 2.41624L12.6671 2.85276L13.0734 2.41624Z" fill="#FF00FF"/>
</svg>
