<svg width="16" height="16" viewBox="0 0 16 16" fill="none" xmlns="http://www.w3.org/2000/svg">
<path d="M13.5756 7.90552L13.7181 8.05493C15.0941 9.57808 15.0942 11.9029 13.7181 13.426L13.5756 13.5754C12.0587 15.0923 9.62903 15.1399 8.05505 13.718L7.90564 13.5754L6.52283 12.1926L7.58337 11.1321L8.96619 12.5149L9.15662 12.6877C10.1423 13.4914 11.5963 13.4336 12.515 12.5149L12.6879 12.3245C13.4379 11.4046 13.4379 10.0764 12.6879 9.15649L12.515 8.96606L11.1322 7.58325L12.1927 6.52271L13.5756 7.90552ZM11.3724 10.3118L10.3119 11.3723L4.6283 5.68872L5.68884 4.62817L11.3724 10.3118ZM2.57458 2.28247C4.09782 0.906382 6.42254 0.906215 7.94568 2.28247L8.09509 2.42505L8.11462 2.44458L9.55017 3.9895L8.45056 5.01099L7.03455 3.4856L6.84412 3.31274C5.92423 2.56247 4.59612 2.56264 3.67615 3.31274L3.48572 3.4856C2.50567 4.46565 2.50567 6.05437 3.48572 7.03442L4.86853 8.41724L3.80798 9.47778L2.42517 8.09497C0.859333 6.52913 0.859335 3.99089 2.42517 2.42505L2.57458 2.28247Z" fill="#FF00FF"/>
</svg>
