<svg width="16" height="16" viewBox="0 0 16 16" fill="none" xmlns="http://www.w3.org/2000/svg">
<path d="M14.5771 2.75391C14.9551 2.79253 15.25 3.11183 15.25 3.5V12.5C15.25 12.9142 14.9142 13.25 14.5 13.25H1.5C1.08579 13.25 0.75 12.9142 0.75 12.5V3.5L0.753906 3.42285C0.792528 3.04488 1.11183 2.75 1.5 2.75H14.5L14.5771 2.75391ZM2.25 11.75H13.75V4.25H2.25V11.75ZM8 9.75H4V8.25H8V9.75ZM6 5.5C6.55228 5.5 7 5.94772 7 6.5C7 7.05228 6.55228 7.5 6 7.5C5.44772 7.5 5 7.05228 5 6.5C5 5.94772 5.44772 5.5 6 5.5Z" fill="#FF00FF"/>
</svg>
