<svg width="16" height="16" viewBox="0 0 16 16" fill="none" xmlns="http://www.w3.org/2000/svg">
<path d="M13.0771 1.25391C13.4551 1.29253 13.75 1.61183 13.75 2V14C13.75 14.4142 13.4142 14.75 13 14.75H3C2.58579 14.75 2.25 14.4142 2.25 14V2L2.25391 1.92285C2.29253 1.54488 2.61183 1.25 3 1.25H13L13.0771 1.25391ZM3.75 13.25H12.25V2.75H3.75V13.25ZM10.5 11.75H5.5V10.25H10.5V11.75ZM7.16602 3.93066C7.6448 3.98573 8.06151 4.20325 8.33594 4.34082C8.65673 4.50162 8.83601 4.58301 9.00586 4.60254C9.12223 4.61583 9.28676 4.60565 9.55469 4.4082C9.78235 4.24034 10.0854 4.2144 10.3379 4.3418C10.5904 4.4694 10.75 4.72878 10.75 5.01172V7.32227C10.7499 7.53045 10.6635 7.72838 10.5137 7.86914L10.4453 7.92578C9.90457 8.32445 9.36628 8.46452 8.83398 8.40332C8.35525 8.34827 7.9385 8.13074 7.66406 7.99316C7.34322 7.83233 7.164 7.75098 6.99414 7.73145C6.87774 7.71814 6.71336 7.72821 6.44531 7.92578C6.2177 8.09352 5.91455 8.11949 5.66211 7.99219C5.40961 7.86465 5.25011 7.60513 5.25 7.32227V5.01172L5.25488 4.92285C5.27918 4.71867 5.3872 4.53188 5.55469 4.4082L5.75781 4.27051C6.23029 3.97755 6.70025 3.87711 7.16602 3.93066ZM6.99414 5.4209C6.93025 5.4136 6.85199 5.41341 6.75 5.44727V6.23633C6.88902 6.2241 7.0277 6.22531 7.16602 6.24121C7.64495 6.29629 8.06151 6.51478 8.33594 6.65234C8.6567 6.81313 8.83602 6.89356 9.00586 6.91309C9.06978 6.92039 9.14793 6.91966 9.25 6.88574V6.09668C9.11097 6.10892 8.97231 6.10868 8.83398 6.09277C8.3551 6.03771 7.9385 5.81921 7.66406 5.68164C7.34324 5.52082 7.16399 5.44044 6.99414 5.4209Z" fill="#FF00FF"/>
</svg>
