<svg width="16" height="16" viewBox="0 0 16 16" fill="none" xmlns="http://www.w3.org/2000/svg">
<path d="M10 15.667H6V14.167H10V15.667ZM8 0.5C11.1709 0.500044 13.7498 3.05556 13.75 6.21777C13.75 8.33718 12.4689 10.3146 10.75 11.3223V12.417C10.7498 12.831 10.4141 13.1669 10 13.167H6C5.5859 13.167 5.25018 12.8311 5.25 12.417V11.3223C3.53102 10.3146 2.25001 8.33723 2.25 6.21777C2.25018 3.05553 4.82906 0.5 8 0.5ZM8 2C5.64832 2 3.75018 3.8931 3.75 6.21777C3.75001 7.88787 4.87367 9.51347 6.32031 10.1963C6.58245 10.3202 6.74985 10.5841 6.75 10.874V11.667H9.25V10.874C9.25015 10.5841 9.41755 10.3202 9.67969 10.1963C11.1263 9.51343 12.25 7.88781 12.25 6.21777C12.2498 3.89313 10.3516 2.00004 8 2Z" fill="#FF00FF"/>
</svg>
