<svg width="16" height="16" viewBox="0 0 16 16" fill="none" xmlns="http://www.w3.org/2000/svg">
<path d="M14.75 2.25C15.1642 2.25 15.5 2.58579 15.5 3V13C15.5 13.4142 15.1642 13.75 14.75 13.75H1.25C0.835786 13.75 0.5 13.4142 0.5 13V3C0.5 2.58579 0.835786 2.25 1.25 2.25H14.75ZM2 12.25H14V3.75H2V12.25ZM7.5498 6.40039C7.81647 6.20039 8.18353 6.20039 8.4502 6.40039L12.4502 9.40039C12.7082 9.59412 12.814 9.93117 12.7119 10.2373C12.6098 10.5436 12.3228 10.75 12 10.75H4C3.67718 10.75 3.39017 10.5436 3.28809 10.2373C3.18604 9.93117 3.29177 9.59412 3.5498 9.40039L7.5498 6.40039ZM6.25 9.25H9.75L8 7.93652L6.25 9.25ZM4.66699 5C5.21913 5.00018 5.66699 5.44782 5.66699 6C5.66699 6.55218 5.21913 6.99982 4.66699 7C4.11471 7 3.66699 6.55228 3.66699 6C3.66699 5.44772 4.11471 5 4.66699 5Z" fill="#FF00FF"/>
</svg>
