<svg width="16" height="16" viewBox="0 0 16 16" fill="none" xmlns="http://www.w3.org/2000/svg">
<path d="M2.87341 2.87341C5.70471 0.0421131 10.296 0.0421125 13.1273 2.87341C15.9583 5.70474 15.9585 10.2961 13.1273 13.1273C10.2961 15.9585 5.70474 15.9583 2.87341 13.1273C0.0421125 10.296 0.0421133 5.70471 2.87341 2.87341ZM12.0658 3.93494C9.82028 1.68942 6.18045 1.68942 3.93494 3.93494C1.68942 6.18045 1.68942 9.82028 3.93494 12.0658C6.18048 14.3109 9.8204 14.3112 12.0658 12.0658C14.3112 9.8204 14.3109 6.18048 12.0658 3.93494ZM8.75037 12.0004H7.25037V7.50037H8.75037V12.0004ZM8.00037 4.00037C8.5522 4.00056 9.00037 4.44849 9.00037 5.00037C9.00017 5.55208 8.55208 6.00017 8.00037 6.00037C7.44849 6.00037 7.00056 5.5522 7.00037 5.00037C7.00037 4.44837 7.44837 4.00037 8.00037 4.00037Z" fill="#FF00FF"/>
</svg>
