<svg width="16" height="16" viewBox="0 0 16 16" fill="none" xmlns="http://www.w3.org/2000/svg">
<path fill-rule="evenodd" clip-rule="evenodd" d="M10.625 0.390612C10.3514 0.194157 9.98621 0.206744 9.72849 0.406237L9.62498 0.502917L5.68845 4.958L3.43845 7.50292C3.27515 7.68767 3.21307 7.94133 3.27244 8.18065C3.33185 8.4199 3.50467 8.61515 3.73533 8.70214L8.53416 10.5117L6.16306 14.625C5.97074 14.9586 6.06233 15.3846 6.37498 15.6094C6.68745 15.8337 7.11905 15.7851 7.374 15.4971L11.3115 11.042L13.5615 8.49706C13.7248 8.31231 13.7869 8.05865 13.7275 7.81932C13.6681 7.58008 13.4953 7.38482 13.2646 7.29784L8.46482 5.48729L10.8369 1.37499L10.8965 1.24608C11.0036 0.938101 10.8986 0.587364 10.625 0.390612Z" fill="#FF00FF"/>
</svg>
