<svg width="16" height="16" viewBox="0 0 16 16" fill="none" xmlns="http://www.w3.org/2000/svg">
<path d="M9.72888 0.405762C9.98658 0.206578 10.3519 0.193798 10.6254 0.390137C10.8988 0.586781 11.0037 0.937746 10.8969 1.24561L10.8373 1.37451L8.46521 5.48682L13.265 7.29736C13.4955 7.38433 13.6684 7.57981 13.7279 7.81885C13.7872 8.058 13.7249 8.31187 13.5619 8.49658L11.3119 11.0415L7.37439 15.4966C7.11944 15.7846 6.68784 15.8332 6.37537 15.6089C6.06273 15.3841 5.97113 14.9581 6.16345 14.6245L8.53455 10.5112L3.73572 8.70166C3.50506 8.61468 3.33224 8.41942 3.27283 8.18018C3.21361 7.94096 3.27562 7.6871 3.43884 7.50244L5.68884 4.95752L9.62537 0.502441L9.72888 0.405762ZM5.28259 7.68018L9.89001 9.41846L10.5306 9.66064L11.7181 8.31689L7.11072 6.57959L6.46912 6.3374L5.28259 7.68018Z" fill="#FF00FF"/>
</svg>
