<svg width="16" height="16" viewBox="0 0 16 16" fill="none" xmlns="http://www.w3.org/2000/svg">
<path d="M8 0.75L8.37305 0.759766C12.2037 0.953933 15.25 4.12106 15.25 8C15.25 12.0041 12.0041 15.25 8 15.25C3.99594 15.25 0.750001 12.0041 0.75 8C0.750001 3.99594 3.99594 0.750001 8 0.75ZM5.77344 8.75C5.84775 10.0693 6.11524 11.3195 6.55957 12.2822C7.10683 13.4678 7.68287 13.75 8 13.75L8.13086 13.7354C8.46102 13.6649 8.96177 13.3192 9.44043 12.2822C9.88476 11.3195 10.1523 10.0693 10.2266 8.75H5.77344ZM2.2998 8.75C2.54305 10.6169 3.68179 12.2015 5.27051 13.0605C5.24608 13.0107 5.22075 12.961 5.19727 12.9102C4.64617 11.7159 4.34685 10.2404 4.27148 8.75H2.2998ZM11.7285 8.75C11.6532 10.2404 11.3538 11.7159 10.8027 12.9102C10.7793 12.961 10.7539 13.0107 10.7295 13.0605C12.3182 12.2015 13.457 10.6169 13.7002 8.75H11.7285ZM10.8027 3.08984L10.9189 3.35547C11.3963 4.49935 11.6586 5.86822 11.7285 7.25H13.7002C13.4569 5.38293 12.3184 3.7975 10.7295 2.93848C10.7541 2.98855 10.7791 3.03869 10.8027 3.08984ZM7.86914 2.26465C7.56256 2.33005 7.10858 2.63262 6.66211 3.50586L6.55957 3.71777C6.11524 4.68049 5.84775 5.9307 5.77344 7.25H10.2266C10.1577 6.02883 9.92335 4.86706 9.53613 3.9375L9.44043 3.71777C8.89317 2.53217 8.31713 2.25 8 2.25L7.86914 2.26465ZM5.27051 2.93848C3.68157 3.7975 2.54307 5.38294 2.2998 7.25H4.27148C4.34685 5.75956 4.64617 4.28409 5.19727 3.08984L5.27051 2.93848Z" fill="#FF00FF"/>
</svg>
