<svg width="16" height="16" viewBox="0 0 16 16" fill="none" xmlns="http://www.w3.org/2000/svg">
<path d="M4.66602 12.6667L4.66699 13.4167H1.33398L1.33301 11.9167H4.66699L4.66602 12.6667ZM9.33301 12.6667V13.4167H6V11.9167H9.33398L9.33301 12.6667ZM2.75 2.66675C2.75 3.5702 2.98097 4.87741 3.47168 5.93433C3.97905 7.02712 4.62242 7.58357 5.33301 7.58374C5.56949 7.58374 5.82636 7.50139 6.13867 7.32007C6.45907 7.13403 6.77886 6.88024 7.15918 6.57886C7.8464 6.03425 8.80388 5.24976 10 5.24976C11.0028 5.24976 11.7789 5.8767 12.3359 6.573C12.9026 7.28138 13.3515 8.19264 13.6963 9.05444C14.0444 9.92461 14.3033 10.7889 14.4746 11.4314C14.5606 11.7538 14.6256 12.0239 14.6689 12.2136C14.6906 12.3082 14.7067 12.3833 14.7178 12.4353C14.7233 12.4613 14.7275 12.4817 14.7305 12.4958C14.7319 12.5029 14.7336 12.5085 14.7344 12.5125C14.7348 12.5144 14.7351 12.5162 14.7354 12.5173V12.5193L14.7471 12.6023C14.7638 12.7961 14.7048 12.9902 14.5801 13.1423C14.4555 13.2943 14.277 13.3901 14.084 13.4119L14 13.4167H10.667V11.9167H13.0498C13.0414 11.8847 13.0343 11.8514 13.0254 11.8181C12.8634 11.2107 12.6222 10.4083 12.3037 9.61206C11.9818 8.80732 11.5973 8.05201 11.1641 7.5105C10.7211 6.95681 10.3305 6.74976 10 6.74976C9.41836 6.74976 8.87581 7.13257 8.09082 7.75464C7.73517 8.03648 7.32546 8.36552 6.89258 8.61694C6.45151 8.87305 5.92981 9.08374 5.33301 9.08374C3.71067 9.08357 2.68719 7.8064 2.11133 6.56616C1.51871 5.28975 1.25 3.76329 1.25 2.66675H2.75Z" fill="#FF00FF"/>
</svg>
