<svg width="16" height="16" viewBox="0 0 16 16" fill="none" xmlns="http://www.w3.org/2000/svg">
<path d="M13.1221 1.32228C13.3175 1.35747 13.491 1.46892 13.6045 1.63185L15.9287 4.97169L14.6973 5.82912L13.418 3.99025C13.2633 4.78909 13.0541 5.7664 12.7861 6.75783C12.4685 7.93306 12.0617 9.16357 11.5576 10.1465C11.3056 10.6379 11.0151 11.0963 10.6777 11.459C10.3425 11.8193 9.91841 12.1311 9.39746 12.2354C8.47125 12.4206 7.755 12.07 7.23047 11.5303C6.7498 11.0355 6.3977 10.3513 6.1084 9.77345C5.79435 9.14616 5.54269 8.62022 5.24316 8.23146C4.95832 7.86179 4.73185 7.75001 4.5 7.75001C4.24028 7.75002 3.92881 7.89157 3.56934 8.29982C3.21225 8.70543 2.88281 9.29458 2.60156 9.97462C2.03436 11.3462 1.75 12.8724 1.75 13.5H0.25C0.250001 12.6277 0.594108 10.9037 1.21582 9.4004C1.52899 8.64329 1.93411 7.88816 2.44336 7.30958C2.95041 6.73364 3.63783 6.25002 4.5 6.25001C5.39009 6.25001 6.00613 6.76324 6.43164 7.31544C6.84234 7.84844 7.16883 8.54151 7.44922 9.10158C7.75435 9.71106 8.01312 10.1833 8.30664 10.4854C8.55633 10.7422 8.77904 10.8293 9.10254 10.7647C9.20636 10.7439 9.36851 10.6649 9.58008 10.4375C9.78951 10.2123 10.0069 9.88542 10.2236 9.4629C10.657 8.61781 11.0315 7.50429 11.3389 6.3672C11.5957 5.41699 11.7974 4.47344 11.9473 3.69826L10.0771 5.00001L9.2207 3.76857L12.5605 1.44533L12.6895 1.37306C12.8242 1.31441 12.9753 1.29594 13.1221 1.32228Z" fill="#FF00FF"/>
</svg>
