<svg width="16" height="16" viewBox="0 0 16 16" fill="none" xmlns="http://www.w3.org/2000/svg">
<path d="M4.66602 4.08301V2.58301H1.33301V4.08301H4.66602ZM9.33301 2.58301H6V4.08301H9.33301V2.58301ZM2.75 13.333C2.75005 12.4296 2.98103 11.1222 3.47168 10.0654C3.97903 8.9728 4.62248 8.41619 5.33301 8.41602C5.56946 8.41602 5.82642 8.49842 6.13867 8.67969C6.45903 8.86571 6.77893 9.11956 7.15918 9.4209C7.8464 9.9655 8.80388 10.75 10 10.75C11.0028 10.75 11.7789 10.1231 12.3359 9.42676C12.9026 8.7184 13.3516 7.80704 13.6963 6.94531C14.0443 6.07523 14.3033 5.21077 14.4746 4.56836C14.5605 4.2461 14.6256 3.9758 14.6689 3.78613C14.6905 3.69166 14.7067 3.61645 14.7178 3.56445C14.7233 3.53861 14.7276 3.51802 14.7305 3.50391C14.7319 3.49699 14.7336 3.49121 14.7344 3.4873C14.7348 3.48545 14.7351 3.48354 14.7354 3.48242V3.48047L14.7471 3.39746C14.7637 3.20376 14.7047 3.00946 14.5801 2.85742C14.4376 2.68378 14.2246 2.58301 14 2.58301H10.667V4.08301H13.0498C13.0414 4.11496 13.0342 4.14842 13.0254 4.18164C12.8634 4.789 12.6221 5.59159 12.3037 6.3877C11.9818 7.19235 11.5972 7.94776 11.1641 8.48926C10.7211 9.04295 10.3305 9.24999 10 9.25C9.41836 9.25 8.8758 8.86719 8.09082 8.24512C7.7352 7.9633 7.3254 7.6342 6.89258 7.38281C6.45154 7.12674 5.92975 6.91602 5.33301 6.91602C3.71078 6.91619 2.68721 8.19344 2.11133 9.43359C1.51876 10.7099 1.25005 12.2365 1.25 13.333H2.75Z" fill="#FF00FF"/>
</svg>
