<svg width="16" height="16" viewBox="0 0 16 16" fill="none" xmlns="http://www.w3.org/2000/svg">
<path d="M1.65527 3.2959C3.31066 1.85483 5.8562 1.90317 7.45215 3.44043H7.45312L8 3.9668L8.54688 3.44043L8.70508 3.2959C10.3605 1.85471 12.907 1.90291 14.5029 3.44043L14.6533 3.59375C16.1153 5.15331 16.1156 7.5431 14.6533 9.10254L14.5029 9.25488L14.4785 9.27734L8.49609 14.5625C8.24804 14.7813 7.89139 14.8086 7.61621 14.6445L7.50391 14.5625L1.52148 9.27734L1.49707 9.25488C-0.165776 7.65252 -0.16589 5.04272 1.49707 3.44043L1.65527 3.2959ZM13.4619 4.52051C12.462 3.55728 10.8699 3.49715 9.7959 4.33984L9.58789 4.52051L8.52051 5.54883C8.26638 5.79365 7.88225 5.82516 7.5957 5.6416L7.47949 5.54883L6.41211 4.52051C5.41225 3.55725 3.82009 3.49718 2.74609 4.33984L2.53809 4.52051C1.48889 5.53129 1.48741 7.15715 2.5332 8.16992L8 12.999L13.4658 8.16992C14.4466 7.22062 14.5071 5.73312 13.6465 4.71777L13.4619 4.52051Z" fill="#FF00FF"/>
</svg>
