<svg width="16" height="16" viewBox="0 0 16 16" fill="none" xmlns="http://www.w3.org/2000/svg">
<path d="M8 5.25C8.23888 5.25 8.46321 5.36402 8.60449 5.55664L14.1045 13.0566C14.2716 13.2845 14.2966 13.5868 14.1689 13.8389C14.0412 14.091 13.7826 14.25 13.5 14.25H2.5C2.21737 14.25 1.95881 14.091 1.83105 13.8389C1.70335 13.5868 1.72839 13.2845 1.89551 13.0566L7.39551 5.55664L7.45215 5.48828C7.59305 5.3374 7.79094 5.25001 8 5.25ZM3.97949 12.75H12.0205L8 7.26758L3.97949 12.75ZM14.5 3.75H1.5V2.25H14.5V3.75Z" fill="#FF00FF"/>
</svg>
