<svg width="16" height="16" viewBox="0 0 16 16" fill="none" xmlns="http://www.w3.org/2000/svg">
<path d="M8 0.75C11.1657 0.75 13.7498 3.2835 13.75 6.43066C13.75 7.37838 13.3717 8.39586 12.8838 9.33301C12.3876 10.286 11.7349 11.2369 11.0957 12.0723C10.4545 12.9103 9.81512 13.6477 9.33691 14.1748C9.09757 14.4386 8.89763 14.6509 8.75684 14.7979C8.68648 14.8713 8.63028 14.9285 8.5918 14.9678C8.57255 14.9874 8.55722 15.0032 8.54688 15.0137L8.53027 15.0303C8.25567 15.3049 7.82095 15.3223 7.52637 15.082L7.46973 15.0303L7.45312 15.0137C7.44278 15.0032 7.42745 14.9874 7.4082 14.9678C7.36972 14.9285 7.31352 14.8713 7.24316 14.7979C7.10237 14.6509 6.90243 14.4386 6.66309 14.1748C6.18488 13.6477 5.54553 12.9103 4.9043 12.0723C4.26507 11.2369 3.61239 10.286 3.11621 9.33301C2.62829 8.39586 2.25 7.37838 2.25 6.43066C2.2502 3.2835 4.83434 0.75 8 0.75ZM8 2.25C5.64306 2.25 3.7502 4.1315 3.75 6.43066C3.75 7.01743 3.99671 7.77712 4.44629 8.64062C4.88754 9.48807 5.48511 10.3622 6.0957 11.1602C6.70444 11.9557 7.31513 12.6607 7.77441 13.167C7.85386 13.2546 7.93064 13.3343 8 13.4092C8.06936 13.3343 8.14614 13.2546 8.22559 13.167C8.68487 12.6607 9.29556 11.9557 9.9043 11.1602C10.5149 10.3622 11.1125 9.48807 11.5537 8.64062C12.0033 7.77712 12.25 7.01743 12.25 6.43066C12.2498 4.1315 10.3569 2.25 8 2.25ZM8 5C8.82843 5 9.5 5.67157 9.5 6.5C9.5 7.32843 8.82843 8 8 8C7.17157 8 6.5 7.32843 6.5 6.5C6.5 5.67157 7.17157 5 8 5Z" fill="#FF00FF"/>
</svg>
