<svg width="16" height="16" viewBox="0 0 16 16" fill="none" xmlns="http://www.w3.org/2000/svg">
<path d="M3.24976 12.75H12.7498V9H14.2498V13.5C14.2498 13.9142 13.914 14.25 13.4998 14.25H2.49976C2.08555 14.25 1.74976 13.9142 1.74976 13.5V9H3.24976V12.75ZM11.9001 1.75C12.1293 1.75012 12.344 1.85507 12.4851 2.03125L12.5417 2.11133L15.1414 6.40723C15.2591 6.60171 15.2818 6.83918 15.2039 7.05273C15.126 7.26608 14.956 7.43281 14.741 7.50586C11.649 8.55374 9.71829 8.28926 7.86304 7.94629C6.08062 7.61676 4.42661 7.2334 1.66479 7.85742C1.37584 7.92253 1.07522 7.81173 0.898193 7.57422C0.72143 7.33672 0.700526 7.01696 0.845459 6.75879L3.44604 2.13281C3.56227 1.92601 3.76845 1.78802 3.99976 1.75684L4.09937 1.75H11.9001ZM4.53882 3.25L2.92749 6.11719C5.12511 5.85596 6.67416 6.20134 8.13647 6.47168C9.66038 6.75339 11.1259 6.96502 13.3591 6.35938L11.4773 3.25H4.53882Z" fill="#FF00FF"/>
</svg>
