<svg width="16" height="16" viewBox="0 0 16 16" fill="none" xmlns="http://www.w3.org/2000/svg">
<path d="M11.2109 5.25488C12.2624 5.3073 13.2599 5.75034 14.0068 6.50098C14.8034 7.30151 15.25 8.38706 15.25 9.51758L15.2383 9.82617C15.1212 11.3617 14.1596 12.7849 13.3213 13.7705C12.8584 14.3147 12.3971 14.7659 12.0527 15.0811C11.8801 15.239 11.7356 15.3648 11.6328 15.4512C11.5816 15.4942 11.5405 15.5274 11.5117 15.5508L11.4678 15.5859L11.4639 15.5898C11.4637 15.59 11.4631 15.59 11 15L11.4629 15.5898C11.1911 15.8032 10.8089 15.8032 10.5371 15.5898L11 15L10.5361 15.5898L10.5322 15.5859L10.4883 15.5508C10.4595 15.5274 10.4184 15.4942 10.3672 15.4512C10.2644 15.3648 10.1199 15.239 9.94727 15.0811C9.60288 14.7659 9.1416 14.3147 8.67871 13.7705C7.84038 12.7849 6.87877 11.3617 6.76172 9.82617L6.75 9.51758C6.75 8.38706 7.19659 7.30151 7.99316 6.50098C8.78991 5.70031 9.87164 5.25 11 5.25L11.2109 5.25488ZM11 6.75C10.2718 6.75 9.57265 7.04102 9.05664 7.55957C8.54066 8.07823 8.25 8.78259 8.25 9.51758L8.25781 9.72168C8.3396 10.7488 9.01909 11.8557 9.82129 12.7988C10.2332 13.2831 10.6472 13.6893 10.959 13.9746C10.9724 13.9869 10.987 13.998 11 14.0098C11.013 13.998 11.0276 13.9869 11.041 13.9746C11.3528 13.6893 11.7668 13.2831 12.1787 12.7988C13.0343 11.7929 13.7499 10.6006 13.75 9.51758L13.7363 9.24316C13.6736 8.60899 13.3948 8.01334 12.9434 7.55957C12.4919 7.10586 11.9001 6.82641 11.2715 6.76367L11 6.75ZM13.1787 1.25879C14.0613 1.3483 14.75 2.09383 14.75 3V4.5H13.25V3C13.25 2.87931 13.1645 2.77833 13.0508 2.75488L13 2.75H2.5C2.36193 2.75 2.25 2.86193 2.25 3V10C2.25 10.1381 2.36193 10.25 2.5 10.25H5V11.75H2.5C1.5335 11.75 0.75 10.9665 0.75 10V3C0.75 2.0335 1.5335 1.25 2.5 1.25H13L13.1787 1.25879ZM11 8.5C11.5523 8.5 12 8.94772 12 9.5C12 10.0523 11.5523 10.5 11 10.5C10.4477 10.5 10 10.0523 10 9.5C10 8.94772 10.4477 8.5 11 8.5Z" fill="#FF00FF"/>
</svg>
