<svg width="16" height="16" viewBox="0 0 16 16" fill="none" xmlns="http://www.w3.org/2000/svg">
<path d="M8 1C9.59111 1 11.117 1.62215 12.2422 2.72949C13.3674 3.83708 14 5.33989 14 6.90625C13.9998 10.2821 10.0857 13.8862 8.29297 15.2783C8.1197 15.4129 7.8803 15.4129 7.70703 15.2783C5.91428 13.8862 2.00021 10.2821 2 6.90625C2 5.33989 2.63259 3.83708 3.75781 2.72949C4.88299 1.62215 6.40889 1 8 1ZM8 5C6.89543 5 6 5.89543 6 7C6 8.10457 6.89543 9 8 9C9.10457 9 10 8.10457 10 7C10 5.89543 9.10457 5 8 5Z" fill="#FF00FF"/>
</svg>
