<svg width="16" height="16" viewBox="0 0 16 16" fill="none" xmlns="http://www.w3.org/2000/svg">
<path d="M8 0.25C10.0711 0.25 11.75 1.92893 11.75 4H10.25C10.25 2.75736 9.24264 1.75 8 1.75C6.75736 1.75 5.75 2.75736 5.75 4V5.75H13C13.9665 5.75 14.75 6.5335 14.75 7.5V13.5C14.75 14.4665 13.9665 15.25 13 15.25H3C2.0335 15.25 1.25 14.4665 1.25 13.5V7.5C1.25 6.5335 2.0335 5.75 3 5.75H4.25V4C4.25 1.92893 5.92893 0.25 8 0.25ZM3 7.25C2.86193 7.25 2.75 7.36193 2.75 7.5V13.5C2.75 13.6381 2.86193 13.75 3 13.75H13C13.1381 13.75 13.25 13.6381 13.25 13.5V7.5C13.25 7.36193 13.1381 7.25 13 7.25H3Z" fill="#FF00FF"/>
</svg>
