<svg width="16" height="16" viewBox="0 0 16 16" fill="none" xmlns="http://www.w3.org/2000/svg">
<path d="M10.6673 0.5C10.8236 0.500167 10.9397 0.654409 10.9065 0.817383L10.6058 2.29492C11.6331 2.63143 12.4681 3.2351 12.9837 3.97949C13.0574 4.08618 13.0349 4.23432 12.9388 4.31836L11.6722 5.42383C11.5607 5.52111 11.3951 5.49495 11.304 5.37598C10.6638 4.53928 9.65916 4.06641 8.57157 4.06641C7.38879 4.06656 6.60014 4.6258 6.59989 5.42969C6.59989 6.09397 7.19192 6.44374 8.99931 6.86328H9.00028C11.3007 7.38777 12.3528 8.40214 12.3528 10.1152C12.3528 12.263 10.708 13.8488 8.14188 14.0166L7.89091 15.292C7.86703 15.4131 7.76671 15.5 7.65067 15.5H5.66239C5.50415 15.4997 5.38749 15.342 5.42411 15.1777L5.74247 13.75C4.46262 13.3624 3.43434 12.6065 2.83915 11.6748C2.76943 11.5657 2.79614 11.419 2.89384 11.3379L4.28349 10.1875C4.39799 10.0929 4.56387 10.1247 4.64872 10.25C5.37998 11.3293 6.49997 11.9686 7.84892 11.9688C9.06501 11.9688 9.98563 11.3388 9.98563 10.4297C9.98547 9.73065 9.52524 9.41599 7.98075 9.06641C5.31864 8.47202 4.26696 7.42313 4.26688 5.70996C4.26688 3.7222 5.83742 2.22032 8.20634 2.02539L8.4661 0.708008C8.48995 0.587074 8.58952 0.500235 8.70536 0.5H10.6673Z" fill="#FF00FF"/>
</svg>
