<svg width="16" height="16" viewBox="0 0 16 16" fill="none" xmlns="http://www.w3.org/2000/svg">
<path d="M9.28511 1.33325C11.1057 1.33325 12.3108 2.13665 13.1943 3.3147C13.328 3.4753 13.3017 3.68964 13.1679 3.82349L11.8291 5.10864C11.6416 5.29603 11.3467 5.24234 11.2128 5.05493C10.7845 4.38559 10.1952 3.92993 9.36519 3.92993C8.34796 3.93013 7.43803 4.60017 7.4648 6.07251C7.4648 6.28665 7.4644 6.55432 7.49116 6.79517H10.624C10.8916 6.79517 11.0519 7.03577 11.0253 7.27661L10.7041 8.69556C10.6505 8.90975 10.4901 9.01685 10.3027 9.01685H7.89351C8.0006 10.0878 7.67882 11.5341 7.0898 12.0696H11.9628C12.2036 12.0697 12.391 12.3103 12.3378 12.551L11.9355 14.345C11.882 14.5323 11.7487 14.6661 11.5615 14.6663H2.40425C2.13669 14.6661 1.9762 14.4257 2.00288 14.1848L2.32417 12.7659C2.35094 12.632 2.45792 12.4978 2.59175 12.4709C4.03735 12.0159 5.21547 10.9185 5.21577 9.79419C5.21577 9.66042 5.18882 9.41933 5.16206 9.2854L5.10835 9.04419H3.58296C3.342 9.04419 3.15441 8.80273 3.20796 8.56177L3.47554 7.11646C3.52908 6.92907 3.68954 6.82157 3.87691 6.82153H4.59956C4.51932 6.44688 4.49312 6.07217 4.49312 5.69751C4.49312 2.96666 6.71491 1.33334 9.28511 1.33325Z" fill="#FF00FF"/>
</svg>
