<svg width="16" height="16" viewBox="0 0 16 16" fill="none" xmlns="http://www.w3.org/2000/svg">
<path d="M10.3004 1C10.5673 1 10.7669 1.24766 10.7126 1.51172L10.4567 2.74219C11.929 3.00883 12.9997 3.93194 12.9997 5.35352C12.9995 6.65355 12.0971 7.53596 11.0016 7.84961C11.8748 8.28315 12.437 9.13529 12.4372 10.1816C12.4372 11.9606 10.853 13.3369 8.36588 13.3369H8.12467L7.84928 14.6621C7.80806 14.8602 7.63434 15.0014 7.43424 15L5.88053 14.9883C5.6146 14.9863 5.41737 14.7377 5.47233 14.4746L5.71158 13.3369H3.3151C3.11344 13.3369 2.9643 13.1479 3.00748 12.9492L5.20279 2.91113C5.23467 2.76557 5.36287 2.66226 5.51041 2.66211H8.05826L8.33854 1.33594C8.37978 1.13975 8.55098 1 8.74967 1H10.3004ZM6.33072 8.76172L5.77115 11.3184H8.30729C9.40279 11.3184 10.0396 10.7649 10.0397 9.97266C10.0397 9.19518 9.41768 8.76172 8.39615 8.76172H6.33072ZM7.22037 4.69531L6.74283 6.87793H9.18033C10.0242 6.87793 10.6169 6.48868 10.6169 5.72656C10.6167 5.08351 10.1277 4.69531 9.28385 4.69531H7.22037Z" fill="#FF00FF"/>
</svg>
