<svg width="16" height="16" viewBox="0 0 16 16" fill="none" xmlns="http://www.w3.org/2000/svg">
<path d="M7.15528 3.89391C7.1554 2.43857 8.78725 1.53149 10.0928 2.25329L12.0684 3.34509L14.0156 4.42126C15.3269 5.14906 15.3271 6.979 14.0215 7.71227L12.0742 8.78747L10.0986 9.87927C8.79309 10.607 7.16141 9.69502 7.16114 8.23962V7.95153C7.1611 7.8861 7.14315 7.82174 7.10938 7.76501C7.07554 7.70823 7.02642 7.66028 6.96778 7.62731C6.90933 7.59458 6.84297 7.57697 6.77539 7.57653C6.70753 7.57613 6.64012 7.59308 6.58106 7.62536L4.78028 8.62536L2.98536 9.61852C2.92651 9.65111 2.8778 9.6986 2.84375 9.75524C2.80975 9.81191 2.79107 9.87628 2.79102 9.94177C2.79102 10.0073 2.80976 10.0716 2.84375 10.1283C2.8778 10.185 2.92643 10.2324 2.98536 10.265L4.78028 11.2591L6.58106 12.2582C6.64012 12.2904 6.70753 12.3074 6.77539 12.307C6.84305 12.3066 6.90928 12.289 6.96778 12.2562C7.02636 12.2233 7.07554 12.1762 7.10938 12.1195C7.14316 12.0628 7.16104 11.9984 7.16114 11.933V11.3519C7.16074 11.2875 7.17789 11.2233 7.21094 11.1674C7.24398 11.1115 7.29209 11.065 7.34961 11.0326C7.40714 11.0002 7.47248 10.9831 7.53907 10.9828C7.60573 10.9825 7.67161 10.9987 7.7295 11.0306L8.64649 11.5365C8.70676 11.5686 8.75731 11.6158 8.792 11.6732C8.82651 11.7304 8.84442 11.7955 8.84375 11.8617V12.1068C8.8435 13.5622 7.21182 14.4688 5.90625 13.7465L3.93067 12.6547L1.9834 11.5795C0.672243 10.8516 0.672155 9.02112 1.9834 8.29333L3.93067 7.21813L5.90039 6.12145C7.206 5.39366 8.83776 6.30557 8.83789 7.7611V8.04919C8.83794 8.11461 8.85589 8.17898 8.88965 8.23571C8.92349 8.29249 8.97261 8.33946 9.03125 8.37243C9.0899 8.4054 9.15674 8.42281 9.22461 8.42321C9.2923 8.42354 9.35906 8.40754 9.41797 8.37536L11.2188 7.37536L13.0137 6.38122C13.0726 6.3486 13.1222 6.30219 13.1563 6.24548C13.1902 6.18886 13.2079 6.12437 13.208 6.05895C13.208 5.99338 13.1903 5.9282 13.1563 5.87145C13.1222 5.81478 13.0726 5.76832 13.0137 5.73571L11.2188 4.74157L9.41797 3.74157C9.35907 3.7094 9.29229 3.69339 9.22461 3.69372C9.15676 3.69412 9.08989 3.71154 9.03125 3.7445C8.97261 3.77747 8.92349 3.82444 8.88965 3.88122C8.85588 3.93793 8.83796 4.00232 8.83789 4.06774V4.6488C8.83829 4.71314 8.82108 4.77647 8.78809 4.83239C8.75508 4.88829 8.70794 4.93565 8.65039 4.96813C8.59277 5.00062 8.5267 5.01764 8.45997 5.01794C8.39328 5.01821 8.32743 5.00105 8.26954 4.96911L7.35254 4.46423C7.29227 4.43214 7.24172 4.38489 7.20704 4.32751C7.17246 4.27019 7.15455 4.20438 7.15528 4.13805V3.89391Z" fill="#FF00FF"/>
</svg>
