<svg width="16" height="16" viewBox="0 0 16 16" fill="none" xmlns="http://www.w3.org/2000/svg">
<path d="M10.0613 1.33325C11.3635 1.33326 12.4251 1.69342 13.2586 2.27563C13.4707 2.4238 13.4932 2.73053 13.3103 2.91333L12.076 4.14771C11.9335 4.29012 11.7132 4.30336 11.5447 4.19263C11.1571 3.93745 10.6857 3.78345 10.0613 3.78345C9.44271 3.78345 7.57979 3.85631 6.83084 6.76099H9.42361C9.60742 6.76099 9.7453 6.92852 9.70974 7.10864L9.41873 8.59399C9.37986 8.7905 9.20786 8.93188 9.0076 8.93188H6.54373C6.51503 11.8977 8.30572 12.2345 8.87185 12.2346C9.4046 12.2346 9.88595 12.0959 10.322 11.8049C10.4887 11.6935 10.7104 11.7118 10.8523 11.8538L11.948 12.9495C12.1206 13.1223 12.1115 13.4084 11.9236 13.5647C11.1123 14.2385 10.0975 14.6662 8.71072 14.6663C7.04244 14.6663 3.62879 13.9309 3.66092 8.93188H2.29178C2.10829 8.93184 1.97041 8.7643 2.00564 8.58423L2.29666 7.09888C2.33518 6.90233 2.50753 6.76106 2.70779 6.76099H3.8699C4.84532 1.70137 8.89048 1.33325 10.0613 1.33325Z" fill="#FF00FF"/>
</svg>
