<svg width="16" height="16" viewBox="0 0 16 16" fill="none" xmlns="http://www.w3.org/2000/svg">
<path d="M12.6602 1C12.9674 0.999923 13.2718 1.06021 13.5557 1.17773C13.8394 1.2952 14.0972 1.46749 14.3145 1.68457C14.5317 1.90179 14.7047 2.1605 14.8223 2.44434C14.9397 2.72793 15 3.03193 15 3.33887V12.6592C15 13.2798 14.7532 13.8756 14.3145 14.3145C13.8757 14.7532 13.2807 14.9998 12.6602 15H3.33984C2.71935 14.9998 2.1243 14.7532 1.68555 14.3145C1.24678 13.8756 1 13.2798 1 12.6592V3.33887C1.00004 3.03193 1.06033 2.72793 1.17773 2.44434C1.29532 2.1605 1.46827 1.90179 1.68555 1.68457C1.90276 1.46749 2.16059 1.2952 2.44434 1.17773C2.7282 1.06021 3.03261 0.999923 3.33984 1H12.6602ZM4.28516 3.5459C4.1882 3.5459 4.09152 3.56444 4.00195 3.60156C3.91248 3.63866 3.83117 3.69322 3.7627 3.76172C3.69417 3.8303 3.63959 3.91236 3.60254 4.00195C3.5656 4.09143 3.5468 4.18737 3.54688 4.28418V11.7168C3.54685 11.8136 3.56556 11.9096 3.60254 11.999C3.63956 12.0885 3.69425 12.1697 3.7627 12.2383C3.83114 12.3068 3.91251 12.3613 4.00195 12.3984C4.09152 12.4356 4.1882 12.4551 4.28516 12.4551H11.7168C11.9124 12.4548 12.1 12.3767 12.2383 12.2383C12.3765 12.0999 12.454 11.9124 12.4541 11.7168V4.28418C12.4541 4.08842 12.3767 3.9002 12.2383 3.76172C12.1 3.62346 11.9123 3.54615 11.7168 3.5459H4.28516ZM9.4873 6.08105C9.54309 6.08113 9.59889 6.0928 9.65039 6.11426C9.70173 6.13571 9.74885 6.1666 9.78809 6.20605C9.82741 6.2456 9.85774 6.29313 9.87891 6.34473C9.90002 6.39621 9.91131 6.45119 9.91113 6.50684V9.47363C9.91129 9.52937 9.90011 9.58517 9.87891 9.63672C9.8577 9.6882 9.8264 9.73496 9.78711 9.77441C9.7478 9.81386 9.70083 9.84579 9.64941 9.86719C9.59811 9.88846 9.54285 9.89934 9.4873 9.89941H6.5127C6.45693 9.89941 6.4011 9.88858 6.34961 9.86719C6.29826 9.84582 6.25215 9.81381 6.21289 9.77441C6.17358 9.73494 6.14227 9.68824 6.12109 9.63672C6.09991 9.58514 6.08864 9.5294 6.08887 9.47363V6.50684C6.08862 6.4513 6.09913 6.39614 6.12012 6.34473C6.14126 6.29309 6.17257 6.24562 6.21191 6.20605C6.25117 6.16658 6.29822 6.13568 6.34961 6.11426C6.40114 6.09283 6.45688 6.08105 6.5127 6.08105H9.4873Z" fill="#FF00FF"/>
</svg>
