<svg width="16" height="16" viewBox="0 0 16 16" fill="none" xmlns="http://www.w3.org/2000/svg">
<path fill-rule="evenodd" clip-rule="evenodd" d="M15.5299 13.4697L14.4694 14.5303L7.9694 8.03026L9.02995 6.96972L15.5299 13.4697ZM5.53385 10.2588C5.57965 10.136 5.75366 10.136 5.79948 10.2588L6.25651 11.4932C6.27081 11.5318 6.30093 11.5627 6.33952 11.5771L7.57389 12.0342C7.69722 12.0798 7.69722 12.2542 7.57389 12.2998L6.33952 12.7559C6.30093 12.7702 6.27085 12.8012 6.25651 12.8398L5.79948 14.0742C5.75382 14.1975 5.57948 14.1975 5.53385 14.0742L5.07682 12.8398C5.06246 12.8012 5.03243 12.7702 4.99381 12.7559L3.75944 12.2998C3.63611 12.2542 3.63611 12.0798 3.75944 12.0342L4.99381 11.5771C5.03244 11.5627 5.06251 11.5318 5.07682 11.4932L5.53385 10.2588ZM1.99381 4.7871C2.05349 4.62671 2.27983 4.62673 2.33952 4.7871L2.63639 5.58788C2.65511 5.63845 2.69519 5.67854 2.74577 5.69726L3.54557 5.99316C3.70643 6.05268 3.70643 6.28031 3.54557 6.33983L2.74577 6.63671C2.6953 6.65538 2.65515 6.69469 2.63639 6.74511L2.33952 7.54589C2.27999 7.70675 2.05334 7.70675 1.99381 7.54589L1.69694 6.74511C1.67817 6.69469 1.63802 6.65538 1.58756 6.63671L0.787759 6.33983C0.626899 6.28031 0.626899 6.05268 0.787759 5.99316L1.58756 5.69726C1.63814 5.67854 1.67822 5.63845 1.69694 5.58788L1.99381 4.7871ZM8.02995 5.96972L6.9694 7.03026L4.9694 5.03026L6.02995 3.96972L8.02995 5.96972ZM8.58756 0.779288C8.64338 0.629158 8.85581 0.629311 8.91178 0.779288L9.28288 1.78124C9.30039 1.82858 9.33807 1.86626 9.38542 1.88378L10.3874 2.25487C10.5375 2.31076 10.5376 2.5233 10.3874 2.57909L9.38542 2.95019C9.33811 2.96769 9.30041 3.00446 9.28288 3.05175L8.91178 4.0537C8.85605 4.20425 8.64328 4.20427 8.58756 4.0537L8.21745 3.05175C8.19995 3.00447 8.16216 2.96773 8.11491 2.95019L7.11295 2.57909C6.96241 2.52339 6.96248 2.31065 7.11295 2.25487L8.11491 1.88378C8.16223 1.86626 8.19993 1.82857 8.21745 1.78124L8.58756 0.779288Z" fill="#FF00FF"/>
</svg>
