<svg width="16" height="16" viewBox="0 0 16 16" fill="none" xmlns="http://www.w3.org/2000/svg">
<path fill-rule="evenodd" clip-rule="evenodd" d="M13.7363 1.79753C13.9665 1.71121 14.2246 1.74351 14.4268 1.88347C14.6289 2.02355 14.7499 2.25375 14.75 2.49968V11.9997C14.75 12.3122 14.5562 12.592 14.2637 12.7018L10.2637 14.2018C10.0939 14.2655 9.90612 14.2655 9.73633 14.2018L6 12.8005L2.26367 14.2018C2.03342 14.2882 1.7754 14.2559 1.57324 14.1159C1.3711 13.9758 1.25 13.7456 1.25 13.4997V4.49968C1.25006 4.18722 1.44383 3.90737 1.73633 3.79753L5.73633 2.29753C5.84317 2.25747 5.95768 2.24201 6.07031 2.25261L6.18164 2.27214L9.95508 3.2155L13.7363 1.79753ZM2.75 5.01921V12.4167L5.25 11.4792V4.08171L2.75 5.01921ZM6.75 11.4792L9.25 12.4167V4.58464L6.75 3.95964V11.4792ZM10.75 4.51921V12.4167L13.25 11.4792V3.58171L10.75 4.51921Z" fill="#FF00FF"/>
</svg>
