<svg width="16" height="16" viewBox="0 0 16 16" fill="none" xmlns="http://www.w3.org/2000/svg">
<path d="M13 1.75C13.4142 1.75 13.75 2.08579 13.75 2.5V13.5C13.75 13.9142 13.4142 14.25 13 14.25H3C2.58579 14.25 2.25 13.9142 2.25 13.5V2.5C2.25 2.08579 2.58579 1.75 3 1.75H13ZM3.75 12.75H5.75V10.5C5.75 10.0858 6.08579 9.75 6.5 9.75H9.5C9.91421 9.75 10.25 10.0858 10.25 10.5V12.75H12.25V3.25H3.75V12.75ZM7.25 12.75H8.75V11.25H7.25V12.75ZM8.75 5.75H10V7.25H8.75V8.5H7.25V7.25H6V5.75H7.25V4.5H8.75V5.75Z" fill="#FF00FF"/>
</svg>
