<svg width="16" height="16" viewBox="0 0 16 16" fill="none" xmlns="http://www.w3.org/2000/svg">
<path d="M15.0001 2.25C15.2599 2.25003 15.5011 2.38456 15.6378 2.60547C15.7744 2.82644 15.787 3.10257 15.671 3.33496L14.4171 5.84277V13C14.4171 13.4141 14.0811 13.7498 13.6671 13.75H2.33313C1.91907 13.7498 1.58313 13.4141 1.58313 13V5.84277L0.329224 3.33496L1.67102 2.66504L2.797 4.91699H5.86926L6.99622 2.66504L7.04993 2.57422C7.18862 2.37323 7.41851 2.25 7.66711 2.25H15.0001ZM3.08313 12.25H5.58313V6.41699H3.08313V12.25ZM7.08313 12.25H12.9171V6.41699H7.08313V12.25ZM7.547 4.91699H13.2032L13.7872 3.75H8.13L7.547 4.91699Z" fill="#FF00FF"/>
</svg>
