<svg width="16" height="16" viewBox="0 0 16 16" fill="none" xmlns="http://www.w3.org/2000/svg">
<path fill-rule="evenodd" clip-rule="evenodd" d="M13.1367 1.75556C13.3348 1.7308 13.5351 1.78587 13.6924 1.90888C13.8496 2.03204 13.9511 2.21348 13.9746 2.41181V2.41279C13.9747 2.41356 13.9754 2.4152 13.9756 2.41669C13.976 2.41987 13.9768 2.42517 13.9775 2.43134C13.979 2.44377 13.9806 2.4623 13.9834 2.48603C13.9891 2.53456 13.9973 2.60659 14.0078 2.69794C14.0289 2.88094 14.0595 3.14517 14.0957 3.46747C14.1681 4.11205 14.2648 4.99289 14.3613 5.93622C14.5525 7.80419 14.75 9.97736 14.75 11.0212C14.7499 12.5602 13.4667 13.7653 11.9375 13.7653C10.4084 13.7652 9.12514 12.5602 9.125 11.0212C9.12514 9.4822 10.4083 8.27713 11.9375 8.27704C12.3582 8.27704 12.7493 8.37437 13.0986 8.54072C13.032 7.75868 12.9527 6.90525 12.8691 6.08857C12.7732 5.15139 12.6765 4.2758 12.6045 3.63447C12.5926 3.52897 12.5807 3.42961 12.5703 3.33759L6.18457 4.13544C6.19563 4.23289 6.20804 4.33906 6.2207 4.45185C6.29306 5.09643 6.38881 5.97724 6.48535 6.9206C6.67652 8.7886 6.87497 10.9617 6.875 12.0056L6.86035 12.2897C6.71388 13.6904 5.49621 14.7496 4.0625 14.7497C2.53325 14.7497 1.25009 13.5446 1.25 12.0056C1.25014 10.4665 2.53328 9.26142 4.0625 9.26142C4.47412 9.26144 4.86694 9.35084 5.22266 9.50849C5.15625 8.73101 5.07615 7.88384 4.99316 7.07294C4.89725 6.1358 4.80148 5.26014 4.72949 4.61884C4.69351 4.2983 4.66355 4.03583 4.64258 3.85419C4.63214 3.76378 4.62375 3.69308 4.61816 3.64521C4.61539 3.62144 4.61374 3.60274 4.6123 3.59052C4.61161 3.58468 4.61071 3.57988 4.61035 3.57685C4.61022 3.57539 4.61044 3.57366 4.61035 3.57294L4.60938 3.57197C4.5613 3.16276 4.85284 2.79105 5.26172 2.73993L13.1367 1.75556ZM4.0625 10.7614C3.31391 10.7614 2.75014 11.3419 2.75 12.0056C2.75009 12.6692 3.31388 13.2497 4.0625 13.2497C4.81104 13.2496 5.37491 12.6692 5.375 12.0056C5.37486 11.342 4.81101 10.7615 4.0625 10.7614ZM11.9375 9.77704C11.189 9.77713 10.6251 10.3576 10.625 11.0212C10.6251 11.6847 11.189 12.2652 11.9375 12.2653C12.6817 12.2653 13.2423 11.6916 13.249 11.0329C13.2091 10.4014 12.6261 9.77704 11.9375 9.77704Z" fill="#FF00FF"/>
</svg>
