<svg width="16" height="16" viewBox="0 0 16 16" fill="none" xmlns="http://www.w3.org/2000/svg">
<path d="M5.77051 1.25684C7.75118 1.35737 9.441 2.55618 10.2461 4.25586C10.3302 4.25185 10.4149 4.25 10.5 4.25L10.7705 4.25684C13.5443 4.39762 15.75 6.69123 15.75 9.5L15.7432 9.77051C15.6069 12.4547 13.4547 14.6069 10.7705 14.7432L10.5 14.75C8.40302 14.75 6.59315 13.5206 5.75195 11.7432L5.5 11.75C2.69124 11.75 0.397619 9.54428 0.256836 6.77051L0.25 6.5C0.25 3.60051 2.60051 1.25 5.5 1.25L5.77051 1.25684ZM10.6963 5.75488C10.7309 5.99833 10.75 6.24699 10.75 6.5L10.7432 6.77051C10.6339 8.92399 9.22627 10.7332 7.28809 11.4355C7.94469 12.5228 9.13723 13.25 10.5 13.25L10.6934 13.2451C12.6746 13.1445 14.25 11.5062 14.25 9.5L14.2451 9.30664C14.1478 7.39045 12.6121 5.85367 10.6963 5.75488ZM5.5 2.75C3.42894 2.75 1.75 4.42893 1.75 6.5L1.75488 6.69336C1.85219 8.60921 3.38741 10.1449 5.30273 10.2441C5.28063 10.0883 5.26495 9.9304 5.25684 9.77051L5.25 9.5C5.25 7.22872 6.69225 5.29411 8.71094 4.5625C8.08537 3.528 6.97433 2.81995 5.69336 2.75488L5.5 2.75ZM9.21289 5.97656C7.77579 6.50168 6.75 7.88111 6.75 9.5L6.75488 9.69336C6.76052 9.80441 6.77104 9.91417 6.78613 10.0225C8.22352 9.49749 9.25 8.1191 9.25 6.5L9.24512 6.30664C9.23946 6.19522 9.22807 6.08521 9.21289 5.97656Z" fill="#FF00FF"/>
</svg>
