<svg width="16" height="16" viewBox="0 0 16 16" fill="none" xmlns="http://www.w3.org/2000/svg">
<path fill-rule="evenodd" clip-rule="evenodd" d="M8.25 3.24994H3.5C3.36193 3.24994 3.25 3.36187 3.25 3.49994V12.4999C3.25023 12.6378 3.36207 12.7499 3.5 12.7499H12.5C12.6379 12.7499 12.7498 12.6378 12.75 12.4999V7.99994H14.25V12.4999C14.2498 13.4662 13.4664 14.2499 12.5 14.2499H3.5C2.53364 14.2499 1.75023 13.4662 1.75 12.4999V3.49994C1.75 2.53345 2.5335 1.74994 3.5 1.74994H8.25V3.24994ZM12.4492 0.916936C12.7433 0.678086 13.1759 0.695723 13.4502 0.968694L15.1953 2.70502C15.3362 2.84538 15.4166 3.0364 15.417 3.2353C15.4172 3.43407 15.3386 3.62574 15.1982 3.76655L11.4316 7.54487C11.118 7.85951 10.7324 8.09424 10.3086 8.22748L8.22461 8.88178C7.95885 8.96519 7.66823 8.89458 7.4707 8.69819C7.27335 8.50168 7.2012 8.21139 7.2832 7.94526L7.92578 5.86713C8.05849 5.43777 8.29481 5.04749 8.61328 4.73041L12.3926 0.968694L12.4492 0.916936ZM9.6709 5.79291C9.52618 5.93703 9.4187 6.11536 9.3584 6.31049L9.1377 7.02143L9.8584 6.79584C10.0509 6.73532 10.2266 6.62912 10.3691 6.48627L13.6055 3.23823L12.9209 2.55756L9.6709 5.79291Z" fill="#FF00FF"/>
</svg>
