<svg width="16" height="16" viewBox="0 0 16 16" fill="none" xmlns="http://www.w3.org/2000/svg">
<path fill-rule="evenodd" clip-rule="evenodd" d="M11.1963 7.86374L9.05957 9.99949L11.1963 12.1362L10.1357 13.1968L7.99902 11.06L5.86328 13.1968L4.80273 12.1362L6.93848 9.99949L4.80273 7.86374L5.86328 6.8032L7.99902 8.93894L10.1357 6.8032L11.1963 7.86374ZM3.0498 4.61374L3.56738 5.15671C2.43885 6.23269 1.75004 7.70964 1.75 9.33347H0.25C0.250041 7.27165 1.12836 5.41112 2.5332 4.07175L3.0498 4.61374ZM13.4668 4.07175C14.8716 5.41112 15.75 7.27165 15.75 9.33347H14.25C14.25 7.70964 13.5611 6.23269 12.4326 5.15671L12.9502 4.61374L13.4668 4.07175ZM4.1377 2.89597C6.50454 1.59067 9.49546 1.59067 11.8623 2.89597L11.5 3.55222L11.1377 4.20945C9.22177 3.15283 6.77823 3.15283 4.8623 4.20945L4.5 3.55222L4.1377 2.89597Z" fill="#FF00FF"/>
</svg>
