<svg width="16" height="16" viewBox="0 0 16 16" fill="none" xmlns="http://www.w3.org/2000/svg">
<path d="M10.7498 1.75024C10.9487 1.75024 11.1394 1.82932 11.28 1.96997L14.03 4.71997C14.3229 5.01287 14.3229 5.48764 14.03 5.78052L7.15503 12.6555C7.11916 12.6913 7.07891 12.7225 7.03687 12.7502H14.4998V14.2502H2.49976C2.25879 14.2502 2.03229 14.1342 1.89136 13.9387C1.75048 13.7432 1.71176 13.4916 1.78784 13.2629L3.16284 9.13794L3.19507 9.05688C3.23185 8.97836 3.28289 8.90662 3.34448 8.84497L10.2195 1.96997L10.3337 1.87622C10.456 1.79473 10.6007 1.75029 10.7498 1.75024ZM4.53101 9.77954L3.68628 12.3137L6.22046 11.469L12.4392 5.25024L10.7498 3.56079L4.53101 9.77954Z" fill="#FF00FF"/>
</svg>
