<svg width="16" height="16" viewBox="0 0 16 16" fill="none" xmlns="http://www.w3.org/2000/svg">
<path d="M10.5298 14.5303C9.85731 15.2026 8.89827 15.5 7.99951 15.5C7.10078 15.4999 6.1416 15.2026 5.46923 14.5303L6.52978 13.4697C6.85722 13.7972 7.39855 13.9999 7.99951 14C8.6005 14 9.14169 13.7971 9.46923 13.4697L10.5298 14.5303ZM8.00048 1C10.1829 1.00023 12.0641 2.53566 12.5015 4.67383L13.8677 11.3525C13.936 11.6868 13.6805 11.9998 13.3394 12H2.66064C2.31946 11.9998 2.06402 11.6868 2.13232 11.3525L3.49853 4.67383C3.93597 2.5355 5.81786 1 8.00048 1Z" fill="#FF00FF"/>
</svg>
