<svg width="16" height="16" viewBox="0 0 16 16" fill="none" xmlns="http://www.w3.org/2000/svg">
<path d="M10.5303 14.7803C9.85782 15.4527 8.89882 15.75 8 15.75C7.10117 15.75 6.14221 15.4527 5.46973 14.7803L6.53027 13.7197C6.8578 14.0472 7.39889 14.25 8 14.25C8.6011 14.25 9.14223 14.0472 9.46973 13.7197L10.5303 14.7803ZM8 1.25C10.1019 1.25002 11.912 2.73387 12.3242 4.79492L13.7354 11.8525C13.7794 12.0729 13.7225 12.3018 13.5801 12.4756C13.4376 12.6493 13.2247 12.75 13 12.75H3C2.77532 12.75 2.56238 12.6493 2.41992 12.4756C2.27747 12.3018 2.22058 12.0729 2.26465 11.8525L3.67578 4.79492C4.088 2.73386 5.89812 1.25 8 1.25ZM8 2.75C6.61315 2.75 5.41946 3.72896 5.14746 5.08887L3.91504 11.25H12.085L10.8525 5.08887C10.5805 3.72897 9.38683 2.75002 8 2.75Z" fill="#FF00FF"/>
</svg>
