<svg width="16" height="16" viewBox="0 0 16 16" fill="none" xmlns="http://www.w3.org/2000/svg">
<path d="M3.5 11.25C4.19036 11.25 4.75 11.8096 4.75 12.5C4.75 13.1904 4.19036 13.75 3.5 13.75C2.80964 13.75 2.25 13.1904 2.25 12.5C2.25 11.8096 2.80964 11.25 3.5 11.25ZM8 11.25C8.69036 11.25 9.25 11.8096 9.25 12.5C9.25 13.1904 8.69036 13.75 8 13.75C7.30964 13.75 6.75 13.1904 6.75 12.5C6.75 11.8096 7.30964 11.25 8 11.25ZM12.5 11.25C13.1904 11.25 13.75 11.8096 13.75 12.5C13.75 13.1904 13.1904 13.75 12.5 13.75C11.8096 13.75 11.25 13.1904 11.25 12.5C11.25 11.8096 11.8096 11.25 12.5 11.25ZM3.5 6.75C4.19036 6.75 4.75 7.30964 4.75 8C4.75 8.69036 4.19036 9.25 3.5 9.25C2.80964 9.25 2.25 8.69036 2.25 8C2.25 7.30964 2.80964 6.75 3.5 6.75ZM8 6.75C8.69036 6.75 9.25 7.30964 9.25 8C9.25 8.69036 8.69036 9.25 8 9.25C7.30964 9.25 6.75 8.69036 6.75 8C6.75 7.30964 7.30964 6.75 8 6.75ZM12.5 6.75C13.1904 6.75 13.75 7.30964 13.75 8C13.75 8.69036 13.1904 9.25 12.5 9.25C11.8096 9.25 11.25 8.69036 11.25 8C11.25 7.30964 11.8096 6.75 12.5 6.75ZM3.5 2.25C4.19036 2.25 4.75 2.80964 4.75 3.5C4.75 4.19036 4.19036 4.75 3.5 4.75C2.80964 4.75 2.25 4.19036 2.25 3.5C2.25 2.80964 2.80964 2.25 3.5 2.25ZM8 2.25C8.69036 2.25 9.25 2.80964 9.25 3.5C9.25 4.19036 8.69036 4.75 8 4.75C7.30964 4.75 6.75 4.19036 6.75 3.5C6.75 2.80964 7.30964 2.25 8 2.25ZM12.5 2.25C13.1904 2.25 13.75 2.80964 13.75 3.5C13.75 4.19036 13.1904 4.75 12.5 4.75C11.8096 4.75 11.25 4.19036 11.25 3.5C11.25 2.80964 11.8096 2.25 12.5 2.25Z" fill="#FF00FF"/>
</svg>
