<svg width="16" height="16" viewBox="0 0 16 16" fill="none" xmlns="http://www.w3.org/2000/svg">
<path d="M2.75 8.00012C2.75006 9.24271 3.7574 10.2501 5 10.2501H11C12.2426 10.2501 13.2499 9.24271 13.25 8.00012H14.75C14.7499 10.0711 13.071 11.7501 11 11.7501H8.75V12.7501H9C10.2426 12.7501 11.25 13.7575 11.25 15.0001H9.75C9.75 14.5859 9.41421 14.2501 9 14.2501H7C6.5858 14.2501 6.25 14.5859 6.25 15.0001H4.75C4.75 13.7575 5.75737 12.7501 7 12.7501H7.25V11.7501H5C2.92898 11.7501 1.25006 10.0711 1.25 8.00012H2.75ZM8.71777 0.750122C10.1144 0.750259 11.289 1.79728 11.4492 3.18469L11.9951 7.91418C12.0196 8.12661 11.9518 8.33951 11.8096 8.49915C11.6673 8.65867 11.4638 8.75012 11.25 8.75012H4.75C4.53622 8.75012 4.33272 8.65868 4.19043 8.49915C4.04815 8.33951 3.98041 8.12661 4.00488 7.91418L4.55078 3.18469C4.71098 1.79728 5.8856 0.750269 7.28223 0.750122H8.71777ZM7.28223 2.25012C6.64753 2.25027 6.11392 2.72608 6.04102 3.35657L5.59082 7.25012H10.4082L9.95898 3.35657C9.88608 2.72607 9.35247 2.25026 8.71777 2.25012H7.28223Z" fill="#FF00FF"/>
</svg>
