<svg width="16" height="16" viewBox="0 0 16 16" fill="none" xmlns="http://www.w3.org/2000/svg">
<path d="M2.25 8C2.25 11.1756 4.82436 13.75 8 13.75V15.25C3.99594 15.25 0.75 12.0041 0.75 8H2.25ZM14.2783 9.68262L15.0029 9.87598C14.3214 12.4195 12.3686 14.2828 10.0146 14.9658L9.80566 14.2451L9.59668 13.5254C11.4675 12.9826 13.0136 11.504 13.5537 9.48828L14.2783 9.68262ZM11.5605 5.99805L7.56055 10.498C7.41371 10.6632 7.20142 10.7557 6.98047 10.75C6.75954 10.7442 6.55212 10.6413 6.41406 10.4688L4.41406 7.96875L5.58594 7.03125L7.03027 8.83691L10.4395 5.00195L11.5605 5.99805ZM8 0.75C12.0041 0.75 15.25 3.99594 15.25 8H13.75C13.75 4.82436 11.1756 2.25 8 2.25V0.75ZM6.19434 1.75488L6.40332 2.47461C4.5325 3.01741 2.98645 4.49605 2.44629 6.51172L1.72168 6.31738L0.99707 6.12402C1.6786 3.5805 3.6314 1.71716 5.98535 1.03418L6.19434 1.75488Z" fill="#FF00FF"/>
</svg>
