<svg width="16" height="16" viewBox="0 0 16 16" fill="none" xmlns="http://www.w3.org/2000/svg">
<path d="M12.2501 8C12.9794 8.00003 13.6788 8.29531 14.1945 8.82031C14.71 9.34527 15.0001 10.1072 15.0001 10.8496C15.0001 12.2462 13.1314 14.245 12.4747 14.9043C12.3479 15.0316 12.1524 15.0316 12.0255 14.9043C11.3688 14.245 9.50012 12.2462 9.50012 10.8496C9.50019 10.1072 9.79012 9.34528 10.3058 8.82031C10.8215 8.29528 11.5208 8 12.2501 8ZM15.0001 1.25C15.2599 1.25004 15.5012 1.38457 15.6378 1.60547C15.7744 1.82643 15.787 2.10258 15.671 2.33496L14.2501 5.17676V6.5H12.7501V5.75H6.75012V11.25H8.00012V12.75H2.50012C2.08591 12.75 1.75012 12.4142 1.75012 12V5.17676L0.329224 2.33496L1.67102 1.66504L2.96399 4.25H5.53625L6.82922 1.66504C6.95628 1.41098 7.21606 1.25 7.50012 1.25H15.0001ZM12.2501 9.75C11.6806 9.75 11.219 10.22 11.2189 10.7998C11.2189 11.3797 11.6806 11.8496 12.2501 11.8496C12.8196 11.8495 13.2814 11.3797 13.2814 10.7998C13.2813 10.22 12.8195 9.75006 12.2501 9.75ZM3.25012 11.25H5.25012V5.75H3.25012V11.25ZM7.21399 4.25H13.0363L13.7863 2.75H7.96399L7.21399 4.25Z" fill="#FF00FF"/>
</svg>
