<svg width="16" height="16" viewBox="0 0 16 16" fill="none" xmlns="http://www.w3.org/2000/svg">
<path d="M12.7501 6.75C14.4069 6.75008 15.7501 8.0932 15.7501 9.75C15.7501 11.4068 14.4069 12.7499 12.7501 12.75H8.81067L10.5304 14.4697L9.46985 15.5303L6.46985 12.5303C6.17696 12.2374 6.17696 11.7626 6.46985 11.4697L9.46985 8.46973L10.5304 9.53027L8.81067 11.25H12.7501C13.5785 11.2499 14.2501 10.5784 14.2501 9.75C14.2501 8.92162 13.5785 8.25008 12.7501 8.25H11.5001V6.75H12.7501ZM15.0001 1.25C15.2599 1.25004 15.5012 1.38457 15.6378 1.60547C15.7744 1.82643 15.787 2.10258 15.671 2.33496L14.171 5.33496C14.044 5.58901 13.7842 5.74995 13.5001 5.75H6.75012V9H5.25012V5.75H3.25012V11.25H5.00012V12.75H2.50012C2.08591 12.75 1.75012 12.4142 1.75012 12V5.17676L0.329224 2.33496L1.67102 1.66504L2.96399 4.25H5.53625L6.82922 1.66504C6.95628 1.41098 7.21606 1.25 7.50012 1.25H15.0001ZM7.21399 4.25H13.0363L13.7863 2.75H7.96399L7.21399 4.25Z" fill="#FF00FF"/>
</svg>
