<svg width="16" height="16" viewBox="0 0 16 16" fill="none" xmlns="http://www.w3.org/2000/svg">
<path d="M14.7498 14H13.2498V2H14.7498V14ZM3.74976 7.1748L5.11401 6.35742L5.49976 7L5.8855 7.64355L4.20874 8.64844L5.53003 9.96973L4.46948 11.0303L2.99976 9.56055L1.53003 11.0303L0.469482 9.96973L1.78979 8.64844L0.114014 7.64355L0.885498 6.35645L2.24976 7.1748L2.25171 5.5H3.75171L3.74976 7.1748ZM10.2498 7.1748L11.614 6.35742L11.9998 7L12.3855 7.64355L10.7087 8.64844L12.03 9.96973L10.9695 11.0303L9.49976 9.56055L8.03003 11.0303L6.96948 9.96973L8.28979 8.64844L6.61401 7.64355L7.3855 6.35645L8.74976 7.1748L8.75171 5.5H10.2517L10.2498 7.1748Z" fill="#FF00FF"/>
</svg>
