<svg width="16" height="16" viewBox="0 0 16 16" fill="none" xmlns="http://www.w3.org/2000/svg">
<path fill-rule="evenodd" clip-rule="evenodd" d="M8.34863 2.34907C9.81309 0.884612 12.1869 0.884626 13.6514 2.34907C15.1156 3.81356 15.1158 6.18742 13.6514 7.65181C12.3684 8.93453 10.3876 9.09319 8.93164 8.12837L7.06055 10.0004L8.86328 11.8032L7.80273 12.8637L6 11.061L5.06055 12.0004L6.19727 13.1372L5.13672 14.1977L4 13.061L2.53027 14.5307L1.46973 13.4702L7.87109 7.06782C6.90696 5.61194 7.06619 3.63174 8.34863 2.34907ZM12.5908 3.40962C11.7121 2.53096 10.2879 2.53095 9.40918 3.40962C8.53075 4.28831 8.5306 5.71266 9.40918 6.59126C10.2878 7.46961 11.7122 7.46962 12.5908 6.59126C13.4694 5.71266 13.4693 4.28832 12.5908 3.40962Z" fill="#FF00FF"/>
</svg>
