<svg width="16" height="16" viewBox="0 0 16 16" fill="none" xmlns="http://www.w3.org/2000/svg">
<path d="M11.9375 1.96094C12.8967 1.88104 14.1659 1.89156 15.1855 2.41211L15.3857 2.52344C15.6114 2.65886 15.7497 2.90285 15.75 3.16602V12.5L15.7441 12.5957C15.7156 12.8174 15.5882 13.0169 15.3955 13.1367C15.1754 13.2734 14.9003 13.2866 14.668 13.1719C12.799 12.2495 10.6741 12.7033 8.19238 13.2568C5.83443 13.7828 3.13243 14.4043 0.665039 13.1709C0.411097 13.0439 0.250106 12.7839 0.25 12.5V3C0.250094 2.74018 0.38445 2.49794 0.605469 2.36133C0.826447 2.22481 1.10259 2.21307 1.33496 2.3291C1.93624 2.62974 2.84897 2.86463 3.77832 3.02344C4.69742 3.18047 5.55263 3.25 6 3.25V4.75C5.44742 4.75 4.50508 4.66936 3.52539 4.50195C2.94721 4.40315 2.32692 4.26902 1.75 4.0918V12.0127C3.55498 12.7197 5.57071 12.305 7.86621 11.793C9.87142 11.3457 12.1226 10.8144 14.25 11.4141V3.63965C13.6519 3.42172 12.8637 3.38836 12.0625 3.45508C11.5952 3.494 11.1616 3.5633 10.8174 3.62402C10.6183 3.65916 10.5244 3.67719 10.373 3.7041C10.2838 3.71997 10.1235 3.75 10 3.75V2.25C9.95967 2.25 9.96612 2.25335 10.1113 2.22754C10.1944 2.21276 10.4032 2.17374 10.5576 2.14648C10.9216 2.08226 11.4051 2.0053 11.9375 1.96094ZM8.75 1V7.68945L10.4697 5.96973L11.5303 7.03027L8.53027 10.0303C8.25567 10.3049 7.82095 10.3223 7.52637 10.082L7.46973 10.0303L4.46973 7.03027L5.53027 5.96973L7.25 7.68945V1H8.75Z" fill="#FF00FF"/>
</svg>
