<svg width="16" height="16" viewBox="0 0 16 16" fill="none" xmlns="http://www.w3.org/2000/svg">
<path d="M7.99988 1C11.8659 1 14.9999 4.13401 14.9999 8C14.9999 11.866 11.8659 15 7.99988 15C4.13388 15 0.999878 11.866 0.999878 8C0.999878 4.13401 4.13388 1 7.99988 1ZM4.49988 7C3.94764 7.00005 3.49988 7.44775 3.49988 8C3.49991 8.55223 3.94766 8.99995 4.49988 9C5.05214 9 5.49985 8.55226 5.49988 8C5.49988 7.44772 5.05216 7 4.49988 7ZM7.99988 7C7.44762 7.00003 6.99988 7.44774 6.99988 8C6.99994 8.55221 7.44766 8.99997 7.99988 9C8.55212 9 8.99981 8.55223 8.99988 8C8.99988 7.44772 8.55216 7 7.99988 7ZM11.4999 7C10.9476 7.00005 10.4999 7.44775 10.4999 8C10.4999 8.55223 10.9477 8.99995 11.4999 9C12.0521 9 12.4998 8.55226 12.4999 8C12.4999 7.44772 12.0522 7 11.4999 7Z" fill="#FF00FF"/>
</svg>
