<svg width="16" height="16" viewBox="0 0 16 16" fill="none" xmlns="http://www.w3.org/2000/svg">
<path d="M9.73436 7.68465C9.82582 7.43852 10.1742 7.43852 10.2656 7.68465L11.1787 10.1534C11.2074 10.2309 11.2691 10.2927 11.3467 10.3214L13.8154 11.2345C14.0615 11.3259 14.0615 11.6742 13.8154 11.7657L11.3467 12.6788C11.2691 12.7075 11.2074 12.7692 11.1787 12.8468L10.2656 15.3155C10.1742 15.5616 9.82582 15.5616 9.73436 15.3155L8.82128 12.8468C8.79258 12.7692 8.73086 12.7075 8.65331 12.6788L6.18456 11.7657C5.93844 11.6742 5.93844 11.3259 6.18456 11.2345L8.65331 10.3214C8.73086 10.2927 8.79258 10.2309 8.82128 10.1534L9.73436 7.68465ZM3.80077 3.13875C3.86927 2.95388 4.13071 2.95388 4.19921 3.13875L4.88475 4.99031C4.90628 5.04828 4.95179 5.09378 5.00975 5.11531L6.86132 5.80086C7.0462 5.86935 7.04619 6.1308 6.86132 6.19929L5.00975 6.88484C4.95179 6.90637 4.90629 6.95188 4.88475 7.00984L4.19921 8.8614C4.13072 9.0463 3.86926 9.0463 3.80077 8.8614L3.11522 7.00984C3.09369 6.95188 3.04819 6.90637 2.99022 6.88484L1.13866 6.19929C0.953783 6.1308 0.953777 5.86935 1.13866 5.80086L2.99022 5.11531C3.04819 5.09378 3.0937 5.04828 3.11522 4.99031L3.80077 3.13875ZM11.8144 1.12898C11.8782 0.957006 12.1218 0.957007 12.1855 1.12898L12.6094 2.27449C12.6294 2.32832 12.6717 2.37067 12.7256 2.3907L13.8711 2.81453C14.0431 2.87824 14.0431 3.12191 13.8711 3.18562L12.7256 3.60945C12.6717 3.62948 12.6294 3.67183 12.6094 3.72566L12.1855 4.87117C12.1218 5.04314 11.8782 5.04314 11.8144 4.87117L11.3906 3.72566C11.3706 3.67183 11.3282 3.62948 11.2744 3.60945L10.1289 3.18562C9.95692 3.12191 9.95692 2.87824 10.1289 2.81453L11.2744 2.3907C11.3282 2.37067 11.3706 2.32832 11.3906 2.27449L11.8144 1.12898Z" fill="#FF00FF"/>
</svg>
