<svg width="16" height="16" viewBox="0 0 16 16" fill="none" xmlns="http://www.w3.org/2000/svg">
<path d="M13.5 4.25C14.4665 4.25 15.25 5.0335 15.25 6V12.5C15.25 13.4665 14.4665 14.25 13.5 14.25H2.5C1.5335 14.25 0.75 13.4665 0.75 12.5V6C0.75 5.0335 1.5335 4.25 2.5 4.25H13.5ZM2.5 5.75C2.36193 5.75 2.25 5.86193 2.25 6V12.5C2.25 12.6381 2.36193 12.75 2.5 12.75H13.5C13.6381 12.75 13.75 12.6381 13.75 12.5V6C13.75 5.86193 13.6381 5.75 13.5 5.75H2.5ZM8 7C9.24264 7 10.25 8.00736 10.25 9.25C10.25 10.4926 9.24264 11.5 8 11.5C6.75736 11.5 5.75 10.4926 5.75 9.25C5.75 8.00736 6.75736 7 8 7ZM8 8.5C7.58579 8.5 7.25 8.83579 7.25 9.25C7.25 9.66421 7.58579 10 8 10C8.41421 10 8.75 9.66421 8.75 9.25C8.75 8.83579 8.41421 8.5 8 8.5ZM8 1.25C8.81341 1.25 9.43932 1.48045 9.86816 1.72168C10.0808 1.84135 10.244 1.9631 10.3584 2.05957C10.4157 2.10794 10.4616 2.1506 10.4951 2.18359C10.5117 2.19993 10.5253 2.21414 10.5361 2.22559C10.5416 2.23135 10.5468 2.23683 10.5508 2.24121C10.5527 2.24325 10.5541 2.24535 10.5557 2.24707C10.5564 2.24792 10.5579 2.24825 10.5586 2.24902L10.5596 2.25098H10.5605L9.43945 3.24902H9.44043L9.44336 3.25195H9.44238C9.43415 3.24386 9.41723 3.22769 9.3916 3.20605C9.33939 3.162 9.25216 3.096 9.13184 3.02832C8.89399 2.89463 8.51955 2.75 8 2.75C7.48045 2.75 7.10601 2.89463 6.86816 3.02832C6.74784 3.096 6.66061 3.162 6.6084 3.20605C6.58277 3.22769 6.56585 3.24386 6.55762 3.25195H6.55664L6.55957 3.24902H6.56055L5.43945 2.25098H5.44043L5.44141 2.24902C5.4421 2.24825 5.44357 2.24792 5.44434 2.24707C5.44589 2.24535 5.44735 2.24325 5.44922 2.24121C5.45324 2.23683 5.4584 2.23135 5.46387 2.22559C5.47472 2.21414 5.48829 2.19993 5.50488 2.18359C5.5384 2.1506 5.58428 2.10794 5.6416 2.05957C5.75596 1.9631 5.91917 1.84135 6.13184 1.72168C6.56068 1.48045 7.18659 1.25 8 1.25Z" fill="#FF00FF"/>
</svg>
