<svg width="16" height="16" viewBox="0 0 16 16" fill="none" xmlns="http://www.w3.org/2000/svg">
<path fill-rule="evenodd" clip-rule="evenodd" d="M11.0005 1.75C11.2694 1.75017 11.5184 1.89439 11.6519 2.12793L13.1646 4.77441L14.4702 3.46973L15.5308 4.53027L13.6909 6.36914L12.2358 13.6475C12.1656 13.9977 11.8577 14.2498 11.5005 14.25H4.50049C4.14314 14.25 3.83543 13.9978 3.76514 13.6475L2.30908 6.36914L0.470215 4.53027L1.53076 3.46973L2.83545 4.77441L4.34912 2.12793C4.48268 1.89437 4.73143 1.75 5.00049 1.75H11.0005ZM5.11572 12.75H10.8853L12.0854 6.75H3.91553L5.11572 12.75ZM4.29346 5.25H11.7075L10.5649 3.25H5.43604L4.29346 5.25Z" fill="#FF00FF"/>
</svg>
