<svg width="16" height="16" viewBox="0 0 16 16" fill="none" xmlns="http://www.w3.org/2000/svg">
<path d="M11.2052 2.00012L11.7941 2.46497C10.4481 4.16853 8.79318 4.8975 6.81458 4.89758C5.86643 4.89758 5.11698 5.25669 4.59875 5.82825C4.07461 6.40653 3.75012 7.24468 3.75012 8.25012C3.75015 9.4223 4.03111 10.2401 4.49231 10.9171C4.7379 11.2775 5.0431 11.6097 5.40735 11.9406C5.4336 11.5503 5.75848 11.2415 6.1554 11.2413H11.049C11.4616 11.2415 11.7957 11.5753 11.798 11.9874C12.6944 11.2536 13.3279 10.5267 13.6691 9.36633C13.7629 9.04719 14.0561 8.82829 14.3888 8.82825H14.4073V7.91418H14.3888C14.0562 7.91414 13.763 7.69518 13.6691 7.3761C13.5381 6.93065 13.2272 6.39499 12.7775 5.97766C12.3333 5.56567 11.7961 5.30582 11.2052 5.30579V3.80579C12.2608 3.80582 13.147 4.27323 13.798 4.87708C14.2818 5.32596 14.6597 5.87114 14.9064 6.41418H15.1573C15.5714 6.41426 15.9072 6.75015 15.9073 7.16418V9.57825C15.9071 9.99224 15.5714 10.3282 15.1573 10.3282H14.921C14.2101 12.1421 12.8591 13.102 11.4923 14.1046C11.2645 14.2717 10.9621 14.2966 10.7101 14.1691C10.458 14.0414 10.299 13.7827 10.299 13.5001V12.7413H6.9054V13.5001C6.90532 13.7827 6.74633 14.0414 6.49426 14.1691C6.24224 14.2966 5.93984 14.2716 5.71204 14.1046C4.76099 13.4069 3.88312 12.6856 3.25305 11.7609C2.71134 10.9656 2.37359 10.0517 2.27844 8.9259C1.8909 8.84507 1.50748 8.69285 1.17493 8.44348C0.605045 8.01593 0.250177 7.35301 0.250122 6.50012H1.75012C1.75017 6.89685 1.89546 7.10937 2.07532 7.24426C2.14338 7.29523 2.22464 7.33875 2.31555 7.3761C2.46338 6.39498 2.86188 5.51047 3.48743 4.82043C4.30035 3.92386 5.4588 3.39758 6.81458 3.39758C8.34851 3.3975 9.56452 2.86778 10.6173 1.53528L11.2052 2.00012ZM9.99915 7.41711H6.66614V5.91711H9.99915V7.41711Z" fill="#FF00FF"/>
</svg>
