<svg width="16" height="16" viewBox="0 0 16 16" fill="none" xmlns="http://www.w3.org/2000/svg">
<path d="M11.2065 12.1803L11.9507 12.2721C11.8121 13.3999 11.0566 14.4141 9.90576 14.7955C8.75842 15.1757 7.55409 14.8155 6.7749 13.9948L7.86279 12.9615C8.26751 13.3879 8.87301 13.5576 9.43408 13.3717C9.998 13.1847 10.3888 12.6803 10.4614 12.0885L11.2065 12.1803ZM3.22021 9.34924C2.95493 9.86818 2.98379 10.5266 3.35205 11.0397C3.86457 11.7536 4.8173 11.8954 5.48096 11.4C6.04946 10.9753 6.25272 10.1991 5.98389 9.52795L6.68018 9.24866L7.37646 8.97034C7.88397 10.2374 7.52098 11.7477 6.37842 12.6012C5.0206 13.6152 3.1196 13.2886 2.1333 11.9147C1.42829 10.9325 1.37035 9.67069 1.88428 8.66565L3.22021 9.34924ZM11.7505 5.02209C13.4425 5.02224 14.8148 6.39449 14.8149 8.08655C14.8147 9.77853 13.4425 11.1499 11.7505 11.15C10.0586 11.1498 8.68725 9.77846 8.68701 8.08655C8.68715 6.39455 10.0585 5.02235 11.7505 5.02209ZM11.7505 6.52209C10.8869 6.52235 10.1872 7.22298 10.187 8.08655C10.1872 8.95004 10.887 9.64977 11.7505 9.65002C12.6141 9.64988 13.3147 8.9501 13.3149 8.08655C13.3148 7.22291 12.6141 6.52224 11.7505 6.52209ZM2.33057 3.52502C3.02634 2.53328 4.20049 2.09353 5.31299 2.29749L5.17725 3.03479L5.04248 3.77307C4.48969 3.67173 3.90752 3.88838 3.55811 4.38635C3.06356 5.09171 3.22574 6.09378 3.92627 6.61292C4.51008 7.04521 5.27481 6.99865 5.7876 6.55823L6.27588 7.12756L6.76514 7.69592C5.7261 8.58834 4.18473 8.6716 3.03271 7.81799C1.68314 6.81788 1.36586 4.90056 2.33057 3.52502ZM6.42334 3.1842C6.92204 1.56625 8.62578 0.66568 10.2339 1.20276C11.3783 1.58507 12.1457 2.58785 12.3091 3.70667L11.5669 3.81506L10.8257 3.92346C10.739 3.32998 10.3336 2.81773 9.75928 2.62561C8.96682 2.36092 8.11292 2.79548 7.85693 3.62561C7.63817 4.33561 7.934 5.0931 8.52295 5.47131L7.7124 6.73303C6.56583 5.99662 6.00347 4.54729 6.42334 3.1842Z" fill="#FF00FF"/>
</svg>
