<svg width="16" height="16" viewBox="0 0 16 16" fill="none" xmlns="http://www.w3.org/2000/svg">
<path d="M3 2.25C1.75736 2.25 0.75 3.25736 0.75 4.5V10C0.75 11.2426 1.75736 12.25 3 12.25H3.75V14C3.75 14.4142 4.08579 14.75 4.5 14.75H11.5C11.9142 14.75 12.25 14.4142 12.25 14V12.25H13C14.2426 12.25 15.25 11.2426 15.25 10V4.5C15.25 3.25736 14.2426 2.25 13 2.25H3ZM10.75 9.75V13.25H5.25V9.75H10.75ZM13 3.75C13.4142 3.75 13.75 4.08579 13.75 4.5V10C13.75 10.4142 13.4142 10.75 13 10.75H12.25V9C12.25 8.58579 11.9142 8.25 11.5 8.25H4.5C4.08579 8.25 3.75 8.58579 3.75 9V10.75H3C2.58579 10.75 2.25 10.4142 2.25 10V4.5C2.25 4.08579 2.58579 3.75 3 3.75H13ZM9.5 7.25H12V5.75H9.5V7.25Z" fill="#FF00FF"/>
</svg>
