<svg width="16" height="16" viewBox="0 0 16 16" fill="none" xmlns="http://www.w3.org/2000/svg">
<path d="M8 7.25C8.1989 7.25 8.38962 7.32908 8.53027 7.46973C8.67092 7.61037 8.74999 7.8011 8.75 8V13.5L8.74609 13.5771C8.70747 13.9551 8.38817 14.25 8 14.25H2.5L2.35254 14.2354C2.20855 14.2065 2.0751 14.1356 1.96973 14.0303C1.82908 13.8896 1.75 13.6989 1.75 13.5V8C1.75002 7.58581 2.0858 7.25 2.5 7.25H8ZM14.25 13.5C14.25 13.9142 13.9142 14.25 13.5 14.25H10V12.75H12.75V10H14.25V13.5ZM3.25 12.75H7.25V8.75H3.25V12.75ZM11 8C11.5523 8 12 8.44773 12 9C12 9.55228 11.5523 10 11 10C10.4477 10 10 9.55228 10 9C10 8.44773 10.4477 8 11 8ZM13.5 1.75C13.6989 1.75 13.8896 1.82908 14.0303 1.96973C14.1709 2.11037 14.25 2.3011 14.25 2.5V6L14.2354 6.14746C14.2065 6.29144 14.1356 6.4249 14.0303 6.53027C13.8896 6.67093 13.6989 6.75 13.5 6.75H10L9.92285 6.74609C9.54489 6.70747 9.25 6.38816 9.25 6V2.5L9.25391 2.42285C9.29254 2.0449 9.61185 1.75 10 1.75H13.5ZM6 3.25H3.25V6H1.75V2.5C1.75 2.08579 2.08579 1.75 2.5 1.75H6V3.25ZM7 4C7.55227 4 7.99998 4.44773 8 5C8 5.55228 7.55228 6 7 6C6.44772 6 6 5.55228 6 5C6.00002 4.44773 6.44773 4 7 4ZM10.75 5.25H12.75V3.25H10.75V5.25Z" fill="#FF00FF"/>
</svg>
