<svg width="16" height="16" viewBox="0 0 16 16" fill="none" xmlns="http://www.w3.org/2000/svg">
<path fill-rule="evenodd" clip-rule="evenodd" d="M7.99995 2.25C8.28402 2.25 8.5438 2.41096 8.67085 2.66504L13.6708 12.665C13.8177 12.9592 13.7561 13.3147 13.5185 13.542C13.2807 13.7693 12.9221 13.8154 12.6347 13.6553L7.99995 11.0693L3.36518 13.6553C3.07783 13.8154 2.7192 13.7693 2.48139 13.542C2.24386 13.3147 2.18221 12.9592 2.32905 12.665L7.32905 2.66504C7.45608 2.41097 7.71589 2.25002 7.99995 2.25ZM4.75776 11.1602L7.63471 9.55664L7.72163 9.51465C7.92979 9.43149 8.16646 9.44583 8.36518 9.55664L11.2412 11.1602L7.99995 4.67676L4.75776 11.1602Z" fill="#FF00FF"/>
</svg>
