<svg width="16" height="16" viewBox="0 0 16 16" fill="none" xmlns="http://www.w3.org/2000/svg">
<path d="M12.0303 2.9696C12.3231 3.26248 12.3231 3.73725 12.0303 4.03015L9.53027 6.53015L8.46973 5.4696L9.68945 4.24988H7.75C5.26476 4.24988 3.25007 6.26466 3.25 8.74988C3.25 11.2352 5.26472 13.2499 7.75 13.2499H8C10.6233 13.2498 12.75 11.1232 12.75 8.49988V7.99988H14.25V8.49988C14.25 11.9516 11.4517 14.7498 8 14.7499H7.75C4.43629 14.7499 1.75 12.0636 1.75 8.74988C1.75007 5.43623 4.43633 2.74988 7.75 2.74988H9.68945L8.46973 1.53015L9.53027 0.469604L12.0303 2.9696Z" fill="#FF00FF"/>
</svg>
