<svg width="16" height="16" viewBox="0 0 16 16" fill="none" xmlns="http://www.w3.org/2000/svg">
<path d="M8 0.75C12.0041 0.75 15.25 3.99594 15.25 8C15.25 12.0041 12.0041 15.25 8 15.25C3.99594 15.25 0.75 12.0041 0.75 8C0.75 3.99594 3.99594 0.75 8 0.75ZM9.49609 10.7773C8.50718 10.7411 7.49182 10.7411 6.50293 10.7773C6.61233 11.3428 6.75572 11.8672 6.93262 12.3271C7.15558 12.9068 7.39295 13.2858 7.60352 13.5078C7.81126 13.7268 7.94701 13.75 8 13.75C8.05299 13.75 8.18874 13.7268 8.39648 13.5078C8.60705 13.2858 8.84442 12.9068 9.06738 12.3271C9.24426 11.8673 9.3867 11.3427 9.49609 10.7773ZM4.99609 10.8633C4.34539 10.914 3.72041 10.9835 3.1377 11.0684C3.74982 12.0363 4.64264 12.8079 5.70215 13.2705C5.64318 13.1404 5.58612 13.0054 5.53223 12.8652C5.29932 12.2596 5.12378 11.5801 4.99609 10.8633ZM11.0029 10.8633C10.8752 11.5801 10.7007 12.2597 10.4678 12.8652C10.4138 13.0055 10.3559 13.1403 10.2969 13.2705C11.3566 12.808 12.2491 12.0364 12.8613 11.0684C12.2786 10.9835 11.6536 10.9139 11.0029 10.8633ZM2.49121 6.34961C2.3348 6.87244 2.25 7.42629 2.25 8C2.25 8.57338 2.33497 9.12685 2.49121 9.64941C3.20513 9.53154 3.98617 9.43959 4.80469 9.37402C4.76867 8.91859 4.75 8.45802 4.75 8C4.75 7.54166 4.76862 7.08075 4.80469 6.625C3.98614 6.55943 3.20515 6.46749 2.49121 6.34961ZM13.5078 6.34961C12.7938 6.46746 12.0129 6.55945 11.1943 6.625C11.2304 7.08077 11.25 7.54163 11.25 8C11.25 8.45805 11.2304 8.91857 11.1943 9.37402C12.0128 9.43956 12.7939 9.53157 13.5078 9.64941C13.6641 9.12677 13.75 8.57348 13.75 8C13.75 7.42619 13.6643 6.87252 13.5078 6.34961ZM9.69629 6.71484C8.57633 6.75997 7.42267 6.75999 6.30273 6.71484C6.2686 7.13566 6.25 7.56643 6.25 8C6.25 8.43324 6.26865 8.86367 6.30273 9.28418C7.42265 9.23903 8.57636 9.23906 9.69629 9.28418C9.73037 8.86365 9.75 8.43327 9.75 8C9.75 7.5664 9.73042 7.13569 9.69629 6.71484ZM8 2.25C7.94701 2.25 7.81126 2.27315 7.60352 2.49219C7.39295 2.7142 7.15558 3.09323 6.93262 3.67285C6.75582 4.13254 6.61231 4.65661 6.50293 5.22168C7.49185 5.25794 8.50716 5.25792 9.49609 5.22168C9.38672 4.65668 9.24417 4.13249 9.06738 3.67285C8.84442 3.09323 8.60705 2.7142 8.39648 2.49219C8.18874 2.27315 8.05299 2.25 8 2.25ZM5.70215 2.72852C4.64274 3.19096 3.74988 3.9629 3.1377 4.93066C3.72042 5.01555 4.34537 5.08506 4.99609 5.13574C5.12376 4.41924 5.29942 3.7401 5.53223 3.13477C5.58623 2.99436 5.64304 2.8589 5.70215 2.72852ZM10.2969 2.72852C10.356 2.85901 10.4137 2.99423 10.4678 3.13477C10.7006 3.74005 10.8753 4.4193 11.0029 5.13574C11.6536 5.08508 12.2786 5.01553 12.8613 4.93066C12.249 3.96286 11.3565 3.19085 10.2969 2.72852Z" fill="#FF00FF"/>
</svg>
