<svg width="16" height="16" viewBox="0 0 16 16" fill="none" xmlns="http://www.w3.org/2000/svg">
<path d="M8.75 2.88379C11.0055 3.21155 12.7885 4.9945 13.1162 7.25H15V8.75H13.1162C12.7885 11.0055 11.0054 12.7874 8.75 13.1152V15H7.25V13.1152C4.99456 12.7874 3.21154 11.0055 2.88379 8.75H1V7.25H2.88379C3.21155 4.9945 4.9945 3.21155 7.25 2.88379V1H8.75V2.88379ZM8 4.3291C5.97253 4.3291 4.3291 5.97253 4.3291 8C4.3291 10.0275 5.97253 11.6709 8 11.6709C10.0275 11.6709 11.6709 10.0275 11.6709 8C11.6709 5.97253 10.0275 4.3291 8 4.3291ZM8 6.5C8.82843 6.5 9.5 7.17157 9.5 8C9.5 8.82843 8.82843 9.5 8 9.5C7.17157 9.5 6.5 8.82843 6.5 8C6.5 7.17157 7.17157 6.5 8 6.5Z" fill="#FF00FF"/>
</svg>
