<svg width="16" height="16" viewBox="0 0 16 16" fill="none" xmlns="http://www.w3.org/2000/svg">
<path fill-rule="evenodd" clip-rule="evenodd" d="M5.86555 1.26294C6.08929 1.22211 6.31963 1.28487 6.49152 1.43384L13.9915 7.93384C14.2277 8.13882 14.3125 8.46891 14.2034 8.76196C14.094 9.05514 13.8132 9.25006 13.5003 9.25024H7.24934V10.2502H13.4993C13.7593 10.2502 14.0014 10.3846 14.138 10.6057C14.2746 10.8267 14.2863 11.1028 14.1702 11.3352L13.4993 12.677C12.8641 13.9471 11.5659 14.7501 10.1458 14.7502H5.85383C4.43366 14.7501 3.13451 13.9472 2.49934 12.677L1.82844 11.3352C1.71247 11.1029 1.72529 10.8266 1.86164 10.6057C1.99825 10.3849 2.23969 10.2504 2.49934 10.2502H5.74934V9.25024H2.50031C2.23651 9.25024 1.99218 9.11136 1.85676 8.88501C1.7214 8.65839 1.71502 8.37719 1.84016 8.14477L5.34016 1.64477L5.3841 1.57251C5.49645 1.41061 5.6695 1.29889 5.86555 1.26294ZM3.84113 12.0061C4.22221 12.7682 5.0018 13.2501 5.85383 13.2502H10.1458C10.9978 13.2501 11.7764 12.768 12.1575 12.0061L12.2855 11.7502H3.7132L3.84113 12.0061ZM3.75617 7.75024H11.4905L6.21613 3.17895L3.75617 7.75024Z" fill="#FF00FF"/>
</svg>
