<svg width="16" height="16" viewBox="0 0 16 16" fill="none" xmlns="http://www.w3.org/2000/svg">
<path d="M11.5264 1.41796C11.8209 1.17765 12.2557 1.19512 12.5303 1.46972L15.5303 4.46972L14.4697 5.53027L12.75 3.81054V7.75L12.7451 8.22558C12.631 11.1303 10.372 13.4767 7.50488 13.7275L7.22559 13.7451C7.10908 13.7497 6.9749 13.75 6.75 13.75H6.5C3.32437 13.75 0.75 11.1756 0.75 8C0.75 4.82436 3.32436 2.25 6.5 2.25V3.75C4.15279 3.75 2.25 5.65279 2.25 8C2.25 10.3472 4.15279 12.25 6.5 12.25H6.75C6.98925 12.25 7.08731 12.2502 7.16699 12.2471L7.37305 12.2334C9.49225 12.048 11.1627 10.3139 11.2471 8.16699L11.25 7.75V3.81054L9.53027 5.53027L8.46973 4.46972L11.4697 1.46972L11.5264 1.41796Z" fill="#FF00FF"/>
</svg>
