<svg width="16" height="16" viewBox="0 0 16 16" fill="none" xmlns="http://www.w3.org/2000/svg">
<path d="M8.80908 4.85791C9.89341 5.08384 10.6812 5.78494 11.0757 6.56787L10.4058 6.90576L9.73584 7.24268C9.57077 6.91514 9.25898 6.59295 8.80908 6.41748L8.80908 8.3042C9.21769 8.40404 9.65209 8.5375 10.021 8.75342C10.3148 8.92543 10.5969 9.16313 10.8013 9.49756C11.0075 9.83531 11.1078 10.2268 11.1079 10.6597C11.1079 11.408 10.7822 12.0766 10.2144 12.5435C9.82782 12.8611 9.34701 13.0679 8.80908 13.1675V13.9995L7.30908 13.9995V13.1782C6.02965 12.975 5.15858 12.2515 4.66748 11.3042L5.3335 10.9585L5.99951 10.6138C6.24378 11.0849 6.64441 11.4822 7.30908 11.6509L7.30908 9.50635C6.91308 9.4125 6.49293 9.29102 6.13721 9.09717C5.84635 8.93861 5.5606 8.71563 5.3501 8.39307C5.13587 8.06466 5.03174 7.68134 5.03174 7.25732C5.03187 6.55065 5.3335 5.90338 5.89697 5.44873C6.28118 5.13889 6.76234 4.93911 7.30908 4.84521L7.30908 3.99951H8.80908V4.85791ZM2.87256 2.87256C5.7037 0.0414169 10.2951 0.0417333 13.1265 2.87256C15.9578 5.70386 15.9578 10.2952 13.1265 13.1265L12.0649 12.0649C14.3105 9.81943 14.3105 6.1796 12.0649 3.93408C9.81939 1.68904 6.17944 1.68873 3.93408 3.93408C1.68873 6.17944 1.68904 9.81939 3.93408 12.0649L2.87256 13.1265C0.0417332 10.2951 0.0414171 5.7037 2.87256 2.87256ZM8.80908 11.6255C8.99777 11.5622 9.1485 11.4777 9.26221 11.3843C9.48966 11.1972 9.60791 10.9511 9.60791 10.6597C9.6078 10.4643 9.56456 10.3512 9.521 10.2798C9.47516 10.2049 9.39815 10.1264 9.26318 10.0474C9.13668 9.97337 8.98549 9.91327 8.80908 9.85791V11.6255ZM7.30908 6.37939C7.10398 6.44116 6.94922 6.52638 6.83838 6.61572C6.63177 6.78242 6.53186 6.99906 6.53174 7.25732C6.53174 7.42766 6.57012 7.51872 6.60596 7.57373C6.6456 7.63442 6.71734 7.70471 6.85498 7.77979C6.98228 7.84916 7.13397 7.90262 7.30908 7.95459V6.37939Z" fill="#FF00FF"/>
</svg>
