<svg width="16" height="16" viewBox="0 0 16 16" fill="none" xmlns="http://www.w3.org/2000/svg">
<path fill-rule="evenodd" clip-rule="evenodd" d="M6.8883 1.34277C7.70627 1.20622 8.51656 1.2231 9.28771 1.37305L9.14416 2.10938L9.00158 2.8457C8.40369 2.72944 7.77392 2.71568 7.13537 2.82227C4.27637 3.29995 2.3447 6.0052 2.82189 8.86426C3.29938 11.7234 6.00481 13.6548 8.86388 13.1777C11.7231 12.7002 13.6546 9.99496 13.1774 7.13574L13.9166 7.01172L14.6569 6.88867C15.2706 10.565 12.7873 14.0432 9.11095 14.6572C5.43478 15.2707 1.95636 12.7875 1.3424 9.11133C0.728752 5.43517 3.2122 1.95692 6.8883 1.34277ZM15.5299 1.53027L14.2985 2.76074C14.7302 2.86451 15.1509 3.09085 15.5299 3.46973L14.4694 4.53027C14.2249 4.28587 13.9917 4.20705 13.776 4.19434C13.5397 4.18052 13.2739 4.24461 12.9977 4.37012C12.7244 4.49437 12.4776 4.66115 12.2955 4.80273C12.2062 4.8722 12.1359 4.93294 12.0895 4.97461C12.0665 4.99528 12.0498 5.0118 12.0397 5.02148C12.0346 5.02624 12.0305 5.02971 12.0289 5.03125L8.5299 8.53027L7.46935 7.46973L10.9694 3.96973V3.96875H10.9703L14.4694 0.469727L15.5299 1.53027Z" fill="#FF00FF"/>
</svg>
