<svg width="16" height="16" viewBox="0 0 16 16" fill="none" xmlns="http://www.w3.org/2000/svg">
<path fill-rule="evenodd" clip-rule="evenodd" d="M11.8184 1.27255C12.0423 1.21663 12.2799 1.26719 12.4619 1.40927C12.6436 1.55141 12.75 1.76935 12.75 2.00009C12.7499 4.66 10.7233 6.33558 8.75 6.68173V10.8321C9.9726 9.23518 11.8129 8.25009 14 8.25009V9.75009C11.3141 9.75009 9.22217 11.6692 8.74023 14.6212H7.25977C6.77776 11.6692 4.68594 9.75009 2 9.75009V8.25009C4.18714 8.25009 6.02743 9.23517 7.25 10.8321V6.68173C5.27672 6.33559 3.25012 4.66001 3.25 2.00009C3.25 1.76935 3.35635 1.55141 3.53809 1.40927C3.72006 1.26719 3.95765 1.21663 4.18164 1.27255C6.72884 1.90934 9.27116 1.90934 11.8184 1.27255ZM11.1055 2.96103C9.03549 3.34511 6.96353 3.34522 4.89355 2.96103C5.33866 4.40013 6.74794 5.25009 8 5.25009C9.25198 5.25008 10.6603 4.39995 11.1055 2.96103Z" fill="#FF00FF"/>
</svg>
