<svg width="16" height="16" viewBox="0 0 16 16" fill="none" xmlns="http://www.w3.org/2000/svg">
<path d="M2.78772 2.78772C4.83786 0.737579 8.16127 0.737802 10.2115 2.78772C12.0817 4.65787 12.2453 7.58683 10.7037 9.64319L14.5299 13.4694L13.4694 14.5299L9.64319 10.7037C7.58683 12.2453 4.65787 12.0817 2.78772 10.2115C0.737802 8.16127 0.737579 4.83786 2.78772 2.78772ZM9.151 3.84827C7.68651 2.38414 5.31262 2.38391 3.84827 3.84827C2.38391 5.31262 2.38414 7.68651 3.84827 9.151C5.31273 10.6155 7.68653 10.6155 9.151 9.151C10.6155 7.68653 10.6155 5.31273 9.151 3.84827Z" fill="#FF00FF"/>
</svg>
