<svg width="16" height="16" viewBox="0 0 16 16" fill="none" xmlns="http://www.w3.org/2000/svg">
<path fill-rule="evenodd" clip-rule="evenodd" d="M7.77532 0.283809C7.94585 0.230317 8.13112 0.239761 8.2968 0.311152L14.7909 3.11096L14.8857 3.15979C15.097 3.28909 15.2327 3.51706 15.2431 3.76916V3.77502C15.2432 3.77783 15.2439 3.78207 15.2441 3.78674C15.2444 3.79664 15.2446 3.81097 15.245 3.82873C15.2461 3.86511 15.248 3.91833 15.249 3.98498C15.2508 4.11853 15.2514 4.31074 15.247 4.54748C15.2382 5.02061 15.2088 5.67919 15.1269 6.4215C14.9658 7.8804 14.5904 9.77126 13.6845 11.2008C12.8443 12.5263 11.4834 13.6455 10.3866 14.4127C9.27806 15.1882 8.36321 15.6561 8.34075 15.6676C8.15345 15.7632 7.93599 15.7754 7.74114 15.7037L7.65911 15.6676L7.65716 15.6666C7.65644 15.6663 7.65521 15.6661 7.65423 15.6656C7.65189 15.6645 7.64835 15.6628 7.64446 15.6608C7.63651 15.6566 7.62534 15.6506 7.61126 15.6432C7.58228 15.628 7.53988 15.6053 7.48723 15.5768C7.38179 15.5196 7.231 15.4359 7.0468 15.3287C6.67833 15.1143 6.17102 14.8032 5.61419 14.4137C4.51717 13.6464 3.15586 12.5268 2.31536 11.2008C1.4095 9.77126 1.03403 7.88038 0.872977 6.4215C0.79105 5.67919 0.761634 5.02061 0.752859 4.54748C0.748478 4.31073 0.749043 4.11853 0.750906 3.98498C0.751841 3.91833 0.753796 3.86511 0.754812 3.82873C0.755305 3.81097 0.755448 3.79664 0.755789 3.78674C0.75598 3.78207 0.75666 3.77783 0.756766 3.77502V3.76916L0.768484 3.66271C0.81375 3.41936 0.977379 3.2108 1.20891 3.11096L7.70305 0.311152L7.77532 0.283809ZM2.25188 4.29357C2.25227 4.36216 2.25136 4.43784 2.25286 4.51916C2.26099 4.95803 2.2884 5.56963 2.36419 6.25646C2.51877 7.65685 2.86565 9.26623 3.58294 10.3981C4.26199 11.4693 5.42616 12.4509 6.47454 13.1842C6.98993 13.5447 7.46069 13.8334 7.80169 14.0319C7.8727 14.0732 7.93921 14.1091 7.99798 14.1422C8.33752 13.9507 8.89981 13.6222 9.52727 13.1832C10.5753 12.45 11.7382 11.4688 12.4169 10.3981C13.1342 9.26623 13.4811 7.65685 13.6357 6.25646C13.7115 5.56963 13.7389 4.95803 13.747 4.51916C13.7485 4.43784 13.7466 4.36216 13.747 4.29357L7.99993 1.81604L2.25188 4.29357ZM11.8105 5.99768L7.81048 10.4977C7.66364 10.6629 7.45135 10.7554 7.2304 10.7496C7.00952 10.7439 6.80204 10.6409 6.66399 10.4684L4.66399 7.96838L5.83587 7.03088L7.2802 8.83654L10.6894 5.00158L11.8105 5.99768Z" fill="#FF00FF"/>
</svg>
