<svg width="16" height="16" viewBox="0 0 16 16" fill="none" xmlns="http://www.w3.org/2000/svg">
<path d="M7.79005 1.09658C7.92286 1.03529 8.07614 1.03542 8.20899 1.09658L14.2188 3.87002C14.391 3.94971 14.5031 4.11963 14.502 4.30947C14.4954 5.3601 14.3662 8.84448 13 10.9999C11.7085 13.0375 9.00062 14.501 8.21681 14.8944C8.07993 14.9631 7.92011 14.9631 7.78321 14.8944C6.99941 14.501 4.29154 13.0375 3.00001 10.9999C1.63383 8.84448 1.50465 5.36011 1.49806 4.30947C1.49688 4.11959 1.60891 3.94969 1.78126 3.87002L7.79005 1.09658ZM8.00001 9.4999C7.44805 9.4999 7.00008 9.94796 7.00001 10.4999C7.00001 11.0519 7.44801 11.4999 8.00001 11.4999C8.55199 11.4999 9.00001 11.0519 9.00001 10.4999C8.99994 9.94797 8.55195 9.49992 8.00001 9.4999ZM7.25001 7.9999H8.75001V3.9999H7.25001V7.9999Z" fill="#FF00FF"/>
</svg>
