<svg width="16" height="16" viewBox="0 0 16 16" fill="none" xmlns="http://www.w3.org/2000/svg">
<path d="M7.79017 1.09658C7.92297 1.03529 8.07627 1.03542 8.20912 1.09658L14.2189 3.87002C14.3912 3.9497 14.5033 4.11964 14.5021 4.30947C14.4955 5.3601 14.3663 8.84447 13.0001 10.9999C11.7086 13.0375 9.00075 14.501 8.21693 14.8944C8.08005 14.9631 7.92023 14.9631 7.78333 14.8944C6.99951 14.501 4.29166 13.0375 3.00013 10.9999C1.63396 8.84447 1.50477 5.36011 1.49818 4.30947C1.49701 4.11959 1.60904 3.94968 1.78138 3.87002L7.79017 1.09658ZM7.2804 8.83681L5.83607 7.03115L4.66419 7.96865L6.66419 10.4686C6.80225 10.6412 7.00971 10.7441 7.2306 10.7499C7.45152 10.7556 7.66385 10.6631 7.81068 10.4979L11.8107 5.99795L10.6896 5.00185L7.2804 8.83681Z" fill="#FF00FF"/>
</svg>
