<svg width="16" height="16" viewBox="0 0 16 16" fill="none" xmlns="http://www.w3.org/2000/svg">
<path d="M7.79017 1.09658C7.92297 1.03529 8.07627 1.03542 8.20912 1.09658L14.2189 3.87002C14.3912 3.9497 14.5033 4.11964 14.5021 4.30947C14.4955 5.3601 14.3663 8.84447 13.0001 10.9999C11.7086 13.0375 9.00075 14.501 8.21693 14.8944C8.08005 14.9631 7.92023 14.9631 7.78333 14.8944C6.99951 14.501 4.29166 13.0375 3.00013 10.9999C1.63396 8.84447 1.50477 5.36011 1.49818 4.30947C1.49701 4.11959 1.60904 3.94968 1.78138 3.87002L7.79017 1.09658ZM8.00013 5.4999C7.17175 5.4999 6.5002 6.17153 6.50013 6.9999C6.50013 7.55484 6.80214 8.0383 7.25013 8.29775V9.9999H8.75013V8.29775C9.19808 8.03829 9.50013 7.55481 9.50013 6.9999C9.50007 6.17155 8.82849 5.49994 8.00013 5.4999Z" fill="#FF00FF"/>
</svg>
