<svg width="16" height="16" viewBox="0 0 16 16" fill="none" xmlns="http://www.w3.org/2000/svg">
<path fill-rule="evenodd" clip-rule="evenodd" d="M7.99953 1.25C8.29191 1.25 8.55752 1.42018 8.68019 1.68555L11.3003 7.36328L14.064 5.38965C14.3157 5.21001 14.652 5.20358 14.9107 5.37305C15.1695 5.54294 15.2978 5.85447 15.2329 6.15723L13.7329 13.1572C13.6588 13.5029 13.3531 13.75 12.9995 13.75H2.99953C2.64607 13.7498 2.34023 13.5029 2.26613 13.1572L0.766129 6.15723C0.701302 5.85461 0.829763 5.54298 1.08839 5.37305C1.34702 5.20346 1.68327 5.21013 1.93507 5.38965L4.69777 7.36328L7.31886 1.68555L7.3716 1.59082C7.50852 1.38055 7.74382 1.25018 7.99953 1.25ZM5.68019 8.81445C5.58655 9.01701 5.40759 9.16735 5.19191 9.22461C4.97615 9.28166 4.74565 9.23999 4.56398 9.11035L2.6382 7.73438L3.60597 12.25H12.3931L13.3599 7.73438L11.4351 9.11035C11.2533 9.2399 11.0229 9.28179 10.8071 9.22461C10.5916 9.16725 10.4124 9.01698 10.3189 8.81445L7.99953 3.78906L5.68019 8.81445Z" fill="#FF00FF"/>
</svg>
