<svg width="16" height="16" viewBox="0 0 16 16" fill="none" xmlns="http://www.w3.org/2000/svg">
<path d="M14.3799 0.759766C14.6157 0.721453 14.8584 0.797851 15.0303 0.969727C15.2022 1.14161 15.2785 1.38425 15.2402 1.62012L15.2168 1.7207L11.2168 14.7207C11.1269 15.0126 10.8687 15.2207 10.5645 15.2471C10.2603 15.2733 9.97076 15.1127 9.83203 14.8408L6.90332 9.0957L1.15918 6.16797C0.887292 6.02923 0.726679 5.73967 0.75293 5.43555C0.7793 5.13127 0.987411 4.87307 1.2793 4.7832L14.2793 0.783203L14.3799 0.759766ZM3.48926 5.67188L7.31641 7.62207L8.54688 6.39258L9.60742 7.45312L8.37695 8.68262L10.3271 12.5098L13.3662 2.63281L3.48926 5.67188Z" fill="#FF00FF"/>
</svg>
