<svg width="16" height="16" viewBox="0 0 16 16" fill="none" xmlns="http://www.w3.org/2000/svg">
<path d="M7.99976 3.25C9.82135 3.25 11.4538 4.03159 12.7 4.88477C13.9524 5.74235 14.8805 6.71772 15.3113 7.20703L15.3826 7.29492C15.7118 7.74636 15.6876 8.36552 15.3113 8.79297C14.8805 9.28228 13.9524 10.2577 12.7 11.1152C11.4538 11.9684 9.82135 12.75 7.99976 12.75C6.17818 12.7499 4.54565 11.9684 3.29956 11.1152C2.35995 10.4718 1.60282 9.76202 1.10132 9.24121L0.688232 8.79297C0.286959 8.33703 0.286958 7.66298 0.688232 7.20703L1.10132 6.75879C1.60282 6.23798 2.35995 5.52817 3.29956 4.88477C4.54565 4.03158 6.17818 3.25009 7.99976 3.25ZM7.99976 4.75C6.60124 4.75009 5.26631 5.35585 4.14722 6.12207C3.18498 6.78094 2.43165 7.52767 1.99585 8C2.43165 8.47233 3.18498 9.21906 4.14722 9.87793C5.26631 10.6441 6.60124 11.2499 7.99976 11.25C9.39829 11.25 10.7332 10.6441 11.8523 9.87793C12.8142 9.21933 13.5668 8.4724 14.0027 8C13.5668 7.5276 12.8142 6.78067 11.8523 6.12207C10.7332 5.35587 9.39829 4.75 7.99976 4.75ZM7.99976 6C9.10432 6 9.99974 6.89544 9.99976 8C9.99976 9.10457 9.10433 10 7.99976 10C6.89533 9.99983 5.99976 9.10446 5.99976 8C5.99977 6.89555 6.89534 6.00017 7.99976 6Z" fill="#FF00FF"/>
</svg>
