<svg width="16" height="16" viewBox="0 0 16 16" fill="none" xmlns="http://www.w3.org/2000/svg">
<path d="M14.53 2.53027L12.3816 4.67773C12.4897 4.74685 12.597 4.81427 12.7 4.88477C13.9524 5.74233 14.8805 6.71771 15.3113 7.20703L15.3826 7.29492C15.6898 7.7162 15.6898 8.28379 15.3826 8.70508L15.3113 8.79297C14.8805 9.28227 13.9524 10.2576 12.7 11.1152C11.4538 11.9684 9.82137 12.75 7.99976 12.75C6.91581 12.7499 5.89935 12.4723 4.99097 12.0684L2.53003 14.5303L1.46948 13.4697L3.61694 11.3213C3.5093 11.2525 3.40209 11.1854 3.29956 11.1152C2.35996 10.4718 1.60282 9.76201 1.10132 9.24121L0.688232 8.79297C0.286976 8.33701 0.286933 7.66297 0.688232 7.20703L1.10132 6.75879C1.60283 6.23798 2.35994 5.52818 3.29956 4.88477C4.54566 4.03158 6.17818 3.25009 7.99976 3.25C9.08313 3.25 10.0995 3.52715 11.0076 3.93066L13.4695 1.46973L14.53 2.53027ZM6.14526 10.9141C6.74087 11.123 7.36341 11.25 7.99976 11.25C9.39831 11.25 10.7332 10.6441 11.8523 9.87793C12.8142 9.21931 13.5668 8.47239 14.0027 8C13.5668 7.5276 12.8142 6.78066 11.8523 6.12207C11.6715 5.99827 11.4842 5.88014 11.2927 5.7666L6.14526 10.9141ZM7.99976 4.75C6.60124 4.75009 5.26631 5.35585 4.14722 6.12207C3.18496 6.78094 2.43166 7.52767 1.99585 8C2.43165 8.47232 3.18499 9.21907 4.14722 9.87793C4.32768 10.0015 4.51575 10.1181 4.70679 10.2314L9.85327 5.08496C9.2581 4.8764 8.63558 4.75 7.99976 4.75Z" fill="#FF00FF"/>
</svg>
