<svg width="16" height="16" viewBox="0 0 16 16" fill="none" xmlns="http://www.w3.org/2000/svg">
<path d="M9.87415 0.75C10.2881 0.750286 10.6241 1.08596 10.6241 1.5V2.69434L11.2355 3.05176L12.2482 2.46094L12.3829 2.39844C12.5229 2.35042 12.6753 2.34495 12.8204 2.38379C13.0137 2.4356 13.1782 2.5626 13.2775 2.73633L15.1515 6.02051C15.355 6.37761 15.233 6.83166 14.8781 7.03906L13.8595 7.63379V8.36523L14.8781 8.96094C15.233 9.16834 15.355 9.62239 15.1515 9.97949L13.2775 13.2637C13.1782 13.4374 13.0137 13.5644 12.8204 13.6162C12.6271 13.668 12.421 13.64 12.2482 13.5391L11.2355 12.9473L10.6241 13.3047V14.5C10.6241 14.914 10.2881 15.2497 9.87415 15.25H6.1261C5.71207 15.2498 5.3761 14.9141 5.3761 14.5V13.3047L4.76379 12.9473L3.75208 13.5391C3.57925 13.64 3.37315 13.6679 3.17981 13.6162C2.98653 13.5644 2.82204 13.4374 2.72278 13.2637L0.848755 9.97949C0.645154 9.62236 0.767199 9.16832 1.12219 8.96094L2.14075 8.36523V7.63379L1.12219 7.03906C0.767199 6.83168 0.645154 6.37765 0.848755 6.02051L2.72278 2.73633L2.80872 2.61523C2.90594 2.50382 3.03484 2.42263 3.17981 2.38379C3.37315 2.33206 3.57925 2.35998 3.75208 2.46094L4.76379 3.05176L5.3761 2.69434V1.5C5.3761 1.08592 5.71207 0.750221 6.1261 0.75H9.87415ZM6.8761 3.125C6.8761 3.39147 6.73502 3.63796 6.505 3.77246L5.1427 4.56836C4.90903 4.70479 4.61953 4.70482 4.38586 4.56836L3.64954 4.1377L2.51868 6.11816L3.26965 6.55664C3.49956 6.69111 3.64066 6.93775 3.64075 7.2041V8.7959C3.64066 9.06225 3.49956 9.30888 3.26965 9.44336L2.51868 9.88086L3.64954 11.8613L4.38586 11.4316C4.61953 11.2952 4.90903 11.2952 5.1427 11.4316L6.505 12.2275C6.73502 12.362 6.8761 12.6085 6.8761 12.875V13.75H9.12415V12.875C9.12415 12.6085 9.26517 12.362 9.49524 12.2275L10.8575 11.4316L10.9474 11.3867C11.1625 11.2972 11.4099 11.3122 11.6144 11.4316L12.3497 11.8613L13.4806 9.88086L12.7306 9.44336C12.5006 9.3089 12.3596 9.06228 12.3595 8.7959V7.2041C12.3596 6.93772 12.5006 6.6911 12.7306 6.55664L13.4806 6.11816L12.3497 4.1377L11.6144 4.56836C11.3807 4.70486 11.0912 4.70476 10.8575 4.56836L9.49524 3.77246C9.26517 3.63797 9.12415 3.39151 9.12415 3.125V2.25H6.8761V3.125ZM8.0011 5.25C9.51988 5.25 10.7511 6.48122 10.7511 8C10.7511 9.51878 9.51988 10.75 8.0011 10.75C6.48243 10.7499 5.2511 9.5187 5.2511 8C5.2511 6.4813 6.48243 5.25013 8.0011 5.25ZM8.0011 6.75C7.31085 6.75013 6.7511 7.30973 6.7511 8C6.7511 8.69027 7.31085 9.24987 8.0011 9.25C8.69145 9.25 9.2511 8.69036 9.2511 8C9.2511 7.30964 8.69145 6.75 8.0011 6.75Z" fill="#FF00FF"/>
</svg>
