<svg width="16" height="16" viewBox="0 0 16 16" fill="none" xmlns="http://www.w3.org/2000/svg">
<path d="M12.167 0.916992C13.3173 0.917169 14.2498 1.84967 14.25 3C14.2498 4.15034 13.3173 5.08381 12.167 5.08398C11.649 5.08398 11.1764 4.89303 10.8125 4.58105L5.56543 7.40625C5.57609 7.49163 5.58398 7.57872 5.58398 7.66699C5.58396 7.79622 5.56957 7.92284 5.54688 8.0459L10.9043 11.3428C11.2543 11.0758 11.6921 10.917 12.167 10.917C13.3173 10.9172 14.2498 11.8497 14.25 13C14.2498 14.1503 13.3173 15.0838 12.167 15.084C11.0165 15.084 10.0842 14.1504 10.084 13C10.084 12.8705 10.0964 12.7434 10.1191 12.6201L4.76172 9.32422C4.41195 9.59081 3.97453 9.74993 3.5 9.75C2.34966 9.74982 1.41717 8.81733 1.41699 7.66699C1.41699 6.51651 2.34956 5.58416 3.5 5.58398C4.01711 5.58406 4.48935 5.77396 4.85352 6.08594L10.0996 3.26172C10.0889 3.17611 10.084 3.08828 10.084 3C10.0842 1.84956 11.0165 0.916992 12.167 0.916992ZM12.167 12.417C11.9578 12.417 11.7738 12.5268 11.6699 12.6953C11.6156 12.7835 11.584 12.8869 11.584 13C11.5842 13.322 11.8449 13.584 12.167 13.584C12.4889 13.5838 12.7498 13.3219 12.75 13C12.7498 12.6781 12.4889 12.4172 12.167 12.417ZM3.5 7.08398C3.17798 7.08416 2.91699 7.34493 2.91699 7.66699C2.91717 7.9889 3.17809 8.24982 3.5 8.25C3.70896 8.24989 3.89416 8.14094 3.99805 7.97266C4.05244 7.88446 4.08392 7.78017 4.08398 7.66699C4.08398 7.34493 3.82202 7.08416 3.5 7.08398ZM12.167 2.41699C11.8449 2.41699 11.5842 2.67798 11.584 3C11.584 3.10127 11.6094 3.19502 11.6533 3.27637C11.753 3.46061 11.9462 3.58398 12.167 3.58398C12.4889 3.58381 12.7498 3.32191 12.75 3C12.7498 2.67809 12.4889 2.41717 12.167 2.41699Z" fill="#FF00FF"/>
</svg>
