<svg width="16" height="16" viewBox="0 0 16 16" fill="none" xmlns="http://www.w3.org/2000/svg">
<path fill-rule="evenodd" clip-rule="evenodd" d="M9.50021 1.25C10.4665 1.25021 11.2502 2.03363 11.2502 3V4.25H15.0002C15.2308 4.25014 15.449 4.35638 15.591 4.53809C15.733 4.72001 15.7836 4.95776 15.7277 5.18164L13.9172 12.4248C13.7224 13.2035 13.0217 13.7498 12.219 13.75H3.78048C2.97781 13.7498 2.2781 13.2035 2.08322 12.4248L0.272672 5.18164C0.21675 4.95765 0.267308 4.72006 0.409391 4.53809C0.551531 4.3564 0.769502 4.25 1.00021 4.25H4.75021V3C4.75021 2.03352 5.53374 1.25003 6.50021 1.25H9.50021ZM3.5383 12.0605C3.56612 12.1716 3.66599 12.2498 3.78048 12.25H12.219C12.3335 12.2498 12.4343 12.1717 12.4621 12.0605L14.0402 5.75H1.96017L3.5383 12.0605ZM6.50021 2.75C6.36217 2.75003 6.25021 2.86195 6.25021 3V4.25H9.75021V3C9.75021 2.86206 9.6381 2.75021 9.50021 2.75H6.50021Z" fill="#FF00FF"/>
</svg>
