<svg width="16" height="16" viewBox="0 0 16 16" fill="none" xmlns="http://www.w3.org/2000/svg">
<path d="M5 12.667C5.55228 12.667 6 13.1147 6 13.667C5.99982 14.2191 5.55218 14.667 5 14.667C4.44782 14.667 4.00018 14.2191 4 13.667C4 13.1147 4.44772 12.667 5 12.667ZM12.333 12.667C12.8853 12.667 13.333 13.1147 13.333 13.667C13.3328 14.2191 12.8852 14.667 12.333 14.667C11.781 14.6668 11.3332 14.219 11.333 13.667C11.333 13.1148 11.7809 12.6672 12.333 12.667ZM2.11914 1.92676C2.39141 1.97061 2.62161 2.16196 2.71094 2.42969L3.20703 3.91699H14.666C14.9031 3.91699 15.1261 4.02952 15.2676 4.21973C15.409 4.40992 15.4529 4.65577 15.3848 4.88281L13.3848 11.5488C13.2895 11.8659 12.9971 12.084 12.666 12.084H4.66602C4.33515 12.0837 4.04342 11.8657 3.94824 11.5488L1.95508 4.9043L1.45898 3.41699H0.333008V1.91699H2L2.11914 1.92676ZM5.22461 10.584H12.1084L13.6582 5.41699H3.6748L5.22461 10.584Z" fill="#FF00FF"/>
</svg>
