<svg width="16" height="16" viewBox="0 0 16 16" fill="none" xmlns="http://www.w3.org/2000/svg">
<path fill-rule="evenodd" clip-rule="evenodd" d="M12.2501 8C12.9793 8.00007 13.6788 8.29534 14.1944 8.82031C14.71 9.34527 15 10.1073 15.0001 10.8496C15.0001 12.2461 13.1314 14.2449 12.4747 14.9043C12.3478 15.0317 12.1514 15.0317 12.0245 14.9043C11.3676 14.2447 9.50009 12.246 9.50009 10.8496C9.50016 10.1072 9.79009 9.34528 10.3058 8.82031C10.8215 8.29532 11.5208 8 12.2501 8ZM9.50009 1.25C10.4665 1.25013 11.2501 2.03358 11.2501 3V4.25H15.0001C15.2308 4.25007 15.4488 4.35634 15.5909 4.53809C15.7329 4.72003 15.7835 4.95772 15.7276 5.18164L15.2276 7.18164L13.7725 6.81836L14.0401 5.75H1.96005L3.53817 12.0605C3.56602 12.1718 3.66664 12.25 3.78134 12.25H8.50009V13.75H3.78134C2.97846 13.75 2.278 13.2036 2.0831 12.4248L0.27255 5.18164C0.216628 4.95765 0.267187 4.72006 0.409269 4.53809C0.551408 4.35635 0.769347 4.25 1.00009 4.25H4.75009V3C4.75009 2.0335 5.53359 1.25 6.50009 1.25H9.50009ZM12.2501 9.75C11.6806 9.75 11.2189 10.22 11.2188 10.7998C11.2188 11.3797 11.6805 11.8496 12.2501 11.8496C12.8195 11.8495 13.2813 11.3796 13.2813 10.7998C13.2812 10.2201 12.8195 9.75013 12.2501 9.75ZM6.50009 2.75C6.36202 2.75 6.25009 2.86193 6.25009 3V4.25H9.75009V3C9.75009 2.86201 9.63805 2.75013 9.50009 2.75H6.50009Z" fill="#FF00FF"/>
</svg>
