<svg width="16" height="16" viewBox="0 0 16 16" fill="none" xmlns="http://www.w3.org/2000/svg">
<path d="M8 1.25C11.7279 1.25 14.75 4.27208 14.75 8C14.75 11.7279 11.7279 14.75 8 14.75C4.27208 14.75 1.25 11.7279 1.25 8C1.25 4.27208 4.27208 1.25 8 1.25ZM8 2.75C5.10051 2.75 2.75 5.10051 2.75 8C2.75 10.8995 5.10051 13.25 8 13.25C10.8995 13.25 13.25 10.8995 13.25 8C13.25 5.1005 10.8995 2.75 8 2.75ZM7.94824 4.30078C7.96449 4.24826 8.03551 4.24826 8.05176 4.30078L8.84082 6.85156C8.84808 6.87505 8.86907 6.8916 8.89258 6.8916H11.4453C11.4978 6.8916 11.5199 6.96163 11.4775 6.99414L9.41211 8.57129C9.39317 8.58574 9.3845 8.61136 9.3916 8.63477L10.1807 11.1865C10.1968 11.239 10.1402 11.2824 10.0977 11.25L8.03223 9.67285C8.01321 9.65833 7.98679 9.65833 7.96777 9.67285L5.90234 11.25C5.85984 11.2824 5.8032 11.239 5.81934 11.1865L6.60742 8.63477C6.61467 8.61128 6.6069 8.5858 6.58789 8.57129L4.52246 6.99414C4.48011 6.96163 4.50217 6.8916 4.55469 6.8916H7.10742C7.13093 6.8916 7.15192 6.87505 7.15918 6.85156L7.94824 4.30078Z" fill="#FF00FF"/>
</svg>
