<svg width="16" height="16" viewBox="0 0 16 16" fill="none" xmlns="http://www.w3.org/2000/svg">
<path d="M7.72559 0.763184C8.15524 0.786257 8.54192 0.980985 8.82324 1.26221L14.7373 7.17627C15.0185 7.45751 15.2131 7.84434 15.2363 8.27393L15.2354 8.46045C14.997 12.2499 11.8491 15.2495 8 15.2495C3.99594 15.2495 0.75 12.0036 0.75 7.99951C0.750222 4.15058 3.74975 1.00251 7.53906 0.76416L7.72559 0.763184ZM7.63281 2.26123C4.62879 2.45018 2.25022 4.94746 2.25 7.99951C2.25 11.1751 4.82436 13.7495 8 13.7495C11.0522 13.7495 13.5493 11.3709 13.7383 8.3667L13.7285 8.31201C13.7195 8.28957 13.7033 8.26333 13.6768 8.23682L7.7627 2.32275C7.73611 2.29623 7.70997 2.27993 7.6875 2.271L7.63281 2.26123ZM10.6709 10.0024C10.1688 11.0049 9.1889 11.7495 8 11.7495C6.8111 11.7495 5.8312 11.0049 5.3291 10.0024L6.6709 9.33057C6.96724 9.92217 7.4797 10.2495 8 10.2495C8.5203 10.2495 9.03276 9.92217 9.3291 9.33057L10.6709 10.0024Z" fill="#FF00FF"/>
</svg>
