<svg width="16" height="16" viewBox="0 0 16 16" fill="none" xmlns="http://www.w3.org/2000/svg">
<path fill-rule="evenodd" clip-rule="evenodd" d="M7.69043 1.81766C7.9199 1.71354 8.18918 1.7306 8.40527 1.86942L15.4053 6.36942C15.6198 6.50743 15.75 6.74515 15.75 7.00028C15.7498 7.25527 15.6198 7.49323 15.4053 7.63114L8.40527 12.1311C8.15837 12.2897 7.84163 12.2897 7.59473 12.1311L5.25 10.6233V14.0003H3.75V9.65946L0.594727 7.63114C0.380214 7.49323 0.250176 7.25527 0.25 7.00028C0.250005 6.74516 0.380173 6.50744 0.594727 6.36942L7.59473 1.86942L7.69043 1.81766ZM2.38574 7.00028L4.64551 8.45243L8.0498 5.90067L8.9502 7.09989L5.99121 9.31766L8 10.6087L13.6133 7.00028L8 3.39091L2.38574 7.00028Z" fill="#FF00FF"/>
</svg>
