<svg width="16" height="16" viewBox="0 0 16 16" fill="none" xmlns="http://www.w3.org/2000/svg">
<path d="M7.99951 12.5C8.82794 12.5 9.49951 13.1716 9.49951 14C9.49951 14.8284 8.82794 15.5 7.99951 15.5C7.17128 15.4998 6.49951 14.8283 6.49951 14C6.49951 13.1717 7.17128 12.5002 7.99951 12.5ZM8.00049 1C10.4832 1.00029 12.3335 2.89052 12.3335 5.28027C12.3335 6.49146 11.8369 7.50073 11.019 8.20801C10.451 8.69917 9.75254 9.02336 9.00049 9.19531V11H7.00049V7.39355L7.93799 7.33496L8.21631 7.30859C8.84827 7.22513 9.35978 6.99938 9.71143 6.69531C10.0944 6.36411 10.3335 5.90477 10.3335 5.28027C10.3335 3.9988 9.38233 3.00028 8.00049 3C6.60323 3 5.59182 4.02429 5.31592 5.46777L3.35107 5.09277C3.75863 2.95966 5.4068 1 8.00049 1Z" fill="#FF00FF"/>
</svg>
