<svg width="16" height="16" viewBox="0 0 16 16" fill="none" xmlns="http://www.w3.org/2000/svg">
<path d="M12.25 6V11.1895L13.9697 9.46973L15.0303 10.5303L12.0303 13.5303C11.8896 13.6709 11.6989 13.75 11.5 13.75C11.3509 13.75 11.2063 13.7055 11.084 13.624L10.9697 13.5303L7.96973 10.5303L9.03027 9.46973L10.75 11.1895V6H12.25ZM4.5 2.25C4.69889 2.25 4.88963 2.3291 5.03027 2.46973L8.03027 5.46973L6.96973 6.53027L5.25 4.81055V10H3.75V4.81055L2.03027 6.53027L0.969727 5.46973L3.96973 2.46973L4.08398 2.37598C4.20627 2.29445 4.35087 2.25002 4.5 2.25Z" fill="#FF00FF"/>
</svg>
