<svg width="16" height="16" viewBox="0 0 16 16" fill="none" xmlns="http://www.w3.org/2000/svg">
<path d="M9.46399 0.470215C13.6229 4.62908 13.6229 11.3719 9.46399 15.5308L8.40344 14.4702C11.9766 10.8972 11.9765 5.10384 8.40344 1.53076L9.46399 0.470215ZM7.5968 2.33643C10.7249 5.46439 10.7249 10.5366 7.5968 13.6646L7.06653 13.1343L6.53625 12.603C9.07832 10.0609 9.07826 5.94008 6.53625 3.39795L7.06653 2.8667L7.5968 2.33643ZM5.73059 4.20361C7.82732 6.30058 7.82738 9.70043 5.73059 11.7974L4.67004 10.7368C6.18104 9.22567 6.18099 6.77534 4.67004 5.26416L5.73059 4.20361ZM3.8634 6.06982C4.92948 7.13593 4.92953 8.86508 3.8634 9.93115L2.80286 8.87061C3.28316 8.39033 3.2831 7.61068 2.80286 7.13037L3.8634 6.06982Z" fill="#FF00FF"/>
</svg>
