<svg width="16" height="16" viewBox="0 0 16 16" fill="none" xmlns="http://www.w3.org/2000/svg">
<path d="M8 3.25C10.2944 3.25 11.7472 4.41342 12.5996 5.5498C13.0212 6.11189 13.3002 6.6706 13.4736 7.08691C13.4973 7.14369 13.5181 7.19842 13.5381 7.25H15V8.75H13.75V12.75H15V14.25H1V12.75H2.25V8.75H1V7.25H2.46191C2.48191 7.19842 2.50271 7.14369 2.52637 7.08691C2.69983 6.6706 2.97882 6.11189 3.40039 5.5498C4.25279 4.41342 5.70557 3.25 8 3.25ZM3.75 12.75H5.25V8.75H3.75V12.75ZM6.75 12.75H9.25V8.75H6.75V12.75ZM10.75 12.75H12.25V8.75H10.75V12.75ZM8 4.75C6.29465 4.75 5.24724 5.58668 4.59961 6.4502C4.3943 6.72398 4.23316 7.00055 4.10547 7.25H11.8945C11.7668 7.00055 11.6057 6.72398 11.4004 6.4502C10.7528 5.58668 9.70535 4.75 8 4.75ZM9.5 2H7.5V0.5H10L9.5 2Z" fill="#FF00FF"/>
</svg>
