<svg width="16" height="16" viewBox="0 0 16 16" fill="none" xmlns="http://www.w3.org/2000/svg">
<path d="M5.40039 2.75C6.19505 2.75005 7.02255 2.90035 7.6709 3.35742C7.78983 3.44129 7.89946 3.53371 8 3.63379C8.10054 3.53371 8.21017 3.44129 8.3291 3.35742C8.97745 2.90035 9.80495 2.75005 10.5996 2.75H14.5C14.9142 2.75 15.25 3.08579 15.25 3.5V11.9639C15.2499 12.378 14.9141 12.7139 14.5 12.7139H10.5996C9.94433 12.7139 9.47024 12.8295 9.17969 13.0244C8.9411 13.1845 8.75 13.4459 8.75 14H7.25C7.25 13.4459 7.0589 13.1845 6.82031 13.0244C6.52976 12.8295 6.05567 12.7139 5.40039 12.7139H1.5C1.08586 12.7139 0.750125 12.378 0.75 11.9639V3.5C0.75 3.08579 1.08579 2.75 1.5 2.75H5.40039ZM2.25 11.2139H5.40039C6.0261 11.2139 6.67971 11.2996 7.25 11.5576V5.59961C7.24991 5.04298 7.05611 4.75895 6.80664 4.58301C6.51414 4.3768 6.04135 4.25005 5.40039 4.25H2.25V11.2139ZM10.5996 4.25C9.95865 4.25005 9.48586 4.3768 9.19336 4.58301C8.94389 4.75895 8.75009 5.04298 8.75 5.59961V11.5576C9.32029 11.2996 9.9739 11.2139 10.5996 11.2139H13.75V4.25H10.5996Z" fill="#FF00FF"/>
</svg>
