<svg width="16" height="16" viewBox="0 0 16 16" fill="none" xmlns="http://www.w3.org/2000/svg">
<path d="M8 1.25C11.7279 1.25 14.75 4.27208 14.75 8C14.75 8.02479 14.7485 8.04955 14.7461 8.07422C14.6494 9.04126 14.3136 9.75958 13.7217 10.2158C13.1549 10.6527 12.4769 10.7498 11.9229 10.7686C11.6399 10.7781 11.3577 10.7672 11.1084 10.7568C10.8485 10.7461 10.6302 10.7357 10.4297 10.7393C9.9836 10.7472 9.89843 10.8274 9.89258 10.834C9.77778 10.9623 9.70721 11.1487 9.69141 11.4619C9.67422 11.8027 9.72146 12.1294 9.75293 12.5742C9.77839 12.9341 9.80746 13.49 9.55859 13.9541C9.24681 14.5355 8.65657 14.75 8 14.75C4.27208 14.75 1.25 11.7279 1.25 8C1.25 4.27208 4.27208 1.25 8 1.25ZM8 2.75C5.10051 2.75 2.75 5.10051 2.75 8C2.75 10.8995 5.10051 13.25 8 13.25C8.13768 13.25 8.2094 13.2326 8.24414 13.2207C8.24475 13.2185 8.24643 13.2164 8.24707 13.2139C8.25325 13.1893 8.25947 13.1526 8.26367 13.1016C8.27238 12.9952 8.26956 12.8595 8.25684 12.6797C8.23431 12.3614 8.17012 11.8483 8.19336 11.3867C8.21805 10.8974 8.33993 10.3185 8.77441 9.83301C9.2436 9.30883 9.93748 9.2485 10.4033 9.24023C10.6587 9.23571 10.9299 9.24784 11.1709 9.25781C11.4223 9.26821 11.6531 9.27598 11.873 9.26855C12.3249 9.25325 12.6148 9.17446 12.8057 9.02734C12.9687 8.9017 13.1754 8.63455 13.249 7.96191C13.2285 5.07995 10.8868 2.75 8 2.75ZM5.33301 8.5C5.88529 8.5 6.33301 8.94772 6.33301 9.5C6.33301 10.0523 5.88529 10.5 5.33301 10.5C4.78086 10.4998 4.33301 10.0522 4.33301 9.5C4.33301 8.94782 4.78086 8.50016 5.33301 8.5ZM5.33301 5.5C5.88529 5.5 6.33301 5.94772 6.33301 6.5C6.33301 7.05228 5.88529 7.5 5.33301 7.5C4.78086 7.49984 4.33301 7.05218 4.33301 6.5C4.33301 5.94782 4.78086 5.50016 5.33301 5.5ZM10.5 4.83301C11.0522 4.83301 11.4998 5.28087 11.5 5.83301C11.5 6.38529 11.0523 6.83301 10.5 6.83301C9.94771 6.83301 9.5 6.38529 9.5 5.83301C9.50018 5.28087 9.94782 4.83301 10.5 4.83301ZM7.66699 4C8.21914 4.00016 8.66699 4.44782 8.66699 5C8.66699 5.55218 8.21914 5.99984 7.66699 6C7.11471 6 6.66699 5.55228 6.66699 5C6.66699 4.44772 7.11471 4 7.66699 4Z" fill="#FF00FF"/>
</svg>
