<svg width="16" height="16" viewBox="0 0 16 16" fill="none" xmlns="http://www.w3.org/2000/svg">
<path d="M9.64429 1.69434C10.714 1.60519 11.7351 2.14714 12.2634 3.0791H12.2654L14.0837 6.05273L14.1013 6.08301C14.9255 7.58239 13.8407 9.41691 12.1296 9.41699H10.5701L11.2048 12.8008C11.3943 13.8136 10.6171 14.7497 9.58667 14.75C8.93197 14.7499 8.33895 14.362 8.07788 13.7617C7.56596 12.5839 7.09483 11.5561 6.33472 10.7002C5.59471 9.86701 4.54431 9.15911 2.81812 8.72754C2.48443 8.64406 2.24993 8.34395 2.24976 8V3C2.24994 2.61025 2.54889 2.28554 2.93726 2.25293L9.64429 1.69434ZM9.76929 3.18848L3.74976 3.69043V7.43066C5.42842 7.94122 6.5905 8.72989 7.45581 9.7041C8.39527 10.7619 8.94891 12.0013 9.45386 13.1631C9.47687 13.2158 9.5293 13.2499 9.58667 13.25C9.67797 13.2497 9.74669 13.1669 9.73022 13.0771L8.92944 8.80566C8.88836 8.58655 8.94737 8.36011 9.0896 8.18848C9.23204 8.01685 9.44372 7.91706 9.66675 7.91699H12.1296C12.6977 7.91691 13.0585 7.3102 12.7898 6.81152L10.9851 3.8623C10.9791 3.85254 10.9731 3.84207 10.9675 3.83203C10.7298 3.40008 10.2606 3.1477 9.76929 3.18848Z" fill="#FF00FF"/>
</svg>
