<svg width="16" height="16" viewBox="0 0 16 16" fill="none" xmlns="http://www.w3.org/2000/svg">
<path d="M9.58679 1.25C10.6175 1.25028 11.3949 2.18707 11.205 3.2002L10.5712 6.58301H12.1298C13.841 6.5831 14.9262 8.41849 14.1014 9.91797C14.096 9.92793 14.0898 9.93757 14.0839 9.94727L12.2655 12.9209L12.2635 12.9199C11.7354 13.8525 10.7145 14.3958 9.64441 14.3066L2.93738 13.7471C2.54884 13.7145 2.24988 13.3899 2.24988 13V8L2.26062 7.87305C2.31011 7.5841 2.52626 7.3455 2.81824 7.27246C4.54433 6.8409 5.59485 6.13295 6.33484 5.2998C7.09481 4.44404 7.56617 3.41686 8.078 2.23926C8.339 1.63876 8.9319 1.25005 9.58679 1.25ZM9.58679 2.75C9.5293 2.75005 9.47696 2.78405 9.45398 2.83691C8.94899 3.9988 8.3955 5.238 7.45593 6.2959C6.59067 7.27009 5.4284 8.05778 3.74988 8.56836V12.3096L9.76941 12.8115C10.2609 12.8523 10.73 12.6001 10.9677 12.168C10.9731 12.158 10.9793 12.1484 10.9852 12.1387L12.788 9.19141C13.0597 8.69217 12.699 8.0831 12.1298 8.08301H9.66687C9.44392 8.08297 9.23218 7.98399 9.08972 7.8125C8.94731 7.64087 8.88852 7.41452 8.92957 7.19531L9.73035 2.92383C9.74722 2.83382 9.67829 2.75028 9.58679 2.75Z" fill="#FF00FF"/>
</svg>
