<svg width="16" height="16" viewBox="0 0 16 16" fill="none" xmlns="http://www.w3.org/2000/svg">
<path d="M12.6377 1.7627C12.9486 1.82053 13.1969 2.07069 13.2432 2.39355C13.479 4.04447 13.2203 5.1649 12.4121 6.03809C12.039 6.44107 11.5785 6.75698 11.0996 7.04492C10.8727 7.18134 10.6106 7.32914 10.3379 7.48145L9.51074 7.94727C9.47849 7.96592 9.44489 7.98264 9.41211 8C9.44488 8.01736 9.47849 8.03408 9.51074 8.05273L10.3379 8.51855C10.6106 8.67086 10.8727 8.81867 11.0996 8.95508C11.5785 9.24302 12.039 9.55894 12.4121 9.96191C13.2203 10.8351 13.479 11.9555 13.2432 13.6064C13.1969 13.9293 12.9485 14.1795 12.6377 14.2373L12.5 14.25H3.5C3.17381 14.2498 2.8912 14.0399 2.79004 13.7402L2.75781 13.6064C2.52193 11.9554 2.78054 10.8351 3.58887 9.96191C3.96195 9.55906 4.42163 9.24295 4.90039 8.95508C5.35456 8.68202 5.95006 8.36519 6.49023 8.05273L6.58789 8L6.49023 7.94727C5.95005 7.63481 5.35456 7.31799 4.90039 7.04492C4.42162 6.75704 3.96196 6.44095 3.58887 6.03809C2.78054 5.16486 2.52193 4.04462 2.75781 2.39355L2.79004 2.25977C2.8912 1.96015 3.17381 1.75018 3.5 1.75H12.5L12.6377 1.7627ZM8.75977 9.35059C8.35155 9.11445 7.85181 9.08467 7.4209 9.26172L7.24121 9.35059C6.60645 9.71776 6.13854 9.96085 5.67383 10.2402C5.23388 10.5048 4.91791 10.7347 4.68945 10.9814C4.36176 11.3354 4.13479 11.8083 4.17969 12.75H11.8213C11.8661 11.8086 11.6391 11.3354 11.3115 10.9814C11.0831 10.7347 10.7671 10.5048 10.3271 10.2402C10.0948 10.1006 9.86164 9.96963 9.60742 9.82812L8.75977 9.35059ZM4.17969 3.25C4.13479 4.19172 4.36176 4.66455 4.68945 5.01855C4.91791 5.26529 5.23387 5.49523 5.67383 5.75977C6.13855 6.03916 6.60644 6.28224 7.24121 6.64941L7.4209 6.73828C7.85182 6.91534 8.35154 6.88555 8.75977 6.64941L9.60742 6.17188C9.86164 6.03036 10.0948 5.89944 10.3271 5.75977C10.7671 5.49523 11.0831 5.26532 11.3115 5.01855C11.6391 4.66458 11.8661 4.19145 11.8213 3.25H4.17969Z" fill="#FF00FF"/>
</svg>
