<svg width="16" height="16" viewBox="0 0 16 16" fill="none" xmlns="http://www.w3.org/2000/svg">
<path d="M12.5 1.75C13.4665 1.75 14.25 2.5335 14.25 3.5V7H12.75V3.5C12.75 3.36193 12.6381 3.25 12.5 3.25H3.5C3.36193 3.25 3.25 3.36193 3.25 3.5V12.5C3.25 12.6381 3.36193 12.75 3.5 12.75H7V14.25H3.5C2.5335 14.25 1.75 13.4665 1.75 12.5V3.5C1.75 2.5335 2.5335 1.75 3.5 1.75H12.5ZM15.5605 9.49805L11.5605 13.998C11.4137 14.1632 11.2014 14.2557 10.9805 14.25C10.7596 14.2442 10.5521 14.1413 10.4141 13.9688L8.41406 11.4688L9.58594 10.5312L11.0303 12.3369L14.4395 8.50195L15.5605 9.49805Z" fill="#FF00FF"/>
</svg>
