<svg width="16" height="16" viewBox="0 0 16 16" fill="none" xmlns="http://www.w3.org/2000/svg">
<path d="M11 1.25C13.1069 1.25 14.75 3.03665 14.75 5.1582C14.7499 6.95403 13.6688 8.61244 11.875 9.10547L11.6992 9.15039C10.3111 9.46481 8.93479 9.05046 7.79199 8.7207C6.64441 8.38957 5.70204 8.13251 4.80957 8.27832L4.63184 8.3125C3.50745 8.56731 2.75012 9.59118 2.75 10.8418C2.75 12.2084 3.79314 13.25 5 13.25C6.20686 13.25 7.25 12.2084 7.25 10.8418V10.2109H8.75V10.8418C8.75 12.9634 7.10685 14.75 5 14.75C2.89315 14.75 1.25 12.9634 1.25 10.8418C1.25013 8.98809 2.40209 7.27985 4.30078 6.84961L4.56055 6.7998C5.85984 6.58728 7.13651 6.97012 8.20801 7.2793C9.43197 7.63247 10.4226 7.90175 11.3682 7.6875L11.5742 7.63086C12.5841 7.304 13.2499 6.33081 13.25 5.1582C13.25 3.79164 12.2069 2.75 11 2.75C9.79314 2.75 8.75 3.79165 8.75 5.1582V5.78906H7.25V5.1582C7.25 3.03665 8.89315 1.25 11 1.25Z" fill="#FF00FF"/>
</svg>
