<svg width="16" height="16" viewBox="0 0 16 16" fill="none" xmlns="http://www.w3.org/2000/svg">
<path d="M8 2.75C9.55549 2.75 10.9779 3.32004 12.0713 4.25977L13.0039 3.4375L13.9961 4.5625L13.084 5.36621C13.817 6.39017 14.25 7.64488 14.25 9C14.25 12.4518 11.4518 15.25 8 15.25C4.54824 15.25 1.75003 12.4518 1.75 9C1.75 5.54822 4.54822 2.75 8 2.75ZM8 4.25C5.37665 4.25 3.25 6.37665 3.25 9C3.25003 11.6233 5.37667 13.75 8 13.75C10.6233 13.75 12.75 11.6233 12.75 9C12.75 7.83801 12.3334 6.77489 11.6406 5.94922L11.498 5.78711C10.6288 4.84134 9.38415 4.25 8 4.25ZM8.75 8.25H10.5V9.75H8C7.58581 9.75 7.25003 9.41419 7.25 9V6.5H8.75V8.25ZM10 2.25H6V0.75H10V2.25Z" fill="#FF00FF"/>
</svg>
