<svg width="16" height="16" viewBox="0 0 16 16" fill="none" xmlns="http://www.w3.org/2000/svg">
<path d="M2.87256 2.87268C5.70372 0.0415245 10.2951 0.0418075 13.1265 2.87268C15.9578 5.70398 15.9578 10.2953 13.1265 13.1266C10.2952 15.9579 5.70386 15.9579 2.87256 13.1266C0.0416854 10.2953 0.0414028 5.70384 2.87256 2.87268ZM12.0649 3.9342C9.81939 1.68912 6.17945 1.68883 3.93408 3.9342C1.68871 6.17958 1.689 9.81952 3.93408 12.0651C6.1796 14.3106 9.81943 14.3106 12.0649 12.0651C14.3105 9.81955 14.3105 6.17972 12.0649 3.9342ZM8.74951 7.74963H10.4995V9.24963H7.99951C7.5855 9.2494 7.24951 8.9137 7.24951 8.49963V4.99963H8.74951V7.74963Z" fill="#FF00FF"/>
</svg>
