<svg width="16" height="16" viewBox="0 0 16 16" fill="none" xmlns="http://www.w3.org/2000/svg">
<path d="M7.34082 2.25C8.67122 2.25 9.75 3.32878 9.75 4.65918C9.74988 5.79496 8.95629 6.77666 7.8457 7.01465L3.6875 7.90527C3.141 8.02238 2.75007 8.50556 2.75 9.06445C2.75 9.71913 3.28087 10.25 3.93555 10.25H12.1895L10.4697 8.53027L11.5303 7.46973L14.5303 10.4697C14.6709 10.6104 14.75 10.8011 14.75 11C14.75 11.1492 14.7056 11.2937 14.624 11.416L14.5303 11.5303L11.5303 14.5303L10.4697 13.4697L12.1895 11.75H3.93555C2.45244 11.75 1.25 10.5476 1.25 9.06445C1.25007 7.79825 2.13494 6.70379 3.37305 6.43848L7.53125 5.54785C7.95023 5.45807 8.24987 5.08765 8.25 4.65918C8.25 4.1572 7.8428 3.75 7.34082 3.75H4.5V2.25H7.34082Z" fill="#FF00FF"/>
</svg>
