<svg width="16" height="16" viewBox="0 0 16 16" fill="none" xmlns="http://www.w3.org/2000/svg">
<path d="M8.00012 1.25C9.55112 1.25 10.9281 1.99367 11.795 3.14355L13.4698 1.46973L14.5304 2.53027L12.5197 4.54004C12.6682 5.00018 12.7501 5.49044 12.7501 6V10C12.7501 12.6234 10.6235 14.75 8.00012 14.75C6.44864 14.75 5.07106 14.006 4.20422 12.8555L2.5304 14.5303L1.46985 13.4697L3.47961 11.459C3.33133 10.9992 3.25012 10.5091 3.25012 10V6C3.25012 3.37667 5.3768 1.25003 8.00012 1.25ZM5.2804 11.7793C5.86094 12.6649 6.86211 13.25 8.00012 13.25C9.79505 13.25 11.2501 11.7949 11.2501 10V6C11.2501 5.93804 11.2477 5.87653 11.2443 5.81543L5.2804 11.7793ZM8.00012 2.75C6.20522 2.75003 4.75012 4.20509 4.75012 6V10C4.75012 10.0616 4.75162 10.1228 4.755 10.1836L10.7189 4.21973C10.1382 3.33477 9.13765 2.75 8.00012 2.75Z" fill="#FF00FF"/>
</svg>
