<svg width="24" height="24" viewBox="0 0 24 24" fill="none" xmlns="http://www.w3.org/2000/svg">
<path d="M10.8967 2.19572C11.4809 1.52005 12.5185 1.52005 13.1027 2.19572L14.5363 3.85295C14.868 4.23616 15.3705 4.42053 15.8674 4.34123L17.9846 4.00334C18.8655 3.86274 19.6661 4.54498 19.6799 5.44865L19.7131 7.63322C19.7211 8.14535 19.9885 8.61745 20.4211 8.88225L22.2912 10.0258C23.0532 10.4919 23.2331 11.5329 22.6731 12.2338L21.3205 13.9262C21.0022 14.3244 20.909 14.8606 21.0734 15.3451L21.7766 17.4174C22.0661 18.2699 21.5468 19.1855 20.674 19.3598L18.5363 19.7856C18.0411 19.8844 17.6301 20.2347 17.4494 20.7123L16.6848 22.7338C16.3652 23.5785 15.3815 23.9407 14.6018 23.5004L12.7141 22.434C12.2702 22.1832 11.7302 22.1833 11.2863 22.434L9.39864 23.5004C8.6188 23.9409 7.63423 23.5787 7.31466 22.7338L6.55001 20.7123C6.36935 20.2347 5.95928 19.8844 5.46407 19.7856L3.32638 19.3598C2.45351 19.1856 1.9334 18.2699 2.22286 17.4174L2.92696 15.3451C3.0914 14.8606 2.99808 14.3244 2.67989 13.9262L1.32735 12.2338C0.76714 11.5329 0.947197 10.4919 1.70919 10.0258L3.57833 8.88225C4.01114 8.61749 4.27933 8.14547 4.28731 7.63322L4.32052 5.44865C4.33434 4.54504 5.13399 3.86286 6.01485 4.00334L8.13302 4.34123C8.62993 4.42053 9.13244 4.23626 9.46407 3.85295L10.8967 2.19572ZM11.0002 14.4643L8.75899 11.85L7.24142 13.1508L10.2414 16.6508L10.3166 16.7299C10.5009 16.9025 10.745 17.0004 11.0002 17.0004C11.292 17.0004 11.569 16.8723 11.759 16.6508L17.759 9.6508L16.2414 8.35002L11.0002 14.4643Z" fill="#FF00FF"/>
</svg>
