<svg width="24" height="24" viewBox="0 0 24 24" fill="none" xmlns="http://www.w3.org/2000/svg">
<path d="M11.4004 2.2002C11.7115 1.96699 12.1244 1.93738 12.4609 2.1123L12.5996 2.2002L20.5996 8.2002C20.8514 8.38905 21 8.68524 21 9V20C21 20.5523 20.5523 21 20 21H14C13.4477 21 13 20.5523 13 20V16H11V20C11 20.5523 10.5523 21 10 21H4C3.44772 21 3 20.5523 3 20V9C3 8.72451 3.11339 8.46295 3.31055 8.27539L3.40039 8.2002L11.4004 2.2002ZM5 9.49902V19H9V15C9 14.4477 9.44772 14 10 14H14C14.5523 14 15 14.4477 15 15V19H19V9.49902L12 4.24902L5 9.49902Z" fill="#FF00FF"/>
</svg>
