<svg width="24" height="24" viewBox="0 0 24 24" fill="none" xmlns="http://www.w3.org/2000/svg">
<path d="M18.9834 3.00781C19.2656 3.04257 19.5223 3.19608 19.6855 3.43359L22.3242 7.27344C22.4387 7.44006 22.5 7.63767 22.5 7.83984C22.5 9.17513 21.6476 10.2389 20.5 10.7197V20C20.5 20.5523 20.0523 21 19.5 21H4.5C3.94772 21 3.5 20.5523 3.5 20V10.7197C2.35241 10.2389 1.5 9.17513 1.5 7.83984C1.50003 7.63767 1.56128 7.44006 1.67578 7.27344L4.31445 3.43359L4.39062 3.33691C4.57904 3.12426 4.85069 3.00006 5.13867 3H18.8613L18.9834 3.00781ZM16.75 10.085C16.1257 10.6589 15.2725 11 14.375 11C13.4775 11 12.6243 10.6589 12 10.085C11.3757 10.6589 10.5225 11 9.625 11C8.72751 11 7.87435 10.6589 7.25 10.085C6.77291 10.5235 6.162 10.825 5.5 10.9434V19H18.5V10.9434C17.838 10.825 17.2271 10.5235 16.75 10.085ZM3.53711 8.09473C3.6689 8.56433 4.15418 9 4.875 9C5.7258 9 6.25 8.39331 6.25 7.83984C6.25008 7.28763 6.69777 6.83984 7.25 6.83984C7.76762 6.83984 8.19371 7.23325 8.24512 7.7373L8.25 7.83984L8.25586 7.94434C8.3166 8.46699 8.82741 9 9.625 9C10.4758 9 11 8.39331 11 7.83984C11.0001 7.28763 11.4478 6.83984 12 6.83984C12.5176 6.83984 12.9437 7.23325 12.9951 7.7373L13 7.83984L13.0059 7.94434C13.0666 8.46699 13.5774 9 14.375 9C15.2258 9 15.75 8.39331 15.75 7.83984C15.7501 7.28763 16.1978 6.83984 16.75 6.83984C17.2676 6.83984 17.6937 7.23325 17.7451 7.7373L17.75 7.83984L17.7559 7.94434C17.8166 8.46699 18.3274 9 19.125 9C19.8457 9 20.33 8.56423 20.4619 8.09473L18.335 5H5.66504L3.53711 8.09473Z" fill="#FF00FF"/>
</svg>
