<svg width="24" height="24" viewBox="0 0 24 24" fill="none" xmlns="http://www.w3.org/2000/svg">
<path d="M0.52368 7.73045C7.00447 0.089799 16.995 0.0898991 23.4758 7.73045C23.7868 8.09708 23.7701 8.63625 23.4524 8.99705L12.7502 21.1474C12.3521 21.5995 11.6474 21.5995 11.2493 21.1474L0.548094 8.99705C0.230384 8.63632 0.212863 8.0971 0.52368 7.73045ZM12.0002 13.5C11.1718 13.5 10.5002 14.1716 10.5002 15C10.5002 15.8284 11.1718 16.5 12.0002 16.5C12.8286 16.4999 13.5002 15.8284 13.5002 15C13.5002 14.1716 12.8286 13.5001 12.0002 13.5ZM11.0002 5.99998V11.5H13.0002V5.99998H11.0002Z" fill="#FF00FF"/>
</svg>
