<svg width="24" height="24" viewBox="0 0 24 24" fill="none" xmlns="http://www.w3.org/2000/svg">
<path d="M1.22361 8.47015C6.29771 2.22268 14.1976 1.29336 20.1103 5.85492L19.5 6.64593L18.8896 7.43793C14.0887 3.73402 7.75447 4.23121 3.33884 9.07953L12 18.5209L13.5566 16.8246L13.8437 16.5121L14.5801 17.1879L15.3174 17.8637L15.0302 18.1762L12.7373 20.6762C12.5479 20.8825 12.2801 21.0004 12 21.0004C11.7199 21.0004 11.452 20.8826 11.2627 20.6762L1.26267 9.77679C0.927514 9.41144 0.911249 8.85512 1.22361 8.47015ZM23.7588 8.65082L17.7588 15.6508C17.5688 15.8723 17.2918 16.0004 17 16.0004C16.7447 16.0004 16.5007 15.9026 16.3164 15.7299L16.2412 15.6508L13.2412 12.1508L14.7588 10.85L17 13.4643L22.2412 7.35004L23.7588 8.65082Z" fill="#FF00FF"/>
</svg>
