<svg width="24" height="24" viewBox="0 0 24 24" fill="none" xmlns="http://www.w3.org/2000/svg">
<path fill-rule="evenodd" clip-rule="evenodd" d="M4.92871 4.92871C8.83395 1.02347 15.166 1.02347 19.0713 4.92871C22.9765 8.83395 22.9765 15.166 19.0713 19.0713C15.166 22.9765 8.83395 22.9765 4.92871 19.0713C1.02347 15.166 1.02347 8.83395 4.92871 4.92871ZM17.6572 6.34277C14.533 3.21858 9.46697 3.21858 6.34277 6.34277C3.21858 9.46697 3.21858 14.533 6.34277 17.6572C9.46697 20.7814 14.533 20.7814 17.6572 17.6572C20.7814 14.533 20.7814 9.46697 17.6572 6.34277ZM13 7V12.5H11V7H13ZM12 17.5C12.8284 17.5 13.5 16.8284 13.5 16C13.5 15.1716 12.8284 14.5 12 14.5C11.1716 14.5 10.5 15.1716 10.5 16C10.5 16.8284 11.1716 17.5 12 17.5Z" fill="#FF00FF"/>
</svg>
