<svg width="24" height="24" viewBox="0 0 24 24" fill="none" xmlns="http://www.w3.org/2000/svg">
<path d="M12 0.5C12.2965 0.5 12.5776 0.631812 12.7676 0.859375L12.7705 0.862305C12.7718 0.863907 12.7732 0.866486 12.7754 0.869141C12.7799 0.874621 12.7869 0.881818 12.7949 0.891602C12.8112 0.911428 12.8341 0.940487 12.8633 0.976562C12.9216 1.0487 13.0043 1.1516 13.1025 1.27832C13.2986 1.53114 13.5619 1.88343 13.8271 2.27441C14.0901 2.6619 14.3681 3.10743 14.584 3.54492C14.7827 3.94761 15 4.47985 15 5C15 6.30574 14.1645 7.41299 13 7.8252V10H18.5C20.1569 10 21.5 11.3431 21.5 13V21C21.5 21.5523 21.0523 22 20.5 22H3.5C2.94772 22 2.5 21.5523 2.5 21V13C2.5 11.3431 3.84315 10 5.5 10H11V7.8252C9.83548 7.41299 9 6.30574 9 5C9 4.47985 9.21729 3.94761 9.41602 3.54492C9.63194 3.10743 9.90995 2.6619 10.1729 2.27441C10.4381 1.88343 10.7014 1.53114 10.8975 1.27832C10.9957 1.1516 11.0784 1.0487 11.1367 0.976562C11.1659 0.940487 11.1888 0.911428 11.2051 0.891602C11.2131 0.881818 11.2201 0.874621 11.2246 0.869141C11.2268 0.866486 11.2282 0.863907 11.2295 0.862305L11.2324 0.859375L11.3076 0.77832C11.4928 0.600655 11.7406 0.5 12 0.5ZM5.5 12C4.94772 12 4.5 12.4477 4.5 13V20H19.5V13C19.5 12.4477 19.0523 12 18.5 12H5.5ZM11.8271 3.39746C11.5901 3.74681 11.368 4.10747 11.209 4.42969C11.1298 4.59023 11.0732 4.727 11.0381 4.83691C11.0011 4.95266 11 5.00236 11 5C11 5.55228 11.4477 6 12 6C12.5523 6 13 5.55228 13 5C13 5.00236 12.9989 4.95266 12.9619 4.83691C12.9268 4.727 12.8702 4.59023 12.791 4.42969C12.632 4.10747 12.4099 3.74681 12.1729 3.39746C12.1158 3.31337 12.0564 3.23213 12 3.15234C11.9436 3.23213 11.8842 3.31337 11.8271 3.39746Z" fill="#FF00FF"/>
</svg>
