<svg width="24" height="24" viewBox="0 0 24 24" fill="none" xmlns="http://www.w3.org/2000/svg">
<path fill-rule="evenodd" clip-rule="evenodd" d="M13.0088 4.62598C13.2057 5.01043 13.2498 5.22067 13.25 5.27734C13.25 5.9407 12.7021 6.5 12 6.5C11.2979 6.5 10.75 5.9407 10.75 5.27734C10.7502 5.22067 10.7943 5.01043 10.9912 4.62598C11.1714 4.27428 11.4232 3.88357 11.6904 3.50781C11.7942 3.36186 11.8996 3.22201 12 3.08984C12.1004 3.22201 12.2058 3.36186 12.3096 3.50781C12.5768 3.88357 12.8286 4.27428 13.0088 4.62598ZM13 8.34277C14.3 7.92572 15.25 6.7186 15.25 5.27734C15.2499 4.71992 15.0123 4.15156 14.7881 3.71387C14.5464 3.24218 14.2357 2.7639 13.9404 2.34863C13.6426 1.92977 13.3462 1.55478 13.126 1.28516C13.0155 1.14984 12.9229 1.03971 12.8574 0.962891C12.8247 0.924525 12.7985 0.894091 12.7803 0.873047L12.7588 0.848633L12.7529 0.841797L12.75 0.838867C12.5602 0.623689 12.2869 0.5 12 0.5C11.749 0.5 11.5085 0.594129 11.3252 0.761719L11.25 0.838867L11.2471 0.841797L11.2412 0.848633L11.2197 0.873047C11.2015 0.894091 11.1753 0.924525 11.1426 0.962891C11.0771 1.03971 10.9845 1.14984 10.874 1.28516C10.6538 1.55478 10.3574 1.92977 10.0596 2.34863C9.76427 2.7639 9.45359 3.24218 9.21191 3.71387C8.98765 4.15156 8.75011 4.71992 8.75 5.27734C8.75 6.7186 9.70003 7.92572 11 8.34277V12H6C4.34315 12 3 13.3431 3 15V21.5C3 21.7761 3.22386 22 3.5 22H20.5C20.7761 22 21 21.7761 21 21.5V15C21 13.3431 19.6569 12 18 12H13V8.34277Z" fill="#FF00FF"/>
</svg>
