<svg width="24" height="24" viewBox="0 0 24 24" fill="none" xmlns="http://www.w3.org/2000/svg">
<path d="M5 4L19.5 4C21.1569 4 22.5 5.34315 22.5 7L22.5 17C22.5 18.6569 21.1569 20 19.5 20L5 20L5 22L3 22L3 2L5 2L5 4ZM5 18L19.5 18C20.0523 18 20.5 17.5523 20.5 17L20.5 7C20.5 6.44772 20.0523 6 19.5 6L5 6L5 18ZM10.25 9C10.3881 9 10.5 9.11193 10.5 9.25L10.5 11.25C10.5 11.3881 10.3881 11.5 10.25 11.5L7.25 11.5C7.11193 11.5 7 11.3881 7 11.25L7 9.25C7 9.11193 7.11193 9 7.25 9L10.25 9Z" fill="#FF00FF"/>
</svg>
