<svg width="24" height="24" viewBox="0 0 24 24" fill="none" xmlns="http://www.w3.org/2000/svg">
<path d="M10.1383 3.71282C12.6921 1.35267 16.6434 1.43169 19.1041 3.94915L19.3336 4.19622C21.5551 6.71147 21.5553 10.5434 19.3336 13.0585L19.1041 13.3056L11.9742 20.6005C10.207 22.4084 7.36698 22.4645 5.53284 20.7695L5.35803 20.6005C3.5466 18.7469 3.54656 15.75 5.35803 13.8964L12.4879 6.60149L12.7037 6.40228C13.8193 5.47225 15.4724 5.5388 16.5114 6.60149L16.7037 6.82024C17.5425 7.87169 17.5426 9.38313 16.7037 10.4345L16.5114 10.6523L9.38147 17.9472L8.66663 17.248L7.95081 16.5497L15.0807 9.25481L15.1403 9.18743C15.3975 8.86358 15.3977 8.39008 15.1403 8.06634L15.0807 7.99993C14.7772 7.68971 14.3054 7.66971 13.9811 7.94134L13.9186 7.99993L6.7887 15.2949C5.73691 16.3712 5.73694 18.1257 6.7887 19.2021L6.99084 19.3896C8.0353 20.2618 9.56902 20.199 10.5436 19.2021L17.6735 11.9072L17.8346 11.7343C19.3883 9.97404 19.3885 7.27962 17.8346 5.51946L17.6735 5.34661C15.9728 3.60717 13.2577 3.55268 11.4938 5.18353L11.3258 5.34661L10.3531 6.34173L9.63831 5.64251L8.92346 4.94427L9.89514 3.94915L10.1383 3.71282Z" fill="#FF00FF"/>
</svg>
