<svg width="24" height="24" viewBox="0 0 24 24" fill="none" xmlns="http://www.w3.org/2000/svg">
<path d="M12 2C17.5228 2 22 6.47715 22 12C22 17.5228 17.5228 22 12 22C6.47715 22 2 17.5228 2 12C2 6.47715 6.47715 2 12 2ZM12 4C7.58172 4 4 7.58172 4 12C4 16.4183 7.58172 20 12 20C16.4183 20 20 16.4183 20 12C20 7.58172 16.4183 4 12 4ZM10.9893 6.05078C11.1272 6.05084 11.2392 6.16281 11.2393 6.30078V7.625C11.2393 7.76307 11.3512 7.875 11.4893 7.875H12.9629C14.741 7.87515 15.9785 8.86551 15.9785 10.6162C15.9784 11.1606 15.7407 11.7049 15.4004 12.1104C15.2939 12.2374 15.3113 12.4368 15.4395 12.542C16.0287 13.0259 16.4004 13.759 16.4004 14.5762C16.4003 16.006 15.2634 17.1698 13.8428 17.2158H9.68066C9.51576 17.1974 9.41504 17.1055 9.41504 16.9131V10.293C9.41504 10.2062 9.46926 10.1282 9.55078 10.0986C9.76747 10.0198 9.71112 9.69922 9.48047 9.69922H7.84082C7.70275 9.69922 7.59082 9.58729 7.59082 9.44922V8.11621C7.59082 7.97814 7.70275 7.86621 7.84082 7.86621H9.17383C9.3118 7.86621 9.42366 7.75414 9.42383 7.61621V6.05078H10.9893ZM11.2207 9.64453C11.2257 9.64453 11.2304 9.64832 11.2305 9.65332V15.043C11.2396 15.2355 11.3493 15.3369 11.5234 15.3369H13.833C14.3555 15.2911 14.7685 14.851 14.7686 14.3193C14.7686 13.751 14.3095 13.293 13.7412 13.293H12.8887C12.7149 13.2928 12.5962 13.1917 12.5869 13.0088V11.8535C12.5869 11.6885 12.6878 11.5693 12.8711 11.5693L13.21 11.5508C13.7325 11.5508 14.1543 11.1198 14.1543 10.6064C14.1541 10.0932 13.7324 9.64453 13.21 9.64453H11.2207ZM9.42383 6.04785V6.05078H9.42188C9.41948 6.05078 9.41823 6.04759 9.41992 6.0459C9.42152 6.04482 9.42353 6.04593 9.42383 6.04785Z" fill="#FF00FF"/>
</svg>
