<svg width="24" height="24" viewBox="0 0 24 24" fill="none" xmlns="http://www.w3.org/2000/svg">
<path d="M19.8466 2.01212C20.2938 1.94239 20.7375 2.18383 20.9188 2.60685L23.7889 9.30314L23.828 9.40372C23.993 9.88524 23.9175 10.4792 23.5018 10.9008L23.4071 10.9887C22.4592 11.7946 21.201 12.1615 19.9999 12.1615C18.874 12.1615 17.6979 11.8393 16.7743 11.1352L16.5927 10.9887C16.0612 10.5368 15.9837 9.83261 16.2108 9.30216L18.287 4.45841L12.9999 5.7797V19.0004H15.9999V21.0004H7.99988V19.0004H10.9999V6.2797L5.3573 7.69083L7.78699 13.3012C8.0016 13.7972 7.94809 14.4389 7.51648 14.891L7.42468 14.9789C5.61083 16.5769 2.63986 16.6276 0.753784 15.1293L0.575073 14.9789C0.0601607 14.5251 -0.0161378 13.8303 0.212769 13.3012L3.01453 6.82755C3.08086 6.45063 3.36248 6.12958 3.75769 6.03068L19.7577 2.03068L19.8466 2.01212ZM2.21277 13.7133C3.24554 14.3808 4.75294 14.3804 5.78601 13.7133L3.99988 9.58829L2.21277 13.7133ZM18.2177 9.69669C18.7074 9.99179 19.3344 10.1615 19.9999 10.1615C20.665 10.1615 21.2915 9.99146 21.7811 9.69669L19.9999 5.53849L18.2177 9.69669Z" fill="#FF00FF"/>
</svg>
