<svg width="24" height="24" viewBox="0 0 24 24" fill="none" xmlns="http://www.w3.org/2000/svg">
<path d="M12.2246 2.69513L12.4473 2.73322L12.584 2.7713C12.8984 2.8726 13.1725 3.05763 13.3887 3.19415L22.0342 8.65411C22.4106 8.89184 22.5846 9.3505 22.4609 9.77814C22.3371 10.2057 21.9451 10.4998 21.5 10.4998H20V18.9998H22V20.9998H2V18.9998H4V10.4998H2.5C2.05487 10.4998 1.66289 10.2057 1.53906 9.77814C1.41542 9.35051 1.58946 8.89184 1.96582 8.65411L10.6113 3.19415L10.8105 3.06818C11.0227 2.9367 11.2736 2.79728 11.5527 2.73322L11.7754 2.69513C11.9246 2.67826 12.0754 2.67827 12.2246 2.69513ZM6 10.4998V18.9998H11V10.4998H6ZM13 10.4998V18.9998H18V10.4998H13ZM11.9941 4.6922L11.6797 4.88458L5.95605 8.49982H18.0439L12.3203 4.88458C12.1554 4.78046 12.0699 4.7272 12.0059 4.6922C12.0038 4.69107 12.0018 4.68929 12 4.68829C11.9981 4.6893 11.9962 4.69107 11.9941 4.6922Z" fill="#FF00FF"/>
</svg>
