<svg width="24" height="24" viewBox="0 0 24 24" fill="none" xmlns="http://www.w3.org/2000/svg">
<path d="M12.25 3.5C15.3435 3.5 17.8647 5.94298 17.9932 9.00488C20.9578 9.12822 23.3422 11.4964 23.4922 14.4541L23.5 14.75C23.5 17.9256 20.9256 20.5 17.75 20.5H11.75C8.65584 20.5 6.1333 18.056 6.00586 14.9932L5.9541 14.9922C2.91599 14.8382 0.5 12.3264 0.5 9.25C0.5 6.07436 3.07436 3.5 6.25 3.5H12.25ZM17.7275 11C16.987 13.3197 14.8153 15 12.25 15H8.00879C8.13745 16.9545 9.76296 18.5 11.75 18.5H17.75C19.8211 18.5 21.5 16.8211 21.5 14.75L21.4951 14.5566C21.3945 12.5754 19.7562 11 17.75 11H17.7275ZM11.5566 11.0049C10.1996 11.0738 9.03304 11.8642 8.43262 13H12.25C13.6888 13 14.9376 12.1892 15.5664 11H11.75L11.5566 11.0049ZM6.25 5.5C4.17893 5.5 2.5 7.17893 2.5 9.25C2.5 11.2562 4.07543 12.8945 6.05664 12.9951L6.25 13H6.27246C6.98432 10.7701 9.01875 9.13127 11.4541 9.00781L11.75 9H15.9912C15.8625 7.04551 14.237 5.5 12.25 5.5H6.25Z" fill="#FF00FF"/>
</svg>
