<svg width="24" height="24" viewBox="0 0 24 24" fill="none" xmlns="http://www.w3.org/2000/svg">
<path d="M22.7587 14.6504L16.7587 21.6504C16.5687 21.872 16.2918 22 15.9999 22C15.708 21.9999 15.431 21.872 15.2411 21.6504L12.2411 18.1504L13.7587 16.8496L15.9999 19.4639L21.2411 13.3496L22.7587 14.6504ZM19.1151 2.50684C19.3794 2.53743 19.6223 2.67258 19.788 2.88477C19.9774 3.12736 20.0451 3.44358 19.9706 3.74219C19.0104 7.58295 19.4999 10.3359 19.4999 12H17.4999C17.4999 10.8003 17.0922 8.05925 17.7616 4.5H5.76062C5.08566 7.17352 5.39985 9.30838 5.79871 11.6445C6.18628 13.9146 6.65183 16.3776 6.19421 19.5H10.9999V21.5H4.99988C4.69808 21.4999 4.41232 21.3636 4.22253 21.1289C4.03268 20.8941 3.95907 20.5853 4.02234 20.29C4.72726 16.9999 4.26572 14.55 3.82703 11.9805C3.38536 9.39351 2.97144 6.69441 4.0448 3.20605L4.10437 3.05469C4.27107 2.71905 4.61599 2.50012 4.99988 2.5H18.9999L19.1151 2.50684Z" fill="#FF00FF"/>
</svg>
