<svg width="24" height="24" viewBox="0 0 24 24" fill="none" xmlns="http://www.w3.org/2000/svg">
<path d="M5 19H9V21H4C3.44772 21 3 20.5523 3 20V15H5V19ZM21 20C21 20.2652 20.8946 20.5195 20.707 20.707C20.5195 20.8946 20.2652 21 20 21H15V19H19V15H21V20ZM15.8945 14.4482C15.1585 15.9176 13.7276 17 12 17C10.2724 17 8.84149 15.9176 8.10547 14.4482L9.89453 13.5518C10.3562 14.4735 11.1638 15 12 15C12.8362 15 13.6438 14.4735 14.1055 13.5518L15.8945 14.4482ZM9 5H5V9H3V4L3.00488 3.89746C3.05621 3.39333 3.48232 3 4 3H9V5ZM20.1025 3.00488C20.6067 3.05621 21 3.48232 21 4V9H19V5H15V3H20L20.1025 3.00488Z" fill="#FF00FF"/>
</svg>
