<svg width="24" height="24" viewBox="0 0 24 24" fill="none" xmlns="http://www.w3.org/2000/svg">
<path d="M16.9846 12.6754C16.7499 13.9931 16.1462 15.8166 15.3977 17.5484C14.6528 19.2719 13.7142 21.0218 12.7639 22.1451L11.2366 20.8541C11.9966 19.9557 12.8427 18.4183 13.5618 16.7545C14.2773 15.0988 14.8185 13.4322 15.0159 12.3238L16.9846 12.6754ZM9.88989 3.00548C14.7929 2.46084 17.9467 4.78983 19.3538 6.74474C20.7341 8.66268 21.2793 11.042 20.8645 13.357V13.358C20.5338 15.1975 19.6213 17.7438 18.9202 19.3912L17.0803 18.608C17.7602 17.0106 18.6043 14.6245 18.8958 13.0035C19.2141 11.226 18.7974 9.39482 17.7307 7.9127C16.6903 6.4672 14.207 4.53871 10.1106 4.99376L9.88989 3.00548ZM11.1614 6.95763C13.547 6.54482 15.7494 7.76174 16.8948 10.0524L15.1057 10.9469C14.3392 9.41402 13.0198 8.72356 11.6311 8.9088L11.3528 8.95763C10.7425 9.08976 10.2145 9.45819 9.71899 10.0719C9.21414 10.6974 8.78391 11.5283 8.37329 12.4869C7.94645 13.4835 7.61986 14.4164 7.20142 15.444C6.81233 16.3994 6.36687 17.3706 5.79028 18.1129L4.21021 16.8863C4.60466 16.3785 4.96527 15.6311 5.34888 14.6891C5.70319 13.8189 6.11759 12.6731 6.53442 11.6998C6.96748 10.6888 7.48423 9.65629 8.16333 8.81505C8.85192 7.96222 9.74648 7.25871 10.9299 7.00255L11.1614 6.95763ZM11.0159 11.8248C11.1126 11.2815 11.6315 10.919 12.175 11.0152C12.7184 11.1118 13.0806 11.631 12.9846 12.1744C12.8422 12.978 12.3569 14.1109 11.884 15.1012C11.393 16.1292 10.8491 17.1378 10.509 17.7428L9.63696 17.2525L8.76587 16.7623C9.09187 16.1824 9.61325 15.2148 10.0793 14.2389C10.5636 13.2249 10.9276 12.3233 11.0159 11.8248ZM8.44751 5.89415C7.23042 6.5027 6.35494 7.65168 5.64478 9.07188C4.91632 10.5288 4.47375 12.0086 3.92896 13.3707L2.07153 12.6285C2.52657 11.4908 3.0844 9.71998 3.85571 8.17735C4.6455 6.59789 5.77035 4.9964 7.55298 4.10509L8.44751 5.89415Z" fill="#FF00FF"/>
</svg>
