<svg width="24" height="24" viewBox="0 0 24 24" fill="none" xmlns="http://www.w3.org/2000/svg">
<path d="M4.92871 4.92871C8.83395 1.02347 15.166 1.02347 19.0713 4.92871C22.9765 8.83395 22.9765 15.166 19.0713 19.0713C15.166 22.9765 8.83395 22.9765 4.92871 19.0713C1.02347 15.166 1.02347 8.83395 4.92871 4.92871ZM7.0957 18.3174C10.2341 20.7601 14.7724 20.542 17.6572 17.6572C20.542 14.7724 20.7601 10.2341 18.3174 7.0957L7.0957 18.3174ZM16.9033 5.68164C13.7649 3.23978 9.22726 3.45828 6.34277 6.34277C3.45828 9.22726 3.23978 13.7649 5.68164 16.9033L16.9033 5.68164Z" fill="#FF00FF"/>
</svg>
