<svg width="24" height="24" viewBox="0 0 24 24" fill="none" xmlns="http://www.w3.org/2000/svg">
<path d="M20.207 4.79289C20.3945 4.98041 20.5 5.23474 20.5 5.49992C20.5 5.732 20.4192 5.95577 20.2734 6.13371L20.207 6.20695L15.707 10.707L14.293 9.29289L17.0859 6.49992H9.40039C8.26398 6.49993 7.47128 6.50033 6.85449 6.5507C6.32517 6.59396 5.99243 6.67009 5.74121 6.77824L5.6377 6.82707C5.14382 7.07879 4.73057 7.46161 4.44238 7.93156L4.32715 8.13762C4.19297 8.40097 4.10022 8.74927 4.05078 9.35442C4.0004 9.97122 4 10.7639 4 11.9003V13.1005L4.00684 14.5683C4.01333 14.9852 4.02561 15.3372 4.05078 15.6454C4.10023 16.2506 4.19296 16.5989 4.32715 16.8622C4.61471 17.4265 5.07347 17.8852 5.6377 18.1728L5.74121 18.2216C5.99244 18.3298 6.3251 18.4059 6.85449 18.4491C7.47129 18.4995 8.26395 18.4999 9.40039 18.4999H14.5996C15.736 18.4999 16.5287 18.4995 17.1455 18.4491C17.7507 18.3997 18.0989 18.307 18.3623 18.1728L18.5684 18.0575C19.0383 17.7693 19.4211 17.3561 19.6729 16.8622L19.7217 16.7587C19.8298 16.5075 19.906 16.1747 19.9492 15.6454C19.9744 15.3372 19.9867 14.9852 19.9932 14.5683L20 13.1005V11.9999H22V13.1005L21.9932 14.5995C21.986 15.0489 21.9717 15.4501 21.9424 15.8085C21.8903 16.4463 21.7876 17.0165 21.5605 17.5458L21.4551 17.7704C21.0056 18.6523 20.3053 19.3798 19.4443 19.8622L19.2695 19.955C18.6773 20.2567 18.0373 20.3828 17.3086 20.4423C16.5914 20.5009 15.7032 20.4999 14.5996 20.4999H9.40039C8.29681 20.4999 7.40857 20.5009 6.69141 20.4423C6.05358 20.3902 5.48345 20.2876 4.9541 20.0605L4.73047 19.955C3.84838 19.5056 3.12016 18.8054 2.6377 17.9443L2.54492 17.7704C2.24314 17.1781 2.11717 16.5374 2.05762 15.8085C2.02833 15.4501 2.01397 15.0489 2.00684 14.5995L2 13.1005V11.9003C2 10.7967 1.99902 9.9085 2.05762 9.19133C2.11716 8.46262 2.24325 7.82259 2.54492 7.23039L2.6377 7.05559C3.12015 6.19457 3.84845 5.49427 4.73047 5.04485L4.9541 4.93938C5.48342 4.71227 6.05362 4.60965 6.69141 4.55754C7.40856 4.49895 8.29684 4.49993 9.40039 4.49992H17.0859L14.293 1.70695L15.707 0.292892L20.207 4.79289Z" fill="#FF00FF"/>
</svg>
