<svg width="24" height="24" viewBox="0 0 24 24" fill="none" xmlns="http://www.w3.org/2000/svg">
<path d="M5.49951 11.25C5.49965 14.8396 8.40997 17.7497 11.9995 17.75C15.5893 17.75 18.4994 14.8397 18.4995 11.25V10.5H20.4995V11.25C20.4994 15.6059 17.2225 19.1944 12.9995 19.6894V23.25H10.9995V19.6894C6.77678 19.1941 3.49964 15.6057 3.49951 11.25V10.5H5.49951V11.25ZM11.9995 1.24997C14.2086 1.25 15.9994 3.04095 15.9995 5.24997V11.25C15.9995 13.4591 14.2086 15.25 11.9995 15.25C9.79065 15.2497 7.99956 13.4589 7.99951 11.25V5.24997C7.99962 3.04108 9.79067 1.25023 11.9995 1.24997ZM11.9995 3.24997C10.8952 3.25023 9.99962 4.14565 9.99951 5.24997V11.25C9.99956 12.3543 10.8952 13.2497 11.9995 13.25C13.104 13.25 13.9995 12.3545 13.9995 11.25V5.24997C13.9994 4.14551 13.104 3.24999 11.9995 3.24997Z" fill="#FF00FF"/>
</svg>
