<svg width="24" height="24" viewBox="0 0 24 24" fill="none" xmlns="http://www.w3.org/2000/svg">
<path fill-rule="evenodd" clip-rule="evenodd" d="M12.8332 14.0001L16.4665 9.64005C16.7756 9.26921 16.7756 8.73053 16.4665 8.35969L12.7682 3.92174C12.3684 3.44198 11.6316 3.44198 11.2318 3.92174L7.53349 8.35969C7.22445 8.73053 7.22445 9.26921 7.53349 9.64006L11.1668 14.0001L3.74272 14.0001C2.97057 14.0001 2.48975 14.838 2.87935 15.5046L5.80143 20.5046C5.98074 20.8115 6.30942 21.0001 6.6648 21.0001L17.3353 21.0001C17.6907 21.0001 18.0193 20.8115 18.1987 20.5046L21.1208 15.5046C21.5104 14.838 21.0295 14.0001 20.2574 14.0001L12.8332 14.0001Z" fill="#FF00FF"/>
</svg>
