<svg width="24" height="24" viewBox="0 0 24 24" fill="none" xmlns="http://www.w3.org/2000/svg">
<path d="M14.5 6C15.6046 6 16.5 6.89543 16.5 8V10H19.5C20.6046 10 21.5 10.8954 21.5 12V20C21.5 21.1046 20.6046 22 19.5 22H4.5C3.39543 22 2.5 21.1046 2.5 20V12C2.5 10.8954 3.39543 10 4.5 10H7.5V8C7.5 6.89543 8.39543 6 9.5 6H14.5ZM17.458 13.1592C17.4462 13.1663 17.4256 13.1788 17.3965 13.1953C17.3382 13.2284 17.2458 13.2786 17.1221 13.3408C16.8743 13.4654 16.5014 13.6364 16.0205 13.8086C15.0572 14.1534 13.672 14.5 12 14.5C10.328 14.5 8.94281 14.1534 7.97949 13.8086C7.49862 13.6364 7.12569 13.4654 6.87793 13.3408C6.75422 13.2786 6.66177 13.2284 6.60352 13.1953C6.5744 13.1788 6.55382 13.1663 6.54199 13.1592C6.53634 13.1558 6.53125 13.1523 6.53125 13.1523L6.53223 13.1533L5.46777 14.8467L5.47363 14.8496C5.4763 14.8513 5.47961 14.8541 5.4834 14.8564C5.49108 14.8612 5.5015 14.8667 5.51367 14.874C5.53845 14.8889 5.57229 14.9092 5.61523 14.9336C5.7013 14.9825 5.82356 15.0495 5.97949 15.1279C6.29113 15.2846 6.73929 15.4887 7.30566 15.6914C8.43741 16.0965 10.0524 16.5 12 16.5C13.9476 16.5 15.5626 16.0965 16.6943 15.6914C17.2607 15.4887 17.7089 15.2846 18.0205 15.1279C18.1764 15.0495 18.2987 14.9825 18.3848 14.9336C18.4277 14.9092 18.4615 14.8889 18.4863 14.874C18.4985 14.8667 18.5089 14.8612 18.5166 14.8564C18.5204 14.8541 18.5237 14.8513 18.5264 14.8496L18.5322 14.8467L17.4678 13.1533L17.4688 13.1523L17.458 13.1592ZM9.5 10H14.5V8H9.5V10Z" fill="#FF00FF"/>
</svg>
