<svg width="24" height="24" viewBox="0 0 24 24" fill="none" xmlns="http://www.w3.org/2000/svg">
<path d="M14.5 3C15.6046 3 16.5 3.89543 16.5 5V7H20.5C21.6046 7 22.5 7.89543 22.5 9V19C22.5 20.1046 21.6046 21 20.5 21H3.5C2.39543 21 1.5 20.1046 1.5 19V9C1.5 7.89543 2.39543 7 3.5 7H7.5V5C7.5 3.89543 8.39543 3 9.5 3H14.5ZM3.5 19H20.5V9H3.5V19ZM17.4678 11.1533L18.5322 12.8467L18.5264 12.8496C18.5237 12.8513 18.5204 12.8541 18.5166 12.8564C18.5089 12.8612 18.4985 12.8667 18.4863 12.874C18.4615 12.8889 18.4277 12.9092 18.3848 12.9336C18.2987 12.9825 18.1764 13.0495 18.0205 13.1279C17.7089 13.2846 17.2607 13.4887 16.6943 13.6914C15.5626 14.0965 13.9476 14.5 12 14.5C10.0524 14.5 8.43741 14.0965 7.30566 13.6914C6.73929 13.4887 6.29113 13.2846 5.97949 13.1279C5.82356 13.0495 5.7013 12.9825 5.61523 12.9336C5.57229 12.9092 5.53845 12.8889 5.51367 12.874C5.5015 12.8667 5.49108 12.8612 5.4834 12.8564C5.47961 12.8541 5.4763 12.8513 5.47363 12.8496L5.46777 12.8467L6.53223 11.1533L6.53125 11.1523C6.53285 11.1533 6.53634 11.1558 6.54199 11.1592C6.55382 11.1663 6.5744 11.1788 6.60352 11.1953C6.66177 11.2284 6.75422 11.2786 6.87793 11.3408C7.12569 11.4654 7.49862 11.6364 7.97949 11.8086C8.94281 12.1534 10.328 12.5 12 12.5C13.672 12.5 15.0572 12.1534 16.0205 11.8086C16.5014 11.6364 16.8743 11.4654 17.1221 11.3408C17.2458 11.2786 17.3382 11.2284 17.3965 11.1953C17.4256 11.1788 17.4462 11.1663 17.458 11.1592L17.4688 11.1523L17.4678 11.1533ZM9.5 7H14.5V5H9.5V7Z" fill="#FF00FF"/>
</svg>
