<svg width="24" height="24" viewBox="0 0 24 24" fill="none" xmlns="http://www.w3.org/2000/svg">
<g clip-path="url(#clip0_2_6574)">
<path d="M19.6426 4.5C20.5253 4.50007 20.9748 5.56064 20.3613 6.19531L8.08984 18.8896C7.71301 19.2795 7.19356 19.5 6.65137 19.5H4C2.89543 19.5 2 18.6046 2 17.5V6.5C2 5.39543 2.89543 4.5 4 4.5H19.6426ZM13.4326 15.8652C14.1464 15.092 15.3167 15.0789 16.0469 15.8359C16.7772 16.5933 16.791 17.8348 16.0771 18.6084C15.1502 19.6129 12.7303 19.7895 12 19.0322C13.1031 18.4317 12.7188 16.6388 13.4326 15.8652ZM23.0664 7.65039C23.2843 7.44521 23.6214 7.45102 23.833 7.66309C24.0442 7.87524 24.0567 8.21967 23.8613 8.44727L18.083 15.1729C17.8036 15.4979 17.3151 15.5165 17.0127 15.2139L16.6143 14.8145C16.312 14.5114 16.3196 14.0102 16.6309 13.7168L23.0664 7.65039ZM6.25 8.25C6.11193 8.25 6 8.36193 6 8.5V11C6 11.1381 6.11193 11.25 6.25 11.25H9.5C9.63807 11.25 9.75 11.1381 9.75 11V8.5C9.75 8.36193 9.63807 8.25 9.5 8.25H6.25Z" fill="#FF00FF"/>
</g>
<defs>
<clipPath id="clip0_2_6574">
<rect width="24" height="24" fill="white"/>
</clipPath>
</defs>
</svg>
