<svg width="24" height="24" viewBox="0 0 24 24" fill="none" xmlns="http://www.w3.org/2000/svg">
<path d="M23.707 13.707L20.4141 17L23.707 20.293L22.293 21.707L19 18.4141L15.707 21.707L14.293 20.293L17.5859 17L14.293 13.707L15.707 12.293L19 15.5859L22.293 12.293L23.707 13.707ZM19.5 4C21.1569 4 22.5 5.34315 22.5 7V10H20.5V7C20.5 6.44772 20.0523 6 19.5 6H4.5C3.94772 6 3.5 6.44772 3.5 7V17C3.5 17.5523 3.94772 18 4.5 18H12V20H4.5C2.84315 20 1.5 18.6569 1.5 17V7C1.5 5.34315 2.84315 4 4.5 4H19.5Z" fill="#FF00FF"/>
</svg>
