<svg width="24" height="24" viewBox="0 0 24 24" fill="none" xmlns="http://www.w3.org/2000/svg">
<path d="M13 5.99986H4.5C3.94772 5.99986 3.5 6.44758 3.5 6.99986V16.9999C3.50005 17.5521 3.94774 17.9999 4.5 17.9999H19.5C20.0523 17.9999 20.5 17.5521 20.5 16.9999V12.9999H22.5V16.9999C22.5 18.6567 21.1568 19.9999 19.5 19.9999H4.5C2.84318 19.9999 1.50005 18.6567 1.5 16.9999V6.99986C1.5 5.34301 2.84315 3.99986 4.5 3.99986H13V5.99986ZM18.9014 2.99986C19.0175 2.56887 19.6289 2.56891 19.7451 2.99986L20.3701 5.32115C20.4106 5.47154 20.5283 5.58925 20.6787 5.62975L23 6.25475C23.4311 6.37085 23.4311 6.98239 23 7.0985L20.6787 7.7235C20.5283 7.76399 20.4106 7.8817 20.3701 8.03209L19.7451 10.3534C19.6289 10.7843 19.0175 10.7844 18.9014 10.3534L18.2764 8.03209C18.2359 7.8817 18.1182 7.76399 17.9678 7.7235L15.6465 7.0985C15.2157 6.98226 15.2157 6.37098 15.6465 6.25475L17.9678 5.62975C18.1182 5.58925 18.2359 5.47154 18.2764 5.32115L18.9014 2.99986Z" fill="#FF00FF"/>
</svg>
