<svg width="24" height="24" viewBox="0 0 24 24" fill="none" xmlns="http://www.w3.org/2000/svg">
<path d="M19.5 19.5C20.19 19.5 20.75 20.06 20.75 20.75C20.75 21.44 20.19 22 19.5 22C18.81 22 18.25 21.44 18.25 20.75C18.25 20.06 18.81 19.5 19.5 19.5ZM19.5 4C21.1569 4 22.5 5.34315 22.5 7V9H20.5V7C20.5 6.44772 20.0523 6 19.5 6H4.5C3.94772 6 3.5 6.44772 3.5 7V17C3.5 17.5523 3.94772 18 4.5 18H16V20H4.5C2.84315 20 1.5 18.6569 1.5 17V7C1.5 5.34315 2.84315 4 4.5 4H19.5ZM19.5 10.5C21.4997 10.5 22.9998 12.0291 23 13.96C23 14.9417 22.5956 15.7682 21.9277 16.3457C21.5167 16.701 21.0255 16.9457 20.5 17.0918V18H18.5V15.3105L19.4375 15.252C19.9656 15.219 20.3683 15.0498 20.6201 14.832C20.8528 14.6307 21 14.3549 21 13.96C20.9999 13.1374 20.3989 12.5 19.5 12.5C18.6017 12.5 17.9229 13.1512 17.7324 14.1475L15.7676 13.7725C16.0897 12.0865 17.4053 10.5 19.5 10.5Z" fill="#FF00FF"/>
</svg>
