<svg width="24" height="24" viewBox="0 0 24 24" fill="none" xmlns="http://www.w3.org/2000/svg">
<path d="M18.6191 11.6191L17.6133 12.625H18.5C20.9162 12.625 22.875 14.5838 22.875 17C22.875 19.4162 20.9162 21.375 18.5 21.375C16.0838 21.375 14.125 19.4162 14.125 17H15.875C15.875 18.4497 17.0503 19.625 18.5 19.625C19.9497 19.625 21.125 18.4497 21.125 17C21.125 15.5503 19.9497 14.375 18.5 14.375H17.6133L18.6191 15.3809L17.3809 16.6191L14.8809 14.1191C14.5392 13.7774 14.5392 13.2226 14.8809 12.8809L17.3809 10.3809L18.6191 11.6191ZM19.5 4C21.1569 4 22.5 5.34315 22.5 7V11H20.5V7C20.5 6.44772 20.0523 6 19.5 6L4.5 6C3.94772 6 3.5 6.44772 3.5 7L3.5 17C3.5 17.5523 3.94772 18 4.5 18H12V20H4.5C2.84315 20 1.5 18.6569 1.5 17L1.5 7C1.5 5.34315 2.84315 4 4.5 4L19.5 4Z" fill="#FF00FF"/>
</svg>
