<svg width="24" height="24" viewBox="0 0 24 24" fill="none" xmlns="http://www.w3.org/2000/svg">
<path d="M11 6H4.5C3.94772 6 3.5 6.44772 3.5 7V17C3.5 17.5523 3.94772 18 4.5 18H19.5C20.0523 18 20.5 17.5523 20.5 17V11.5H22.5V17C22.5 18.6569 21.1569 20 19.5 20H4.5C2.84315 20 1.5 18.6569 1.5 17V7C1.5 5.34315 2.84315 4 4.5 4H11V6ZM15.1553 4.05176C15.1553 2.47498 16.7872 1.49228 18.0928 2.27441L20.0684 3.45703L22.0156 4.62207C23.3269 5.41054 23.3271 7.39412 22.0215 8.18848L20.0742 9.35352L18.0986 10.5361C16.793 11.3243 15.1611 10.3356 15.1611 8.75879V8.44727C15.1611 8.37638 15.1431 8.30658 15.1094 8.24512C15.0755 8.18361 15.0264 8.1324 14.9678 8.09668C14.9093 8.0611 14.8431 8.04149 14.7754 8.04102C14.7075 8.04058 14.6401 8.05878 14.5811 8.09375L12.7803 9.17676L10.9854 10.2539C10.9265 10.2892 10.8778 10.34 10.8438 10.4014C10.8097 10.4628 10.791 10.5325 10.791 10.6035C10.791 10.6746 10.8097 10.7442 10.8438 10.8057C10.8778 10.8671 10.9264 10.9188 10.9854 10.9541L12.7803 12.0303L14.5811 13.1133C14.6401 13.1482 14.7075 13.1664 14.7754 13.166C14.8431 13.1655 14.9092 13.1459 14.9678 13.1104C15.0264 13.0746 15.0755 13.0234 15.1094 12.9619C15.1431 12.9005 15.1611 12.8306 15.1611 12.7598V12.1309C15.1607 12.0611 15.1779 11.9922 15.2109 11.9316C15.244 11.871 15.292 11.8204 15.3496 11.7852C15.4071 11.7501 15.4724 11.7318 15.5391 11.7314C15.6058 11.7311 15.6716 11.7486 15.7295 11.7832L16.6465 12.3301C16.7067 12.3648 16.7573 12.4164 16.792 12.4785C16.8267 12.5407 16.8445 12.6116 16.8438 12.6836V12.9482C16.8438 14.5251 15.2119 15.5079 13.9062 14.7256L11.9307 13.543L9.9834 12.3779C8.67211 11.5895 8.67211 9.60585 9.9834 8.81738L11.9307 7.65234L13.9004 6.46387C15.206 5.67546 16.8379 6.66429 16.8379 8.24121V8.55273C16.8379 8.62358 16.8559 8.69345 16.8896 8.75488C16.9235 8.81639 16.9726 8.8676 17.0312 8.90332C17.0899 8.93902 17.1568 8.95855 17.2246 8.95898C17.2923 8.95933 17.3591 8.94112 17.418 8.90625L19.2188 7.82324L21.0137 6.74609C21.0726 6.71074 21.1222 6.66011 21.1562 6.59863C21.1902 6.53722 21.208 6.46744 21.208 6.39648C21.208 6.32554 21.1902 6.25575 21.1562 6.19434C21.1222 6.13286 21.0726 6.08125 21.0137 6.0459L19.2188 4.96973L17.418 3.88672C17.359 3.85183 17.2923 3.83364 17.2246 3.83398C17.1567 3.83442 17.0899 3.85393 17.0312 3.88965C16.9726 3.92537 16.9235 3.97657 16.8896 4.03809C16.8559 4.0995 16.8379 4.16942 16.8379 4.24023V4.86914C16.8383 4.9389 16.8211 5.00775 16.7881 5.06836C16.7551 5.12887 16.7079 5.17966 16.6504 5.21484C16.5928 5.25004 16.5267 5.26823 16.46 5.26855C16.3933 5.26886 16.3274 5.2514 16.2695 5.2168L15.3525 4.66992C15.2923 4.63517 15.2417 4.58365 15.207 4.52148C15.1724 4.45933 15.1545 4.38835 15.1553 4.31641V4.05176Z" fill="#FF00FF"/>
</svg>
