<svg width="24" height="24" viewBox="0 0 24 24" fill="none" xmlns="http://www.w3.org/2000/svg">
<path d="M14 5.99998H4.5C3.94772 5.99998 3.5 6.44769 3.5 6.99998V17C3.50012 17.5522 3.94779 18 4.5 18H19.5C20.0522 18 20.4999 17.5522 20.5 17V13.5H22.5V17C22.4999 18.6567 21.1568 20 19.5 20H4.5C2.84322 20 1.50012 18.6567 1.5 17V6.99998C1.5 5.34312 2.84315 3.99998 4.5 3.99998H14V5.99998ZM19.5908 3.09959C19.9829 2.78142 20.5601 2.80424 20.9258 3.16795L23.5615 5.79099C23.7495 5.97809 23.8558 6.23283 23.8564 6.49802C23.8568 6.72982 23.776 6.95372 23.6309 7.13181L23.5645 7.20603L17.6992 13.0898C17.3998 13.3903 17.0404 13.6234 16.6455 13.7744L16.4746 13.834L13.0879 14.8984C12.7333 15.0099 12.3465 14.9155 12.083 14.6533C11.8196 14.3911 11.7233 14.0045 11.833 13.6494L12.8779 10.2685L12.9375 10.0947C13.0885 9.69497 13.3231 9.33078 13.627 9.0283L19.5146 3.16795L19.5908 3.09959ZM15.0381 10.4453C14.9512 10.5318 14.881 10.6339 14.8311 10.7451L14.7881 10.8594L14.3057 12.4199L15.875 11.9267L15.9873 11.8828C16.0969 11.8331 16.1978 11.7644 16.2832 11.6787L21.4404 6.50291L20.2197 5.28806L15.0381 10.4453Z" fill="#FF00FF"/>
</svg>
