<svg width="24" height="24" viewBox="0 0 24 24" fill="none" xmlns="http://www.w3.org/2000/svg">
<path d="M15.0156 2C17.0329 2 18.0247 1.99992 19.1143 2.34277C20.2971 2.77136 21.2296 3.70391 21.6582 4.8877C22.0001 5.96766 22 6.97001 22 8.97852V15.0215C22 17.0271 22.0001 18.0295 21.6582 19.1123C21.2296 20.2961 20.2981 21.2286 19.1143 21.6572C18.0342 22.0001 17.0331 22 15.0254 22H8.96582C6.96111 22 5.95887 22.0001 4.87695 21.6572C3.69416 21.2286 2.76157 20.296 2.33301 19.1123C1.99971 18.0324 2 17.0385 2 15.0215V8.96973C2 6.96401 1.99988 5.96176 2.3418 4.87891C2.7704 3.69514 3.70286 2.76255 4.88574 2.33398C5.95718 2.00066 6.96111 2 8.96582 2H15.0156ZM12.7812 5.39453C12.5918 5.39463 12.4267 5.52627 12.3857 5.71191L12.1777 6.73145C10.1976 6.82859 8.51855 7.80984 8.51855 9.82031C8.51872 11.5572 9.9064 12.3043 11.373 12.8271C12.7606 13.3433 13.496 13.5352 13.4961 14.2617C13.4961 14.9883 12.7625 15.4462 11.6826 15.4463C10.635 15.4625 9.62141 15.0666 8.86328 14.3428C8.70622 14.1886 8.45505 14.1887 8.29883 14.3428L7.4707 15.1523C7.31175 15.3056 7.30693 15.5587 7.45996 15.7178C7.46375 15.7216 7.46692 15.7257 7.4707 15.7285C8.14502 16.3599 8.96898 16.8115 9.86426 17.04L9.63281 18.0967C9.5871 18.3195 9.73026 18.5383 9.95312 18.584C9.97682 18.5887 10.0017 18.5928 10.0264 18.5928H11.5176C11.709 18.5937 11.876 18.4601 11.916 18.2734L12.1309 17.2715C14.5032 17.1258 15.9539 15.8488 15.9541 13.9795C15.9541 12.2586 14.5082 11.5318 12.7529 10.9395C11.8117 10.5858 10.9904 10.3456 10.8916 9.70312L10.8818 9.57129C10.8819 8.82663 11.6915 8.55762 12.501 8.55762C13.4837 8.55963 14.4342 8.90881 15.1836 9.54395C15.3445 9.68952 15.5909 9.6845 15.7451 9.53223L16.5176 8.75684C16.6728 8.60255 16.6738 8.3525 16.5195 8.19727C16.5119 8.19061 16.5047 8.18243 16.4971 8.17578C15.8904 7.65963 15.1888 7.26714 14.4316 7.01953L14.6631 5.87793C14.7078 5.66005 14.5683 5.44832 14.3506 5.40332C14.324 5.39763 14.2961 5.39456 14.2686 5.39453H12.7812Z" fill="#FF00FF"/>
</svg>
