<svg width="24" height="24" viewBox="0 0 24 24" fill="none" xmlns="http://www.w3.org/2000/svg">
<path d="M5 19H9V21H4C3.44772 21 3 20.5523 3 20V15H5V19ZM21 20L20.9951 20.0986C20.9724 20.3276 20.8712 20.5429 20.707 20.707C20.5195 20.8946 20.2652 21 20 21H15V19H19V15H21V20ZM13.9697 6C14.1906 6 14.3555 6.21239 14.3105 6.43848L14.1025 7.47656C14.8387 7.72897 15.4372 8.12357 15.8828 8.52441C16.0339 8.66042 16.0385 8.90406 15.8984 9.05273L15.2344 9.75781C15.1019 9.89796 14.8911 9.89847 14.75 9.76758C14.1919 9.24924 13.3374 8.87122 12.4463 8.87109C11.7488 8.87109 11.05 9.13266 11.0498 9.79297C11.0498 10.4709 11.7981 10.6967 12.6621 11.0273C14.1741 11.5663 15.4199 12.2274 15.4199 13.792C15.4199 15.4925 14.1696 16.6542 12.127 16.7861L11.9414 17.7109C11.9076 17.8804 11.764 18.0013 11.5986 18L10.3135 17.9902C10.0929 17.9884 9.9299 17.7752 9.97559 17.5498L10.1709 16.5889C9.36696 16.3597 8.66284 15.9499 8.10645 15.3848C7.96583 15.2422 7.96396 15.0053 8.10352 14.8613L8.81738 14.125C8.95266 13.9853 9.16941 13.9863 9.30469 14.126C9.99435 14.8375 10.883 15.1309 11.7314 15.1309C12.662 15.1309 13.2929 14.7308 13.293 14.0527C13.293 13.3923 12.662 13.2182 11.4658 12.749C10.2031 12.2797 9.00684 11.6008 9.00684 10.0186C9.00705 8.19111 10.4533 7.30014 12.1592 7.21094L12.3467 6.28809C12.3809 6.12018 12.5225 6 12.6865 6H13.9697ZM9 5H5V9H3V4L3.00488 3.90137C3.02757 3.67237 3.12883 3.45711 3.29297 3.29297C3.48051 3.10543 3.73478 3 4 3H9V5ZM20.1025 3.00488C20.6067 3.05621 21 3.48232 21 4V9H19V5H15V3H20L20.1025 3.00488Z" fill="#FF00FF"/>
</svg>
