<svg width="24" height="24" viewBox="0 0 24 24" fill="none" xmlns="http://www.w3.org/2000/svg">
<path d="M13.5116 4C14.8364 4 16.0049 4.86882 16.3856 6.1377L17.3905 9.49023L23.7323 16.3193C24.0675 16.6803 24.0907 17.2322 23.786 17.6191C23.4814 18.006 22.94 18.113 22.5106 17.8721C18.5463 15.6461 15.3447 17.139 11.8075 18.668C10.0939 19.4087 8.24137 20.1786 6.31532 20.249C4.30898 20.3223 2.31805 19.6409 0.309456 17.7236C-0.0631359 17.368 -0.10448 16.7869 0.213753 16.3818L5.59559 9.53125L6.61414 6.1377L6.6952 5.90527C7.14197 4.76406 8.24604 4 9.48817 4H13.5116ZM2.37196 16.8711C3.75866 17.9719 5.02398 18.2954 6.24207 18.251C7.73709 18.1964 9.25702 17.5913 11.0136 16.832C13.4842 15.7641 16.339 14.415 19.6083 14.8164L16.0643 11H6.98621L2.37196 16.8711ZM9.48817 6C9.10179 6 8.75531 6.22178 8.58973 6.56055L8.53016 6.71289L7.84364 9H15.1561L14.4696 6.71289C14.3427 6.28991 13.9532 6 13.5116 6H9.48817Z" fill="#FF00FF"/>
</svg>
