<svg width="24" height="24" viewBox="0 0 24 24" fill="none" xmlns="http://www.w3.org/2000/svg">
<path d="M10.75 15C12.5449 15 14 16.4551 14 18.25V18.5C14 20.1569 12.6569 21.5 11 21.5C9.34315 21.5 8 20.1569 8 18.5H10C10 19.0523 10.4477 19.5 11 19.5C11.5523 19.5 12 19.0523 12 18.5V18.25C12 17.5597 11.4403 17 10.75 17H2V15H10.75ZM18.75 11C20.5449 11 22 12.4551 22 14.25V14.5C22 16.1569 20.6569 17.5 19 17.5C17.3431 17.5 16 16.1569 16 14.5H18C18 15.0523 18.4477 15.5 19 15.5C19.5523 15.5 20 15.0523 20 14.5V14.25C20 13.5597 19.4403 13 18.75 13H2V11H18.75ZM12 2C16.2681 2 20 4.99494 20 9H18C18 6.37764 15.4639 4 12 4C8.53612 4 6 6.37764 6 9H4C4 4.99494 7.7319 2 12 2Z" fill="#FF00FF"/>
</svg>
