<svg width="24" height="24" viewBox="0 0 24 24" fill="none" xmlns="http://www.w3.org/2000/svg">
<path d="M10.3564 3.51394C10.7902 3.44054 11.2263 3.66091 11.4219 4.06277L11.4229 4.06472C11.4236 4.06624 11.4253 4.06854 11.4268 4.07155C11.43 4.07819 11.4349 4.08861 11.4414 4.10183C11.4547 4.12885 11.4742 4.17009 11.5 4.22195C11.5517 4.32594 11.6275 4.47684 11.7217 4.6614C11.9105 5.03143 12.1736 5.53624 12.4707 6.07546C13.0903 7.20011 13.7804 8.32716 14.2422 8.80495L14.3535 8.9153C14.9449 9.46703 16.0069 10.0611 17.2871 10.6233C18.615 11.2064 20.0473 11.7005 21.125 12.0423C22.4466 12.4614 23.3577 13.7188 23.2891 15.1165L23.2617 15.3977L23.1445 16.2132C23.5241 16.7141 23.6725 17.3859 23.4541 18.0471L23.4102 18.1682L23.1797 18.7425C22.876 19.5017 22.141 20.0002 21.3232 20.0003H3.5C1.84331 20.0003 0.50026 18.6569 0.5 17.0003V14.8577C0.500057 14.364 0.684615 13.8952 1 13.5384V8.00027L1.00684 7.88405C1.03807 7.61697 1.17648 7.37179 1.39258 7.20632C1.63937 7.0175 1.95973 6.95375 2.25977 7.03445H2.26074V7.03542H2.2627C2.26463 7.03595 2.26811 7.03719 2.27246 7.03835C2.28147 7.04074 2.29581 7.04423 2.31445 7.04909C2.35205 7.05889 2.40884 7.07296 2.48145 7.09109C2.62691 7.1274 2.83692 7.17822 3.09082 7.23464C3.60142 7.34811 4.27803 7.48301 4.96094 7.57155C5.65868 7.66202 6.29916 7.69531 6.76172 7.63991C6.93162 7.61954 7.04177 7.58658 7.1084 7.56277C7.20558 7.24457 7.27648 6.97851 7.38867 6.60378C7.50185 6.22579 7.64192 5.80982 7.84961 5.41237C8.298 4.55459 9.02457 3.85857 10.2695 3.53249L10.3564 3.51394ZM10.8643 15.6546C7.83314 15.0384 5.22752 14.6072 2.5 14.8801V17.0003C2.50026 17.5523 2.94788 18.0003 3.5 18.0003H21.3232L21.5527 17.4251C21.5522 17.4239 21.5511 17.4222 21.5498 17.4202C21.5462 17.4146 21.5418 17.4098 21.5381 17.4075C21.5365 17.4065 21.5348 17.4061 21.5332 17.4055L21.5234 17.4036C17.3209 17.0651 13.8912 16.2699 10.8643 15.6546ZM10.0586 5.79812C9.86193 5.94995 9.73025 6.13127 9.62207 6.33816C9.50332 6.56539 9.40661 6.8376 9.30469 7.178C9.21706 7.47073 9.09289 7.93426 8.97559 8.303C8.81418 8.81002 8.44843 9.13126 8.08789 9.31862C7.74176 9.49842 7.35333 9.5838 6.99902 9.62624C6.28774 9.7114 5.45217 9.65096 4.7041 9.55398C4.09125 9.47451 3.49344 9.36313 3 9.26003V12.8352C5.79568 12.6622 8.45376 13.1236 11.2627 13.6946C14.2311 14.2981 17.3922 15.0269 21.2451 15.3714L21.2822 15.1155L21.291 15.0218C21.3131 14.5566 21.008 14.1031 20.5205 13.9485C19.4096 13.5962 17.902 13.0778 16.4824 12.4544C15.1868 11.8854 13.8406 11.178 12.9707 10.3606L12.8037 10.1956C12.1248 9.49317 11.3138 8.12039 10.7188 7.0403C10.4665 6.5825 10.24 6.14953 10.0586 5.79812Z" fill="#FF00FF"/>
</svg>
