<svg width="24" height="24" viewBox="0 0 24 24" fill="none" xmlns="http://www.w3.org/2000/svg">
<path d="M8.20697 3.20695L6.414 4.99992L11.4999 10.0859L14.2929 7.29289L14.3661 7.22649C14.5441 7.08067 14.7679 6.99994 14.9999 6.99992C15.2651 6.99992 15.5194 7.10541 15.707 7.29289L20.2519 11.8368C21.3937 12.9786 21.9138 14.6025 21.6484 16.1952L20.9863 20.164C20.916 20.5855 20.5855 20.916 20.164 20.9863L16.1953 21.6484C14.7019 21.8972 13.1815 21.4551 12.0566 20.4579L11.8369 20.2519L7.29291 15.707C6.90247 15.3164 6.90241 14.6834 7.29291 14.2929L10.0859 11.4999L4.99994 6.41399L3.20697 8.20695L1.79291 6.79289L6.79291 1.79289L8.20697 3.20695ZM9.414 14.9989L13.2519 18.8368C13.937 19.5219 14.9105 19.834 15.8661 19.6747L19.1308 19.1308L19.6747 15.8661C19.834 14.9105 19.5219 13.9369 18.8369 13.2519L14.999 9.41399L9.414 14.9989Z" fill="#FF00FF"/>
</svg>
