<svg width="24" height="24" viewBox="0 0 24 24" fill="none" xmlns="http://www.w3.org/2000/svg">
<path d="M17.0734 5.49998C18.02 5.50018 18.8853 6.03517 19.3087 6.88182L21.5577 11.3789C21.9477 11.2754 22.3273 11.1656 22.6945 11.0478L23.3058 12.9521C22.8843 13.0874 22.4482 13.2126 22.0001 13.3301V20.5C22.0001 21.0522 21.5523 21.4999 21.0001 21.5H17.0001C16.4478 21.5 16.0001 21.0523 16.0001 20.5V18.5H8.00012V20.5C8.00012 21.0522 7.5523 21.4999 7.00012 21.5H3.00012C2.44784 21.5 2.00012 21.0523 2.00012 20.5V13.3301C1.55201 13.2125 1.11595 13.0874 0.694458 12.9521L1.30579 11.0478C1.67266 11.1656 2.05184 11.2755 2.44153 11.3789L4.69153 6.88182C5.11503 6.03517 5.98021 5.5001 6.92688 5.49998H17.0734ZM20.0001 13.7812C15.0156 14.7379 8.98471 14.7379 4.00012 13.7812V19.5H6.00012V17.5C6.00013 16.9477 6.44784 16.5 7.00012 16.5H17.0001C17.5523 16.5001 18.0001 16.9478 18.0001 17.5V19.5H20.0001V13.7812ZM6.92688 7.49998C6.73765 7.50009 6.56429 7.60711 6.47961 7.77635L4.45129 11.832C9.14266 12.7213 14.8565 12.7212 19.548 11.832L17.5206 7.77635C17.436 7.60711 17.2625 7.50018 17.0734 7.49998H6.92688ZM12.0001 0.999985C13.3236 1.00001 14.7272 1.43801 15.7072 2.41795L14.2931 3.83202C13.7731 3.31201 12.9266 3.00001 12.0001 2.99998C11.0736 2.99999 10.2272 3.31203 9.70715 3.83202L8.29309 2.41795C9.27306 1.43802 10.6767 0.999987 12.0001 0.999985Z" fill="#FF00FF"/>
</svg>
