<svg width="24" height="24" viewBox="0 0 24 24" fill="none" xmlns="http://www.w3.org/2000/svg">
<path d="M7.54185 0.110572C7.92828 -0.0881958 8.39953 -0.0140242 8.70687 0.293186L17.4138 9.0001H20.9997C22.6564 9.00013 23.9994 10.3434 23.9996 12.0001L23.9957 12.1544C23.9154 13.7395 22.6047 15 20.9997 15H17.4138L8.70687 23.7069C8.38563 24.0282 7.88834 24.0921 7.49595 23.8632C7.15285 23.6629 6.9649 23.2825 7.00475 22.8974L7.036 22.7323L9.1844 15H4.4999C4.18514 15 3.88895 14.8514 3.7001 14.5996L0.700143 10.5997C0.473122 10.2967 0.436094 9.89148 0.605418 9.55283C0.774861 9.21422 1.12128 9.0001 1.49994 9.0001H14.5857L9.48714 3.90056C9.48732 3.90172 9.48704 3.9033 9.48714 3.90447C9.6123 4.68675 9.73824 5.48858 9.83283 6.12709C9.88003 6.44566 9.92053 6.7284 9.94904 6.94935C9.97341 7.13819 9.99978 7.35908 9.99982 7.50012H7.99985C7.99984 7.51606 7.99497 7.43985 7.96469 7.2052C7.93853 7.00245 7.90084 6.73389 7.85434 6.42006C7.76146 5.79314 7.63732 5.00068 7.51255 4.22087C7.38787 3.44163 7.26338 2.67701 7.16978 2.10762C7.12301 1.8231 7.08378 1.58669 7.0565 1.42208C7.04291 1.34005 7.03156 1.27544 7.02428 1.23165C7.02069 1.21005 7.01833 1.19307 7.01646 1.18185C7.01559 1.17658 7.01498 1.17194 7.01451 1.16915L7.01354 1.16525V1.16427C6.9424 0.735746 7.1556 0.309417 7.54185 0.110572ZM4.99989 13H10.4998C10.8121 13.0001 11.1066 13.1461 11.2957 13.3946C11.4847 13.6432 11.5471 13.9667 11.4637 14.2676L9.98127 19.6045L16.2927 13.293C16.4802 13.1056 16.7346 13 16.9997 13H20.9997C21.5519 13 21.9997 12.5523 21.9997 12.0001C21.9995 11.448 21.5518 11.0001 20.9997 11.0001H3.49991L4.99989 13Z" fill="#FF00FF"/>
</svg>
