<svg width="24" height="24" viewBox="0 0 24 24" fill="none" xmlns="http://www.w3.org/2000/svg">
<path d="M17.0734 3.5C18.02 3.50019 18.8853 4.03519 19.3087 4.88184L21.5577 9.37891C21.9477 9.27544 22.3273 9.16565 22.6945 9.04785L23.3058 10.9521C22.8843 11.0874 22.4482 11.2126 22.0001 11.3301V20C22.0001 20.5522 21.5523 20.9999 21.0001 21H17.0001C16.4478 21 16.0001 20.5523 16.0001 20V18H8.00012V20C8.00012 20.5522 7.55231 20.9999 7.00012 21H3.00012C2.44784 21 2.00012 20.5523 2.00012 20V11.3301C1.55201 11.2126 1.11595 11.0874 0.694458 10.9521L1.30579 9.04785C1.67266 9.16557 2.05184 9.2755 2.44153 9.37891L4.69153 4.88184L4.77551 4.72656C5.22301 3.97016 6.03936 3.5001 6.92688 3.5H17.0734ZM20.0001 11.7812C15.0156 12.7379 8.98471 12.7379 4.00012 11.7812V19H6.00012V17C6.00012 16.4477 6.44784 16 7.00012 16H17.0001C17.5523 16.0001 18.0001 16.4478 18.0001 17V19H20.0001V11.7812ZM6.92688 5.5C6.76134 5.5001 6.60817 5.58203 6.51575 5.71582L6.47961 5.77637L4.45129 9.83203C9.14265 10.7213 14.8565 10.7212 19.548 9.83203L17.5206 5.77637C17.436 5.60713 17.2626 5.50019 17.0734 5.5H6.92688Z" fill="#FF00FF"/>
</svg>
