<svg width="24" height="24" viewBox="0 0 24 24" fill="none" xmlns="http://www.w3.org/2000/svg">
<path d="M15.1367 3.06817C15.4206 2.95742 15.7424 2.98192 16.0088 3.13946C16.3131 3.31941 16.5 3.64627 16.5 3.99981V19.9998C16.5 20.3533 16.3131 20.6802 16.0088 20.8602C15.7045 21.0401 15.3283 21.046 15.0186 20.8758L5.01855 15.3758C4.69901 15.2 4.5 14.8645 4.5 14.4998V9.49981C4.5 9.13512 4.69901 8.79958 5.01855 8.62383L15.0186 3.12383L15.1367 3.06817ZM22.6406 17.2313L21.3594 18.7684L18.3594 16.2684L19.6406 14.7313L22.6406 17.2313ZM6.5 10.0897V13.909L14.5 18.3084V5.69024L6.5 10.0897ZM3 14.9998H1V8.99981H3V14.9998ZM24 12.9998H20V10.9998H24V12.9998ZM22.6406 6.76836L19.6406 9.26836L18.3594 7.73125L21.3594 5.23125L22.6406 6.76836Z" fill="#FF00FF"/>
</svg>
