<svg width="24" height="24" viewBox="0 0 24 24" fill="none" xmlns="http://www.w3.org/2000/svg">
<path d="M14.0004 21.9997H10.0004V19.9997H14.0004V21.9997ZM19.7534 4.6579L13.3286 11.9987L19.4428 18.986C19.6362 18.978 19.8851 18.9666 20.1723 18.944C20.8924 18.8875 21.8379 18.7749 22.7709 18.5554L23.2299 20.5026C22.1635 20.7535 21.1083 20.877 20.3286 20.9382C19.9368 20.9689 19.6086 20.9841 19.3774 20.9919C19.2621 20.9958 19.17 20.9977 19.1059 20.9987C19.0741 20.9992 19.0484 20.9996 19.0307 20.9997H19.0004C18.7121 20.9997 18.4374 20.8749 18.2475 20.6579L12.0004 13.5182L5.75336 20.6579C5.56357 20.8748 5.28862 20.9996 5.00043 20.9997H4.97015C4.9525 20.9996 4.9268 20.9992 4.89496 20.9987C4.83096 20.9977 4.73883 20.9958 4.62347 20.9919C4.39228 20.9841 4.06408 20.9689 3.6723 20.9382C2.89263 20.877 1.83744 20.7535 0.770935 20.5026L1.22992 18.5554C2.16304 18.7749 3.1085 18.8876 3.82855 18.944C4.11582 18.9666 4.36465 18.978 4.55804 18.986L10.6713 11.9987L4.2475 4.6579L5.75336 3.34149L12.0004 10.4802L18.2475 3.34149L19.7534 4.6579Z" fill="#FF00FF"/>
</svg>
