<svg width="24" height="24" viewBox="0 0 24 24" fill="none" xmlns="http://www.w3.org/2000/svg">
<path d="M15.0002 2C16.1048 2 17.0002 2.89543 17.0002 4V6H21.0002L21.1057 6.00586C21.3509 6.03186 21.5793 6.14748 21.7454 6.33301C21.935 6.54493 22.0258 6.82768 21.9944 7.11035L20.4944 20.6104C20.4381 21.1168 20.0098 21.5 19.5002 21.5H4.50024C3.99069 21.5 3.56237 21.1168 3.5061 20.6104L2.0061 7.11035C1.97472 6.82768 2.06544 6.54493 2.25512 6.33301C2.44482 6.12109 2.71582 6 3.00024 6H7.00024V4C7.00024 2.89543 7.89567 2 9.00024 2H15.0002ZM5.39575 19.5H18.6047L19.8831 8H4.11743L5.39575 19.5ZM9.00024 6H15.0002V4H9.00024V6Z" fill="#FF00FF"/>
</svg>
