<svg width="24" height="24" viewBox="0 0 24 24" fill="none" xmlns="http://www.w3.org/2000/svg">
<path d="M5.5 13C5.49998 15.7614 7.73859 18 10.5 18H13.5C16.2614 18 18.5 15.7614 18.5 13H20.5C20.5 16.866 17.366 20 13.5 20H13V21H15.4707V23H8.5293V21H11V20H10.5C6.63401 20 3.49997 16.866 3.5 13H5.5ZM13 1.5C15.2091 1.5 17 3.29086 17 5.5V12.5C17 14.7091 15.2091 16.5 13 16.5H11C8.79086 16.5 7 14.7091 7 12.5V5.5C7 3.29086 8.79086 1.5 11 1.5H13ZM11 3.5C9.89543 3.5 9 4.39543 9 5.5V12.5C9 13.6046 9.89543 14.5 11 14.5H13C14.1046 14.5 15 13.6046 15 12.5V5.5C15 4.39543 14.1046 3.5 13 3.5H11Z" fill="#FF00FF"/>
</svg>
