<svg width="24" height="24" viewBox="0 0 24 24" fill="none" xmlns="http://www.w3.org/2000/svg">
<path d="M4.5 18.5L4.50488 18.6025C4.55621 19.1067 4.98232 19.5 5.5 19.5H18.5C19.0523 19.5 19.5 19.0523 19.5 18.5V17H21.5V18.5C21.5 20.1569 20.1569 21.5 18.5 21.5H5.5C3.89489 21.5 2.58421 20.2394 2.50391 18.6543L2.5 18.5V17H4.5V18.5ZM22 14.5C21.3097 14.5 20.7039 14.6935 19.9834 14.9443C19.3061 15.1801 18.4515 15.5 17.5 15.5C16.5402 15.5 15.7263 15.1734 15.0801 14.9404C14.4068 14.6978 13.7933 14.5 13 14.5C12.3995 14.5 12.022 14.7737 11.2637 15.3145C10.526 15.8405 9.54645 16.5 8 16.5C6.59385 16.5 5.53068 15.8424 4.69336 15.3721C3.82253 14.883 3.06544 14.5 2 14.5V12.5C3.61749 12.5 4.76319 13.117 5.67285 13.6279C6.61593 14.1576 7.21115 14.5 8 14.5C8.89258 14.5 9.43781 14.1595 10.1025 13.6855C10.7466 13.2263 11.6495 12.5 13 12.5C14.1577 12.5 15.044 12.8023 15.7578 13.0596C16.4988 13.3266 16.9598 13.5 17.5 13.5C18.0484 13.5 18.5664 13.3198 19.3252 13.0557C20.0409 12.8065 20.9355 12.5 22 12.5V14.5ZM12 2.5C14.3856 2.5 16.7274 3.04889 18.5039 4.26855C20.3194 5.51505 21.5 7.43955 21.5 10C21.5 10.5523 21.0523 11 20.5 11H3.5C2.94772 11 2.5 10.5523 2.5 10C2.5 7.43955 3.68059 5.51505 5.49609 4.26855C7.27264 3.04888 9.61437 2.5 12 2.5ZM12 4.5C9.88565 4.5 7.97734 4.99225 6.62891 5.91797C5.56778 6.64648 4.82806 7.65488 4.58594 9H19.4141C19.1719 7.65488 18.4322 6.64648 17.3711 5.91797C16.0227 4.99226 14.1143 4.5 12 4.5Z" fill="#FF00FF"/>
</svg>
