<svg width="24" height="24" viewBox="0 0 24 24" fill="none" xmlns="http://www.w3.org/2000/svg">
<path d="M12.7261 3.43016C14.9063 1.46058 18.2715 1.52636 20.3726 3.62743C22.4736 5.7285 22.5394 9.09371 20.5698 11.2739L20.3726 11.4819L15.9263 15.9272L11.481 20.3735C9.31199 22.542 5.79524 22.5423 3.62646 20.3735C1.45769 18.2047 1.458 14.688 3.62646 12.519L8.07275 8.07372L12.5181 3.62743L12.7261 3.43016ZM5.04053 13.9341C3.6533 15.322 3.65286 17.5718 5.04053 18.9595C6.42819 20.3471 8.67798 20.3467 10.0659 18.9595L13.8052 15.2202L8.77978 10.1948L5.04053 13.9341ZM18.9585 5.04149C17.6139 3.6969 15.46 3.65481 14.0649 4.91551L13.9331 5.04149L10.1938 8.78075L15.2192 13.8061L18.9585 10.0669L19.0845 9.93504C20.3452 8.53996 20.3031 6.38608 18.9585 5.04149Z" fill="#FF00FF"/>
</svg>
