<svg width="24" height="24" viewBox="0 0 24 24" fill="none" xmlns="http://www.w3.org/2000/svg">
<path d="M12 1.5C17.5228 1.5 22 5.97715 22 11.5V18.5C22 20.1569 20.6569 21.5 19 21.5H16C15.4477 21.5 15 21.0523 15 20.5V12.5L15.0049 12.3975C15.0562 11.8933 15.4823 11.5 16 11.5H19C19.351 11.5 19.6869 11.5631 20 11.6738V11.5C20 7.08172 16.4183 3.5 12 3.5C7.58172 3.5 4 7.08172 4 11.5V11.6738C4.31306 11.5631 4.649 11.5 5 11.5H8L8.10254 11.5049C8.60667 11.5562 9 11.9823 9 12.5V20.5C9 21.0523 8.55228 21.5 8 21.5H5C3.34315 21.5 2 20.1569 2 18.5V11.5C2 5.97715 6.47715 1.5 12 1.5ZM5 13.5C4.44772 13.5 4 13.9477 4 14.5V18.5C4 19.0523 4.44772 19.5 5 19.5H7V13.5H5ZM17 19.5H19C19.5523 19.5 20 19.0523 20 18.5V14.5C20 13.9477 19.5523 13.5 19 13.5H17V19.5Z" fill="#FF00FF"/>
</svg>
