<svg width="24" height="24" viewBox="0 0 24 24" fill="none" xmlns="http://www.w3.org/2000/svg">
<path d="M3.53552 3.69539H8.69763L8.85486 3.70808C9.21436 3.76526 9.51966 4.01558 9.64197 4.36726L10.5853 7.08211C10.8832 7.93912 11.5525 8.61585 12.4066 8.92195L15.3031 9.95906L17.8851 10.7061C20.0884 11.343 21.6492 13.27 21.8441 15.5225C22.246 15.8884 22.5004 16.4138 22.5004 17.0001V19.0001C22.5003 20.1045 21.6047 20.9999 20.5004 21.0001H3.50037C2.39582 21.0001 1.50041 20.1046 1.50037 19.0001V17.0001C1.50037 16.4932 1.68958 16.0313 2.00037 15.6788V4.9991L0.704468 3.05476L2.36853 1.94539L3.53552 3.69539ZM3.50037 19.0001H20.5004V17.0001H3.50037V19.0001ZM4.00037 15.0001H13.6683C13.5835 14.6122 13.5121 14.1677 13.5121 13.7393C13.5121 13.1287 13.6548 12.3315 13.7767 11.7491C13.7908 11.6819 13.8068 11.6163 13.8207 11.5528L11.7318 10.8048C10.3082 10.2945 9.19199 9.16689 8.69568 7.73836L7.98669 5.69539H4.00037V15.0001ZM15.7328 12.1661C15.6116 12.7461 15.5121 13.3585 15.5121 13.7393C15.5121 14.0998 15.6056 14.5616 15.7201 14.9757C15.7224 14.9839 15.7256 14.9919 15.7279 15.0001H19.7172C19.3827 13.8759 18.5001 12.9663 17.3304 12.628L15.7328 12.1661Z" fill="#FF00FF"/>
</svg>
