<svg width="24" height="24" viewBox="0 0 24 24" fill="none" xmlns="http://www.w3.org/2000/svg">
<path d="M3.7492 2.44972C4.14824 2.02857 4.71792 1.91498 5.20623 2.06007C5.64051 2.18922 6.00517 2.51933 6.174 2.97023C9.61767 8.42029 14.9484 10.7696 20.8244 9.9214L20.9728 9.90578C21.7116 9.85186 22.4011 10.1942 22.7609 10.7984C23.1491 11.4506 23.0667 12.2697 22.5031 12.8628L22.384 12.979C20.913 14.2932 18.744 15.5309 16.3058 16.0337C17.0456 16.2472 17.8391 16.4315 18.6926 16.5845L19.4523 16.7114L19.507 16.7212C20.5804 16.9469 21.159 18.3443 20.2668 19.2124L20.176 19.2944C15.882 22.9087 9.09363 22.9945 4.73455 18.9849L4.32048 18.5835C-0.00869548 14.1742 0.0246833 7.03238 3.67205 2.53761L3.7492 2.44972ZM4.53826 4.76613C2.19944 8.52675 2.47362 13.8478 5.74724 17.1821L6.08806 17.5122C9.36707 20.5261 14.3661 20.7421 17.9201 18.4722C14.1418 17.7387 11.2426 16.3974 9.05388 14.1421C6.85452 11.8757 5.4709 8.78729 4.53826 4.76613ZM7.48064 7.70851C8.26036 9.81788 9.24196 11.463 10.4894 12.7486C10.9297 13.2022 11.4109 13.6142 11.9338 13.9917C15.0362 14.8344 18.2977 13.6211 20.4426 11.9839C15.5586 12.512 11.0166 11.0472 7.48064 7.70851Z" fill="#FF00FF"/>
</svg>
