<svg width="24" height="24" viewBox="0 0 24 24" fill="none" xmlns="http://www.w3.org/2000/svg">
<path d="M9.49981 5H8.12286C6.83252 5.0001 5.69702 5.82328 5.28497 7.02637L5.21271 7.27246L4.07403 11.8252C4.83603 11.3047 5.75738 11 6.74981 11C9.11792 11 11.0806 12.7331 11.4402 15H12.5594C12.919 12.7331 14.8818 11.0001 17.2498 11C18.242 11 19.1627 11.305 19.9246 11.8252L18.7869 7.27246C18.453 5.93701 17.2533 5.00004 15.8768 5H14.4998V3H15.8768C18.171 3.00004 20.1708 4.56143 20.7274 6.78711L22.9695 15.7578L22.991 15.8701C23.0256 16.1341 22.9537 16.4028 22.7879 16.6152C22.5984 16.8579 22.3077 17 21.9998 17H21.9402C21.5806 19.2669 19.6179 21 17.2498 21C14.8818 20.9999 12.919 19.2669 12.5594 17H11.4402C11.0806 19.2669 9.11792 21 6.74981 21C4.38178 20.9999 2.41901 19.2669 2.05938 17H1.99981C1.69195 16.9999 1.40119 16.8579 1.21173 16.6152C1.02236 16.3726 0.955526 16.0564 1.03009 15.7578L3.27228 6.78711L3.32892 6.58105C3.95418 4.46576 5.90021 3.00011 8.12286 3H9.49981V5ZM6.74981 13C5.23112 13.0001 3.99981 14.2313 3.99981 15.75V16.25C3.99981 17.7687 5.23111 18.9999 6.74981 19C8.2686 19 9.49981 17.7688 9.49981 16.25V15.75C9.49981 14.2312 8.26859 13 6.74981 13ZM17.2498 13C15.7311 13.0001 14.4998 14.2313 14.4998 15.75V16.25C14.4998 17.7687 15.7311 18.9999 17.2498 19C18.7686 19 19.9998 17.7688 19.9998 16.25V15.75C19.9998 14.2312 18.7686 13 17.2498 13Z" fill="#FF00FF"/>
</svg>
