<svg width="24" height="24" viewBox="0 0 24 24" fill="none" xmlns="http://www.w3.org/2000/svg">
<path d="M9.5466 2.5C12.7997 2.50045 15.4548 5.11289 15.4548 8.35742C15.4548 9.44572 15.2218 10.5476 14.7107 11.5H20.1823L20.3161 11.5088C20.6229 11.5502 20.897 11.7323 21.0525 12.0059C21.5934 12.9577 22.5006 14.1511 22.5007 16.4521C22.5007 19.3368 19.9358 21.4998 17.0007 21.5H7.50071C4.56543 21.5 2.00071 19.3369 2.00071 16.4521C2.00081 14.4472 3.29451 12.8567 5.00949 12.0479C4.73599 11.716 4.49449 11.3532 4.2927 10.9668C4.06949 10.9395 3.76962 10.8898 3.42844 10.792C2.76297 10.6011 1.9062 10.2249 1.14817 9.48242L0.997776 9.3291C0.725077 9.03844 0.651033 8.61287 0.809299 8.24707C0.967638 7.88125 1.32867 7.64465 1.72727 7.64453C1.98328 7.64453 2.52912 7.61523 3.03781 7.5293C3.29306 7.48616 3.50462 7.43452 3.65305 7.37988C3.68457 7.36827 3.7081 7.35556 3.72629 7.34668C4.21013 4.58695 6.63903 2.5 9.5466 2.5ZM9.5466 4.5C7.37762 4.5 5.63742 6.23718 5.63742 8.35742C5.63754 9.68193 6.42929 10.9492 7.53879 11.6572L7.66379 11.751C7.93398 11.9902 8.05792 12.3618 7.97629 12.7217C7.89453 13.0815 7.62217 13.3629 7.27512 13.4619L7.1218 13.4922C5.28042 13.7174 4.00085 15.0445 4.00071 16.4521C4.00071 18.0383 5.46542 19.5 7.50071 19.5H17.0007C19.0358 19.4998 20.5007 18.0382 20.5007 16.4521C20.5007 15.0547 20.097 14.3265 19.6091 13.5H12.5007C12.059 13.5 11.6695 13.2102 11.5427 12.7871C11.416 12.364 11.5821 11.9079 11.9509 11.665C12.9093 11.0344 13.4547 9.82327 13.4548 8.35742C13.4548 6.23746 11.7152 4.50045 9.5466 4.5Z" fill="#FF00FF"/>
</svg>
