<svg width="24" height="24" viewBox="0 0 24 24" fill="none" xmlns="http://www.w3.org/2000/svg">
<path d="M6.3419 10.8535C9.46643 7.71585 14.5338 7.71585 17.6583 10.8535C20.7903 13.9988 20.7207 18.5808 17.6085 21.7061C17.4209 21.8945 17.1654 22 16.8995 22H7.0001C6.7342 22 6.47876 21.8945 6.29112 21.7061C3.15899 18.5607 3.22971 13.9788 6.3419 10.8535ZM16.2413 12.2646C13.8985 9.91199 10.1017 9.91199 7.75889 12.2646C5.50038 14.5327 5.38117 17.6776 7.43467 20H16.4669C18.544 17.6598 18.4811 14.514 16.2413 12.2646ZM14.1026 1.50488C14.6067 1.55625 15.0001 1.98235 15.0001 2.5V5.82617C15.6506 6.02214 16.3 6.28179 16.9474 6.60547L16.0528 8.39453C13.3344 7.0353 10.6658 7.03532 7.94737 8.39453L7.05284 6.60547C7.70022 6.28178 8.3496 6.02214 9.0001 5.82617V2.5L9.00499 2.39746C9.05632 1.89333 9.48243 1.5 10.0001 1.5H14.0001L14.1026 1.50488ZM11.0001 3.63477C11.2987 3.80774 11.5001 4.13006 11.5001 4.5C11.5001 4.86977 11.2985 5.19122 11.0001 5.36426V5.4248C11.6666 5.3581 12.3336 5.35809 13.0001 5.4248V3.5H11.0001V3.63477Z" fill="#FF00FF"/>
</svg>
