<svg width="24" height="24" viewBox="0 0 24 24" fill="none" xmlns="http://www.w3.org/2000/svg">
<path d="M15.707 20.207C14.7271 21.187 13.3235 21.625 12 21.625C10.6765 21.625 9.27294 21.187 8.29297 20.207L9.70703 18.793C10.2271 19.313 11.0735 19.625 12 19.625C12.9265 19.625 13.7729 19.313 14.293 18.793L15.707 20.207ZM13 6H17C17.5523 6 18 6.44772 18 7C18 8.3772 17.3184 9.65258 16.1982 10.5713C18.6994 11.2686 21.3053 12.7175 22.8721 15.5107C23.0458 15.8204 23.0427 16.1995 22.8633 16.5059C22.6838 16.8121 22.355 17 22 17H2C1.64503 17 1.31617 16.8121 1.13672 16.5059C0.957288 16.1995 0.954241 15.8204 1.12793 15.5107C2.69448 12.7179 5.29991 11.2687 7.80078 10.5713C6.68095 9.65261 6 8.37695 6 7C6 6.73478 6.10543 6.4805 6.29297 6.29297C6.4805 6.10543 6.73478 6 7 6H11V2H13V6ZM12 12C9.55152 12 6.16082 12.6819 3.96875 15H20.0312C17.8392 12.6819 14.4485 12 12 12ZM8.25098 8C8.76048 9.03547 10.0389 10 12 10C13.9611 10 15.2395 9.03547 15.749 8H8.25098Z" fill="#FF00FF"/>
</svg>
