<svg width="24" height="24" viewBox="0 0 24 24" fill="none" xmlns="http://www.w3.org/2000/svg">
<path d="M14.1982 2.5918C14.4192 2.09751 14.9942 1.86875 15.4951 2.07715L22.3838 4.94239C22.7567 5.09753 23 5.46231 23 5.86622V11.3828C22.9998 11.7236 22.826 12.0409 22.5391 12.2246C22.252 12.4084 21.8906 12.4337 21.5811 12.291L20 11.5615V20C20 20.5523 19.5523 21 19 21H5C4.44772 21 4 20.5523 4 20V11.5615L2.41895 12.291C2.10937 12.4337 1.74802 12.4084 1.46094 12.2246C1.17396 12.0409 1.00016 11.7236 1 11.3828V5.86622L1.01074 5.7168C1.06224 5.37422 1.28978 5.07818 1.61621 4.94239L8.50488 2.07715L8.59961 2.04297C9.07637 1.89827 9.59465 2.12841 9.80176 2.5918C9.80063 2.58928 9.79972 2.5869 9.79883 2.58497L9.8457 2.65626C9.89884 2.73117 9.99465 2.84679 10.1465 2.96778C10.436 3.19847 10.9927 3.50001 12 3.50001C13.0073 3.50001 13.564 3.19847 13.8535 2.96778C14.0053 2.84679 14.1012 2.73117 14.1543 2.65626C14.1807 2.61907 14.1968 2.59243 14.2031 2.58106L14.2012 2.58497C14.2003 2.5869 14.1994 2.58928 14.1982 2.5918ZM15.4414 4.21973C15.3422 4.3213 15.2308 4.42848 15.1006 4.53223C14.4489 5.05152 13.45 5.50001 12 5.50001C10.55 5.50001 9.55107 5.05152 8.89941 4.53223C8.76901 4.42831 8.65695 4.32146 8.55762 4.21973L3 6.53223V9.82032L4.58105 9.0918C4.89068 8.94913 5.25196 8.97438 5.53906 9.15821C5.82613 9.34204 6 9.65912 6 10V19H18V10C18 9.65912 18.1739 9.34204 18.4609 9.15821C18.748 8.97438 19.1093 8.94913 19.4189 9.0918L21 9.82032V6.53223L15.4414 4.21973Z" fill="#FF00FF"/>
</svg>
