<svg width="24" height="24" viewBox="0 0 24 24" fill="none" xmlns="http://www.w3.org/2000/svg">
<path d="M17 3.5H13V5.5H18L18.1026 5.50488C18.6067 5.55621 19 5.98232 19 6.5V10H20C21.6569 10 23 11.3431 23 13V15C23 16.6569 21.6569 18 20 18H19V20.5C19 21.0523 18.5523 21.5 18 21.5H6.00002C5.44774 21.5 5.00002 21.0523 5.00002 20.5V9.80273L3.16799 7.05469C2.96346 6.7479 2.94429 6.35344 3.11819 6.02832C3.2922 5.70316 3.63123 5.5 4.00002 5.5H11V3.5H7.00002V1.5H17V3.5ZM6.83205 8.94531C6.94157 9.10958 7.00002 9.30258 7.00002 9.5V19.5H17V7.5H13V16H15V18H9.00002V16H11V7.5H5.86819L6.83205 8.94531ZM19 16H20C20.5523 16 21 15.5523 21 15V13C21 12.4477 20.5523 12 20 12H19V16Z" fill="#FF00FF"/>
</svg>
