<svg width="24" height="24" viewBox="0 0 24 24" fill="none" xmlns="http://www.w3.org/2000/svg">
<path d="M17.1494 1.98871L14.3633 2.40863L14.0879 4.50043H21V6.50043H19.8711L17.9902 20.1371C17.9217 20.6317 17.4993 21.0004 17 21.0004H7C6.5007 21.0004 6.07825 20.6317 6.00977 20.1371L4.12891 6.50043H3V4.50043H12.0713L12.4795 1.40277L12.5137 1.24164C12.6244 0.877913 12.9359 0.602622 13.3213 0.544373L16.8506 0.0101929L17.1494 1.98871ZM7.87109 19.0004H16.1289L17.8525 6.50043H13.8242L12.4912 16.6313L10.5088 16.3696L11.8086 6.50043H6.14746L7.87109 19.0004Z" fill="#FF00FF"/>
</svg>
