<svg width="24" height="24" viewBox="0 0 24 24" fill="none" xmlns="http://www.w3.org/2000/svg">
<path d="M16.1191 2.50684C16.3949 2.5399 16.647 2.6868 16.8115 2.91504C16.9759 3.1431 17.0351 3.42828 16.9795 3.7002L16.9482 3.81641V3.81836C16.9478 3.81953 16.9469 3.82153 16.9463 3.82324C16.9451 3.82666 16.9433 3.83141 16.9414 3.83691C16.9376 3.84801 16.9325 3.86377 16.9258 3.88281C16.9123 3.92126 16.8923 3.97551 16.8672 4.04297C16.8167 4.17823 16.743 4.36818 16.6465 4.59473C16.4545 5.04547 16.1678 5.65493 15.791 6.27148C15.5359 6.68899 15.2262 7.12764 14.8643 7.5293C17.8676 8.68148 20 11.5912 20 15C20 19.4183 16.4183 23 12 23C7.58172 23 4 19.4183 4 15C4 11.5915 6.13191 8.6817 9.13477 7.5293C8.77302 7.12777 8.464 6.68882 8.20898 6.27148C7.83224 5.65493 7.54545 5.04547 7.35352 4.59473C7.25705 4.36818 7.18326 4.17823 7.13281 4.04297C7.10766 3.97551 7.08774 3.92126 7.07422 3.88281C7.06752 3.86377 7.06239 3.84801 7.05859 3.83691C7.05671 3.83141 7.05487 3.82666 7.05371 3.82324C7.05313 3.82153 7.05215 3.81953 7.05176 3.81836V3.81641C6.95015 3.51147 7.00053 3.17578 7.18848 2.91504C7.37643 2.6543 7.67858 2.5 8 2.5H16L16.1191 2.50684ZM12 9C8.68629 9 6 11.6863 6 15C6 18.3137 8.68629 21 12 21C15.3137 21 18 18.3137 18 15C18 11.6863 15.3137 9 12 9ZM9.51367 4.5C9.63164 4.7346 9.76577 4.98263 9.91602 5.22852C10.2306 5.74336 10.5883 6.21031 10.9707 6.53809C11.3508 6.86379 11.6911 7 12 7C12.3089 7 12.6492 6.86379 13.0293 6.53809C13.4117 6.21031 13.7694 5.74336 14.084 5.22852C14.2342 4.98263 14.3684 4.7346 14.4863 4.5H9.51367Z" fill="#FF00FF"/>
</svg>
