<svg width="24" height="24" viewBox="0 0 24 24" fill="none" xmlns="http://www.w3.org/2000/svg">
<path d="M15.8604 3.00879C19.5589 3.19633 22.5 6.25486 22.5 10V17.25C22.5 19.3211 20.8211 21 18.75 21C16.6789 21 15 19.3211 15 17.25V17H9V17.25C9 19.3211 7.32107 21 5.25 21C3.17893 21 1.5 19.3211 1.5 17.25V10C1.5 6.13401 4.63401 3 8.5 3H15.5L15.8604 3.00879ZM8.5 5C5.73858 5 3.5 7.23858 3.5 10V17.25C3.5 18.2165 4.2835 19 5.25 19C6.2165 19 7 18.2165 7 17.25V16C7 15.4477 7.44772 15 8 15H16C16.5523 15 17 15.4477 17 16V17.25C17 18.2165 17.7835 19 18.75 19C19.7165 19 20.5 18.2165 20.5 17.25V10C20.5 7.32472 18.3989 5.14053 15.7568 5.00684L15.5 5H8.5ZM9.5 9H11.5V11H9.5V13H7.5V11H5.5V9H7.5V7H9.5V9Z" fill="#FF00FF"/>
</svg>
