<svg width="24" height="24" viewBox="0 0 24 24" fill="none" xmlns="http://www.w3.org/2000/svg">
<path d="M5.5 3.5C7.433 3.5 9 5.067 9 7C9 7.35735 8.9457 7.70273 8.8457 8.02832L13 10.7979L21.4453 5.16797L22.5547 6.83203L14.8027 12L22.5547 17.168L21.4453 18.832L13 13.2012L8.8457 15.9707C8.94588 16.2966 9 16.6423 9 17C9 18.933 7.433 20.5 5.5 20.5C3.567 20.5 2 18.933 2 17C2 15.067 3.567 13.5 5.5 13.5C6.35025 13.5 7.12864 13.8045 7.73438 14.3076L11.1973 12L7.73438 9.69141C7.12857 10.1948 6.35048 10.5 5.5 10.5C3.567 10.5 2 8.933 2 7C2 5.067 3.567 3.5 5.5 3.5ZM5.5 15.5C4.67157 15.5 4 16.1716 4 17C4 17.8284 4.67157 18.5 5.5 18.5C6.32843 18.5 7 17.8284 7 17C7 16.6909 6.90756 16.4064 6.74902 16.1689C6.47836 15.7638 6.01963 15.5 5.5 15.5ZM5.5 5.5C4.67157 5.5 4 6.17157 4 7C4 7.82843 4.67157 8.5 5.5 8.5C6.01963 8.5 6.47836 8.23624 6.74902 7.83105C6.90756 7.59358 7 7.30911 7 7C7 6.17157 6.32843 5.5 5.5 5.5Z" fill="#FF00FF"/>
</svg>
