<svg width="24" height="24" viewBox="0 0 24 24" fill="none" xmlns="http://www.w3.org/2000/svg">
<path d="M12 3C13.933 3 15.5 4.567 15.5 6.5V6.55371C15.5 7.80209 14.8449 8.95928 13.7744 9.60156L13 10.0654V10.9424L22.2656 16.6787L22.4062 16.7725C23.0896 17.2592 23.5 18.0486 23.5 18.8945C23.4999 20.3335 22.3335 21.4999 20.8945 21.5H3.10547C1.66654 21.4999 0.500067 20.3335 0.5 18.8945C0.5 17.9922 0.967127 17.1537 1.73438 16.6787L11 10.9424V9.5C11 9.19269 11.1409 8.90498 11.3779 8.7168L11.4854 8.64258L12.7451 7.88672C13.2132 7.60588 13.5 7.09956 13.5 6.55371V6.5C13.5 5.67157 12.8284 5 12 5C11.1716 5 10.5 5.67157 10.5 6.5V7H8.5V6.5C8.5 4.567 10.067 3 12 3ZM2.78711 18.3799C2.60879 18.4903 2.5 18.6848 2.5 18.8945C2.50007 19.2289 2.77111 19.4999 3.10547 19.5H20.8945C21.2289 19.4999 21.4999 19.2289 21.5 18.8945C21.5 18.711 21.4167 18.5389 21.2764 18.4248L21.2129 18.3799L12 12.6758L2.78711 18.3799Z" fill="#FF00FF"/>
</svg>
