<svg width="24" height="24" viewBox="0 0 24 24" fill="none" xmlns="http://www.w3.org/2000/svg">
<path d="M8.33008 2.2542C8.89877 1.95706 9.55827 2.15505 9.91406 2.60577L9.98535 2.70537L10.1191 2.90069C10.473 3.38023 11.1139 4.0003 12 4.0003C13.0122 4.0003 13.7044 3.19104 14.0146 2.70635L14.0859 2.60577C14.4425 2.15477 15.1039 1.95682 15.6729 2.25616L15.793 2.32842L18.5381 4.17022L18.5771 4.19756L18.7881 4.35869C20.9335 6.05322 22 8.49951 22 11.0003V21.0003H20V11.0003C20 9.02144 19.139 7.11132 17.3926 5.80987L15.2588 4.37725C14.661 5.08231 13.5837 6.0003 12 6.0003C10.4148 6.0003 9.33578 5.08166 8.73828 4.37627L6.58203 5.81377C4.85852 7.11519 4 9.02404 4 11.0003V21.0003H2V11.0003C2 8.41984 3.13609 5.89879 5.40039 4.20049L5.44531 4.16827L8.20996 2.32549L8.33008 2.2542ZM8 19.0003H16V13.0003H18V20.0003C17.9998 20.5524 17.5522 21.0003 17 21.0003H7C6.44782 21.0003 6.00017 20.5524 6 20.0003V13.0003H8V19.0003ZM16 10.5003H12V8.5003H16V10.5003Z" fill="#FF00FF"/>
</svg>
