<svg width="24" height="24" viewBox="0 0 24 24" fill="none" xmlns="http://www.w3.org/2000/svg">
<path d="M7.5 3C7.5 4.16721 7.93178 5.58524 8.74414 6.69434C9.54513 7.78781 10.6473 8.5 12 8.5C13.3527 8.5 14.4549 7.78781 15.2559 6.69434C16.0682 5.58524 16.5 4.16721 16.5 3H18.5C18.5 4.22539 18.8377 5.64168 19.5752 6.7207C20.2854 7.75954 21.3667 8.5 23 8.5V10.5C21.0285 10.5 19.5428 9.71496 18.5 8.57422V15H23V17H18.5V21H16.5V17H7.5V21H5.5V17H1V15H5.5V8.57422C4.45722 9.71496 2.97148 10.5 1 10.5V8.5C2.63326 8.5 3.71456 7.75954 4.4248 6.7207C5.16234 5.64168 5.5 4.22539 5.5 3H7.5ZM16.5 8.33789C15.4322 9.57758 13.9156 10.5 12 10.5C10.0844 10.5 8.56783 9.57758 7.5 8.33789V15H16.5V8.33789Z" fill="#FF00FF"/>
</svg>
