<svg width="24" height="24" viewBox="0 0 24 24" fill="none" xmlns="http://www.w3.org/2000/svg">
<path d="M6.58301 9.73047C8.66828 9.67527 10.981 10.3971 13.498 12.1846C14.3775 12.8091 16.169 14.2009 17.7188 15.4189C18.4984 16.0317 19.2249 16.607 19.7559 17.0283C19.8628 17.1132 19.9618 17.1922 20.0518 17.2637C20.8246 17.0027 21.6371 16.6364 22.4961 16.1357L23.5039 17.8643C20.9426 19.357 18.652 19.8505 16.5361 19.8125C14.4501 19.7749 12.579 19.218 10.9053 18.7061C9.18727 18.1806 7.71627 17.7187 6.22168 17.6875C4.78776 17.6576 3.296 18.0287 1.59961 19.2998L0.400391 17.7002C2.448 16.1658 4.37505 15.648 6.26367 15.6875C6.92444 15.7013 7.57581 15.7844 8.21582 15.9082L11.2852 13.1289C9.48999 12.0638 7.94357 11.6948 6.63574 11.7295C5.07844 11.7708 3.74442 12.3849 2.625 13.2803L2 12.5L1.375 11.7188C2.75544 10.6145 4.49786 9.78576 6.58301 9.73047ZM10.5361 16.5039C10.858 16.6004 11.1763 16.6979 11.4902 16.7939C13.1767 17.3098 14.8001 17.7805 16.5713 17.8125C16.8717 17.8179 17.1778 17.8096 17.4902 17.7871C17.1739 17.5373 16.8344 17.2681 16.4834 16.9922C15.2534 16.0254 13.9068 14.979 12.9844 14.2891L10.5361 16.5039ZM19 5C21.2091 5 23 6.79086 23 9C23 11.2091 21.2091 13 19 13C16.7909 12.9999 15 11.2091 15 9C15 6.7909 16.7909 5.00006 19 5ZM19 7C17.8955 7.00006 17 7.89547 17 9C17 10.1045 17.8955 10.9999 19 11C20.1046 11 21 10.1046 21 9C21 7.89543 20.1046 7 19 7Z" fill="#FF00FF"/>
</svg>
