<svg width="24" height="24" viewBox="0 0 24 24" fill="none" xmlns="http://www.w3.org/2000/svg">
<path d="M13.2869 2.11897C14.7789 0.627009 17.1983 0.627009 18.6903 2.11897C19.2871 2.71595 19.6432 3.46197 19.7625 4.23616C20.5371 4.35529 21.2834 4.71225 21.8807 5.3094C23.3727 6.80136 23.3727 9.22076 21.8807 10.7127C20.6334 11.9599 18.7389 12.1633 17.2791 11.325L11.325 17.2791C12.1633 18.7389 11.9599 20.6334 10.7127 21.8807C9.22076 23.3727 6.80137 23.3727 5.3094 21.8807C4.71225 21.2834 4.35529 20.5371 4.23616 19.7625C3.53342 19.6542 2.85379 19.3512 2.28792 18.8494L2.11897 18.6903C0.627009 17.1983 0.627009 14.7789 2.11897 13.2869C3.36598 12.0401 5.25997 11.8362 6.71956 12.6737L12.6737 6.71956C11.8362 5.25996 12.0401 3.36598 13.2869 2.11897ZM17.2762 3.53303C16.5653 2.82212 15.4119 2.82212 14.701 3.53303C13.9903 4.24388 13.9904 5.39637 14.701 6.10725C14.8885 6.29472 14.9939 6.54917 14.994 6.81428C14.994 7.07948 14.8885 7.33378 14.701 7.52132L7.52132 14.701C7.13079 15.0915 6.49777 15.0915 6.10725 14.701C5.39637 13.9904 4.24389 13.9903 3.53304 14.701C2.82212 15.4119 2.82212 16.5653 3.53304 17.2762L3.69807 17.4217C4.09719 17.7352 4.59672 17.8591 5.07796 17.7908C5.38929 17.7466 5.70326 17.8517 5.92561 18.074C6.14797 18.2964 6.25303 18.6104 6.20882 18.9217C6.13084 19.4717 6.30312 20.0461 6.72347 20.4666C7.43438 21.1775 8.58775 21.1775 9.29866 20.4666C10.0093 19.7558 10.0093 18.6033 9.29866 17.8924C9.11119 17.7049 9.00577 17.4505 9.00569 17.1854C9.00569 16.9202 9.11115 16.6659 9.29866 16.4783L16.4783 9.29866L16.5535 9.22932C16.9463 8.90895 17.5263 8.93254 17.8924 9.29866C18.6033 10.0093 19.7558 10.0094 20.4666 9.29866C21.1775 8.58775 21.1775 7.43438 20.4666 6.72346C20.0461 6.30312 19.4717 6.13084 18.9217 6.20882C18.6104 6.25302 18.2964 6.14797 18.0741 5.92561C17.8517 5.70326 17.7466 5.38929 17.7908 5.07796C17.8688 4.52796 17.6965 3.95353 17.2762 3.53303Z" fill="#FF00FF"/>
</svg>
