<svg width="24" height="24" viewBox="0 0 24 24" fill="none" xmlns="http://www.w3.org/2000/svg">
<path d="M1.58414 4.2289C1.81478 4.03899 2.11806 3.96168 2.41128 4.01894H2.41226C2.41307 4.01913 2.41449 4.0196 2.41617 4.01992C2.42009 4.02069 2.42646 4.02225 2.43472 4.02383C2.45163 4.02704 2.47812 4.03126 2.51187 4.0375C2.57955 4.05001 2.67951 4.06844 2.80582 4.09023C3.05973 4.13403 3.41978 4.19281 3.83902 4.25137C4.6864 4.3697 5.74507 4.48281 6.66421 4.48281C7.57775 4.48279 8.50713 4.37025 9.2189 4.25429C9.57213 4.19674 9.86663 4.13977 10.0705 4.09707C10.1721 4.07577 10.2514 4.05825 10.3039 4.04629C10.3297 4.04039 10.3491 4.03555 10.3615 4.03262C10.3677 4.03115 10.3726 4.03031 10.3752 4.02969H10.3771V4.02871C10.7907 3.92764 11.223 4.09992 11.4543 4.45742L11.4552 4.4584C11.4556 4.45902 11.4565 4.46034 11.4572 4.46133C11.4587 4.4637 11.4612 4.46769 11.464 4.47207C11.4702 4.48155 11.4795 4.49581 11.4914 4.51406C11.5156 4.55141 11.5519 4.60665 11.5978 4.67715C11.69 4.81864 11.8233 5.02293 11.9865 5.2709C12.3133 5.76743 12.7601 6.44124 13.2414 7.14883C14.2335 8.60745 15.287 10.0845 15.7707 10.5736L16.006 10.7973C16.5897 11.3213 17.4004 11.8511 18.2863 12.3422C19.2843 12.8954 20.3164 13.3671 21.0959 13.6986C22.2166 14.1755 23.0001 15.2739 23.0002 16.5365V17.0004L22.9962 17.1547C22.9158 18.7396 21.6051 20.0003 20.0002 20.0004H13.5773C11.6571 20.0002 10.4154 18.8779 9.52066 17.9408C9.03495 17.4321 8.70354 17.0383 8.31558 16.6801C8.30867 16.6737 8.30096 16.6678 8.2941 16.6615L7.63296 19.2484C7.51959 19.6907 7.12078 20.0003 6.66421 20.0004H3.20718C2.76126 20.0003 2.37282 19.7055 2.2482 19.2846L2.22769 19.1986L1.23941 14.3256C1.23755 14.3164 1.23612 14.3065 1.23453 14.2973C0.968868 12.7636 0.973033 11.1189 1.03531 9.5414C1.09934 7.91972 1.21985 6.4261 1.21988 5.00039C1.21988 4.70165 1.35358 4.41886 1.58414 4.2289ZM4.02554 18.0004H5.88785L6.41812 15.9252L3.49332 15.3803L4.02554 18.0004ZM9.54117 6.2289C8.77164 6.35429 7.72567 6.48279 6.66421 6.48281C5.60819 6.48281 4.44364 6.35486 3.56265 6.23183C3.43495 6.214 3.31255 6.19462 3.19644 6.17715C3.15743 7.31661 3.07731 8.50717 3.03335 9.62051C2.98257 10.907 2.97917 12.1396 3.10953 13.2748L7.83511 14.1557L7.88882 14.1674C8.62402 14.3471 9.2069 14.78 9.673 15.2103C10.1181 15.6214 10.5897 16.1639 10.9679 16.56C11.8012 17.4327 12.5353 18.0002 13.5773 18.0004H20.0002C20.5176 18.0003 20.9438 17.6068 20.9953 17.1029L21.0002 17.0004V16.5365C21.0002 16.1201 20.7369 15.719 20.3127 15.5385C19.4966 15.1914 18.3964 14.6898 17.3166 14.0912C16.3841 13.5742 15.4164 12.9576 14.6593 12.2758L14.3478 11.9789C13.7049 11.3284 12.5361 9.66765 11.588 8.27383C11.0993 7.55533 10.646 6.87255 10.3156 6.37051C10.2567 6.281 10.2012 6.19686 10.1505 6.11953C9.97359 6.1535 9.76846 6.19187 9.54117 6.2289Z" fill="#FF00FF"/>
</svg>
