<svg width="24" height="24" viewBox="0 0 24 24" fill="none" xmlns="http://www.w3.org/2000/svg">
<path d="M1.88965 3.20774C2.13523 3.01849 2.45504 2.95403 2.75488 3.03294L21.7549 8.03294C22.194 8.14869 22.5 8.54562 22.5 8.99974V20.9997H20.5V9.77024L3.5 5.29661V20.9997H1.5V3.99974C1.5 3.68964 1.64405 3.39707 1.88965 3.20774ZM14.8408 11.9997C15.6406 11.9997 16.3634 12.4766 16.6787 13.2116L17.5781 15.3093C17.9372 15.1966 18.2886 15.0743 18.6289 14.9382L19 15.8669L19.3711 16.7947C18.9277 16.972 18.4694 17.1303 18 17.2722V20.9997H16V17.7575C13.4024 18.2444 10.5976 18.2444 8 17.7575V20.9997H6V17.2722C5.53055 17.1303 5.07231 16.972 4.62891 16.7947L5 15.8669L5.37109 14.9382C5.71145 15.0744 6.0627 15.1976 6.42188 15.3103L7.32129 13.2116C7.63649 12.4765 8.35932 11.9998 9.15918 11.9997H14.8408ZM8.38867 15.7956C10.7291 16.2315 13.2698 16.2314 15.6104 15.7956L14.8408 13.9997H9.15918L8.38867 15.7956Z" fill="#FF00FF"/>
</svg>
