<svg width="24" height="24" viewBox="0 0 24 24" fill="none" xmlns="http://www.w3.org/2000/svg">
<path d="M12.6017 4.27251C13.5692 3.31204 14.9738 2.67826 16.507 3.02447L16.7618 3.08892C18.0047 3.43863 18.7997 4.1838 19.4445 4.7481C20.1389 5.35582 20.7209 5.82449 21.6964 6.01958L21.3038 7.98052C19.7797 7.67563 18.8608 6.89508 18.1271 6.25298C17.4328 5.64542 16.952 5.21787 16.2169 5.01372L16.0665 4.97564C15.3666 4.81753 14.6283 5.07936 14.0109 5.69243C13.3874 6.31158 13.0002 7.18912 13.0001 8.00005V9.00005C13.8358 8.37231 14.8745 8.00005 16.0001 8.00005C18.7615 8.00005 21 10.2387 21.0001 13.0001H19.0001C19 11.3433 17.6569 10.0001 16.0001 10.0001C14.3951 10.0001 13.0844 11.2607 13.004 12.8458L13.0001 13.0001V19.0001H19.0001V21.0001H5.00012V19.0001H11.0001V13.0001L10.9962 12.8458C10.916 11.2605 9.60524 10.0001 8.00012 10.0001C6.3433 10.0001 5.00018 11.3432 5.00012 13.0001H3.00012C3.00018 10.2387 5.23873 8.00005 8.00012 8.00005C9.12578 8.00005 10.1644 8.3723 11.0001 9.00005V8.00005L10.9962 7.85161C10.9121 6.32093 9.53584 5.00005 7.71301 5.00005C6.46481 5.00017 5.40448 5.63256 4.84973 6.5274L4.00012 6.00005L3.15051 5.47368C4.07805 3.9775 5.78812 3.00018 7.71301 3.00005C9.42942 3.00005 10.9937 3.78736 11.9679 5.02935C12.1575 4.75668 12.3705 4.50213 12.6017 4.27251Z" fill="#FF00FF"/>
</svg>
