<svg width="24" height="24" viewBox="0 0 24 24" fill="none" xmlns="http://www.w3.org/2000/svg">
<path d="M22.1025 5.00488C22.6067 5.05621 23 5.48232 23 6V9.4707C22.9999 12.0053 21.6313 14.3788 19.3418 15.5518C18.3888 16.04 17.3609 16.5438 16.625 16.834L16.3291 16.9443C15.4985 17.2336 14.5543 17.7027 13.7969 18.1152C13.4231 18.3188 13.1039 18.5035 12.8789 18.6367C12.7666 18.7032 12.6779 18.7575 12.6182 18.7939C12.5885 18.8121 12.5655 18.8258 12.5508 18.835C12.5438 18.8393 12.5386 18.8426 12.5352 18.8447C12.5334 18.8458 12.5319 18.8472 12.5312 18.8477H12.5303C12.2463 19.0253 11.8954 19.0475 11.5947 18.9141L11.4697 18.8477H11.4688C11.4681 18.8472 11.4666 18.8458 11.4648 18.8447C11.4614 18.8426 11.4562 18.8393 11.4492 18.835C11.4345 18.8258 11.4115 18.8121 11.3818 18.7939C11.3221 18.7575 11.2334 18.7032 11.1211 18.6367C10.8961 18.5035 10.5769 18.3188 10.2031 18.1152C9.54031 17.7543 8.73476 17.3498 7.9873 17.0605L7.6709 16.9443C7.11799 16.7518 6.31211 16.3786 5.48438 15.9688L4.6582 15.5518C4.03357 15.2317 3.47845 14.8214 3 14.3438V21H1V6L1.00488 5.89746C1.05621 5.39334 1.48233 5.00001 2 5H22L22.1025 5.00488ZM3 9.4707C3.0001 11.2929 3.98141 12.9578 5.56934 13.7715L6.38672 14.1836C7.1817 14.5769 7.89059 14.9029 8.3291 15.0557L8.70117 15.1924C9.57436 15.5298 10.4692 15.9837 11.1592 16.3594C11.4863 16.5375 11.7741 16.7018 12 16.834C12.2259 16.7018 12.5137 16.5375 12.8408 16.3594C13.6293 15.93 14.6855 15.3989 15.6709 15.0557L15.9121 14.9648C16.5228 14.7227 17.46 14.2688 18.4307 13.7715C20.0186 12.9578 20.9999 11.2929 21 9.4707V7H3V9.4707Z" fill="#FF00FF"/>
</svg>
