<svg width="24" height="24" viewBox="0 0 24 24" fill="none" xmlns="http://www.w3.org/2000/svg">
<path d="M6.11955 2.22468C6.51232 1.90449 7.09139 1.92698 7.45744 2.29304L14.2074 9.04304C14.5977 9.43353 14.5977 10.0666 14.2074 10.4571L13.0395 11.6251L18.7504 17.336L19.5004 16.586L22.4145 19.5001L19.5004 22.4141L16.5864 19.5001L17.3364 18.7501L11.6254 13.0391L10.4574 14.2071C10.067 14.5976 9.43392 14.5974 9.04338 14.2071L2.29338 7.4571C1.90286 7.06658 1.90286 6.43357 2.29338 6.04304L6.04338 2.29304L6.11955 2.22468ZM4.41448 6.75007L9.75041 12.086L12.0864 9.75007L6.75041 4.41413L4.41448 6.75007Z" fill="#FF00FF"/>
</svg>
