<svg width="24" height="24" viewBox="0 0 24 24" fill="none" xmlns="http://www.w3.org/2000/svg">
<path d="M17.5 4.49998C19.1568 4.49998 20.5 5.84314 20.5 7.49998V19C20.5 20.6568 19.1569 22 17.5 22H6.5C4.84315 22 3.5 20.6568 3.5 19V7.49998C3.50001 5.84314 4.84315 4.49998 6.5 4.49998H17.5ZM5.5 19C5.5 19.5523 5.94772 20 6.5 20H17.5C18.0523 20 18.5 19.5523 18.5 19V18H5.5V19ZM6.5 6.49998C5.94772 6.49998 5.50001 6.94771 5.5 7.49998V16H18.5V7.49998C18.5 6.94771 18.0523 6.49998 17.5 6.49998H6.5ZM12 0.374985C13.3235 0.374985 14.7271 0.812984 15.707 1.79295L14.293 3.20702C13.7729 2.68699 12.9265 2.37499 12 2.37498C11.0735 2.37499 10.2271 2.68699 9.70703 3.20702L8.29297 1.79295C9.27294 0.81298 10.6765 0.374987 12 0.374985Z" fill="#FF00FF"/>
</svg>
