<svg width="24" height="24" viewBox="0 0 24 24" fill="none" xmlns="http://www.w3.org/2000/svg">
<path d="M11.4181 3.18647C11.79 2.92022 12.3014 2.93908 12.6535 3.24312L12.6554 3.24507C12.6561 3.24565 12.6574 3.24627 12.6583 3.24702C12.6604 3.24879 12.6631 3.25116 12.6662 3.25386C12.6726 3.25947 12.6808 3.26776 12.6915 3.2773C12.7131 3.29653 12.7437 3.32364 12.7814 3.35835C12.8569 3.42786 12.9634 3.52795 13.0929 3.6562C13.3519 3.9127 13.7065 4.28421 14.0968 4.75093C14.6744 5.44163 15.3458 6.36146 15.9025 7.44429C16.8456 6.81067 17.739 6.31269 18.4533 5.95015C18.9381 5.70406 19.344 5.51852 19.631 5.39351C19.7744 5.33105 19.8892 5.28337 19.9689 5.25093C20.0083 5.23488 20.0396 5.2225 20.0617 5.21382C20.0725 5.20955 20.0817 5.20651 20.088 5.20405C20.0911 5.20286 20.0939 5.20097 20.0958 5.20015L20.0988 5.19917H20.0998C20.5683 5.02035 21.0973 5.21624 21.3361 5.65718C23.2929 9.27605 22.7355 13.1366 20.8205 16.0546C18.9183 18.9528 15.6285 20.9998 12.0001 21C8.3716 20.9998 5.08099 18.9529 3.17885 16.0546C1.26387 13.1366 0.706516 9.27596 2.66323 5.65718L2.71108 5.57808C2.96746 5.19346 3.46008 5.03157 3.89956 5.19917H3.90053L3.90346 5.20015C3.90543 5.2009 3.90818 5.20281 3.91128 5.20405C3.91763 5.20652 3.92678 5.20955 3.93764 5.21382C3.95964 5.22248 3.99094 5.23487 4.03042 5.25093C4.11012 5.28335 4.22491 5.33104 4.36831 5.39351C4.65524 5.5185 5.06119 5.70405 5.54604 5.95015C6.26011 6.31259 7.15294 6.81089 8.09585 7.44429C8.65256 6.36131 9.32481 5.44172 9.90249 4.75093C10.2928 4.28423 10.6474 3.91272 10.9064 3.6562C11.0359 3.52796 11.1424 3.42788 11.2179 3.35835C11.2556 3.32366 11.2861 3.29655 11.3078 3.2773C11.3184 3.26777 11.3267 3.25949 11.3332 3.25386C11.3362 3.25117 11.3389 3.2488 11.341 3.24702C11.3418 3.24625 11.3432 3.24563 11.3439 3.24507L11.3458 3.24312L11.4181 3.18647ZM4.03042 7.4355C2.95187 10.0726 3.43198 12.795 4.85073 14.957C5.95935 16.6462 7.61735 17.9542 9.49917 18.5849C9.38271 18.4236 9.26363 18.255 9.14565 18.0791C8.0912 16.5069 6.95327 14.2584 6.95327 11.8095C6.9533 10.942 7.0951 10.1132 7.32436 9.34175C6.34082 8.65134 5.38863 8.11394 4.64077 7.73433C4.41651 7.6205 4.21134 7.52028 4.03042 7.4355ZM19.3585 7.73433C18.6105 8.11404 17.6577 8.65113 16.674 9.34175C16.9033 10.1133 17.046 10.9419 17.046 11.8095C17.046 14.2585 15.9081 16.5069 14.8537 18.0791C14.7356 18.2551 14.6157 18.4235 14.4992 18.5849C16.3814 17.9543 18.0397 16.6465 19.1486 14.957C20.5675 12.7948 21.0467 10.0728 19.9679 7.4355C19.7872 7.5202 19.5825 7.62067 19.3585 7.73433ZM11.9992 5.4023C11.831 5.58085 11.639 5.79218 11.4367 6.03413C10.7865 6.81164 10.0423 7.86708 9.53921 9.07808L9.44253 9.32222C9.14041 10.1144 8.95331 10.952 8.95327 11.8095C8.95327 13.6736 9.83792 15.5212 10.8068 16.9658C11.2314 17.5988 11.6584 18.1312 11.9992 18.5273C12.34 18.1312 12.7677 17.5991 13.1925 16.9658C14.1614 15.5212 15.046 13.6737 15.046 11.8095C15.046 11.0591 14.9035 10.3238 14.6652 9.62105L14.5568 9.32222C14.0559 8.00901 13.2561 6.8634 12.5626 6.03413C12.3601 5.79196 12.1674 5.58094 11.9992 5.4023Z" fill="#FF00FF"/>
</svg>
