<svg width="24" height="24" viewBox="0 0 24 24" fill="none" xmlns="http://www.w3.org/2000/svg">
<path d="M12 3C14.1754 3 15.7212 3.5462 16.7461 4.13184C17.2551 4.42272 17.6285 4.71932 17.8818 4.95312C18.0082 5.0698 18.1049 5.17089 18.1738 5.24805C18.2082 5.28659 18.2359 5.3191 18.2568 5.34473C18.2673 5.3575 18.276 5.36875 18.2832 5.37793C18.2868 5.38253 18.2902 5.38697 18.293 5.39062C18.2943 5.3924 18.2957 5.39397 18.2969 5.39551L18.2988 5.39746V5.39941C18.2941 5.40371 18.2333 5.45005 17.5 6L18.2998 5.40039C18.5778 5.77118 18.5652 6.2846 18.2686 6.64062L16.6475 8.58496C17.1001 8.78516 17.6367 9.04101 18.2002 9.34766C19.6677 10.1462 21.5411 11.4093 22.3877 13.1094L22.5234 13.4141C22.8147 14.1395 22.9242 14.9528 22.9688 15.5527C22.9953 15.9104 23.0011 16.2253 23 16.4512C22.9995 16.5645 22.9973 16.6573 22.9951 16.7227C22.994 16.7552 22.993 16.7811 22.9922 16.7998V20.5H20.9922V17.7773H17.9961V20.5H15.9961V17.7773H13V20.5H11V17.7773H8.00391V20.5H6.00391V17.7773H3.00781V20.5H1.00781V16.7998C1.00697 16.7811 1.00596 16.7552 1.00488 16.7227C1.00272 16.6573 1.00054 16.5645 1 16.4512C0.998922 16.2253 1.0047 15.9104 1.03125 15.5527C1.08216 14.8671 1.21735 13.9027 1.6123 13.1094L1.7832 12.7959C2.69185 11.2533 4.42401 10.0963 5.7998 9.34766C6.36299 9.04119 6.89913 8.78511 7.35156 8.58496L5.73145 6.64062C5.43476 6.2846 5.42221 5.77118 5.7002 5.40039L6.5 6C5.76673 5.45005 5.70592 5.40371 5.70117 5.39941V5.39746L5.70312 5.39551C5.70429 5.39397 5.70568 5.3924 5.70703 5.39062C5.70983 5.38697 5.7132 5.38253 5.7168 5.37793C5.72398 5.36875 5.73273 5.3575 5.74316 5.34473C5.76409 5.3191 5.79176 5.28659 5.82617 5.24805C5.89506 5.17089 5.9918 5.0698 6.11816 4.95312C6.37146 4.71932 6.74486 4.42272 7.25391 4.13184C8.27877 3.5462 9.82456 3 12 3ZM12 5C10.1754 5 8.97123 5.4538 8.24609 5.86816C8.10967 5.94612 7.9903 6.02513 7.88477 6.09863L9.76855 8.35938C9.97908 8.61201 10.0514 8.95281 9.96289 9.26953C9.88538 9.54643 9.69351 9.77511 9.43848 9.89941L9.3252 9.94531L9.32422 9.94629C9.32275 9.9468 9.31998 9.94699 9.31641 9.94824C9.30884 9.9509 9.29686 9.95597 9.28027 9.96191C9.24703 9.97384 9.19601 9.99177 9.12988 10.0166C8.99755 10.0663 8.80403 10.1413 8.56641 10.2402C8.08963 10.4387 7.44191 10.7312 6.75586 11.1045C5.41558 11.8339 4.1245 12.7714 3.51562 13.7949L3.40332 14.001C3.18628 14.4369 3.07126 15.0831 3.02539 15.7012C3.02349 15.7268 3.02313 15.7523 3.02148 15.7773H20.9785C20.9769 15.7523 20.9765 15.7268 20.9746 15.7012C20.9345 15.1604 20.8417 14.598 20.6738 14.1738L20.5967 14.001C20.0472 12.8975 18.6738 11.8825 17.2441 11.1045C16.5581 10.7312 15.9104 10.4387 15.4336 10.2402C15.196 10.1413 15.0025 10.0663 14.8701 10.0166C14.804 9.99177 14.753 9.97384 14.7197 9.96191C14.7031 9.95597 14.6912 9.9509 14.6836 9.94824C14.68 9.94699 14.6772 9.9468 14.6758 9.94629L14.6748 9.94531C14.3641 9.83842 14.1257 9.58596 14.0371 9.26953C13.9486 8.95281 14.0209 8.61201 14.2314 8.35938L16.1143 6.09863C16.0089 6.02527 15.89 5.94596 15.7539 5.86816C15.0288 5.4538 13.8246 5 12 5Z" fill="#FF00FF"/>
</svg>
