<svg width="24" height="24" viewBox="0 0 24 24" fill="none" xmlns="http://www.w3.org/2000/svg">
<path d="M11.9998 1.5C16.843 1.5 19.8252 5.53247 19.2664 9.5H19.4998C19.8667 9.5 20.2039 9.70094 20.3787 10.0234C20.5535 10.346 20.538 10.7386 20.3377 11.0459L12.8377 22.5459C12.6531 22.829 12.3378 23 11.9998 23C11.6619 23 11.3465 22.829 11.1619 22.5459L3.66193 11.0459C3.46167 10.7386 3.44618 10.346 3.62091 10.0234C3.79576 9.70094 4.13295 9.5 4.49982 9.5H4.73322C4.17443 5.53247 7.15659 1.5 11.9998 1.5ZM17.6688 11.4766C15.4727 11.3047 13.7393 11.8468 11.8211 12.2305C10.1859 12.5575 8.49364 12.729 6.6424 11.9551L11.9998 20.1689L17.6688 11.4766ZM11.9998 3.5C8.15539 3.5 6.02023 6.85246 6.83868 9.83301C8.39042 10.6913 9.76201 10.6028 11.4285 10.2695C13.0038 9.95448 14.9359 9.37987 17.2479 9.45117C17.7934 6.57342 15.6809 3.5 11.9998 3.5Z" fill="#FF00FF"/>
</svg>
