<svg width="24" height="24" viewBox="0 0 24 24" fill="none" xmlns="http://www.w3.org/2000/svg">
<path d="M5 9.39458C5.00001 9.49856 5.01607 9.57533 5.03418 9.62505C5.05091 9.67087 5.06636 9.68723 5.07227 9.69243C5.42306 10.0016 6.18138 10.5 7.5 10.5C8.81863 10.5 9.57695 10.0016 9.92773 9.69243L9.94336 9.67388C9.9501 9.66364 9.9585 9.64779 9.9668 9.62505C9.98485 9.57531 9.99999 9.49834 10 9.39458V4.00005H12V9.39458C12 9.92396 11.8562 10.5864 11.3555 11.0928L11.251 11.1924C10.7217 11.659 9.82401 12.2278 8.5 12.4268V21H6.5V12.4268C5.176 12.2278 4.27826 11.659 3.74902 11.1924C3.1631 10.6758 3.00002 9.95925 3 9.39458V4.00005H5V9.39458ZM18.5107 2.12798C18.8204 1.95446 19.1996 1.95734 19.5059 2.13677C19.8121 2.31623 20 2.64508 20 3.00005V21H18V17H15.0029C14.4913 16.9998 14.0679 16.615 14.0098 16.1172L14.0039 16.0167V16.0157C14.0039 16.0151 14.0029 16.0138 14.0029 16.0127V15.9668C14.0025 15.9353 14.0014 15.8891 14.001 15.8301C14 15.7122 13.9995 15.5418 14 15.3301C14.001 14.9067 14.0076 14.3152 14.0283 13.6456C14.0694 12.3213 14.1682 10.6324 14.4121 9.31743L14.5107 8.82915C15.0267 6.4398 15.9293 4.81441 16.7588 3.75786C17.1993 3.1968 17.6151 2.80191 17.9316 2.54106C18.0897 2.41084 18.2227 2.31357 18.3223 2.24614C18.3721 2.21244 18.4135 2.18564 18.4453 2.16606C18.4612 2.1563 18.4754 2.14906 18.4863 2.14263C18.4918 2.13944 18.4968 2.13623 18.501 2.13384C18.5029 2.13275 18.5042 2.13088 18.5059 2.12993L18.5088 2.12896L18.5098 2.12798C18.5103 2.12766 18.5112 2.12771 19 3.00005L18.5107 2.12798ZM18 5.45513C17.44 6.28923 16.8404 7.51305 16.4648 9.25396L16.3789 9.68267C16.1644 10.8394 16.0679 12.4005 16.0273 13.7081C16.0123 14.1935 16.0059 14.6363 16.0029 15H18V5.45513ZM8.5 9.00005H6.5V4.00005H8.5V9.00005Z" fill="#FF00FF"/>
</svg>
