<svg width="24" height="24" viewBox="0 0 24 24" fill="none" xmlns="http://www.w3.org/2000/svg">
<path d="M12 2C13.4749 2.00005 14.6231 2.44594 15.4794 3.17773C16.3185 3.8949 16.8054 4.82459 17.0898 5.68652C17.3744 6.5494 17.4731 7.39528 17.5039 8.0127C17.5099 8.13408 17.5119 8.24786 17.5136 8.35254C19.1429 8.16227 20.7387 7.88787 22.2705 7.52637L22.3994 7.50488C22.7003 7.47444 23.0024 7.58172 23.2168 7.80176C23.4312 8.02187 23.5306 8.32681 23.4921 8.62695L23.4668 8.75488L20.6933 19.2656C20.3458 20.5824 19.1548 21.4998 17.7929 21.5H6.20699C4.84513 21.4999 3.65416 20.5824 3.3066 19.2656L0.533159 8.75488C0.443644 8.41534 0.538136 8.0533 0.783159 7.80176C1.02817 7.55025 1.3877 7.44582 1.72945 7.52637C3.27131 7.89026 4.87805 8.16606 6.51851 8.35645C6.51956 8.25228 6.52106 8.13916 6.52632 8.01855C6.55326 7.40131 6.64641 6.55552 6.92574 5.69238C7.20494 4.82982 7.6869 3.89744 8.52339 3.17871C9.37719 2.44519 10.525 2.00003 12 2ZM21.1171 9.81738C15.2684 10.9534 8.73041 10.9535 2.88179 9.81738L5.24019 18.7549C5.35601 19.1938 5.75311 19.4999 6.20699 19.5H17.7929C18.2468 19.4998 18.6439 19.1938 18.7597 18.7549L21.1171 9.81738ZM12 4C10.9543 4.00003 10.2827 4.30486 9.8271 4.69629C9.35445 5.10246 9.03534 5.67047 8.82906 6.30762C8.62304 6.9441 8.5465 7.59886 8.52437 8.10645C8.51706 8.27417 8.51692 8.42262 8.51851 8.54492C10.8369 8.71277 13.1967 8.71145 15.5146 8.54199C15.5152 8.42143 15.5149 8.27612 15.5068 8.1123C15.4815 7.60476 15.4005 6.9505 15.1904 6.31348C14.98 5.67559 14.6567 5.10498 14.1796 4.69727C13.7197 4.30442 13.0451 4.00005 12 4Z" fill="#FF00FF"/>
</svg>
