<svg width="24" height="24" viewBox="0 0 24 24" fill="none" xmlns="http://www.w3.org/2000/svg">
<path d="M12.3691 1.22437C12.7618 0.904025 13.3408 0.926619 13.707 1.29273L16.707 4.29273L16.7753 4.36891C17.0743 4.73549 17.0743 5.26404 16.7753 5.63062L16.707 5.7068L16.621 5.79273C16.2307 6.18322 16.2307 6.81631 16.621 7.2068L16.7929 7.37867L16.8691 7.44703C17.2618 7.76721 17.8409 7.7446 18.207 7.37867L18.2929 7.29273L18.3691 7.22437C18.7618 6.90402 19.3408 6.92662 19.707 7.29273L22.707 10.2927C23.0975 10.6833 23.0975 11.3163 22.707 11.7068L11.707 22.7068C11.3164 23.0973 10.6834 23.0973 10.2929 22.7068L7.29289 19.7068C6.90237 19.3163 6.90237 18.6833 7.29289 18.2927L7.37883 18.2068L7.44719 18.1306C7.74602 17.7641 7.74602 17.2354 7.44719 16.8689L7.37883 16.7927L7.20696 16.6209C6.84088 16.2549 6.26178 16.2323 5.86906 16.5525L5.79289 16.6209L5.70696 16.7068C5.34084 17.0729 4.76184 17.0955 4.36907 16.7752L4.29289 16.7068L1.29289 13.7068C0.902369 13.3163 0.902369 12.6833 1.29289 12.2927L12.2929 1.29273L12.3691 1.22437ZM3.41399 12.9998L5.0927 14.6785C6.22666 14.0757 7.66565 14.2516 8.62102 15.2068L8.79289 15.3787L8.89934 15.49C9.7607 16.4432 9.89971 17.8155 9.32024 18.906L10.9999 20.5857L20.5859 10.9998L18.9062 9.32008C17.8156 9.89955 16.4434 9.76054 15.4902 8.89918L15.3788 8.79273L15.207 8.62086C14.2517 7.66549 14.0759 6.2265 14.6786 5.09254L12.9999 3.41383L3.41399 12.9998Z" fill="#FF00FF"/>
</svg>
