<svg width="24" height="24" viewBox="0 0 24 24" fill="none" xmlns="http://www.w3.org/2000/svg">
<path d="M7.39746 4.20147C7.64787 4.01259 7.97281 3.95234 8.27441 4.03838L22.2744 8.03838C22.7037 8.16107 23 8.55385 23 9.0003V20.0003C22.9998 20.5178 22.6065 20.9431 22.1025 20.9944L22 21.0003H2C1.44784 21.0003 1.00019 20.5524 1 20.0003V14.0003C1 13.7077 1.12828 13.432 1.34668 13.2435L1.44531 13.1683L7 9.46514V5.0003C7 4.68658 7.14705 4.39044 7.39746 4.20147ZM9 19.0003H21V9.7542L9 6.32549V19.0003ZM3 14.5355V19.0003H7V11.8685L3 14.5355Z" fill="#FF00FF"/>
</svg>
