<svg width="24" height="24" viewBox="0 0 24 24" fill="none" xmlns="http://www.w3.org/2000/svg">
<path d="M5 11C7.76142 11 10 13.2386 10 16C10 18.7614 7.76142 21 5 21C2.23858 21 0 18.7614 0 16C0 13.2386 2.23858 11 5 11ZM11 5H6.34668L6.09375 6.51465L15.4209 12.5098C16.329 11.5787 17.5967 11 19 11C21.7614 11 24 13.2386 24 16C24 18.7614 21.7614 21 19 21C16.2386 21 14 18.7614 14 16C14 15.3621 14.1201 14.7524 14.3379 14.1914L4.45898 7.84082C4.1232 7.62477 3.94815 7.22982 4.01367 6.83594L4.51367 3.83594L4.53223 3.74707C4.64594 3.31074 5.04158 3 5.5 3H11V5ZM5 13C3.34315 13 2 14.3431 2 16C2 17.6569 3.34315 19 5 19C6.65685 19 8 17.6569 8 16C8 14.3431 6.65685 13 5 13ZM19 13C18.3073 13 17.6709 13.2366 17.1631 13.6309L19.541 15.1592L18.459 16.8408L16.0811 15.3125C16.0292 15.5334 16 15.7633 16 16C16 17.6569 17.3431 19 19 19C20.6569 19 22 17.6569 22 16C22 14.3431 20.6569 13 19 13ZM20 9H14V7H20V9Z" fill="#FF00FF"/>
</svg>
