<svg width="24" height="24" viewBox="0 0 24 24" fill="none" xmlns="http://www.w3.org/2000/svg">
<path d="M14.512 3.60156C16.6703 2.77148 18.7454 2.71386 20.0159 3.98437C21.2068 5.17542 21.2307 7.07319 20.5452 9.08398L20.3987 9.48828C20.0929 10.2832 19.6113 11.1483 19.0637 12C19.6113 12.8517 20.0929 13.7168 20.3987 14.5117L20.5452 14.916C21.2307 16.9268 21.2068 18.8246 20.0159 20.0156C18.7454 21.2861 16.6703 21.2285 14.512 20.3984C13.6767 20.0772 12.8311 19.6443 11.9983 19.1269C11.2974 19.5622 10.5853 19.941 9.87427 20.2422L9.48853 20.3984C7.39751 21.2027 5.38456 21.2819 4.10571 20.1309L3.98462 20.0156C2.71408 18.7451 2.77165 16.6701 3.60181 14.5117L3.77173 14.0937C4.06952 13.3958 4.44162 12.6936 4.87231 12C4.44162 11.3064 4.06952 10.6042 3.77173 9.90624L3.60181 9.48828C2.77165 7.32985 2.71408 5.25493 3.98462 3.98437L4.10571 3.86913C5.38456 2.71813 7.39751 2.79732 9.48853 3.60156L9.87427 3.75781C10.5852 4.05888 11.2975 4.43696 11.9983 4.87206C12.8309 4.35487 13.6768 3.92278 14.512 3.60156ZM6.13501 13.8027C5.93887 14.1628 5.76419 14.5204 5.61353 14.873L5.46899 15.2305C4.71369 17.1945 5.00668 18.2095 5.39868 18.6016L5.47974 18.6738C5.92161 19.0262 6.92894 19.2392 8.76978 18.5312L9.09497 18.4004C9.45743 18.2469 9.8259 18.0663 10.1985 17.8633C9.44883 17.2768 8.72427 16.6342 8.04517 15.9551C7.36601 15.2759 6.72153 14.5525 6.13501 13.8027ZM18.6018 5.39843C18.2098 5.00644 17.1946 4.71353 15.2307 5.46874C13.3363 6.19735 11.2625 7.65573 9.45923 9.45898C8.6529 10.2653 7.91558 11.1259 7.28149 12C7.91557 12.8741 8.65291 13.7347 9.45923 14.541C11.2625 16.3443 13.3364 17.8026 15.2307 18.5312C17.1946 19.2865 18.2098 18.9936 18.6018 18.6016C18.9693 18.2339 19.2502 17.3183 18.6614 15.5869L18.5315 15.2305C18.3613 14.7879 18.1124 14.2984 17.8137 13.7852C17.7671 13.847 17.7225 13.9098 17.676 13.9707C16.606 15.3731 15.5087 16.5996 14.9124 17.168L14.2229 16.4443L13.5325 15.7207C14.0294 15.2471 15.0569 14.1067 16.0862 12.7578C16.2764 12.5086 16.4623 12.2542 16.6448 12C16.4623 11.7457 16.2764 11.4914 16.0862 11.2422C15.0569 9.89326 14.0295 8.75292 13.5325 8.27929L14.2229 7.55566L14.9124 6.83203C15.5087 7.40041 16.606 8.62691 17.676 10.0293C17.7223 10.09 17.7673 10.1522 17.8137 10.2139C18.1122 9.70083 18.3614 9.21185 18.5315 8.76953L18.6614 8.41308C19.2502 6.68171 18.9693 5.76607 18.6018 5.39843ZM8.76978 5.46874C6.92893 4.7608 5.9216 4.97383 5.47974 5.32617L5.39868 5.39843C5.00668 5.79045 4.71369 6.80552 5.46899 8.76953L5.61353 9.12695C5.76409 9.47932 5.93903 9.8365 6.13501 10.1963C6.72141 9.44675 7.36619 8.7239 8.04517 8.04492C8.72441 7.36568 9.44866 6.72234 10.1985 6.13574C9.82604 5.93276 9.4573 5.75307 9.09497 5.5996L8.76978 5.46874Z" fill="#FF00FF"/>
</svg>
