<svg width="24" height="24" viewBox="0 0 24 24" fill="none" xmlns="http://www.w3.org/2000/svg">
<path d="M7 4C7 3.44772 7.44772 3 8 3H10C10.5523 3 11 3.44772 11 4V6C11 6.55228 10.5523 7 10 7H8C7.44772 7 7 6.55228 7 6V4ZM13 4C13 3.44772 13.4477 3 14 3H16C16.5523 3 17 3.44772 17 4V8C17 8.55228 16.5523 9 16 9H14C13.4477 9 13 8.55228 13 8V4ZM3 8C3 7.44772 3.44772 7 4 7H6C6.55228 7 7 7.44772 7 8V12C7 12.5523 6.55228 13 6 13H4C3.44772 13 3 12.5523 3 12V8ZM17 10C17 9.44771 17.4477 9 18 9H20C20.5523 9 21 9.44771 21 10V16C21 16.5523 20.5523 17 20 17H18C17.4477 17 17 16.5523 17 16V10ZM7 9C7 8.44771 7.44772 8 8 8H10C10.5523 8 11 8.44771 11 9V14C11 14.5523 10.5523 15 10 15H8C7.44772 15 7 14.5523 7 14V9ZM13 11C13 10.4477 13.4477 10 14 10H16C16.5523 10 17 10.4477 17 11V18C17 18.5523 16.5523 19 16 19H14C13.4477 19 13 18.5523 13 18V11ZM3 15C3 14.4477 3.44772 14 4 14H6C6.55228 14 7 14.4477 7 15V20C7 20.5523 6.55228 21 6 21H4C3.44772 21 3 20.5523 3 20V15ZM7 17C7 16.4477 7.44772 16 8 16H10C10.5523 16 11 16.4477 11 17V20C11 20.5523 10.5523 21 10 21H8C7.44772 21 7 20.5523 7 20V17Z" fill="#FF00FF"/>
</svg>
