<svg width="24" height="24" viewBox="0 0 24 24" fill="none" xmlns="http://www.w3.org/2000/svg">
<path d="M10.9089 9.01318C12.0564 8.9022 12.9143 9.65261 13.2107 10.5044C13.3631 10.9427 13.3891 11.4543 13.2078 11.9438C13.1145 12.1954 12.9717 12.4234 12.7878 12.6206L20.4119 12.1489L20.699 12.145C22.0977 12.1954 23.0071 13.2679 23.2185 14.355C23.3327 14.9433 23.2626 15.6 22.9236 16.1753C22.5742 16.7678 21.9867 17.1933 21.2273 17.3706L21.2263 17.3696L11.4519 19.7944C10.9008 19.9311 10.3351 20.0005 9.76733 20.0005H1.92554V18.0005H9.76733C10.1729 18.0005 10.5769 17.9506 10.9705 17.853L20.7595 15.4253L20.7722 15.4224L20.8679 15.396C21.0731 15.3294 21.1593 15.2302 21.2009 15.1597C21.2583 15.0621 21.289 14.9146 21.2546 14.7368C21.191 14.4095 20.9701 14.1839 20.6697 14.1479L20.5359 14.145L8.19702 14.9087C7.71978 14.9382 7.28849 14.6252 7.16772 14.1626C7.0473 13.6996 7.27155 13.2152 7.70288 13.0083L11.2468 11.3101L11.325 11.2583C11.3298 11.2531 11.3314 11.2496 11.3318 11.2485C11.333 11.2446 11.3404 11.2149 11.322 11.1616C11.3023 11.1051 11.2649 11.0577 11.2263 11.0308C11.2116 11.0206 11.1945 11.0118 11.1736 11.0063L11.0935 11.0024L11.0486 11.0063L5.91577 11.3657C5.67911 11.3824 5.45734 11.483 5.28882 11.647L5.22046 11.7202L2.76538 14.6431L1.23413 13.3579L3.68823 10.4341L3.78882 10.3208C4.30549 9.76505 5.01543 9.42395 5.77612 9.3706L10.9089 9.01123V9.01318ZM17.5427 4.91748C18.2212 4.20442 19.3212 4.20447 19.9998 4.91748C20.6783 5.63061 20.6783 6.78735 19.9998 7.50049L17.1824 10.2153C17.0856 10.3086 16.9325 10.3086 16.8357 10.2153L14.0173 7.50049C13.3388 6.78742 13.339 5.63063 14.0173 4.91748C14.6959 4.20435 15.7968 4.20435 16.4753 4.91748L17.0085 5.479L17.5427 4.91748Z" fill="#FF00FF"/>
</svg>
