<svg width="24" height="24" viewBox="0 0 24 24" fill="none" xmlns="http://www.w3.org/2000/svg">
<path d="M14 2C16.2091 2 18 3.79086 18 6V7.5H19L19.2061 7.50488C21.3194 7.61211 23 9.35996 23 11.5V16C23 18.2091 21.2091 20 19 20H17V18H19C20.1046 18 21 17.1046 21 16V11.5C21 10.3954 20.1046 9.5 19 9.5H18V10.5C18 12.7091 16.2091 14.5 14 14.5L8 14.5V16C8 17.1046 8.89544 18 10 18H12.5859L12.7832 18.0098C13.2412 18.0552 13.6717 18.2577 14 18.5859L17.207 21.793L15.793 23.207L12.5859 20H10C7.79087 20 6 18.2091 6 16V14.5H5C2.79086 14.5 1 12.7091 1 10.5L1 6C1 3.85996 2.68056 2.11211 4.79395 2.00488L5 2L14 2ZM5 4C3.89543 4 3 4.89543 3 6L3 10.5C3 11.6046 3.89543 12.5 5 12.5H6V11.5C6 9.29086 7.79086 7.5 10 7.5L16 7.5V6C16 4.89543 15.1046 4 14 4L5 4ZM10 9.5C8.89543 9.5 8 10.3954 8 11.5V12.5L14 12.5C15.1046 12.5 16 11.6046 16 10.5V9.5L10 9.5Z" fill="#FF00FF"/>
</svg>
