<svg width="24" height="24" viewBox="0 0 24 24" fill="none" xmlns="http://www.w3.org/2000/svg">
<path d="M12 5.49951H6.5C4.84329 5.49951 3.50023 6.84285 3.5 8.49951V13.4995C3.5 15.1564 4.84315 16.4995 6.5 16.4995H9.62012C10.1095 16.4996 10.5823 16.6794 10.9482 17.0044L15.1641 20.7515L14.5 21.4995L13.8359 22.2466L9.62012 18.4995H6.5C3.73858 18.4995 1.5 16.2609 1.5 13.4995V8.49951C1.50023 5.73828 3.73872 3.49951 6.5 3.49951H12V5.49951ZM22.5 13.4995C22.5 16.2609 20.2614 18.4995 17.5 18.4995H15V16.4995H17.5C19.1569 16.4995 20.5 15.1564 20.5 13.4995V10.9995H22.5V13.4995ZM13.7627 7.72217C13.8382 7.49326 14.1618 7.49326 14.2373 7.72217L14.7031 9.13818C14.728 9.21343 14.787 9.27259 14.8623 9.29736L16.2783 9.76318C16.5069 9.83883 16.507 10.1622 16.2783 10.2378L14.8623 10.7036C14.787 10.7285 14.7279 10.7874 14.7031 10.8628L14.2373 12.2778C14.1619 12.507 13.8381 12.507 13.7627 12.2778L13.2969 10.8628C13.2721 10.7874 13.213 10.7285 13.1377 10.7036L11.7217 10.2378C11.493 10.1622 11.4931 9.83883 11.7217 9.76318L13.1377 9.29736C13.213 9.27259 13.272 9.21343 13.2969 9.13818L13.7627 7.72217ZM18.2627 1.72217C18.3381 1.49308 18.6619 1.49308 18.7373 1.72217L19.5742 4.26611C19.599 4.34151 19.658 4.40145 19.7334 4.42627L22.2783 5.26221C22.5071 5.33771 22.5071 5.66225 22.2783 5.73779L19.7334 6.57471C19.6581 6.59957 19.599 6.65857 19.5742 6.73389L18.7373 9.27783C18.6619 9.50703 18.3381 9.50703 18.2627 9.27783L17.4258 6.73389C17.401 6.65857 17.3419 6.59957 17.2666 6.57471L14.7217 5.73779C14.4929 5.66225 14.4929 5.33771 14.7217 5.26221L17.2666 4.42627C17.342 4.40145 17.401 4.34151 17.4258 4.26611L18.2627 1.72217Z" fill="#FF00FF"/>
</svg>
