<svg width="24" height="24" viewBox="0 0 24 24" fill="none" xmlns="http://www.w3.org/2000/svg">
<path fill-rule="evenodd" clip-rule="evenodd" d="M4.92885 4.92857C8.83405 1.02346 15.1662 1.02351 19.0714 4.92857C22.9766 8.83378 22.9766 15.1659 19.0714 19.0711C15.1662 22.9764 8.8341 22.9764 4.92885 19.0711C1.02377 15.1659 1.02366 8.83376 4.92885 4.92857ZM17.6574 6.34263C14.5332 3.21862 9.46706 3.21857 6.34292 6.34263C3.21877 9.46677 3.21888 14.5329 6.34292 17.6571C9.46711 20.7813 14.5332 20.7813 17.6574 17.6571C20.7815 14.5329 20.7815 9.4668 17.6574 6.34263ZM17.2589 9.15025L11.2589 16.1502C11.0689 16.3719 10.7921 16.4999 10.5001 16.4999C10.2083 16.4998 9.93131 16.3719 9.74135 16.1502L6.74135 12.6502L8.25893 11.3495L10.5001 13.9637L15.7414 7.84947L17.2589 9.15025Z" fill="#FF00FF"/>
</svg>
