<svg width="24" height="24" viewBox="0 0 24 24" fill="none" xmlns="http://www.w3.org/2000/svg">
<path d="M17.5 3.49994C20.2614 3.49994 22.5 5.73852 22.5 8.49994V13.4999C22.5 16.2614 20.2614 18.4999 17.5 18.4999H15V16.4999H17.5C19.1569 16.4999 20.5 15.1568 20.5 13.4999V8.49994C20.5 6.84308 19.1569 5.49994 17.5 5.49994H6.5C4.84315 5.49994 3.5 6.84309 3.5 8.49994V13.4999C3.5 15.1568 4.84315 16.4999 6.5 16.4999H9.62012C10.1096 16.5 10.5823 16.6797 10.9482 17.0048L15.1641 20.7519L14.5 21.4999L13.8359 22.247L9.62012 18.4999H6.5C3.73858 18.4999 1.5 16.2614 1.5 13.4999V8.49994C1.5 5.73851 3.73858 3.49994 6.5 3.49994H17.5Z" fill="#FF00FF"/>
</svg>
