<svg width="24" height="24" viewBox="0 0 24 24" fill="none" xmlns="http://www.w3.org/2000/svg">
<path d="M11.4141 2.42389C11.7637 2.17112 12.2363 2.17112 12.5859 2.42389L21.5859 8.93854C21.8458 9.1266 22 9.42835 22 9.74909V20.0001C22 20.5523 21.5523 21.0001 21 21.0001H3C2.44774 21.0001 2.00005 20.5523 2 20.0001V9.74909C2 9.42835 2.15424 9.1266 2.41406 8.93854L11.4141 2.42389ZM4.65137 10.0001C4.15672 10.0001 3.96254 10.6416 4.37402 10.9161L11.7227 15.8155C11.8906 15.9274 12.1094 15.9274 12.2773 15.8155L19.626 10.9161C20.0375 10.6416 19.8433 10.0001 19.3486 10.0001H4.65137Z" fill="#FF00FF"/>
</svg>
