<svg width="24" height="24" viewBox="0 0 24 24" fill="none" xmlns="http://www.w3.org/2000/svg">
<path d="M17.5 3.49994C20.2614 3.49994 22.5 5.73852 22.5 8.49994V13.4999C22.5 16.2614 20.2614 18.4999 17.5 18.4999H15V16.4999H17.5C19.1569 16.4999 20.5 15.1568 20.5 13.4999V8.49994C20.5 6.84308 19.1569 5.49994 17.5 5.49994H6.5C4.84315 5.49994 3.5 6.84309 3.5 8.49994V13.4999C3.5 15.1568 4.84315 16.4999 6.5 16.4999H9.62012C10.1096 16.5 10.5823 16.6797 10.9482 17.0048L15.1641 20.7519L14.5 21.4999L13.8359 22.247L9.62012 18.4999H6.5C3.73858 18.4999 1.5 16.2614 1.5 13.4999V8.49994C1.5 5.73851 3.73858 3.49994 6.5 3.49994H17.5ZM7.5 9.74994C8.32841 9.74994 8.99997 10.4215 9 11.2499C9 12.0784 8.32843 12.7499 7.5 12.7499C6.67157 12.7499 6 12.0784 6 11.2499C6.00003 10.4215 6.67159 9.74994 7.5 9.74994ZM12 9.74994C12.8284 9.74994 13.5 10.4215 13.5 11.2499C13.5 12.0784 12.8284 12.7499 12 12.7499C11.1716 12.7499 10.5 12.0784 10.5 11.2499C10.5 10.4215 11.1716 9.74994 12 9.74994ZM16.5 9.74994C17.3284 9.74994 18 10.4215 18 11.2499C18 12.0784 17.3284 12.7499 16.5 12.7499C15.6716 12.7499 15 12.0784 15 11.2499C15 10.4215 15.6716 9.74994 16.5 9.74994Z" fill="#FF00FF"/>
</svg>
