<svg width="24" height="24" viewBox="0 0 24 24" fill="none" xmlns="http://www.w3.org/2000/svg">
<path d="M23.207 13.207L19.9141 16.5L23.207 19.793L21.793 21.207L18.5 17.9141L15.207 21.207L13.793 19.793L17.0859 16.5L13.793 13.207L15.207 11.793L18.5 15.0859L21.793 11.793L23.207 13.207ZM12 14C7.84138 14 4.74385 16.3079 4.11816 19H12V21H3C2.44772 21 2 20.5523 2 20C2 15.3624 6.72559 12 12 12V14ZM12 2.5C14.2091 2.5 16 4.29086 16 6.5C16 8.70914 14.2091 10.5 12 10.5C9.79086 10.5 8 8.70914 8 6.5C8 4.29086 9.79086 2.5 12 2.5ZM12 4.5C10.8954 4.5 10 5.39543 10 6.5C10 7.60457 10.8954 8.5 12 8.5C13.1046 8.5 14 7.60457 14 6.5C14 5.39543 13.1046 4.5 12 4.5Z" fill="#FF00FF"/>
</svg>
