<svg width="24" height="24" viewBox="0 0 24 24" fill="none" xmlns="http://www.w3.org/2000/svg">
<path d="M13.0081 2.72C14.6779 2.72001 16.1075 3.30029 17.1155 4.37234C18.1166 5.43696 18.6204 6.89858 18.6204 8.52078H16.6204C16.6204 7.30824 16.2481 6.36951 15.6585 5.74246C15.0758 5.12279 14.1993 4.72001 13.0081 4.72C11.8026 4.72 10.8869 5.11418 10.2776 5.70828C9.66906 6.30182 9.29624 7.16248 9.29618 8.23074C9.29618 9.34829 9.69458 10.2789 10.2259 11.3264L15.2259 11.3264V13.3264L11.2015 13.3264C11.5154 14.0953 11.7531 14.9494 11.7532 15.9046C11.7532 16.3311 11.7033 16.8399 11.596 17.3743C11.6969 17.4604 11.7974 17.5434 11.8938 17.6253C13.0312 18.5907 14.0002 19.303 15.302 19.303C16.0507 19.303 16.5322 19.0426 16.8587 18.6243C17.2144 18.1683 17.4734 17.4087 17.4905 16.2805L18.4905 16.2962L19.4895 16.3108C19.4686 17.6903 19.154 18.9343 18.4358 19.8548C17.688 20.813 16.5944 21.303 15.302 21.303C13.367 21.303 11.9659 20.2882 10.8831 19.387C10.2813 20.4773 9.23118 21.5042 7.59013 21.5042C6.7785 21.5042 5.99989 21.2408 5.4163 20.6956C4.82464 20.1426 4.50685 19.3669 4.51103 18.4964C4.51531 17.6149 4.85647 16.8315 5.47782 16.2776C6.08878 15.7332 6.89935 15.472 7.75419 15.472C8.51126 15.472 9.17101 15.7008 9.74931 16.0149C9.75029 15.9774 9.75321 15.9404 9.75321 15.9046C9.75312 15.0076 9.44493 14.2272 8.99931 13.3264H6.02665L6.02665 11.3264H8.01103C7.61887 10.433 7.29618 9.41465 7.29618 8.23074C7.29624 6.67823 7.84906 5.28325 8.88114 4.27664C9.91261 3.27071 11.3529 2.72 13.0081 2.72ZM7.75419 17.472C7.29803 17.472 6.99017 17.6092 6.80888 17.7708C6.63814 17.9229 6.51274 18.1537 6.51103 18.5061C6.50932 18.8691 6.63279 19.0948 6.78251 19.2346C6.9407 19.3823 7.20498 19.5042 7.59013 19.5042C8.26577 19.5042 8.77872 19.1085 9.17607 18.344C9.21909 18.2612 9.25737 18.175 9.29521 18.0882C9.20996 18.0275 9.12495 17.9696 9.03935 17.9153C8.56807 17.6162 8.16389 17.472 7.75419 17.472Z" fill="#FF00FF"/>
</svg>
