<svg width="24" height="24" viewBox="0 0 24 24" fill="none" xmlns="http://www.w3.org/2000/svg">
<path d="M12.9998 3.26172C15.5115 3.58884 17.31 5.12577 18.1726 6.83789L17.28 7.28809L16.3865 7.73828C15.8316 6.63676 14.6779 5.59183 12.9998 5.28809L12.9998 10.9766C14.0474 11.2086 15.1623 11.5088 16.0681 12.0391C16.6566 12.3836 17.1955 12.8447 17.5828 13.4785C17.9728 14.1169 18.1716 14.87 18.1716 15.7363C18.1715 17.2108 17.5359 18.5202 16.4138 19.4424C15.5185 20.1781 14.3485 20.6421 12.9998 20.7939V22.5H10.9998V20.8018C8.01183 20.5157 6.05565 18.9431 4.98022 16.8682L6.75562 15.9482C7.49797 17.3804 8.80628 18.5259 10.9998 18.791V12.5957C9.97604 12.3737 8.88896 12.0969 8.00659 11.6162C7.42204 11.2976 6.87666 10.8657 6.4812 10.2598C6.08072 9.64606 5.87575 8.91816 5.87573 8.08008C5.87573 6.69518 6.46265 5.43711 7.56714 4.5459C8.45001 3.83358 9.61802 3.38849 10.9998 3.24609V1.5L12.9998 1.5V3.26172ZM12.9998 18.7773C13.9185 18.64 14.6356 18.3155 15.1443 17.8975C15.8125 17.3483 16.1715 16.6016 16.1716 15.7363C16.1716 15.1862 16.0487 14.8046 15.8757 14.5215C15.7 14.2338 15.4351 13.9852 15.0583 13.7646C14.5106 13.444 13.8128 13.2259 12.9998 13.0303V18.7773ZM10.9998 5.26074C10.0293 5.39054 9.31239 5.70767 8.823 6.10254C8.19434 6.60982 7.87573 7.29303 7.87573 8.08008C7.87575 8.5801 7.99349 8.91793 8.15601 9.16699C8.32358 9.42372 8.58308 9.65198 8.96362 9.85938C9.50905 10.1566 10.1973 10.3584 10.9998 10.5449V5.26074Z" fill="#FF00FF"/>
</svg>
