<svg width="24" height="24" viewBox="0 0 24 24" fill="none" xmlns="http://www.w3.org/2000/svg">
<path d="M12.7158 3.51367L12.9834 3.53125C14.3107 3.63975 15.4658 4.02096 16.3145 4.76758C17.2472 5.58829 17.6786 6.73425 17.6787 8.0498C17.6787 9.6421 16.9203 10.8523 15.7559 11.6348C16.0983 11.8132 16.4064 12.0176 16.6797 12.2461C17.8416 13.2178 18.25 14.5097 18.25 15.7031C18.25 17.1319 17.7222 18.3752 16.6875 19.2441C15.6806 20.0896 14.2976 20.4938 12.7158 20.499V23H10.7158V20.5H6.25V3.5H7.25C8.15372 3.5 9.05746 3.50292 9.95898 3.50586C10.2112 3.50668 10.4639 3.50608 10.7158 3.50684V1H12.7158V3.51367ZM8.25 18.5H12.6846C13.9621 18.5 14.8504 18.1754 15.4014 17.7129C15.9309 17.2682 16.25 16.6135 16.25 15.7031C16.25 14.9738 16.0142 14.2968 15.3965 13.7803C14.7529 13.2423 13.5599 12.7647 11.418 12.7646H8.25V18.5ZM8.25 10.7646H11.418L11.9043 10.752C13.0143 10.6922 13.9422 10.4273 14.5898 10.0107C15.2862 9.56262 15.6787 8.93595 15.6787 8.0498C15.6786 7.19106 15.4129 6.63894 14.9932 6.26953C14.5469 5.877 13.7954 5.57558 12.6191 5.51074C11.7298 5.51065 10.8404 5.50875 9.95312 5.50586C9.38499 5.50401 8.81704 5.50307 8.25 5.50195V10.7646Z" fill="#FF00FF"/>
</svg>
