<svg width="24" height="24" viewBox="0 0 24 24" fill="none" xmlns="http://www.w3.org/2000/svg">
<path d="M13.043 2.737C14.4808 2.737 15.7164 3.15322 16.7041 3.98407C17.6777 4.80316 18.3332 5.95978 18.749 7.31122L16.8369 7.89911C16.4968 6.79386 16.0119 6.01598 15.417 5.51532C14.836 5.02654 14.074 4.737 13.043 4.737C11.8912 4.73702 10.7676 5.20037 9.90918 6.28387C9.39757 6.92979 8.96072 7.82584 8.68457 9.02411H14.2783L14.2783 11.0241L8.40332 11.0241C8.38334 11.3477 8.37305 11.6864 8.37305 12.0407C8.37305 12.3445 8.38241 12.6366 8.39648 12.9177L13.459 12.9177V14.9177L8.64062 14.9177C8.90454 16.1927 9.34278 17.1345 9.86523 17.8044C10.701 18.8759 11.8172 19.3454 13.043 19.3454C14.0746 19.3454 14.8362 19.0558 15.417 18.5671C16.0118 18.0665 16.4967 17.2887 16.8369 16.1833L18.749 16.7712C18.3333 18.1223 17.6784 19.2782 16.7051 20.0974C15.7174 20.9284 14.4813 21.3454 13.043 21.3454C11.2519 21.3454 9.53301 20.6308 8.28809 19.0349C7.47768 17.9958 6.90273 16.6256 6.60547 14.9177H4.5L4.5 12.9177H6.39453C6.38178 12.6326 6.37305 12.3403 6.37305 12.0407C6.37305 11.6919 6.38434 11.3531 6.40234 11.0241H4.5V9.02411H6.64062C6.95673 7.37562 7.54213 6.0511 8.3418 5.04169C9.59686 3.4575 11.3088 2.73702 13.043 2.737Z" fill="#FF00FF"/>
</svg>
