<svg width="24" height="24" viewBox="0 0 24 24" fill="none" xmlns="http://www.w3.org/2000/svg">
<path d="M5.16309 15.8371C6.22869 14.75 7.95686 14.75 9.02246 15.8371C10.088 16.9242 10.088 18.6866 9.02246 19.7736C7.63876 21.1852 4.06566 21.3978 3 20.3107C4.63705 19.4757 4.09784 16.9243 5.16309 15.8371ZM19.7383 4.12226C19.9351 3.94758 20.2344 3.95508 20.4219 4.13984L20.8486 4.56074C21.04 4.74936 21.0473 5.05567 20.8662 5.2541L11.6191 15.385C11.4279 15.5944 11.1005 15.6035 10.8984 15.4045L9.44434 13.9699C9.23843 13.7668 9.24754 13.4324 9.46387 13.2404L19.7383 4.12226Z" fill="#FF00FF"/>
</svg>
