<svg width="24" height="24" viewBox="0 0 24 24" fill="none" xmlns="http://www.w3.org/2000/svg">
<path d="M11.7939 4.56895C14.8611 3.77522 18.3366 2.8234 21.9424 4.60313C22.2836 4.77154 22.4998 5.11916 22.5 5.49961V17.4996C22.5 17.8452 22.3217 18.1667 22.0283 18.3492C21.7348 18.5317 21.3676 18.549 21.0576 18.3961C18.2156 16.9933 15.474 17.6828 12.2949 18.5055C9.31027 19.2778 5.93309 20.1672 2.39551 18.5572L2.05273 18.3941C1.71403 18.2247 1.50002 17.8783 1.5 17.4996V5.49961L1.50781 5.3707C1.54636 5.07469 1.71684 4.80834 1.97461 4.64902C2.26931 4.46708 2.63745 4.45024 2.94727 4.60508C5.8513 6.0571 8.62833 5.38816 11.7939 4.56895ZM20.5 6.14707C17.8543 5.08441 15.2657 5.73667 12.2949 6.50547C9.62233 7.19709 6.6354 7.98119 3.5 6.98203V16.8561C6.20622 17.9707 8.82958 17.3361 11.7939 16.5689C14.45 15.8816 17.412 15.0768 20.5 16.0289V6.14707ZM12 8.49961C13.4999 8.49961 13.9999 9.84293 14 11.4996C14 13.1565 13.5 14.4996 12 14.4996C10.5 14.4996 10 13.1565 10 11.4996C10.0001 9.84293 10.5001 8.49961 12 8.49961Z" fill="#FF00FF"/>
</svg>
