<svg width="24" height="24" viewBox="0 0 24 24" fill="none" xmlns="http://www.w3.org/2000/svg">
<path d="M3.5 19H7.5V21H2.5L2.39746 20.9951C1.89334 20.9438 1.5 20.5177 1.5 20V15H3.5V19ZM22.5 20C22.5 20.5523 22.0523 21 21.5 21H16.5V19H20.5V15H22.5V20ZM7.5 15.5H5.5V8.5H7.5V15.5ZM11 15.5H10V8.5H11V15.5ZM15 15.5H13V8.5H15V15.5ZM18.5 15.5H17.5V8.5H18.5V15.5ZM7.5 5H3.5V9H1.5V4C1.5 3.73478 1.60543 3.4805 1.79297 3.29297C1.9805 3.10543 2.23479 3 2.5 3H7.5V5ZM21.6025 3.00488C22.1067 3.05621 22.5 3.48232 22.5 4V9H20.5V5H16.5V3H21.5L21.6025 3.00488Z" fill="#FF00FF"/>
</svg>
