<svg width="24" height="24" viewBox="0 0 24 24" fill="none" xmlns="http://www.w3.org/2000/svg">
<path d="M16.75 3C19.9256 3 22.5 5.57436 22.5 8.75V16.5C22.5 18.7091 20.7091 20.5 18.5 20.5H5.5C3.29086 20.5 1.5 18.7091 1.5 16.5V9C1.5 6.79086 3.29086 5 5.5 5H8V7H5.5C4.39543 7 3.5 7.89543 3.5 9V16.5C3.5 17.6046 4.39543 18.5 5.5 18.5H18.5C19.6046 18.5 20.5 17.6046 20.5 16.5V8.75C20.5 6.67893 18.8211 5 16.75 5C14.6789 5 13 6.67893 13 8.75V13.0859L15.793 10.293L17.207 11.707L12.707 16.207C12.3165 16.5976 11.6835 16.5976 11.293 16.207L6.79297 11.707L8.20703 10.293L11 13.0859V8.75C11 5.57436 13.5744 3 16.75 3Z" fill="#FF00FF"/>
</svg>
