<svg width="24" height="24" viewBox="0 0 24 24" fill="none" xmlns="http://www.w3.org/2000/svg">
<path d="M15.5 22.0003H9V20.0003H15.5V22.0003ZM18.2764 1.63113L13.1016 8.00027H13.7139L21.4697 3.15262L22.5303 4.84793L17.4863 8.00027H22L22.1025 8.00516C22.6067 8.0565 23 8.48261 23 9.00027C22.9998 14.6195 17.9733 19.0003 12 19.0003C6.02667 19.0003 1.00016 14.6195 1 9.00027L1.00488 8.89774C1.05621 8.39361 1.48232 8.00027 2 8.00027H10.5234L16.7236 0.369415L18.2764 1.63113ZM3.07324 10.0003C3.62381 13.8742 7.32437 17.0003 12 17.0003C16.6756 17.0003 20.3762 13.8742 20.9268 10.0003H3.07324Z" fill="#FF00FF"/>
</svg>
