<svg width="24" height="24" viewBox="0 0 24 24" fill="none" xmlns="http://www.w3.org/2000/svg">
<path d="M12.1318 2.00876L20.1318 3.07126L20.2959 3.10739C20.6659 3.22178 20.9425 3.54418 20.9922 3.93845L21.9922 11.875L22 11.9912C22.0021 12.2233 21.9235 12.4495 21.7773 12.6299L21.6982 12.7158L11.9629 22.2158C11.571 22.598 10.9447 22.5941 10.5576 22.207L1.79297 13.4424C1.40588 13.0553 1.40196 12.4289 1.78418 12.0371L11.2842 2.30173L11.3711 2.22263C11.5832 2.05102 11.858 1.97237 12.1318 2.00876ZM3.90527 12.7265L11.2725 20.0937L19.9453 11.6308L19.1035 4.95212L12.3652 4.05661L3.90527 12.7265ZM14 7.87888C14.5858 7.29309 15.5353 7.29309 16.1211 7.87888C16.7069 8.46466 16.7069 9.41418 16.1211 9.99997C15.5353 10.5857 14.5858 10.5857 14 9.99997C13.4142 9.41421 13.4143 8.46467 14 7.87888Z" fill="#FF00FF"/>
</svg>
