<svg width="24" height="24" viewBox="0 0 24 24" fill="none" xmlns="http://www.w3.org/2000/svg">
<path d="M11.7939 4.97727C14.8611 4.18355 18.3366 3.23173 21.9424 5.01145C22.2836 5.17986 22.4998 5.52748 22.5 5.90794V17.9079C22.5 18.2535 22.3217 18.575 22.0283 18.7575C21.7348 18.94 21.3676 18.9574 21.0576 18.8044C18.2156 17.4016 15.474 18.0911 12.2949 18.9138C9.31027 19.6862 5.93309 20.5755 2.39551 18.9656L2.05273 18.8025C1.71403 18.6331 1.50002 18.2866 1.5 17.9079V5.90794L1.50781 5.77903C1.54636 5.48302 1.71684 5.21666 1.97461 5.05735C2.2693 4.87541 2.63745 4.85857 2.94727 5.0134C5.8513 6.46542 8.62833 5.79648 11.7939 4.97727ZM20.5 6.5554C17.8543 5.49274 15.2657 6.145 12.2949 6.9138C9.62233 7.60542 6.6354 8.38952 3.5 7.39036V17.2644C6.20622 18.379 8.82958 17.7444 11.7939 16.9773C14.45 16.2899 17.412 15.4852 20.5 16.4372V6.5554ZM18 13.9997H16V7.99973H18V13.9997Z" fill="#FF00FF"/>
</svg>
