<svg width="24" height="24" viewBox="0 0 24 24" fill="none" xmlns="http://www.w3.org/2000/svg">
<path d="M17.9998 11C20.2089 11 21.9997 12.7909 21.9998 15C21.9998 16.2629 21.4138 17.388 20.4998 18.1211V21.5586C20.4997 21.7528 20.2874 21.8724 20.1208 21.7725L18.1287 20.5771C18.0495 20.5296 17.95 20.5296 17.8708 20.5771L15.8787 21.7725C15.7121 21.8724 15.4998 21.7528 15.4998 21.5586V18.1211C14.5858 17.388 13.9998 16.2628 13.9998 15C13.9998 12.7909 15.7907 11.0001 17.9998 11ZM18.8796 2.50781C19.1758 2.5463 19.442 2.71668 19.6013 2.97461C19.7607 3.2327 19.7934 3.54691 19.6951 3.8291L19.6453 3.94727C19.3557 4.5258 19.1775 5.40436 19.0847 6.38965C18.9943 7.35083 18.9929 8.30852 18.9998 8.99023L16.9998 9.00977C16.9927 8.31491 16.9928 7.27164 17.0935 6.20215C17.1452 5.65334 17.2274 5.06693 17.3591 4.5H5.7605C5.08556 7.17352 5.39973 9.30838 5.79858 11.6445C6.18615 13.9146 6.65173 16.3776 6.19409 19.5H13.4998V21.5H4.99976C4.69796 21.4999 4.41221 21.3636 4.22241 21.1289C4.03256 20.8941 3.95894 20.5853 4.02222 20.29C4.72717 16.9999 4.2656 14.55 3.8269 11.9805C3.38523 9.39351 2.97134 6.69442 4.04468 3.20605L4.10425 3.05469C4.27096 2.71906 4.61587 2.50011 4.99976 2.5H18.7507L18.8796 2.50781ZM17.9998 13C16.8953 13.0001 15.9998 13.8955 15.9998 15C15.9998 16.1045 16.8953 16.9999 17.9998 17C19.1043 17 19.9998 16.1046 19.9998 15C19.9997 13.8954 19.1043 13 17.9998 13Z" fill="#FF00FF"/>
</svg>
