<svg width="24" height="24" viewBox="0 0 24 24" fill="none" xmlns="http://www.w3.org/2000/svg">
<path d="M12 19.9999H13.5V21.9999H3V19.9999H4.5V18.4999H12V19.9999ZM21.0264 7.68741L20.3193 8.39444L19.6113 9.10147L18.7275 8.21768L16.4131 10.5312L22.4551 16.5409L21.0449 17.9589L14.998 11.9462L12.7178 14.2274L13.6016 15.1112L12.8945 15.8192L12.1875 16.5263L5.29297 9.63174L6.70703 8.21768L7.59082 9.10147L13.6016 3.09073L12.7178 2.20694L14.1318 0.792877L21.0264 7.68741ZM9.00488 10.5146L11.3027 12.8124L14.29 9.82706L17.3125 6.80264L15.0146 4.50479L9.00488 10.5146Z" fill="#FF00FF"/>
</svg>
