<svg width="24" height="24" viewBox="0 0 24 24" fill="none" xmlns="http://www.w3.org/2000/svg">
<path d="M18.9998 2.5C19.3277 2.50003 19.6352 2.66105 19.822 2.93066C20.0087 3.20028 20.0515 3.54451 19.9363 3.85156C19.2221 5.75439 18.9873 7.25537 18.9998 8.49023L16.9998 8.50977C16.9879 7.32997 17.1627 6.01278 17.6101 4.5H5.7605C5.08556 7.17352 5.39973 9.30838 5.79858 11.6445C6.18616 13.9146 6.65173 16.3776 6.19409 19.5H11.9998V21.5H4.99976C4.69796 21.4999 4.41221 21.3636 4.22241 21.1289C4.03256 20.8941 3.95894 20.5853 4.02222 20.29C4.72717 16.9999 4.2656 14.55 3.8269 11.9805C3.38523 9.39351 2.97134 6.69442 4.04468 3.20605L4.10425 3.05469C4.27096 2.71906 4.61587 2.50011 4.99976 2.5H18.9998ZM21.5388 8.6123C21.8741 8.43822 22.2794 8.46827 22.5857 8.68945C22.8919 8.91084 23.0472 9.28609 22.9871 9.65918C22.6756 11.5908 22.1547 13.9429 21.0564 15.8525C20.0448 17.6112 18.4998 19.0541 16.1863 19.3965C16.179 19.4391 16.1711 19.4835 16.1638 19.5293C16.081 20.0476 15.9998 20.75 15.9998 21.5H13.9998C13.9998 20.6139 14.0953 19.8014 14.1892 19.2139C14.2364 18.9187 14.2839 18.6763 14.3201 18.5059C14.3382 18.4206 14.3538 18.3523 14.365 18.3047C14.3705 18.2813 14.3744 18.2625 14.3777 18.249C14.3793 18.2423 14.3806 18.2365 14.3816 18.2324C14.3821 18.2305 14.3832 18.2289 14.3835 18.2275V18.2246C15.2468 14.2388 17.8813 10.514 21.5388 8.6123ZM20.5369 11.6719C18.8198 13.1018 17.4915 15.0606 16.7458 17.2012C17.8629 16.7968 18.6843 15.964 19.322 14.8555C19.8622 13.9164 20.2473 12.8102 20.5369 11.6719Z" fill="#FF00FF"/>
</svg>
