<svg width="24" height="24" viewBox="0 0 24 24" fill="none" xmlns="http://www.w3.org/2000/svg">
<path d="M19.0001 2.5C19.3174 2.5001 19.6163 2.65106 19.8048 2.90625C19.9931 3.1614 20.0494 3.49086 19.9562 3.79395C19.0295 6.80543 19.3656 9.10659 19.799 11.6445C20.2352 14.1998 20.7734 17.0006 19.9786 20.71C19.8797 21.1708 19.4714 21.4998 19.0001 21.5H5.00012C4.69838 21.4999 4.41256 21.3635 4.22278 21.1289C4.03292 20.8941 3.95931 20.5853 4.02258 20.29C4.72747 16.9999 4.26597 14.55 3.82727 11.9805C3.38559 9.39351 2.97165 6.69441 4.04504 3.20605L4.10461 3.05469C4.27133 2.71911 4.61628 2.50014 5.00012 2.5H19.0001ZM5.76086 4.5C5.08588 7.17352 5.40009 9.30838 5.79895 11.6445C6.18652 13.9145 6.65205 16.3777 6.19446 19.5H18.171C18.6506 16.5988 18.2301 14.3401 17.8273 11.9805C17.4418 9.72246 17.0779 7.37916 17.7052 4.5H5.76086ZM15.0001 10H8.00012V8H15.0001V10Z" fill="#FF00FF"/>
</svg>
