<svg width="24" height="24" viewBox="0 0 24 24" fill="none" xmlns="http://www.w3.org/2000/svg">
<path d="M22.4226 6.38535C21.4523 8.70301 20.2918 10.0888 18.8992 10.6978C17.494 11.3123 16.106 11.0248 14.9685 10.606C14.3971 10.3956 13.843 10.1338 13.3513 9.90195C12.842 9.66179 12.4073 9.45696 12.0066 9.31308C11.1835 9.01762 10.8979 9.11543 10.6921 9.31992C10.5436 9.46774 10.4991 9.59554 10.491 9.73203C10.481 9.9006 10.5254 10.15 10.6804 10.5025C11.0007 11.2304 11.6358 12.0669 12.3855 13.0269C13.0864 13.9245 13.9046 14.9501 14.3669 15.9117C14.6024 16.4016 14.7898 16.9619 14.782 17.5465C14.7735 18.1708 14.5421 18.7583 14.0574 19.2408C13.5961 19.6998 13.0481 19.9457 12.4519 19.9918C11.889 20.0352 11.3466 19.896 10.8689 19.7115C9.96561 19.3625 8.90199 18.6757 7.99487 18.1705C7.00927 17.6216 6.05003 17.1806 5.07886 17.0562C4.15269 16.9377 3.16477 17.1007 2.07886 17.8727L1.49976 17.0572L0.920654 16.2428C2.42703 15.172 3.92117 14.8921 5.33276 15.0728C6.69915 15.2478 7.93488 15.8484 8.96753 16.4234C10.0786 17.0422 10.8589 17.563 11.5896 17.8453C11.9285 17.9762 12.1519 18.0088 12.2976 17.9977C12.4101 17.989 12.5151 17.9534 12.6462 17.8228C12.7537 17.7158 12.7815 17.6303 12.783 17.5191C12.7848 17.3682 12.7329 17.1289 12.5642 16.7779C12.2175 16.0569 11.5656 15.2269 10.8093 14.2584C10.1018 13.3524 9.29025 12.3102 8.84937 11.3082C8.6241 10.796 8.45924 10.2161 8.49487 9.61386C8.53256 8.97954 8.78966 8.39193 9.28101 7.90292C10.3552 6.83397 11.6867 7.07382 12.6824 7.43124C13.1914 7.61404 13.7191 7.86434 14.2048 8.09335C14.7081 8.33065 15.1842 8.55393 15.6599 8.7291C16.6176 9.08163 17.3968 9.17114 18.0974 8.86484C18.8106 8.55297 19.6955 7.71894 20.5769 5.61386L22.4226 6.38535Z" fill="#FF00FF"/>
</svg>
