<svg width="24" height="24" viewBox="0 0 24 24" fill="none" xmlns="http://www.w3.org/2000/svg">
<path d="M16.4382 3C16.7038 3.00009 16.9587 3.10584 17.1462 3.29395L20.7078 6.86914C21.0966 7.25938 21.0966 7.89005 20.7078 8.28027L10.3787 18.6465C10.301 18.7244 10.2113 18.7894 10.113 18.8379L10.0115 18.8809L4.34155 20.9404C3.97516 21.0734 3.56429 20.9809 3.28979 20.7041C3.01549 20.4274 2.92649 20.0165 3.06226 19.6514L5.15503 14.0342L5.19702 13.9355C5.2447 13.8402 5.30799 13.7526 5.38354 13.6768L15.7292 3.29395L15.8025 3.22754C15.9806 3.08101 16.2056 3.00004 16.4382 3ZM6.95288 14.9346L5.69214 18.3203L9.1189 17.0762L18.5876 7.57422L16.4373 5.41602L6.95288 14.9346Z" fill="#FF00FF"/>
</svg>
