<svg width="24" height="24" viewBox="0 0 24 24" fill="none" xmlns="http://www.w3.org/2000/svg">
<path d="M6.5 19C7.32843 19 8 19.6716 8 20.5C8 21.3284 7.32843 22 6.5 22C5.67158 22 5 21.3284 5 20.5C5 19.6716 5.67158 19 6.5 19ZM19.5 19C20.3284 19 21 19.6716 21 20.5C21 21.3284 20.3284 22 19.5 22C18.6716 22 18 21.3284 18 20.5C18 19.6716 18.6716 19 19.5 19ZM14 3C16.3953 3 18.6343 3.69933 20.2939 5.07227C21.9728 6.46124 23 8.49485 23 11L22.9873 11.4277C22.7383 15.8129 18.6634 19 13 19C7.15406 19 3 15.6041 3 11V9C3 8.44776 2.55223 8.00007 2 8H1V6H2C3.6568 6.00007 5 7.34319 5 9V10H13V4L13.0049 3.89746C13.0562 3.39334 13.4823 3.00002 14 3ZM5.10059 12C5.64299 14.7139 8.40224 17 13 17C17.5977 17 20.356 14.7139 20.8984 12H5.10059ZM15 10H20.9248C20.7058 8.56835 20.0146 7.43656 19.0195 6.61328C17.9923 5.76348 16.6018 5.21284 15 5.05078V10Z" fill="#FF00FF"/>
</svg>
