<svg width="24" height="24" viewBox="0 0 24 24" fill="none" xmlns="http://www.w3.org/2000/svg">
<path d="M11.5 13C9.56021 13 7.12502 13.6763 5.19531 14.9375C3.58705 15.9887 2.44075 17.3669 2.10449 19H6.5V21H1C0.447715 21 0 20.5523 0 20C4.59061e-05 17.0085 1.84657 14.7365 4.10156 13.2627C6.35397 11.7907 9.16868 11 11.5 11V13ZM16 14.5C19.6792 14.5 23.364 16.1017 23.9863 19.8359C24.0346 20.1258 23.9527 20.4222 23.7627 20.6465C23.5727 20.8707 23.2939 21 23 21H9C8.70611 21 8.42731 20.8707 8.2373 20.6465C8.04734 20.4222 7.96542 20.1258 8.01367 19.8359C8.63602 16.1017 12.3208 14.5 16 14.5ZM16 16.5C13.2934 16.5 11.2556 17.4295 10.3896 19H21.6104C20.7444 17.4295 18.7066 16.5 16 16.5ZM16 7C17.6569 7 19 8.34315 19 10C19 11.6569 17.6569 13 16 13C14.3431 13 13 11.6569 13 10C13 8.34315 14.3431 7 16 7ZM16 9C15.4477 9 15 9.44772 15 10C15 10.5523 15.4477 11 16 11C16.5523 11 17 10.5523 17 10C17 9.44772 16.5523 9 16 9ZM9.5 2.5C11.433 2.5 13 4.067 13 6C13 7.933 11.433 9.5 9.5 9.5C7.567 9.5 6 7.933 6 6C6 4.067 7.567 2.5 9.5 2.5ZM9.5 4.5C8.67157 4.5 8 5.17157 8 6C8 6.82843 8.67157 7.5 9.5 7.5C10.3284 7.5 11 6.82843 11 6C11 5.17157 10.3284 4.5 9.5 4.5Z" fill="#FF00FF"/>
</svg>
