<svg width="24" height="24" viewBox="0 0 24 24" fill="none" xmlns="http://www.w3.org/2000/svg">
<path d="M10.9881 1.89164C11.3596 1.00116 12.6401 1.00117 13.0115 1.89164L13.0457 1.98344L15.1961 8.60063H22.1541C23.2193 8.60101 23.6623 9.96455 22.8006 10.5909L17.1707 14.6797L19.3211 21.2979L19.3484 21.3916C19.5716 22.3305 18.5347 23.0839 17.7107 22.5821L17.6287 22.5274L11.9998 18.4375L6.3709 22.5274C5.50898 23.1532 4.3498 22.311 4.67852 21.2979L6.82793 14.6797L1.19903 10.5909C0.337552 9.96456 0.78058 8.60125 1.84551 8.60063H8.80352L10.9539 1.98344L10.9881 1.89164Z" fill="#FF00FF"/>
</svg>
