<svg width="24" height="24" viewBox="0 0 24 24" fill="none" xmlns="http://www.w3.org/2000/svg">
<path d="M10.9881 1.89164C11.3596 1.00116 12.6401 1.00117 13.0116 1.89164L13.0458 1.98344L15.1961 8.60063L22.1542 8.60063C23.2194 8.60101 23.6623 9.96455 22.8006 10.5909L17.1708 14.6797L19.3211 21.2979L19.3485 21.3916C19.5717 22.3305 18.5348 23.0839 17.7108 22.5821L17.6288 22.5274L11.9999 18.4375L6.37095 22.5274C5.50901 23.1533 4.34981 22.311 4.67857 21.2979L6.82798 14.6797L1.19907 10.5909C0.337529 9.96456 0.780564 8.60119 1.84556 8.60063H8.80357L10.954 1.98344L10.9881 1.89164ZM10.5038 9.84086C10.3565 10.2938 9.93419 10.6005 9.45786 10.6006L4.61607 10.6006L8.53306 13.4463L8.66685 13.5616C8.91285 13.8091 9.027 14.16 8.97349 14.5049L8.93247 14.6768L7.4354 19.2813L11.3534 16.4356L11.5038 16.3438C11.8153 16.1862 12.1844 16.1862 12.4959 16.3438L12.6463 16.4356L16.5633 19.2813L15.0672 14.6768C14.92 14.2237 15.0813 13.7265 15.4667 13.4463L19.3836 10.6006H14.5418C14.1252 10.6004 13.7493 10.366 13.5633 10.0039L13.4959 9.84086L11.9999 5.23442L10.5038 9.84086Z" fill="#FF00FF"/>
</svg>
