<svg width="24" height="24" viewBox="0 0 24 24" fill="none" xmlns="http://www.w3.org/2000/svg">
<path d="M11.7117 2.04223C11.9308 1.97633 12.1673 1.98758 12.3807 2.07543L20.8738 5.57543L21.0037 5.64086C21.292 5.81224 21.4786 6.11955 21.492 6.46117V6.46801C21.4922 6.47176 21.4928 6.47736 21.493 6.48363C21.4934 6.49686 21.4933 6.51645 21.494 6.54028C21.4952 6.58811 21.4968 6.65695 21.4979 6.74438C21.5001 6.91993 21.501 7.17205 21.4949 7.48363C21.4827 8.10654 21.4438 8.9748 21.3358 9.95629C21.1364 11.7666 20.6909 14.0802 19.6658 15.9524L19.4529 16.3215C18.3426 18.1408 16.542 19.5395 15.0945 20.4622C13.6559 21.3791 12.3692 21.9369 12.4686 21.884C12.2363 22.0071 11.9659 22.0329 11.7166 21.9592L11.6111 21.9211H11.6102L11.6092 21.9202C11.6081 21.9197 11.6059 21.9199 11.6043 21.9192C11.6011 21.9178 11.5969 21.9156 11.5916 21.9133C11.5806 21.9086 11.5651 21.9013 11.5457 21.8928C11.5069 21.8758 11.4514 21.8515 11.3817 21.8196C11.2416 21.7554 11.0423 21.6609 10.7986 21.5383C10.312 21.2934 9.64222 20.9326 8.90704 20.4641C7.54946 19.5989 5.88106 18.3146 4.76251 16.6575L4.54669 16.3215C3.36906 14.3917 2.87656 11.8874 2.66388 9.95629C2.5558 8.97479 2.51692 8.10654 2.5047 7.48363C2.4986 7.17206 2.49956 6.91993 2.50177 6.74438C2.50287 6.65695 2.50441 6.58811 2.50568 6.54028C2.50631 6.51646 2.50623 6.49686 2.50665 6.48363C2.50686 6.47737 2.50748 6.47175 2.50763 6.46801V6.46117L2.52423 6.31664C2.58574 5.98702 2.80984 5.70575 3.12579 5.57543L11.619 2.07543L11.7117 2.04223ZM4.50275 7.17113C4.50341 7.25508 4.50278 7.34659 4.5047 7.44457C4.51603 8.02221 4.55209 8.82882 4.65216 9.73754C4.85589 11.5872 5.31015 13.7333 6.25372 15.2795L6.42462 15.5452C7.31484 16.8613 8.71161 17.9668 9.98224 18.7766C10.6485 19.2012 11.2566 19.5305 11.6971 19.7522C11.8088 19.8084 11.9111 19.8547 11.9988 19.8967C12.4426 19.6852 13.1643 19.3206 14.0193 18.7756C15.3741 17.9121 16.8716 16.712 17.7459 15.2795L17.9168 14.9827C18.745 13.4661 19.1565 11.4716 19.3475 9.73754C19.4475 8.82882 19.4836 8.02221 19.4949 7.44457C19.4969 7.34659 19.4953 7.25508 19.4959 7.17113L11.9998 4.08129L4.50275 7.17113ZM11.9998 6.3811C12 6.20131 12.1845 6.08021 12.3494 6.1516L17.5906 8.4309C17.6864 8.47266 17.7464 8.57077 17.7401 8.67504C17.4811 12.9405 16.499 15.3905 12.3699 17.7893C12.2052 17.885 12 17.7659 11.9998 17.5754V6.3811Z" fill="#FF00FF"/>
</svg>
