<svg width="24" height="24" viewBox="0 0 24 24" fill="none" xmlns="http://www.w3.org/2000/svg">
<path d="M12.8807 3.47318L10.0829 8.66849L12.3534 10.939L17.1083 10.2593C17.4817 10.206 17.8542 10.368 18.0702 10.6773C18.2859 10.9864 18.3091 11.3911 18.1307 11.7232L16.3827 14.9683L19.7069 18.2925L18.2928 19.7066L15.3925 16.8062L12.8807 21.4732L11.119 20.5259L13.9169 15.3306L11.6464 13.0601L6.89148 13.7398C6.51788 13.7931 6.14557 13.6313 5.92957 13.3218C5.71404 13.0126 5.69051 12.6079 5.86902 12.2759L7.61609 9.02982L4.29285 5.70657L5.70691 4.29251L8.60632 7.19193L11.119 2.52591L12.8807 3.47318ZM14.121 12.7066L14.9061 13.4917L15.4305 12.5201L14.121 12.7066ZM8.57019 11.48L9.87878 11.2925L9.09363 10.5074L8.57019 11.48Z" fill="#FF00FF"/>
</svg>
