<svg width="24" height="24" viewBox="0 0 24 24" fill="none" xmlns="http://www.w3.org/2000/svg">
<path d="M17.124 3.00781C17.4099 3.04352 17.6687 3.20151 17.8311 3.44434L21.5049 8.94141L21.5801 9.07715C21.7093 9.35591 21.7035 9.67965 21.5635 9.95313L21.4814 10.085L20.0352 12.0742C20.8796 12.3084 21.5 13.081 21.5 14L21.5 20C21.5 21.1046 20.6046 22 19.5 22L12 22C10.8954 22 10 21.1046 10 20V14C10 12.8954 10.8954 12 12 12H13V11C13 9.34315 14.3431 8 16 8H17V10H16C15.4477 10 15 10.4477 15 11V12H17.6182L19.4541 9.47266L16.4658 5L4 5L4 14H8V16H3C2.44772 16 2 15.5523 2 15L2 4L2.00488 3.89746C2.05621 3.39333 2.48232 3 3 3L17 3L17.124 3.00781ZM12 20L19.5 20L19.5 14H12V20Z" fill="#FF00FF"/>
</svg>
