<svg width="24" height="24" viewBox="0 0 24 24" fill="none" xmlns="http://www.w3.org/2000/svg">
<path d="M17 3.5C19.1386 3.5 20.6223 4.04079 21.3828 5.4668C21.7241 6.10683 21.8661 6.83857 21.9336 7.57227C22.0012 8.30704 22 9.13854 22 10H20C20 9.11155 19.9988 8.38041 19.9414 7.75586C19.8839 7.13029 19.7758 6.70559 19.6172 6.4082C19.4259 6.04957 19.0579 5.68511 17.9688 5.55273C17.8928 6.94547 17.6465 8.51531 17 9.85449C16.5852 10.7138 15.9911 11.5105 15.1465 12.0908C14.2942 12.6764 13.2467 13 12 13C11.061 13 10.6693 13.3232 10.4863 13.6191C10.2678 13.9729 10.1867 14.5492 10.3574 15.2686C10.5249 15.974 10.9082 16.6865 11.416 17.209C11.9238 17.7314 12.4872 17.9999 13.0283 18C13.603 18 14.0011 17.8591 14.2891 17.6709C14.5832 17.4786 14.8186 17.2 15.0039 16.8477C15.3881 16.1168 15.5 15.1786 15.5 14.5H17.5C17.5 15.3213 17.3757 16.6333 16.7744 17.7773C16.7352 17.8519 16.6932 17.9263 16.6494 18H19.5V20H10C5.53551 20 1.5 16.6439 1.5 12C1.5 9.90337 2.33611 7.93742 3.68164 6.4248C3.70538 6.39111 3.73133 6.35843 3.75977 6.32715C3.78963 6.2943 3.8215 6.26427 3.85449 6.23633C5.42436 4.56941 7.62859 3.5 10 3.5H17ZM4.62207 8.46289C3.91915 9.49677 3.5 10.7205 3.5 12C3.5 15.1898 6.15795 17.7223 9.4541 17.9766C8.95941 17.3005 8.59798 16.5182 8.41113 15.7314C8.16648 14.7011 8.19212 13.5269 8.78418 12.5684C8.82666 12.4996 8.871 12.4327 8.91797 12.3682L4.62207 8.46289ZM10 5.5C8.51204 5.5 7.09977 6.06728 5.97363 6.98828L10.6045 11.1973C11.0244 11.0678 11.4915 11 12 11C12.8855 11 13.5287 10.7756 14.0137 10.4424C14.5062 10.104 14.8962 9.6109 15.1982 8.98535C15.6824 7.98233 15.8983 6.72516 15.9697 5.5H10ZM13 7C13.5523 7 14 7.44772 14 8C14 8.55228 13.5523 9 13 9C12.4477 9 12 8.55228 12 8C12 7.44772 12.4477 7 13 7Z" fill="#FF00FF"/>
</svg>
