<svg width="24" height="24" viewBox="0 0 24 24" fill="none" xmlns="http://www.w3.org/2000/svg">
<path d="M13 22.5H11V16.2002H13V22.5ZM9.7373 15.6768L5.28223 20.1318L3.86816 18.7178L8.32324 14.2627L9.7373 15.6768ZM20.1318 18.7178L18.7178 20.1318L14.2627 15.6768L15.6768 14.2627L20.1318 18.7178ZM7.7998 13H1.5V11H7.7998V13ZM22.5 13H16.2002V11H22.5V13ZM9.7373 8.32324L8.32324 9.7373L3.86816 5.28223L5.28223 3.86816L9.7373 8.32324ZM20.1318 5.28223L15.6768 9.7373L14.2627 8.32324L18.7178 3.86816L20.1318 5.28223ZM13 7.7998H11V1.5H13V7.7998Z" fill="#FF00FF"/>
</svg>
