<svg width="24" height="24" viewBox="0 0 24 24" fill="none" xmlns="http://www.w3.org/2000/svg">
<path d="M14.0322 1.06382C14.8868 0.878498 15.7291 1.10641 16.3115 1.68882C16.9326 2.31006 17.1503 3.22703 16.8936 4.13902C16.8068 4.44679 16.6693 4.737 16.4922 5.00034H19.5C21.1568 5.00034 22.4999 6.34355 22.5 8.00034V18.0003C22.4998 19.657 21.1567 21.0003 19.5 21.0003H4.5C2.84326 21.0003 1.50019 19.657 1.5 18.0003V8.00034C1.50007 6.34355 2.84319 5.00034 4.5 5.00034H7.50781C7.33073 4.737 7.19315 4.44679 7.10645 4.13902C6.84971 3.22703 7.06737 2.31006 7.68848 1.68882C8.27088 1.10641 9.11323 0.878498 9.96777 1.06382L10.1387 1.10679C10.9299 1.32962 11.6071 1.88436 12 2.59995C12.3929 1.88436 13.0701 1.32962 13.8613 1.10679L14.0322 1.06382ZM3.66406 14.7474C3.61255 14.7932 3.55738 14.8323 3.5 14.8656V18.0003C3.50019 18.5525 3.94783 19.0003 4.5 19.0003H11.6201L20.3359 11.2533C20.3875 11.2074 20.4425 11.1674 20.5 11.1341V8.00034C20.4999 7.44812 20.0522 7.00034 19.5 7.00034H12.3799L3.66406 14.7474ZM14.6299 19.0003H19.5C20.0522 19.0003 20.4998 18.5525 20.5 18.0003V13.7816L14.6299 19.0003ZM4.5 7.00034C3.94776 7.00034 3.50007 7.44812 3.5 8.00034V12.2181L9.37012 7.00034H4.5ZM9.49805 3.00913C9.28125 2.97377 9.1589 3.04652 9.10254 3.10288C9.0462 3.15932 8.97346 3.28182 9.00879 3.49839L9.03125 3.59702C9.11487 3.89356 9.35565 4.1614 9.6416 4.28745L9.7666 4.33238L10.5547 4.55405L10.332 3.76695L10.2871 3.64195C10.161 3.35592 9.8933 3.11515 9.59668 3.03159L9.49805 3.00913ZM14.502 3.00913L14.4033 3.03159C14.1067 3.11515 13.839 3.35592 13.7129 3.64195L13.668 3.76695L13.4453 4.55405L14.2334 4.33238L14.3584 4.28745C14.6444 4.1614 14.8851 3.89356 14.9688 3.59702L14.9912 3.49839C15.0265 3.28182 14.9538 3.15932 14.8975 3.10288C14.8411 3.04652 14.7187 2.97377 14.502 3.00913Z" fill="#FF00FF"/>
</svg>
