<svg width="24" height="24" viewBox="0 0 24 24" fill="none" xmlns="http://www.w3.org/2000/svg">
<path fill-rule="evenodd" clip-rule="evenodd" d="M7.35352 2.35338C7.96825 1.73865 8.87561 1.52356 9.77637 1.7772C10.7725 2.05786 11.5865 2.87189 11.8672 3.86802L11.9814 4.27525C12.3572 3.51114 13.0561 2.91277 13.8809 2.68052C14.7813 2.427 15.688 2.6424 16.3027 3.2567C16.9174 3.87139 17.1334 4.77885 16.8799 5.67955C16.7388 6.1805 16.463 6.63576 16.0967 6.99986H21C21.5523 6.99986 22 7.44758 22 7.99986V11.9999C22 12.5521 21.5523 12.9999 21 12.9999V19.9999C21 21.1044 20.1046 21.9999 19 21.9999H5C3.89543 21.9999 3 21.1044 3 19.9999V12.9999C2.44772 12.9999 2 12.5521 2 11.9999V7.99986C2 7.44758 2.44772 6.99986 3 6.99986H9.33984L8.86816 6.86705C7.87202 6.58641 7.058 5.77237 6.77734 4.77623C6.52369 3.87547 6.73878 2.96811 7.35352 2.35338ZM5 12.9999V19.9999H11.0605V12.9999H5ZM13.0605 12.9999V19.9999H19V12.9999H13.0605ZM13.0605 10.9999H20V8.99986H13.0605V10.9999ZM4 10.9999H11.0605V8.99986H4V10.9999ZM14.8887 4.67076C14.8305 4.61292 14.6901 4.53106 14.4229 4.60631C14.0971 4.69813 13.8068 4.98758 13.7148 5.31334L13.5059 6.05357L14.2461 5.84556C14.572 5.75378 14.8622 5.46348 14.9541 5.13756C15.0295 4.86965 14.9465 4.72861 14.8887 4.67076ZM9.2334 3.70201C8.96571 3.62678 8.82542 3.70961 8.76758 3.76744C8.70971 3.8253 8.62669 3.96623 8.70215 4.23424C8.79406 4.55999 9.0844 4.84937 9.41016 4.94127L10.1494 5.14927L9.94141 4.41002C9.84947 4.08412 9.55932 3.79379 9.2334 3.70201Z" fill="#FF00FF"/>
</svg>
