<svg width="24" height="24" viewBox="0 0 24 24" fill="none" xmlns="http://www.w3.org/2000/svg">
<path d="M6.91382 6.20671L7.78198 6.70378L4.38843 12.6403C3.5876 14.0412 4.06646 15.8285 5.44312 16.6315L7.1228 17.61L7.38452 17.7458C8.71008 18.3474 10.3018 17.8524 11.0496 16.5446L14.4431 10.6071L15.3113 11.1032L16.1794 11.6003L12.7859 17.5368C11.4835 19.8151 8.63978 20.6497 6.33667 19.4596L6.11597 19.3385L4.43628 18.3591C2.10322 16.9984 1.31097 13.9932 2.6521 11.6471L6.04565 5.71062L6.91382 6.20671ZM11.3445 6.24675C12.7441 4.06223 15.6185 3.33969 17.8845 4.66081L19.5632 5.6403L19.7781 5.77312C21.8742 7.14279 22.5999 9.89382 21.4675 12.1296L21.3474 12.3522L17.9539 18.2887L17.0857 17.7926L16.2175 17.2956L19.6111 11.3591L19.6824 11.2272C20.3589 9.89221 19.9206 8.25507 18.6824 7.44597L18.5564 7.36784L16.8767 6.38933C15.5915 5.64011 13.9664 6.00651 13.1111 7.20476L12.95 7.45573L9.5564 13.3923L8.68823 12.8962L7.82007 12.3991L11.2136 6.46257L11.3445 6.24675Z" fill="#FF00FF"/>
</svg>
