<svg width="24" height="24" viewBox="0 0 24 24" fill="none" xmlns="http://www.w3.org/2000/svg">
<path d="M7 3.75293L7.6543 3.6084L8.01367 3.53516C9.81185 3.20613 11.6692 3.3906 13.3711 4.07129L13.6436 4.1748C15.0108 4.66275 16.4901 4.75517 17.9111 4.43945L19.7832 4.02344L19.8945 4.00586C20.1555 3.97816 20.4189 4.05364 20.626 4.21973C20.8626 4.40952 21 4.6967 21 5V14C21 14.4687 20.6743 14.8749 20.2168 14.9766L18.3457 15.3916C16.437 15.8158 14.4444 15.6548 12.6289 14.9287C11.1871 14.352 9.60472 14.2238 8.08887 14.5605L7 14.8018V21H5V3H7V3.75293ZM18.3457 6.3916C16.9074 6.71123 15.4219 6.69679 14 6.36035V9C13.9999 9.33162 13.8351 9.64217 13.5605 9.82812C13.2859 10.014 12.9368 10.0518 12.6289 9.92871C11.277 9.38797 9.80139 9.24147 8.37305 9.50293L8.08887 9.56055L7 9.80176V12.7529L7.6543 12.6084C9.56301 12.1842 11.5556 12.3452 13.3711 13.0713C14.8129 13.648 16.3953 13.7762 17.9111 13.4395L19 13.1973V6.24609L18.3457 6.3916ZM11.1348 5.5C10.1305 5.31861 9.09506 5.337 8.08887 5.56055L7 5.80176V7.75293L7.6543 7.6084L8.01367 7.53613C9.33904 7.29361 10.6963 7.33018 12 7.63867V5.70898C11.9977 5.7083 11.9954 5.70772 11.9932 5.70703C11.7105 5.62168 11.424 5.55233 11.1348 5.5Z" fill="#FF00FF"/>
</svg>
