<svg width="24" height="24" viewBox="0 0 24 24" fill="none" xmlns="http://www.w3.org/2000/svg">
<path d="M10.1025 13.0049C10.6067 13.0562 11 13.4823 11 14V20C11 20.5523 10.5523 21 10 21H4C3.44772 21 3 20.5523 3 20V14L3.00488 13.8975C3.05621 13.3933 3.48232 13 4 13H10L10.1025 13.0049ZM20.1025 13.0049C20.6067 13.0562 21 13.4823 21 14V20C21 20.5523 20.5523 21 20 21H14C13.4477 21 13 20.5523 13 20V14L13.0049 13.8975C13.0562 13.3933 13.4823 13 14 13H20L20.1025 13.0049ZM5 19H9V15H5V19ZM15 19H19V15H15V19ZM10.1025 3.00488C10.6067 3.05621 11 3.48232 11 4V10C11 10.5523 10.5523 11 10 11H4C3.44772 11 3 10.5523 3 10V4L3.00488 3.89746C3.05621 3.39333 3.48232 3 4 3H10L10.1025 3.00488ZM20.1025 3.00488C20.6067 3.05621 21 3.48232 21 4V10C21 10.5523 20.5523 11 20 11H14C13.4477 11 13 10.5523 13 10V4L13.0049 3.89746C13.0562 3.39333 13.4823 3 14 3H20L20.1025 3.00488ZM5 9H9V5H5V9ZM15 9H19V5H15V9Z" fill="#FF00FF"/>
</svg>
