<svg width="24" height="24" viewBox="0 0 24 24" fill="none" xmlns="http://www.w3.org/2000/svg">
<path d="M14.2861 9.0127L14.2871 9.01074L19.4189 9.37012C20.2301 9.427 20.9839 9.8109 21.5068 10.4336L23.9609 13.3574L23.1953 14L22.4297 14.6436L19.9746 11.7197C19.8004 11.5125 19.5494 11.3842 19.2793 11.3652L14.1465 11.0059C14.1316 11.0048 14.1164 11.0037 14.1016 11.002C14.0363 10.9944 13.9984 11.0098 13.9688 11.0303C13.9301 11.0572 13.8927 11.1045 13.873 11.1611C13.8546 11.2144 13.862 11.2438 13.8633 11.248C13.8634 11.2485 13.8644 11.2517 13.8701 11.2578C13.8767 11.2648 13.8979 11.2854 13.9482 11.3096L17.4922 13.0088C17.9235 13.2157 18.1478 13.6991 18.0273 14.1621C17.9068 14.6249 17.4754 14.9377 16.998 14.9082L4.65918 14.1445C4.29157 14.1218 4.01321 14.3621 3.94043 14.7363C3.9059 14.9143 3.93675 15.0615 3.99414 15.1592C4.03572 15.2297 4.12177 15.3288 4.32715 15.3955L4.42285 15.4219L4.43555 15.4248L4.19629 16.3896L4.43555 15.4258L14.2246 17.8525C14.6182 17.9501 15.0222 18 15.4277 18H23.2695V20H15.4277C14.86 20 14.2942 19.9306 13.7432 19.7939L3.96777 17.3691V17.3701C3.20822 17.1928 2.62082 16.7675 2.27148 16.1748C1.93242 15.5994 1.86223 14.9429 1.97656 14.3545C2.20212 13.1948 3.22223 12.0518 4.7832 12.1484L12.4062 12.6201C12.2226 12.423 12.0814 12.1947 11.9883 11.9434C11.8069 11.4536 11.8318 10.9424 11.9844 10.5039C12.2808 9.65217 13.1387 8.90179 14.2861 9.0127ZM7.5 4C9.433 4 11 5.567 11 7.5C11 9.433 9.433 11 7.5 11C5.5671 10.9999 4 9.43293 4 7.5C4 5.56707 5.5671 4.00012 7.5 4ZM7.5 6C6.67167 6.00012 6 6.67164 6 7.5C6 8.32836 6.67167 8.99988 7.5 9C8.32843 9 9 8.32843 9 7.5C9 6.67157 8.32843 6 7.5 6Z" fill="#FF00FF"/>
</svg>
