<svg width="24" height="24" viewBox="0 0 24 24" fill="none" xmlns="http://www.w3.org/2000/svg">
<path d="M2.95508 4.60254C5.30053 2.39469 8.93679 2.46837 11.1963 4.82324L12 5.66016L12.8037 4.82324L13.0264 4.60254C15.3718 2.39469 19.0081 2.46837 21.2676 4.82324L21.4775 5.05273C23.5078 7.39367 23.5077 10.9539 21.4775 13.2949L21.2676 13.5244L21.2373 13.5557L12.6914 21.7227C12.3049 22.0921 11.6951 22.0921 11.3086 21.7227L2.7627 13.5557C2.75228 13.5457 2.7424 13.5348 2.73242 13.5244C0.422706 11.117 0.422649 7.23064 2.73242 4.82324L2.95508 4.60254ZM8.78125 13.125C8.59148 13.3622 8.30378 13.5 8 13.5H5.59961L12 19.6162L18.3994 13.5H15.4814L13.7812 15.625C13.5767 15.8807 13.2593 16.02 12.9326 15.998C12.6061 15.976 12.311 15.7953 12.1426 15.5146L9.88184 11.748L8.78125 13.125ZM9.75293 6.20801C8.25612 4.64801 5.87533 4.59905 4.32324 6.06152L4.17578 6.20801C2.7993 7.64263 2.63269 9.87167 3.67383 11.5H7.51855L9.21875 9.375L9.30078 9.28516C9.50291 9.0874 9.78146 8.98272 10.0674 9.00195C10.3939 9.024 10.689 9.20474 10.8574 9.48535L13.1172 13.251L14.2188 11.875L14.2949 11.791C14.4812 11.6058 14.7343 11.5 15 11.5H20.3271C21.3311 9.92981 21.2111 7.80062 19.9668 6.36426L19.8242 6.20801C18.3274 4.64801 15.9466 4.59906 14.3945 6.06152L14.2471 6.20801L12.7217 7.79785C12.5331 7.9943 12.2723 8.10547 12 8.10547C11.7277 8.10547 11.4669 7.9943 11.2783 7.79785L9.75293 6.20801Z" fill="#FF00FF"/>
</svg>
