<svg width="24" height="24" viewBox="0 0 24 24" fill="none" xmlns="http://www.w3.org/2000/svg">
<path d="M12 2C17.5228 2 22 6.47715 22 12C22 17.5228 17.5228 22 12 22C6.47715 22 2 17.5228 2 12C2 6.47715 6.47715 2 12 2ZM12 15.5C11.172 15.5 10.5 16.172 10.5 17C10.5 17.828 11.172 18.5 12 18.5C12.828 18.5 13.5 17.828 13.5 17C13.5 16.172 12.828 15.5 12 15.5ZM12 6C9.90525 6.00002 8.58973 7.58648 8.26758 9.27246L10.2324 9.64746C10.4229 8.6512 11.1017 8.00002 12 8C12.8989 8.00002 13.4999 8.63739 13.5 9.45996C13.5 9.85488 13.3528 10.1307 13.1201 10.332C12.8683 10.5498 12.4656 10.719 11.9375 10.752L11 10.8105V13.5H13V12.5918C13.5256 12.4457 14.0166 12.2002 14.4277 11.8447C15.0955 11.2673 15.5 10.4417 15.5 9.45996C15.4998 7.5291 13.9998 6.00002 12 6Z" fill="#FF00FF"/>
</svg>
