<svg width="24" height="24" viewBox="0 0 24 24" fill="none" xmlns="http://www.w3.org/2000/svg">
<path d="M4.92871 4.92871C8.83395 1.02347 15.166 1.02347 19.0713 4.92871C22.9765 8.83395 22.9765 15.166 19.0713 19.0713C15.166 22.9765 8.83395 22.9765 4.92871 19.0713C1.02347 15.166 1.02347 8.83395 4.92871 4.92871ZM17.6572 6.34277C14.533 3.21858 9.46697 3.21858 6.34277 6.34277C3.21858 9.46697 3.21858 14.533 6.34277 17.6572C9.46697 20.7814 14.533 20.7814 17.6572 17.6572C20.7814 14.533 20.7814 9.46697 17.6572 6.34277ZM12 15C12.828 15 13.5 15.672 13.5 16.5C13.5 17.328 12.828 18 12 18C11.172 18 10.5 17.328 10.5 16.5C10.5 15.672 11.172 15 12 15ZM12 5.75C13.9997 5.75003 15.4998 7.27911 15.5 9.20996C15.5 10.1917 15.0956 11.0182 14.4277 11.5957C14.0167 11.951 13.5255 12.1957 13 12.3418V13.25H11V10.5605L11.9375 10.502C12.4656 10.469 12.8683 10.2998 13.1201 10.082C13.3528 9.88066 13.5 9.60488 13.5 9.20996C13.4999 8.38739 12.8989 7.75003 12 7.75C11.1017 7.75003 10.4229 8.40121 10.2324 9.39746L8.26758 9.02246C8.58974 7.33648 9.90526 5.75003 12 5.75Z" fill="#FF00FF"/>
</svg>
