<svg width="24" height="24" viewBox="0 0 24 24" fill="none" xmlns="http://www.w3.org/2000/svg">
<path fill-rule="evenodd" clip-rule="evenodd" d="M12.5 6.00001H4.5C3.94772 6.00001 3.5 6.44772 3.5 7.00001V17C3.50013 17.5522 3.9478 18 4.5 18H19.5C20.0522 18 20.4999 17.5522 20.5 17V11H22.5V17C22.4999 18.6568 21.1568 20 19.5 20H4.5C2.84323 20 1.50013 18.6568 1.5 17V7.00001C1.5 5.34316 2.84315 4.00001 4.5 4.00001H12.5V6.00001ZM19.6104 3.62403C20.3858 2.79212 21.6425 2.79218 22.418 3.62403C23.1935 4.45602 23.1935 5.80474 22.418 6.63673L19.1758 9.82716C19.0785 9.92288 18.9215 9.92288 18.8242 9.82716L15.582 6.63673C14.8066 5.80474 14.8066 4.45602 15.582 3.62403C16.3575 2.79218 17.6142 2.79212 18.3896 3.62403L19 4.27833L19.6104 3.62403Z" fill="#FF00FF"/>
</svg>
