<svg width="24" height="24" viewBox="0 0 24 24" fill="none" xmlns="http://www.w3.org/2000/svg">
<path d="M20.2753 11.9462L20.4842 12.1659C22.5054 14.4032 22.5055 17.8183 20.4842 20.0555L20.2753 20.2753C18.0473 22.5033 14.4778 22.5728 12.1659 20.4843L11.9462 20.2753L9.87194 18.2001L11.286 16.786L13.3602 18.8602L13.5057 18.9989C15.0325 20.3781 17.3889 20.3316 18.8602 18.8602L18.9989 18.7157C20.3337 17.2383 20.3336 14.9832 18.9989 13.5057L18.8602 13.3602L16.786 11.286L18.2001 9.87195L20.2753 11.9462ZM16.9706 15.5555L16.2626 16.2626L15.5555 16.9706L7.02916 8.44422L7.73717 7.73719L8.4442 7.02918L16.9706 15.5555ZM3.9442 3.51551C6.25593 1.42688 9.82549 1.4969 12.0536 3.72449L14.1278 5.79969L12.7137 7.21375L10.6395 5.13953C9.16809 3.66838 6.81074 3.62155 5.28405 5.00086L5.13952 5.13953C3.62071 6.65833 3.62089 9.12062 5.13952 10.6395L7.21373 12.7137L5.79967 14.1278L3.72448 12.0536C1.425 9.75361 1.42469 6.02427 3.72448 3.72449L3.9442 3.51551Z" fill="#FF00FF"/>
</svg>
