<svg width="24" height="24" viewBox="0 0 24 24" fill="none" xmlns="http://www.w3.org/2000/svg">
<path d="M19.6025 2.00488C20.1067 2.05621 20.5 2.48232 20.5 3V21C20.5 21.5523 20.0523 22 19.5 22H4.5C3.94772 22 3.5 21.5523 3.5 21V3L3.50488 2.89746C3.55621 2.39333 3.98232 2 4.5 2H19.5L19.6025 2.00488ZM5.5 20H18.5V4H5.5V20ZM16 17.5H8V15.5H16V17.5ZM10.7363 6.02051C11.432 6.10186 12.0394 6.4233 12.4541 6.63477C12.9323 6.87859 13.2186 7.01247 13.4961 7.04492C13.7 7.0687 13.975 7.04462 14.4004 6.72559L14.5186 6.64941C14.8037 6.4927 15.151 6.48277 15.4473 6.63086C15.786 6.8002 15.9999 7.14675 16 7.52539V11.0518C15.9999 11.3664 15.8513 11.6628 15.5996 11.8516C14.8113 12.4427 14.0328 12.6465 13.2637 12.5566C12.568 12.4753 11.9606 12.1538 11.5459 11.9424C11.0677 11.6986 10.7814 11.5647 10.5039 11.5322C10.3255 11.5114 10.0931 11.5273 9.75293 11.7451L9.59961 11.8516C9.29666 12.0786 8.89138 12.1156 8.55273 11.9463C8.21404 11.7769 8.00012 11.4304 8 11.0518V7.52539L8.00684 7.40918C8.03854 7.13883 8.17994 6.89093 8.40039 6.72559L8.69531 6.52148C9.38293 6.08769 10.0634 5.94186 10.7363 6.02051ZM10.5039 8.00684C10.3724 7.9915 10.2118 7.99629 10 8.08691V9.55566C10.2466 9.52179 10.4917 9.51731 10.7363 9.5459C11.4319 9.62725 12.0394 9.94869 12.4541 10.1602C12.9323 10.404 13.2186 10.5379 13.4961 10.5703C13.6277 10.5857 13.7881 10.58 14 10.4893V9.02051C13.7534 9.0544 13.5083 9.05984 13.2637 9.03125C12.5681 8.9499 11.9606 8.62846 11.5459 8.41699C11.0677 8.17317 10.7814 8.03929 10.5039 8.00684Z" fill="#FF00FF"/>
</svg>
