<svg width="24" height="24" viewBox="0 0 24 24" fill="none" xmlns="http://www.w3.org/2000/svg">
<path d="M15 22H9V20H15V22ZM12 1C16.4183 1 20 4.58172 20 9C20 11.9622 18.3892 14.5454 16 15.9277V17.5C16 18.0523 15.5523 18.5 15 18.5H9C8.44772 18.5 8 18.0523 8 17.5V15.9277C5.61081 14.5454 4 11.9622 4 9C4 4.58172 7.58172 1 12 1ZM12 3C8.68629 3 6 5.68629 6 9C6 11.3918 7.39951 13.4587 9.42871 14.4229C9.77735 14.5885 9.99992 14.9402 10 15.3262V16.5H14V15.3262C14.0001 14.9402 14.2226 14.5885 14.5713 14.4229C16.6005 13.4587 18 11.3918 18 9C18 5.68629 15.3137 3 12 3Z" fill="#FF00FF"/>
</svg>
