<svg width="24" height="24" viewBox="0 0 24 24" fill="none" xmlns="http://www.w3.org/2000/svg">
<path d="M4.92871 4.92871C8.83395 1.02347 15.166 1.02347 19.0713 4.92871C22.9765 8.83395 22.9765 15.166 19.0713 19.0713C15.166 22.9765 8.83395 22.9765 4.92871 19.0713C1.02347 15.166 1.02347 8.83395 4.92871 4.92871ZM17.6572 6.34277C14.533 3.21858 9.46697 3.21858 6.34277 6.34277C3.21858 9.46697 3.21858 14.533 6.34277 17.6572C9.46697 20.7814 14.533 20.7814 17.6572 17.6572C20.7814 14.533 20.7814 9.46697 17.6572 6.34277ZM13 17H11V11.5H13V17ZM12 6.5C12.8284 6.5 13.5 7.17157 13.5 8C13.5 8.82843 12.8284 9.5 12 9.5C11.1716 9.5 10.5 8.82843 10.5 8C10.5 7.17157 11.1716 6.5 12 6.5Z" fill="#FF00FF"/>
</svg>
