<svg width="24" height="24" viewBox="0 0 24 24" fill="none" xmlns="http://www.w3.org/2000/svg">
<path d="M13.9734 1.2413C14.331 0.933879 14.8615 0.916521 15.24 1.21201C15.6187 1.50799 15.7306 2.0278 15.5183 2.44931L15.4714 2.53134L11.7644 8.43564L19.3269 11.0548L19.4441 11.1046C19.7075 11.2353 19.9028 11.4765 19.9724 11.7667C20.052 12.0983 19.9569 12.4477 19.7205 12.6935L16.2205 16.3302L10.0955 22.6935C9.74003 23.0626 9.1623 23.1037 8.75854 22.7882C8.35502 22.4726 8.25588 21.9028 8.52808 21.4688L12.2341 15.5636L4.67261 12.9454C4.35039 12.8337 4.1067 12.5651 4.0271 12.2335C3.94755 11.902 4.04275 11.5525 4.27905 11.3067L7.77905 7.67001L13.9041 1.30673L13.9734 1.2413ZM6.80444 11.5665L14.0769 14.0851L15.2224 14.4815L17.1941 12.4327L9.92261 9.91513L8.77612 9.51767L6.80444 11.5665Z" fill="#FF00FF"/>
</svg>
