<svg width="24" height="24" viewBox="0 0 24 24" fill="none" xmlns="http://www.w3.org/2000/svg">
<path d="M12 2L12.5146 2.0127C17.7983 2.28054 22 6.64975 22 12C22 17.5228 17.5228 22 12 22L11.4854 21.9873C6.20167 21.7195 2 17.3502 2 12C2 6.47715 6.47715 2 12 2ZM9.02637 13C9.12244 14.8497 9.48406 16.606 10.085 17.958C10.8238 19.6203 11.5975 20 12 20C12.4025 20 13.1762 19.6203 13.915 17.958C14.5159 16.606 14.8776 14.8497 14.9736 13H9.02637ZM4.06445 13C4.40259 15.7107 6.09595 18 8.44531 19.168C8.38047 19.0382 8.31789 18.9057 8.25781 18.7705C7.52261 17.1163 7.12178 15.0684 7.02441 13H4.06445ZM16.9756 13C16.8782 15.0684 16.4774 17.1163 15.7422 18.7705C15.6821 18.9058 15.6186 19.0381 15.5537 19.168C17.9035 18.0001 19.5974 15.711 19.9355 13H16.9756ZM15.5527 4.83105C15.6179 4.9613 15.6819 5.0938 15.7422 5.22949L15.8975 5.5957C16.5346 7.18103 16.8854 9.08164 16.9756 11H19.9355C19.5973 8.2885 17.9031 5.99872 15.5527 4.83105ZM11.9199 4.00488C11.5286 4.04972 10.8732 4.42847 10.2246 5.74512L10.085 6.04199C9.48406 7.39403 9.12244 9.15027 9.02637 11H14.9736C14.8846 9.28669 14.5678 7.65362 14.0439 6.34766L13.915 6.04199C13.1762 4.3797 12.4025 4 12 4L11.9199 4.00488ZM8.44629 4.83105C6.09632 5.99884 4.40264 8.28881 4.06445 11H7.02441C7.12178 8.93158 7.52261 6.8837 8.25781 5.22949L8.41699 4.88867C8.42651 4.8693 8.43667 4.8503 8.44629 4.83105Z" fill="#FF00FF"/>
</svg>
