<svg width="24" height="24" viewBox="0 0 24 24" fill="none" xmlns="http://www.w3.org/2000/svg">
<path d="M7 20H2V18H7V20ZM14 20H9V18H14V20ZM4 3.99997C4 5.37124 4.35017 7.3504 5.09473 8.95407C5.86159 10.6056 6.858 11.5 8 11.5C8.38482 11.5 8.79217 11.3662 9.27148 11.0879C9.76136 10.8034 10.2481 10.4161 10.8164 9.96579C11.8554 9.14244 13.2571 7.99997 15 7.99997C16.4482 7.99998 17.5802 8.90491 18.4062 9.93747C19.2453 10.9863 19.9135 12.3408 20.4287 13.6289C20.9483 14.928 21.3346 16.2189 21.5908 17.1797C21.7193 17.6616 21.8161 18.0643 21.8809 18.3476C21.9132 18.489 21.9375 18.6011 21.9541 18.6787C21.9624 18.7175 21.9693 18.7485 21.9736 18.7695C21.9758 18.7798 21.9774 18.7882 21.9785 18.7939C21.9791 18.7967 21.9792 18.7991 21.9795 18.8008L21.9805 18.8027V18.8037L21.9961 18.914C22.0184 19.1724 21.9396 19.431 21.7734 19.6338C21.5835 19.8654 21.2996 20 21 20H16V18H19.7373C19.7124 17.903 19.6874 17.801 19.6592 17.6953C19.4154 16.7811 19.0515 15.5717 18.5713 14.3711C18.0866 13.1593 17.5046 12.0136 16.8438 11.1875C16.1698 10.3451 15.5518 9.99998 15 9.99997C14.0763 9.99997 13.2279 10.6075 12.0586 11.5341C11.5229 11.9587 10.9155 12.4466 10.2754 12.8183C9.62458 13.1962 8.86503 13.5 8 13.5C5.64209 13.5 4.1384 11.6441 3.28027 9.79587C2.39993 7.8996 2 5.62861 2 3.99997H4Z" fill="#FF00FF"/>
</svg>
