<svg width="24" height="24" viewBox="0 0 24 24" fill="none" xmlns="http://www.w3.org/2000/svg">
<path d="M7 6V4H2V6H7ZM14 4H9V6H14V4ZM4 20C4 18.6287 4.35017 16.6496 5.09473 15.0459C5.86159 13.3943 6.858 12.5 8 12.5C8.38482 12.5 8.79217 12.6338 9.27148 12.9121C9.76136 13.1966 10.2481 13.5838 10.8164 14.0342C11.8554 14.8575 13.2571 16 15 16C16.4482 16 17.5802 15.0951 18.4062 14.0625C19.2453 13.0137 19.9135 11.6592 20.4287 10.3711C20.9483 9.07197 21.3346 7.78106 21.5908 6.82031C21.7193 6.3384 21.8161 5.93569 21.8809 5.65234C21.9132 5.51092 21.9375 5.39891 21.9541 5.32129C21.9624 5.28247 21.9693 5.25147 21.9736 5.23047C21.9758 5.22018 21.9774 5.21179 21.9785 5.20605C21.9791 5.2033 21.9792 5.20087 21.9795 5.19922L21.9805 5.19727V5.19629L21.9961 5.08594C22.0184 4.82761 21.9396 4.569 21.7734 4.36621C21.5835 4.13452 21.2996 4 21 4H16V6H19.7373C19.7124 6.09697 19.6874 6.19897 19.6592 6.30469C19.4154 7.21883 19.0515 8.42828 18.5713 9.62891C18.0866 10.8407 17.5046 11.9864 16.8438 12.8125C16.1698 13.6549 15.5518 14 15 14C14.0763 14 13.2279 13.3925 12.0586 12.4658C11.5229 12.0413 10.9155 11.5533 10.2754 11.1816C9.62458 10.8038 8.86503 10.5 8 10.5C5.64209 10.5 4.1384 12.3558 3.28027 14.2041C2.39993 16.1004 2 18.3714 2 20H4Z" fill="#FF00FF"/>
</svg>
