<svg width="24" height="24" viewBox="0 0 24 24" fill="none" xmlns="http://www.w3.org/2000/svg">
<path d="M19.0518 3.10526C19.2644 2.99872 19.5093 2.97191 19.7422 3.03007C20.0082 3.09652 20.2351 3.26898 20.3701 3.50761L23.6201 9.25761L21.8799 10.242L19.8926 6.72636C19.6083 7.84636 19.2271 9.22976 18.7607 10.6287C18.2213 12.2469 17.5554 13.9322 16.7773 15.2625C16.3884 15.9274 15.9498 16.5403 15.457 17.0164C14.9677 17.4891 14.3622 17.887 13.6416 17.99C12.4002 18.1674 11.4241 17.6988 10.6748 17.0096C9.96773 16.3591 9.41628 15.4706 8.95508 14.7019C8.46053 13.8777 8.06242 13.1812 7.6123 12.6639C7.17914 12.1661 6.83707 11.9998 6.5 11.9998C6.14645 11.9998 5.74277 12.1846 5.28711 12.7098C4.83007 13.2366 4.41143 14.0096 4.05762 14.9236C3.34824 16.7563 3.00002 18.884 3 19.9998H1C1.00002 18.6157 1.40183 16.2432 2.19238 14.201C2.58852 13.1777 3.1076 12.1691 3.77539 11.3992C4.44464 10.6277 5.35362 9.99979 6.5 9.99979C7.66276 9.99979 8.50754 10.6463 9.12109 11.3514C9.71781 12.0371 10.227 12.9344 10.6699 13.6726C11.1461 14.4662 11.5637 15.1093 12.0283 15.5369C12.4508 15.9256 12.8501 16.0821 13.3584 16.0096C13.5127 15.9875 13.7511 15.8854 14.0684 15.5789C14.3822 15.2757 14.7132 14.8299 15.0508 14.2527C15.7258 13.0987 16.3412 11.565 16.8643 9.99589C17.3218 8.62327 17.6947 7.2571 17.9727 6.15604L14.5371 8.34354L13.4629 6.65604L18.9629 3.15604L19.0518 3.10526Z" fill="#FF00FF"/>
</svg>
