<svg width="24" height="24" viewBox="0 0 24 24" fill="none" xmlns="http://www.w3.org/2000/svg">
<path d="M12.8623 5.43945C15.011 3.45631 18.336 3.52236 20.4062 5.6377L20.5986 5.84473C22.4669 7.95666 22.4668 11.1731 20.5986 13.2852L20.4062 13.4932L20.375 13.5234L12.6836 20.7295C12.299 21.0899 11.701 21.0899 11.3164 20.7295L3.625 13.5234L3.59375 13.4932C1.46853 11.3217 1.4686 7.80924 3.59375 5.6377L3.79785 5.43945C5.94649 3.45617 9.27149 3.52235 11.3418 5.6377L12 6.30957L12.6582 5.6377L12.8623 5.43945ZM9.91211 7.03613C8.60167 5.69762 6.51132 5.65593 5.15234 6.91113L5.02344 7.03613C3.66177 8.42745 3.65942 10.6901 5.01562 12.085L12 18.6299L18.9834 12.085C20.2976 10.7339 20.3373 8.56906 19.1006 7.16992L18.9766 7.03613C17.6662 5.69752 15.5758 5.65604 14.2168 6.91113L14.0879 7.03613L12.7148 8.43945C12.5267 8.63165 12.2689 8.74023 12 8.74023C11.7311 8.74023 11.4733 8.63165 11.2852 8.43945L9.91211 7.03613Z" fill="#FF00FF"/>
</svg>
