<svg width="24" height="24" viewBox="0 0 24 24" fill="none" xmlns="http://www.w3.org/2000/svg">
<path d="M11.9999 3C14.1217 3 16.1569 3.8445 17.6572 5.34766C19.1573 6.85079 19.9999 8.88994 19.9999 11.0156C19.9997 15.8661 15.1563 20.0424 13.0068 21.6572C12.399 22.1138 11.6008 22.1138 10.9931 21.6572C8.84355 20.0424 4.00018 15.8661 3.99994 11.0156C3.99994 8.88994 4.84255 6.85079 6.34271 5.34766C7.843 3.8445 9.87821 3 11.9999 3ZM11.9999 8.5C10.6193 8.50003 9.49997 9.61934 9.49994 11C9.49994 12.3807 10.6193 13.5 11.9999 13.5C13.3807 13.5 14.4999 12.3807 14.4999 11C14.4999 9.61932 13.3806 8.5 11.9999 8.5Z" fill="#FF00FF"/>
</svg>
