<svg width="24" height="24" viewBox="0 0 24 24" fill="none" xmlns="http://www.w3.org/2000/svg">
<path d="M16.7637 8.00781C18.2507 8.08298 19.6594 8.71587 20.7129 9.78613C21.8361 10.9275 22.4647 12.4728 22.4648 14.0801L22.4609 14.3008C22.3741 16.5698 20.9669 18.6961 19.7305 20.166C19.072 20.9488 18.4152 21.598 17.9248 22.0518C17.6791 22.2791 17.4733 22.4598 17.3271 22.584C17.2544 22.6458 17.1961 22.694 17.1553 22.7275C17.1349 22.7442 17.118 22.7573 17.1064 22.7666C17.1009 22.7711 17.0961 22.7756 17.0928 22.7783C17.0914 22.7794 17.0899 22.7805 17.0889 22.7812L17.0869 22.7832C16.7685 23.0359 16.3338 23.0673 15.9863 22.8779L15.8428 22.7832L15.8408 22.7812C15.8399 22.7805 15.8383 22.7794 15.8369 22.7783C15.8336 22.7756 15.8288 22.7711 15.8232 22.7666C15.8118 22.7573 15.7948 22.7442 15.7744 22.7275C15.7336 22.6941 15.6753 22.6458 15.6025 22.584C15.4565 22.4598 15.2506 22.2791 15.0049 22.0518C14.5145 21.598 13.8578 20.9489 13.1992 20.166C11.9627 18.6961 10.5556 16.5699 10.4688 14.3008L10.4648 14.0801C10.4649 12.4727 11.0935 10.9275 12.2168 9.78613C13.3407 8.64444 14.8686 8 16.4648 8L16.7637 8.00781ZM16.4648 10C15.4093 10 14.393 10.4261 13.6416 11.1895C12.8899 11.9534 12.4649 12.993 12.4648 14.0801L12.4766 14.3818C12.5954 15.8971 13.5833 17.5142 14.7305 18.8779C15.3216 19.5807 15.9153 20.1703 16.3623 20.584C16.3967 20.6158 16.4324 20.6452 16.4648 20.6748C16.4973 20.6452 16.533 20.6158 16.5674 20.584C17.0144 20.1703 17.6081 19.5806 18.1992 18.8779C19.4227 17.4234 20.4648 15.68 20.4648 14.0801L20.46 13.877C20.4104 12.8643 19.9927 11.9057 19.2881 11.1895C18.5837 10.4737 17.6462 10.0545 16.6621 10.0049L16.4648 10ZM18 2C19.1046 2 20 2.89543 20 4V6.5H18V4H4V13H8.5V15H4C2.89543 15 2 14.1046 2 13V4C2 2.89543 2.89543 2 4 2H18Z" fill="#FF00FF"/>
</svg>
