<svg width="24" height="24" viewBox="0 0 24 24" fill="none" xmlns="http://www.w3.org/2000/svg">
<path d="M5.00018 19H19.0002V13.5H21.0002V20C21.0002 20.5522 20.5523 20.9998 20.0002 21H4.00018C3.73504 21 3.48067 20.8945 3.29315 20.707C3.10562 20.5195 3.00018 20.2652 3.00018 20V13.5H5.00018V19ZM18.0002 3C18.2927 3.00008 18.5685 3.12825 18.757 3.34668L18.8322 3.44531L22.8322 9.44531C23.0049 9.70447 23.0474 10.0296 22.9465 10.3242C22.8454 10.6188 22.612 10.8496 22.3166 10.9482C17.597 12.5214 14.6603 12.1245 11.8215 11.6084C9.07792 11.1096 6.50311 10.5241 2.21698 11.4766C1.82494 11.5636 1.41876 11.4071 1.18573 11.0801C0.952683 10.7529 0.938079 10.3177 1.14862 9.97559L5.14862 3.47559C5.30786 3.21707 5.57466 3.04735 5.87128 3.00879L6.00018 3H18.0002ZM6.55878 5L4.01483 9.13477C7.47504 8.6975 9.88548 9.22462 12.1789 9.6416C14.5674 10.0759 16.8768 10.4006 20.4201 9.43164L17.465 5H6.55878Z" fill="#FF00FF"/>
</svg>
