<svg width="24" height="24" viewBox="0 0 24 24" fill="none" xmlns="http://www.w3.org/2000/svg">
<path d="M12 2.00006C14.7614 2.00006 17 4.23864 17 7.00006V10.0001H19C19.5523 10.0001 20 10.4478 20 11.0001V20.0001C20 20.5523 19.5523 21.0001 19 21.0001H5C4.44772 21.0001 4 20.5523 4 20.0001V11.0001C4 10.4478 4.44772 10.0001 5 10.0001H7V7.00006C7 4.23864 9.23858 2.00006 12 2.00006ZM12 4.00006C10.3431 4.00006 9 5.34321 9 7.00006V10.0001H15V7.00006C15 5.34321 13.6569 4.00006 12 4.00006Z" fill="#FF00FF"/>
</svg>
