<svg width="24" height="24" viewBox="0 0 24 24" fill="none" xmlns="http://www.w3.org/2000/svg">
<path d="M16.038 1C16.2674 1 16.4381 1.22579 16.3895 1.46484L15.9481 3.63281C17.4548 4.12631 18.6793 5.01094 19.4354 6.10254C19.5439 6.25914 19.5103 6.47728 19.369 6.60059L17.5116 8.22168C17.3482 8.3642 17.1061 8.32574 16.9726 8.15137C16.0336 6.92429 14.5607 6.23055 12.9657 6.23047C11.2305 6.23047 10.0733 7.05114 10.0731 8.23047C10.0731 9.20475 10.9409 9.71769 13.5917 10.333H13.5937C16.9676 11.1023 18.5106 12.5899 18.5106 15.1025C18.5106 18.2525 16.0985 20.5781 12.3349 20.8242L11.9667 22.6953C11.9317 22.8729 11.7843 23 11.6142 23H8.69814C8.46595 22.9998 8.2948 22.7683 8.34853 22.5273L8.81533 20.4326C6.93837 19.8641 5.43045 18.7561 4.55752 17.3896C4.45517 17.2294 4.49399 17.0134 4.6376 16.8945L6.67471 15.208C6.84266 15.069 7.08633 15.116 7.21084 15.2998C8.28341 16.883 9.92644 17.8202 11.9052 17.8203C13.6886 17.8203 15.0387 16.8976 15.039 15.5645C15.039 14.5389 14.364 14.0772 12.0985 13.5645C8.19388 12.6927 6.65127 11.1534 6.65127 8.64062C6.65148 5.72544 8.95435 3.52319 12.4286 3.2373L12.8095 1.30469C12.8445 1.12711 12.9918 1 13.162 1H16.038Z" fill="#FF00FF"/>
</svg>
