<svg width="24" height="24" viewBox="0 0 24 24" fill="none" xmlns="http://www.w3.org/2000/svg">
<path d="M10.9139 6.52543C10.9139 4.58458 13.0125 3.37475 14.6912 4.33793L17.2313 5.79399L19.7342 7.22758C21.4201 8.19796 21.4205 10.6385 19.742 11.6163L17.2381 13.0498L14.6981 14.5059C13.0194 15.4761 10.9217 14.2591 10.9217 12.3184V11.9346C10.9216 11.8474 10.8978 11.7612 10.8543 11.6856C10.8108 11.6101 10.7488 11.5468 10.6736 11.503C10.5982 11.459 10.5119 11.4361 10.4246 11.4356C10.3375 11.4351 10.2514 11.4571 10.1756 11.5L7.86016 12.833L5.55255 14.1582C5.47685 14.2017 5.4137 14.2643 5.36993 14.3399C5.32617 14.4155 5.30257 14.5015 5.30255 14.5889C5.30255 14.6763 5.32615 14.7623 5.36993 14.8379C5.41371 14.9136 5.47678 14.9761 5.55255 15.0196L7.86016 16.3448L10.1756 17.6778C10.2514 17.7207 10.3375 17.7427 10.4246 17.7422C10.5119 17.7417 10.5982 17.7188 10.6736 17.6748C10.7488 17.631 10.8108 17.5677 10.8543 17.4922C10.8978 17.4165 10.9216 17.3305 10.9217 17.2432V16.4688C10.9212 16.383 10.9428 16.2982 10.9852 16.2237C11.0276 16.1491 11.0889 16.0863 11.1629 16.043C11.2369 15.9997 11.3213 15.9771 11.407 15.9766C11.4928 15.9762 11.5777 15.9984 11.6522 16.0411L12.8318 16.7149C12.9091 16.7576 12.9739 16.8202 13.0184 16.8965C13.063 16.973 13.0857 17.0609 13.0848 17.1495V17.4747C13.0848 19.4155 10.9861 20.6253 9.30743 19.6622L6.76739 18.2061L4.26446 16.7725C2.57851 15.8021 2.57851 13.3611 4.26446 12.3907L6.76739 10.9571L9.30059 9.49418C10.9793 8.52397 13.0779 9.74091 13.0779 11.6817V12.0655C13.078 12.1527 13.1009 12.2389 13.1443 12.3145C13.1878 12.3899 13.2498 12.4532 13.325 12.4971C13.4004 12.5411 13.4868 12.564 13.574 12.5645C13.6612 12.565 13.7472 12.543 13.8231 12.5L16.1385 11.167L18.4461 9.84184C18.5218 9.79837 18.5849 9.73574 18.6287 9.6602C18.6725 9.58458 18.6961 9.49856 18.6961 9.41117C18.6961 9.32374 18.6725 9.23781 18.6287 9.16215C18.5849 9.08651 18.5219 9.02402 18.4461 8.98051L16.1385 7.65532L13.8231 6.32231C13.7472 6.27932 13.6612 6.25738 13.574 6.25785C13.4868 6.25839 13.4004 6.28128 13.325 6.32524C13.2498 6.36914 13.1878 6.43236 13.1443 6.50785C13.1008 6.58356 13.078 6.66954 13.0779 6.75688V7.53129C13.0784 7.61706 13.0559 7.70187 13.0135 7.77641C12.971 7.85099 12.9098 7.91376 12.8357 7.95707C12.7617 8.00035 12.6773 8.02304 12.5916 8.02348C12.5058 8.02388 12.421 8.00165 12.3465 7.95903L11.1668 7.2852C11.0895 7.24244 11.0248 7.17989 10.9803 7.10356C10.9357 7.02705 10.9129 6.9392 10.9139 6.85063V6.52543Z" fill="#FF00FF"/>
</svg>
