<svg width="24" height="24" viewBox="0 0 24 24" fill="none" xmlns="http://www.w3.org/2000/svg">
<path d="M18.6572 2C19.0961 1.99989 19.531 2.08605 19.9365 2.25391C20.342 2.42176 20.7102 2.66829 21.0205 2.97852C21.3308 3.28875 21.5771 3.65714 21.7451 4.0625C21.9131 4.46798 22 4.90289 22 5.3418V18.6562C22 19.5427 21.6482 20.3936 21.0215 21.0205C20.3947 21.6475 19.5438 21.9998 18.6572 22H5.34277C4.45621 21.9998 3.60533 21.6475 2.97852 21.0205C2.35182 20.3936 2 19.5427 2 18.6562V5.3418C2 4.90289 2.0869 4.46798 2.25488 4.0625C2.42287 3.65714 2.66918 3.28875 2.97949 2.97852C3.28984 2.66829 3.65804 2.42176 4.06348 2.25391C4.46897 2.08605 4.90391 1.99989 5.34277 2H18.6572ZM6.69238 5.63672C6.55399 5.63673 6.41692 5.66384 6.28906 5.7168C6.1613 5.76975 6.04507 5.84754 5.94727 5.94531C5.84938 6.04327 5.77168 6.16012 5.71875 6.28809C5.66586 6.416 5.6386 6.55299 5.63867 6.69141V17.3096C5.63862 17.4479 5.66587 17.585 5.71875 17.7129C5.77168 17.8408 5.84942 17.9568 5.94727 18.0547C6.04516 18.1527 6.16112 18.2312 6.28906 18.2842C6.4169 18.3371 6.55401 18.3642 6.69238 18.3643H17.3096C17.5891 18.3639 17.8571 18.2524 18.0547 18.0547C18.2522 17.857 18.3632 17.589 18.3633 17.3096V6.69141C18.3632 6.41193 18.2522 6.14403 18.0547 5.94629C17.8571 5.74856 17.5891 5.63705 17.3096 5.63672H6.69238ZM14.125 9.25879C14.2047 9.2589 14.2839 9.27501 14.3574 9.30566C14.4309 9.33628 14.4976 9.38111 14.5537 9.4375C14.6098 9.49393 14.6543 9.56115 14.6846 9.63477C14.7148 9.70841 14.7308 9.7876 14.7305 9.86719V14.1055C14.7307 14.185 14.7148 14.2643 14.6846 14.3379C14.6543 14.4115 14.6099 14.4787 14.5537 14.5352C14.4976 14.5915 14.4308 14.6364 14.3574 14.667C14.2839 14.6976 14.2046 14.7128 14.125 14.7129H9.875C9.79534 14.7129 9.71614 14.6976 9.64258 14.667C9.56913 14.6364 9.50243 14.5915 9.44629 14.5352C9.39011 14.4787 9.34568 14.4116 9.31543 14.3379C9.28522 14.2642 9.2692 14.1851 9.26953 14.1055V9.86719C9.26913 9.78757 9.28526 9.70845 9.31543 9.63477C9.34563 9.56109 9.39014 9.49396 9.44629 9.4375C9.50244 9.38108 9.56909 9.33625 9.64258 9.30566C9.7162 9.27505 9.79527 9.25879 9.875 9.25879H14.125Z" fill="#FF00FF"/>
</svg>
