<svg width="24" height="24" viewBox="0 0 24 24" fill="none" xmlns="http://www.w3.org/2000/svg">
<path d="M22.7069 21.2929L21.2928 22.7069L11.2928 12.7069L12.7069 11.2929L22.7069 21.2929ZM6.80063 16.1386C6.86911 15.9538 7.1305 15.9538 7.19907 16.1386L7.88461 17.9901C7.90614 18.0482 7.95155 18.0946 8.00961 18.1161L9.86118 18.8007C10.0462 18.8692 10.0462 19.1307 9.86118 19.1991L8.00961 19.8847C7.95172 19.9062 7.90613 19.9518 7.88461 20.0097L7.19907 21.8612C7.13057 22.0462 6.86907 22.0462 6.80063 21.8612L6.11606 20.0097C6.09454 19.9516 6.0482 19.9062 5.99008 19.8847L4.13852 19.1991C3.95387 19.1306 3.95384 18.8692 4.13852 18.8007L5.99008 18.1161C6.04824 18.0946 6.09454 18.0483 6.11606 17.9901L6.80063 16.1386ZM11.2069 9.79288L9.79282 11.2069L7.29282 8.70695L8.70688 7.29288L11.2069 9.79288ZM2.76938 7.16105C2.84874 6.94657 3.15193 6.94657 3.23129 7.16105L3.62582 8.22843C3.65074 8.29577 3.70403 8.34895 3.77133 8.37394L4.83872 8.76847C5.05319 8.84783 5.05319 9.152 4.83872 9.23136L3.77133 9.62589C3.70404 9.65087 3.65076 9.70408 3.62582 9.7714L3.23129 10.8388C3.15193 11.0533 2.84874 11.0533 2.76938 10.8388L2.37387 9.7714C2.34889 9.70407 2.29573 9.65082 2.22836 9.62589L1.16098 9.23136C0.946502 9.152 0.946502 8.84783 1.16098 8.76847L2.22836 8.37394C2.29577 8.349 2.34891 8.29583 2.37387 8.22843L2.76938 7.16105ZM12.2684 2.16105C12.3481 1.94634 12.6515 1.94642 12.7313 2.16105L13.2616 3.59269C13.2866 3.66014 13.3397 3.71312 13.4071 3.7382L14.8387 4.26847C15.0537 4.3481 15.0537 4.6517 14.8387 4.73136L13.4071 5.26163C13.3397 5.28669 13.2866 5.33973 13.2616 5.40714L12.7313 6.83878C12.6516 7.05359 12.348 7.05367 12.2684 6.83878L11.7391 5.40714C11.7141 5.33953 11.6602 5.28666 11.5926 5.26163L10.161 4.73136C9.94646 4.65156 9.94642 4.34824 10.161 4.26847L11.5926 3.7382C11.6602 3.71316 11.7141 3.66029 11.7391 3.59269L12.2684 2.16105Z" fill="#FF00FF"/>
</svg>
