<svg width="24" height="24" viewBox="0 0 24 24" fill="none" xmlns="http://www.w3.org/2000/svg">
<path d="M20.6455 2.56543C20.9527 2.44889 21.2979 2.49014 21.5684 2.67676C21.8388 2.86345 22 3.17139 22 3.5V17.7227C21.9998 18.1378 21.7427 18.5099 21.3545 18.6572L15.3545 20.9346L15.2686 20.9639C15.0639 21.0209 14.8456 21.0105 14.6455 20.9346L9 18.791L3.35449 20.9346C3.04726 21.0511 2.70211 21.0099 2.43164 20.8232C2.16123 20.6366 2 20.3286 2 20V5.77734C2.00016 5.41405 2.19666 5.08379 2.50586 4.9082L2.64551 4.84277L8.64551 2.56543C8.84559 2.48954 9.06393 2.47912 9.26855 2.53613L9.35449 2.56543L15 4.70801L20.6455 2.56543ZM4 6.46777V18.5508L8 17.0312V4.94824L4 6.46777ZM10 17.0312L14 18.5508V6.46777L10 4.94824V17.0312ZM16 6.46777V18.5508L20 17.0312V4.94824L16 6.46777Z" fill="#FF00FF"/>
</svg>
