<svg width="24" height="24" viewBox="0 0 24 24" fill="none" xmlns="http://www.w3.org/2000/svg">
<path d="M19.6025 3.00488C20.1067 3.05621 20.5 3.48232 20.5 4V20C20.5 20.5523 20.0523 21 19.5 21H4.5C3.94772 21 3.5 20.5523 3.5 20V4L3.50488 3.89746C3.55621 3.39333 3.98232 3 4.5 3H19.5L19.6025 3.00488ZM5.5 19H9V16L9.00488 15.8975C9.05621 15.3933 9.48232 15 10 15H14L14.1025 15.0049C14.6067 15.0562 15 15.4823 15 16V19H18.5V5H5.5V19ZM11 19H13V17H11V19ZM13 8.5H14.5V10.5H13V12H11V10.5H9.5V8.5H11V7H13V8.5Z" fill="#FF00FF"/>
</svg>
