<svg width="24" height="24" viewBox="0 0 24 24" fill="none" xmlns="http://www.w3.org/2000/svg">
<path d="M22.629 3.50781C22.9252 3.54628 23.1913 3.71675 23.3507 3.97461C23.5099 4.23243 23.5425 4.54614 23.4445 4.82812L23.3947 4.94727L21.5001 8.73633V19.5C21.5001 20.0522 21.0524 20.4999 20.5001 20.5H3.50012C2.94784 20.5 2.50012 20.0523 2.50012 19.5V8.73633L0.605591 4.94727L2.39465 4.05273L4.11829 7.5H8.88196L10.6056 4.05273L10.6769 3.93164C10.8618 3.6637 11.1687 3.5 11.5001 3.5H22.5001L22.629 3.50781ZM4.50012 18.5H8.50012V9.5H4.50012V18.5ZM10.5001 18.5H19.5001V9.5H10.5001V18.5ZM11.1183 7.5H19.882L20.882 5.5H12.1183L11.1183 7.5Z" fill="#FF00FF"/>
</svg>
