<svg width="24" height="24" viewBox="0 0 24 24" fill="none" xmlns="http://www.w3.org/2000/svg">
<path fill-rule="evenodd" clip-rule="evenodd" d="M19.9873 3.0082C20.2517 2.97515 20.5188 3.04899 20.7285 3.21328C20.938 3.37755 21.0733 3.61882 21.1045 3.8832V3.88515C21.1047 3.88644 21.1052 3.88885 21.1055 3.89101C21.1061 3.89588 21.1073 3.90342 21.1084 3.91249C21.1106 3.93153 21.1139 3.96002 21.1182 3.99648C21.1268 4.07042 21.1392 4.17976 21.1553 4.31874C21.1875 4.59751 21.234 4.99981 21.2891 5.49062C21.3993 6.47253 21.5463 7.81456 21.6934 9.25136C21.9849 12.0998 22.2851 15.4023 22.2852 16.9838C22.2849 19.2454 20.3983 21.0228 18.1426 21.0228C15.8868 21.0228 14.0003 19.2455 14 16.9838C14.0002 14.7221 15.8868 12.9457 18.1426 12.9457C18.8533 12.9457 19.5078 13.1326 20.0771 13.4486C19.9719 12.1864 19.8395 10.7874 19.7031 9.45449C19.5569 8.0259 19.4105 6.69088 19.3008 5.71328C19.2764 5.49627 19.2537 5.29643 19.2334 5.11757L9.21777 6.36953C9.23889 6.55497 9.26358 6.76358 9.28906 6.99062C9.39929 7.97253 9.54631 9.31454 9.69336 10.7514C9.9849 13.6001 10.2852 16.9034 10.2852 18.4848L10.2793 18.6947C10.1663 20.8552 8.32785 22.5228 6.14258 22.5228C3.88697 22.5228 2.00054 20.7462 2 18.4848C2 16.2228 3.88665 14.4457 6.14258 14.4457C6.83602 14.4457 7.49465 14.6132 8.07422 14.9115C7.96943 13.659 7.8382 12.2743 7.70312 10.9545C7.55692 9.52591 7.41053 8.19087 7.30078 7.21328C7.24595 6.72488 7.20092 6.32515 7.16895 6.04824C7.153 5.91016 7.14038 5.80204 7.13184 5.7289C7.12762 5.6928 7.12427 5.6646 7.12207 5.64589C7.12101 5.63685 7.11972 5.62912 7.11914 5.62441C7.11893 5.62261 7.11915 5.62063 7.11914 5.61953L7.11816 5.61757C7.05382 5.07191 7.44217 4.57653 7.9873 4.5082L19.9873 3.0082ZM6.14258 16.4457C4.92743 16.4457 4 17.3901 4 18.4848C4.00055 19.579 4.92779 20.5228 6.14258 20.5228C7.35731 20.5228 8.28461 19.5789 8.28516 18.4848C8.28516 17.3902 7.35768 16.4458 6.14258 16.4457ZM18.1426 14.9457C16.9276 14.9457 16.0003 15.8894 16 16.9838C16.0003 18.0782 16.9276 19.0228 18.1426 19.0228C19.3493 19.0228 20.2706 18.0912 20.2832 17.0062C20.2252 15.9723 19.2798 14.9458 18.1426 14.9457Z" fill="#FF00FF"/>
</svg>
