<svg width="24" height="24" viewBox="0 0 24 24" fill="none" xmlns="http://www.w3.org/2000/svg">
<path d="M9.36035 2.00879C12.7452 2.18042 15.4933 4.75697 15.9355 8.06348C19.3591 8.52087 22 11.4513 22 15C22 18.7451 19.0589 21.8037 15.3604 21.9912L15 22C11.4513 22 8.52087 19.3591 8.06348 15.9355C4.75698 15.4933 2.18042 12.7452 2.00879 9.36035L2 9C2 5.13401 5.13401 2 9 2L9.36035 2.00879ZM15.915 10.085C15.4486 13.082 13.082 15.4486 10.085 15.915C10.5149 18.2394 12.5512 20 15 20L15.2568 19.9932C17.8989 19.8595 20 17.6753 20 15C20 12.5512 18.2394 10.5149 15.915 10.085ZM9 4C6.23858 4 4 6.23858 4 9L4.00684 9.25684C4.12489 11.5898 5.84197 13.4998 8.08398 13.915C8.55033 10.9182 10.9174 8.55073 13.9141 8.08398C13.4988 5.84202 11.5898 4.12489 9.25684 4.00684L9 4ZM13.8701 10.1289C12.0164 10.5572 10.5575 12.0156 10.1289 13.8691C11.9834 13.441 13.442 11.9834 13.8701 10.1289Z" fill="#FF00FF"/>
</svg>
