<svg width="24" height="24" viewBox="0 0 24 24" fill="none" xmlns="http://www.w3.org/2000/svg">
<path d="M12 4.99988H5V18.9999H19V11.9999H21V18.9999C21 20.1044 20.1046 20.9999 19 20.9999H5C3.89543 20.9999 3 20.1044 3 18.9999V4.99988C3.00007 3.89537 3.89547 2.99988 5 2.99988H12V4.99988ZM17.7529 2.22253C18.1451 1.90433 18.7222 1.92706 19.0879 2.29089L21.7051 4.89636C21.8931 5.08351 21.9994 5.3381 22 5.60339C22.0004 5.8685 21.8951 6.12261 21.708 6.31042L15.8857 12.1532C15.5435 12.4966 15.1227 12.7519 14.6602 12.8973L11.2998 13.954C10.9453 14.0654 10.5584 13.9709 10.2949 13.7089C10.0315 13.4467 9.93528 13.06 10.0449 12.705L11.0811 9.34949C11.2259 8.88107 11.4836 8.45514 11.8311 8.10925L17.6768 2.29089L17.7529 2.22253ZM13.2422 9.52722C13.1264 9.64248 13.0404 9.78425 12.9922 9.94031L12.5176 11.4735L14.0605 10.9891C14.2146 10.9407 14.3547 10.8555 14.4688 10.7411L19.585 5.6073L18.3818 4.41003L13.2422 9.52722Z" fill="#FF00FF"/>
</svg>
