<svg width="24" height="24" viewBox="0 0 24 24" fill="none" xmlns="http://www.w3.org/2000/svg">
<path d="M16.707 11.7069L13.4141 14.9998L16.707 18.2928L15.293 19.7069L12 16.4139L8.70703 19.7069L7.29297 18.2928L10.5859 14.9998L7.29297 11.7069L8.70703 10.2928L12 13.5858L15.293 10.2928L16.707 11.7069ZM4.5752 6.92172L5.26562 7.64536C3.5497 9.28133 2.5 11.5275 2.5 13.9998H0.5C0.5 10.9435 1.80144 8.18427 3.88574 6.19711L4.5752 6.92172ZM20.1143 6.19711C22.1986 8.18427 23.5 10.9435 23.5 13.9998H21.5C21.5 11.5275 20.4503 9.28133 18.7344 7.64536L19.4248 6.92172L20.1143 6.19711ZM6.2666 4.45297C9.77934 2.51568 14.2207 2.51568 17.7334 4.45297L17.25 5.32895L16.7666 6.20395C13.8553 4.59855 10.1447 4.59855 7.2334 6.20395L6.75 5.32895L6.2666 4.45297Z" fill="#FF00FF"/>
</svg>
