<svg width="24" height="24" viewBox="0 0 24 24" fill="none" xmlns="http://www.w3.org/2000/svg">
<path d="M14.3995 3.20996C14.788 2.90783 15.3471 2.93233 15.7081 3.28125L19.2697 6.72363C19.4657 6.91315 19.5756 7.1746 19.5743 7.44727C19.5731 7.71994 19.4606 7.98027 19.2628 8.16797L9.1886 17.7256C9.0891 17.82 8.9708 17.8925 8.84192 17.9395L8.6759 18H20.0001V20H3.00012C2.67394 20 2.36794 19.8404 2.18079 19.5732C1.99389 19.3061 1.94925 18.9646 2.06067 18.6582L4.06067 13.1582L4.10657 13.0518C4.15838 12.9485 4.22741 12.8543 4.31165 12.7744L14.3243 3.27441L14.3995 3.20996ZM5.85852 14.0635L4.67102 17.3281L7.96106 16.1318L17.1281 7.43555L15.006 5.38379L5.85852 14.0635Z" fill="#FF00FF"/>
</svg>
