<svg width="24" height="24" viewBox="0 0 24 24" fill="none" xmlns="http://www.w3.org/2000/svg">
<path d="M15.7065 21.207C14.7266 22.1868 13.3229 22.625 11.9995 22.625C10.6762 22.6249 9.27233 22.1869 8.29248 21.207L9.70654 19.793C10.2265 20.3129 11.0732 20.6249 11.9995 20.625C12.9259 20.625 13.7724 20.3129 14.2925 19.793L15.7065 21.207ZM11.9995 3C14.548 3 16.7473 4.78827 17.2671 7.2832L19.4048 17.542C19.4538 17.7782 19.2731 18 19.0317 18H4.96826C4.72694 18 4.54613 17.7782 4.59521 17.542L6.73193 7.2832C7.25166 4.78823 9.451 3.00011 11.9995 3Z" fill="#FF00FF"/>
</svg>
