<svg width="24" height="24" viewBox="0 0 24 24" fill="none" xmlns="http://www.w3.org/2000/svg">
<path d="M5.77734 16.4443C6.75918 16.4443 7.55566 17.2408 7.55566 18.2227C7.55543 19.2043 6.75904 20 5.77734 20C4.79585 19.9998 4.00023 19.2042 4 18.2227C4 17.241 4.7957 16.4446 5.77734 16.4443ZM12 16.4443C12.9818 16.4443 13.7773 17.2408 13.7773 18.2227C13.7771 19.2043 12.9817 20 12 20C11.0183 20 10.2229 19.2043 10.2227 18.2227C10.2227 17.2408 11.0182 16.4443 12 16.4443ZM18.2227 16.4443C19.2043 16.4446 20 17.241 20 18.2227C19.9998 19.2042 19.2042 19.9998 18.2227 20C17.241 20 16.4446 19.2043 16.4443 18.2227C16.4443 17.2408 17.2408 16.4443 18.2227 16.4443ZM5.77734 10.2227C6.75918 10.2227 7.55566 11.0182 7.55566 12C7.55566 12.9818 6.75918 13.7773 5.77734 13.7773C4.7957 13.7771 4 12.9817 4 12C4 11.0183 4.7957 10.2229 5.77734 10.2227ZM12 10.2227C12.9818 10.2227 13.7773 11.0182 13.7773 12C13.7773 12.9818 12.9818 13.7773 12 13.7773C11.0182 13.7773 10.2227 12.9818 10.2227 12C10.2227 11.0182 11.0182 10.2227 12 10.2227ZM18.2227 10.2227C19.2043 10.2229 20 11.0183 20 12C20 12.9817 19.2043 13.7771 18.2227 13.7773C17.2408 13.7773 16.4443 12.9818 16.4443 12C16.4443 11.0182 17.2408 10.2227 18.2227 10.2227ZM5.77734 4C6.75904 4 7.55543 4.7957 7.55566 5.77734C7.55566 6.75918 6.75918 7.55566 5.77734 7.55566C4.7957 7.55543 4 6.75904 4 5.77734C4.00023 4.79585 4.79585 4.00023 5.77734 4ZM12 4C12.9817 4 13.7771 4.7957 13.7773 5.77734C13.7773 6.75918 12.9818 7.55566 12 7.55566C11.0182 7.55566 10.2227 6.75918 10.2227 5.77734C10.2229 4.7957 11.0183 4 12 4ZM18.2227 4C19.2042 4.00023 19.9998 4.79585 20 5.77734C20 6.75904 19.2043 7.55543 18.2227 7.55566C17.2408 7.55566 16.4443 6.75918 16.4443 5.77734C16.4446 4.7957 17.241 4 18.2227 4Z" fill="#FF00FF"/>
</svg>
