<svg width="24" height="24" viewBox="0 0 24 24" fill="none" xmlns="http://www.w3.org/2000/svg">
<path d="M4.5 13C4.50001 14.1046 5.39544 15 6.5 15H17.5C18.6046 15 19.5 14.1046 19.5 13V12H21.5V13C21.5 15.2091 19.7091 17 17.5 17H13V19H14C15.6568 19 17 20.3432 17 22H15C15 21.4477 14.5523 21 14 21H10C9.44772 21 9 21.4477 9 22H7C7 20.3431 8.34315 19 10 19H11V17H6.5C4.29086 17 2.50001 15.2091 2.5 13V12H4.5V13ZM14.1992 1.5C15.7343 1.5 17.0217 2.65892 17.1826 4.18555L17.9941 11.8955C18.0238 12.1773 17.9327 12.4583 17.7432 12.6689C17.5535 12.8796 17.2834 13 17 13H7L6.89453 12.9941C6.65037 12.9682 6.42276 12.8533 6.25684 12.6689C6.06728 12.4583 5.97624 12.1773 6.00586 11.8955L6.81738 4.18555L6.86035 3.9043C7.13982 2.51886 8.36146 1.50003 9.80078 1.5H14.1992ZM9.80078 3.5C9.32091 3.50003 8.91334 3.83979 8.82031 4.30176L8.80566 4.39551L8.11035 11H15.8887L15.1943 4.39551C15.1408 3.88657 14.711 3.5 14.1992 3.5H9.80078Z" fill="#FF00FF"/>
</svg>
