<svg width="24" height="24" viewBox="0 0 24 24" fill="none" xmlns="http://www.w3.org/2000/svg">
<path d="M4 12C4 16.4183 7.58172 20 12 20V22C6.47715 22 2 17.5228 2 12H4ZM21.6592 14.5879C20.7191 18.0962 18.0253 20.6654 14.7783 21.6074L14.5 20.6475L14.2217 19.6865C16.8243 18.9312 18.9761 16.8747 19.7275 14.0703L21.6592 14.5879ZM17.2617 9.14746L11.7373 15.6475C11.5473 15.871 11.268 16 10.9746 16C10.6814 15.9999 10.4028 15.8709 10.2129 15.6475L7.23828 12.1475L8.76172 10.8525L10.9746 13.4551L15.7383 7.85254L17.2617 9.14746ZM12 2C17.5228 2 22 6.47716 22 12H20C20 7.58173 16.4183 4 12 4V2ZM9.5 3.35254L9.77832 4.31348C7.17567 5.06875 5.02391 7.12525 4.27246 9.92969L2.34082 9.41211C3.28086 5.90384 5.97475 3.33465 9.22168 2.39258L9.5 3.35254Z" fill="#FF00FF"/>
</svg>
