<svg width="24" height="24" viewBox="0 0 24 24" fill="none" xmlns="http://www.w3.org/2000/svg">
<path d="M18.5001 12C19.561 12 20.5781 12.4219 21.3282 13.1719C22.0783 13.9219 22.5001 15.0106 22.5001 16.0713C22.5001 18.0663 19.7826 20.9212 18.8273 21.8633C18.6427 22.0453 18.3575 22.0453 18.173 21.8633C17.2178 20.9213 14.5002 18.0663 14.5001 16.0713C14.5001 15.0106 14.9219 13.9219 15.672 13.1719C16.4221 12.4218 17.4393 12 18.5001 12ZM22.629 3.50781C22.9252 3.54628 23.1913 3.71675 23.3507 3.97461C23.5099 4.23243 23.5425 4.54614 23.4445 4.82812L23.3947 4.94727L21.5001 8.73633V10.5H19.5001V9.5H10.5001V18.5H13.0001V20.5H3.50012C2.94784 20.5 2.50012 20.0523 2.50012 19.5V8.73633L0.605591 4.94727L2.39465 4.05273L4.11829 7.5H8.88196L10.6056 4.05273L10.6769 3.93164C10.8618 3.6637 11.1687 3.5 11.5001 3.5H22.5001L22.629 3.50781ZM4.50012 18.5H8.50012V9.5H4.50012V18.5ZM18.5001 14.5C17.6717 14.5 17.0001 15.1716 17.0001 16C17.0001 16.8284 17.6717 17.5 18.5001 17.5C19.3285 17.5 20.0001 16.8284 20.0001 16C20.0001 15.1716 19.3285 14.5 18.5001 14.5ZM11.1183 7.5H19.882L20.882 5.5H12.1183L11.1183 7.5Z" fill="#FF00FF"/>
</svg>
