<svg width="24" height="24" viewBox="0 0 24 24" fill="none" xmlns="http://www.w3.org/2000/svg">
<path d="M18.9689 11.5059C21.2144 11.6198 23.0001 13.4762 23.0001 15.75C23.0001 18.0972 21.0973 19.9999 18.7501 20H12.4142L14.2072 21.793L12.7931 23.207L9.29309 19.707C9.10556 19.5195 9.00012 19.2652 9.00012 19C9.00012 18.7348 9.10555 18.4805 9.29309 18.293L12.7931 14.793L14.2072 16.207L12.4142 18H18.7501C19.9927 17.9999 21.0001 16.9926 21.0001 15.75C21.0001 14.5852 20.1149 13.6272 18.9806 13.5117L18.7501 13.5H17.5001V11.5H18.7501L18.9689 11.5059ZM22.5001 3.5C22.8467 3.50004 23.1685 3.67982 23.3507 3.97461C23.5328 4.26937 23.5496 4.63738 23.3947 4.94727L21.3947 8.94727C21.2253 9.28602 20.8789 9.49996 20.5001 9.5H10.5001V14.5H8.50012V9.5H4.50012V18.5H7.00012V20.5H3.50012C2.94784 20.5 2.50012 20.0523 2.50012 19.5V8.73633L0.605591 4.94727L2.39465 4.05273L4.11829 7.5H8.88196L10.6056 4.05273L10.6769 3.93164C10.8618 3.6637 11.1687 3.5 11.5001 3.5H22.5001ZM11.1183 7.5H19.882L20.882 5.5H12.1183L11.1183 7.5Z" fill="#FF00FF"/>
</svg>
