<svg width="24" height="24" viewBox="0 0 24 24" fill="none" xmlns="http://www.w3.org/2000/svg">
<path d="M12.6113 3.6112C14.7591 1.46338 18.2407 1.46343 20.3886 3.6112C22.5365 5.75908 22.5365 9.24066 20.3886 11.3885C18.4821 13.2951 15.5256 13.5082 13.3828 12.0301L10.413 14.9989L13.207 17.7928L11.7929 19.2069L8.99896 16.413L7.41302 17.9989L9.20697 19.7928L7.79291 21.2069L5.99896 19.413L4.20697 21.2069L2.79291 19.7928L11.9687 10.6161C10.4916 8.47335 10.7051 5.51736 12.6113 3.6112ZM18.9745 5.02526C17.6077 3.65854 15.3921 3.65849 14.0253 5.02526C12.6585 6.39206 12.6586 8.60764 14.0253 9.97448C15.3922 11.3413 17.6077 11.3413 18.9745 9.97448C20.3414 8.60764 20.3414 6.39209 18.9745 5.02526Z" fill="#FF00FF"/>
</svg>
