<svg width="24" height="24" viewBox="0 0 24 24" fill="none" xmlns="http://www.w3.org/2000/svg">
<path d="M17.4502 3.68848C18.6955 3.62614 20.2992 3.72819 21.7305 4.48242L22.0146 4.64258C22.3156 4.82329 22.4999 5.14892 22.5 5.5V18.5L22.4922 18.6279C22.454 18.9233 22.2849 19.1889 22.0283 19.3486C21.7348 19.5311 21.3675 19.5493 21.0576 19.3965C18.2156 17.9937 15.474 18.6822 12.2949 19.5049C9.21407 20.3022 5.71477 21.2246 2.05273 19.3936C1.71426 19.2242 1.50016 18.8785 1.5 18.5V5.5C1.50008 5.15351 1.67986 4.83158 1.97461 4.64941C2.23245 4.49015 2.54611 4.45763 2.82812 4.55566L2.94727 4.60547C3.82272 5.04316 5.16273 5.28267 6.44336 5.39941C7.69089 5.51313 8.74599 5.5 9 5.5V7.5C8.75401 7.5 7.61247 7.51376 6.26172 7.39062C5.41433 7.31338 4.42547 7.17736 3.5 6.92676V17.8564C6.20617 18.971 8.82964 18.3365 11.7939 17.5693C14.4501 16.882 17.412 16.0772 20.5 17.0293V6.11133C19.5935 5.72258 18.539 5.63699 17.5498 5.68652C16.9765 5.71525 16.4542 5.78697 16.0342 5.85449C15.8084 5.8908 15.6562 5.91867 15.4824 5.94727C15.3608 5.96727 15.1617 6 15 6V4C14.9631 4 14.9829 4.00248 15.1582 3.97363C15.2812 3.95338 15.5044 3.91388 15.7158 3.87988C16.1707 3.80674 16.7738 3.72234 17.4502 3.68848ZM13 2V12.0859L15.793 9.29297L17.207 10.707L12.707 15.207C12.5195 15.3946 12.2652 15.5 12 15.5C11.7679 15.5 11.5442 15.4193 11.3662 15.2734L11.293 15.207L6.79297 10.707L8.20703 9.29297L11 12.0859V2H13Z" fill="#FF00FF"/>
</svg>
