<svg width="24" height="24" viewBox="0 0 24 24" fill="none" xmlns="http://www.w3.org/2000/svg">
<path d="M11.9999 2.00006C17.5227 2.00006 21.9999 6.47721 21.9999 12.0001C21.9998 17.5229 17.5227 22.0001 11.9999 22.0001C6.47711 22 1.99991 17.5228 1.99988 12.0001C1.99988 6.47725 6.47709 2.00013 11.9999 2.00006ZM6.74988 10.5001C5.92149 10.5001 5.24988 11.1717 5.24988 12.0001C5.24991 12.8284 5.92151 13.5 6.74988 13.5001C7.57828 13.5001 8.24985 12.8285 8.24988 12.0001C8.24988 11.1716 7.57831 10.5001 6.74988 10.5001ZM11.9999 10.5001C11.1715 10.5001 10.4999 11.1716 10.4999 12.0001C10.5 12.8284 11.1715 13.5 11.9999 13.5001C12.8283 13.5001 13.4998 12.8284 13.4999 12.0001C13.4999 11.1716 12.8283 10.5001 11.9999 10.5001ZM17.2499 10.5001C16.4215 10.5001 15.7499 11.1717 15.7499 12.0001C15.7499 12.8284 16.4215 13.5 17.2499 13.5001C18.0783 13.5001 18.7498 12.8285 18.7499 12.0001C18.7499 11.1716 18.0783 10.5001 17.2499 10.5001Z" fill="#FF00FF"/>
</svg>
