<svg width="24" height="24" viewBox="0 0 24 24" fill="none" xmlns="http://www.w3.org/2000/svg">
<path d="M15.1348 12.254C15.2605 11.9155 15.7396 11.9155 15.8653 12.254L17.1211 15.6486C17.1606 15.7552 17.245 15.8396 17.3516 15.879L20.7461 17.1349C21.0847 17.2606 21.0847 17.7396 20.7461 17.8653L17.3516 19.1212C17.245 19.1607 17.1606 19.245 17.1211 19.3517L15.8653 22.7462C15.7396 23.0848 15.2605 23.0848 15.1348 22.7462L13.8789 19.3517C13.8395 19.245 13.7551 19.1607 13.6485 19.1212L10.2539 17.8653C9.91536 17.7396 9.91536 17.2606 10.2539 17.1349L13.6485 15.879C13.7551 15.8396 13.8395 15.7552 13.8789 15.6486L15.1348 12.254ZM5.7344 5.68468C5.82585 5.43856 6.1742 5.43856 6.26565 5.68468L7.17873 8.15343C7.20743 8.23098 7.26915 8.29271 7.3467 8.3214L9.81545 9.23449C10.0616 9.32594 10.0616 9.67428 9.81545 9.76574L7.3467 10.6788C7.26915 10.7075 7.20743 10.7692 7.17873 10.8468L6.26565 13.3155C6.1742 13.5617 5.82585 13.5617 5.7344 13.3155L4.82131 10.8468C4.79262 10.7692 4.73089 10.7075 4.65334 10.6788L2.18459 9.76574C1.93847 9.67428 1.93847 9.32594 2.18459 9.23449L4.65334 8.3214C4.73089 8.29271 4.79262 8.23098 4.82131 8.15343L5.7344 5.68468ZM15.7217 1.19347C15.8173 0.935509 16.1828 0.935509 16.2783 1.19347L16.9141 2.91125C16.9441 2.99233 17.0078 3.05602 17.0889 3.08605L18.8067 3.72179C19.0646 3.81736 19.0646 4.18286 18.8067 4.27843L17.0889 4.91418C17.0078 4.94421 16.9441 5.00789 16.9141 5.08898L16.2783 6.80675C16.1828 7.06472 15.8173 7.06472 15.7217 6.80675L15.086 5.08898C15.0559 5.00789 14.9922 4.94421 14.9112 4.91418L13.1934 4.27843C12.9354 4.18286 12.9354 3.81736 13.1934 3.72179L14.9112 3.08605C14.9922 3.05602 15.0559 2.99233 15.086 2.91125L15.7217 1.19347Z" fill="#FF00FF"/>
</svg>
