<svg width="24" height="24" viewBox="0 0 24 24" fill="none" xmlns="http://www.w3.org/2000/svg">
<path d="M16.0004 3C16.3266 3.00014 16.6327 3.15955 16.8198 3.42676L19.6948 7.53418L21.8598 5.73145L23.1411 7.26855L20.4184 9.53711L18.4838 20.1787C18.3974 20.6541 17.9835 20.9998 17.5004 21H6.50043C6.01717 21 5.60351 20.6542 5.51703 20.1787L3.58148 9.53711L0.859802 7.26855L2.14105 5.73145L4.30511 7.53418L7.18109 3.42676L7.25629 3.33105C7.44463 3.12163 7.715 3 8.00043 3H16.0004ZM7.33441 19H16.6664L18.3032 10H5.69769L7.33441 19ZM6.42133 8H17.5795L15.4799 5H8.52094L6.42133 8Z" fill="#FF00FF"/>
</svg>
