<svg width="24" height="24" viewBox="0 0 24 24" fill="none" xmlns="http://www.w3.org/2000/svg">
<g clip-path="url(#clip0_9367_135)">
<path d="M17.0537 3.61246C15.1242 6.10511 12.7514 7.17488 9.90332 7.17496C7.14975 7.17496 4.86145 9.49087 4.86133 12.4181C4.86137 14.1144 5.36847 15.2808 6.16309 16.2677C6.65352 16.8768 7.25467 17.4199 7.94922 17.9767V17.7707C7.94922 17.2184 8.39693 16.7707 8.94922 16.7707H16.0352C16.5874 16.7707 17.0352 17.2184 17.0352 17.7707V17.966C18.4105 16.8377 19.3924 15.7304 19.9121 13.9259L19.9707 13.7716C20.1344 13.4283 20.4831 13.2023 20.873 13.2023H20.9863V11.6339H20.873C20.4275 11.6339 20.0355 11.3394 19.9121 10.9113C19.7161 10.2306 19.2547 9.4208 18.5908 8.79214C17.9339 8.17025 17.1383 7.77754 16.2627 7.7775V5.7775C17.7718 5.77754 19.0366 6.46023 19.9658 7.34C20.6739 8.01047 21.2203 8.82726 21.5703 9.63394H21.9863L22.0889 9.6398C22.5927 9.69122 22.9861 10.1166 22.9863 10.6339V14.2023C22.9862 14.7544 22.5385 15.2022 21.9863 15.2023H21.5938C20.5848 17.8897 18.6353 19.303 16.6348 20.8009C16.3318 21.0276 15.9263 21.064 15.5879 20.8947C15.2494 20.7252 15.0352 20.3787 15.0352 20.0002V18.7707H9.94922V20.0002C9.94914 20.3787 9.735 20.7252 9.39648 20.8947C9.05803 21.0639 8.65257 21.0277 8.34961 20.8009C7.0217 19.8066 5.63181 18.7985 4.60449 17.5226C3.71556 16.4185 3.09992 15.1212 2.91797 13.465C2.12255 13.4166 1.41042 13.1465 0.869141 12.5793C0.119133 11.793 -0.0746749 10.6687 0.00195312 9.54312L1 9.61148L1.99707 9.67886C1.93742 10.5552 2.1263 11.0001 2.31641 11.1994C2.41579 11.3033 2.59425 11.4197 2.9248 11.4601C3.37939 7.93557 6.30412 5.17496 9.90332 5.17496C12.1425 5.17488 13.927 4.38341 15.4717 2.38785L17.0537 3.61246ZM15 11.0002H10V9.00015H15V11.0002Z" fill="#FF00FF"/>
</g>
<defs>
<clipPath id="clip0_9367_135">
<rect width="24" height="24" fill="white"/>
</clipPath>
</defs>
</svg>
