<svg width="24" height="24" viewBox="0 0 24 24" fill="none" xmlns="http://www.w3.org/2000/svg">
<path d="M16.4846 17.832L17.4778 17.9541C17.2855 19.5191 16.2375 20.9254 14.6418 21.4541C13.0513 21.9809 11.381 21.4815 10.3 20.3428L11.0256 19.6543L11.7502 18.9658C12.3318 19.5785 13.2042 19.8234 14.0129 19.5557C14.8259 19.2862 15.388 18.5602 15.4924 17.71L16.4846 17.832ZM4.33032 13.376L5.22095 13.8311C4.83965 14.5771 4.88231 15.5236 5.41138 16.2607C6.14791 17.2868 7.51911 17.4922 8.47583 16.7783C9.29497 16.1666 9.58654 15.0508 9.20044 14.0869L10.1292 13.7148L11.0569 13.3428C11.7613 15.1013 11.2577 17.1975 9.6731 18.3809C7.79092 19.7861 5.15468 19.3335 3.78638 17.4277C2.80832 16.0651 2.7279 14.3141 3.44067 12.9199L4.33032 13.376ZM17.2502 7.83203C19.5973 7.83222 21.5002 9.73493 21.5002 12.082C21.5001 14.429 19.5972 16.3318 17.2502 16.332C14.9033 16.3318 13.0004 14.429 13.0002 12.082C13.0002 9.73497 14.9032 7.83227 17.2502 7.83203ZM17.2502 9.83203C16.0078 9.83227 15.0002 10.8395 15.0002 12.082C15.0004 13.3244 16.0079 14.3318 17.2502 14.332C18.4926 14.3318 19.5001 13.3244 19.5002 12.082C19.5002 10.8395 18.4927 9.83222 17.2502 9.83203ZM4.06372 5.70703C5.02842 4.33162 6.65597 3.72229 8.19849 4.00488L8.0188 4.98828L7.83813 5.97168C7.04185 5.82586 6.20335 6.13838 5.70044 6.85547C4.98948 7.86979 5.22219 9.30851 6.22876 10.0547C7.06882 10.6772 8.17037 10.6111 8.90942 9.97656L10.2122 11.4941C8.77157 12.7309 6.63482 12.8459 5.03735 11.6621C3.16551 10.2746 2.72592 7.61486 4.06372 5.70703ZM9.8186 5.21289C10.5102 2.96842 12.8732 1.72038 15.1028 2.46484C16.6899 2.995 17.755 4.38569 17.9817 5.93848L16.9924 6.08301L16.0022 6.22754C15.8777 5.37495 15.2964 4.63869 14.469 4.3623C13.327 3.98109 12.0976 4.60771 11.7297 5.80176C11.4155 6.82192 11.841 7.91019 12.6877 8.4541L12.1477 9.2959L11.6067 10.1367C10.0165 9.11513 9.23608 7.10387 9.8186 5.21289Z" fill="#FF00FF"/>
</svg>
