<svg width="24" height="24" viewBox="0 0 24 24" fill="none" xmlns="http://www.w3.org/2000/svg">
<path d="M5 4.5C3.34315 4.5 2 5.84315 2 7.5V15C2 16.6569 3.34315 18 5 18H5.5V21C5.5 21.5523 5.94772 22 6.5 22H17.5C18.0523 22 18.5 21.5523 18.5 21V18H19C20.6569 18 22 16.6569 22 15V7.5C22 5.84315 20.6569 4.5 19 4.5H5ZM16.5 14.5V20H7.5V14.5H16.5ZM19 6.5C19.5523 6.5 20 6.94772 20 7.5V15C20 15.5523 19.5523 16 19 16H18.5V13.5C18.5 12.9477 18.0523 12.5 17.5 12.5H6.5C5.94772 12.5 5.5 12.9477 5.5 13.5V16H5C4.44772 16 4 15.5523 4 15V7.5C4 6.94772 4.44772 6.5 5 6.5H19ZM14 10.5H18V8.5H14V10.5Z" fill="#FF00FF"/>
</svg>
