<svg width="24" height="24" viewBox="0 0 24 24" fill="none" xmlns="http://www.w3.org/2000/svg">
<path d="M12 3C12.3788 3 12.7251 3.21396 12.8945 3.55273L20.8945 19.5527L20.9551 19.7031C21.0664 20.0609 20.9687 20.4574 20.6914 20.7227C20.3743 21.0258 19.8959 21.0867 19.5127 20.873L12 16.6836L4.4873 20.873C4.10413 21.0867 3.62574 21.0258 3.30859 20.7227C2.99172 20.4195 2.90933 19.945 3.10547 19.5527L11.1055 3.55273L11.1768 3.43164C11.3617 3.16368 11.6686 3.00001 12 3ZM6.34375 17.5469L11.5127 14.665L11.6289 14.6094C11.9065 14.4985 12.2223 14.5173 12.4873 14.665L17.6553 17.5469L12 6.23633L6.34375 17.5469Z" fill="#FF00FF"/>
</svg>
