<svg width="24" height="24" viewBox="0 0 24 24" fill="none" xmlns="http://www.w3.org/2000/svg">
<path d="M22 13.5001C22 16.8138 19.3137 19.5001 16 19.5001H7.41406L10.207 22.293L8.79297 23.7071L4.29297 19.2071C3.90244 18.8166 3.90244 18.1836 4.29297 17.793L8.79297 13.293L10.207 14.7071L7.41406 17.5001H16C18.2091 17.5001 20 15.7092 20 13.5001V11.0001H22V13.5001ZM19.707 4.79303L19.7754 4.8692C20.0957 5.26196 20.0731 5.84097 19.707 6.20709L15.207 10.7071L13.793 9.29303L16.5859 6.50006H8C5.79089 6.50006 4.00004 8.29096 4 10.5001V13.0001H2V10.5001C2.00004 7.18639 4.68632 4.50006 8 4.50006H16.5859L13.793 1.70709L15.207 0.29303L19.707 4.79303Z" fill="#FF00FF"/>
</svg>
