<svg width="24" height="24" viewBox="0 0 24 24" fill="none" xmlns="http://www.w3.org/2000/svg">
<path d="M17.7072 4.79291C17.8947 4.98042 18.0001 5.23476 18.0001 5.49994C18.0001 5.76511 17.8946 6.01944 17.7072 6.20697L14.2072 9.70697L12.7931 8.29291L14.5861 6.49994H11.5001C7.91031 6.49994 5.00018 9.41014 5.00012 12.9999C5.00012 16.5898 7.91029 19.4999 11.5001 19.4999C15.0899 19.4999 18.0001 16.5898 18.0001 12.9999H20.0001C20.0001 17.6943 16.1945 21.4999 11.5001 21.4999C6.80572 21.4999 3.00012 17.6943 3.00012 12.9999C3.00018 8.30557 6.80574 4.49994 11.5001 4.49994H14.5861L12.7931 2.70697L14.2072 1.29291L17.7072 4.79291Z" fill="#FF00FF"/>
</svg>
