<svg width="24" height="24" viewBox="0 0 24 24" fill="none" xmlns="http://www.w3.org/2000/svg">
<path d="M12 2C17.5228 2 22 6.47715 22 12C22 17.5228 17.5228 22 12 22C6.47715 22 2 17.5228 2 12C2 6.47715 6.47715 2 12 2ZM12 16C11.145 16 10.2936 16.0305 9.46387 16.0898C9.62897 16.7672 9.83584 17.3975 10.085 17.958C10.8238 19.6203 11.5975 20 12 20C12.4025 20 13.1762 19.6203 13.915 17.958C14.1641 17.3975 14.3701 16.7671 14.5352 16.0898C13.7057 16.0306 12.8547 16 12 16ZM7.45801 16.2969C6.76953 16.3914 6.10922 16.5079 5.48926 16.6465C6.25003 17.7106 7.26471 18.5793 8.44531 19.166C8.38075 19.0368 8.31764 18.9051 8.25781 18.7705C7.92252 18.0161 7.65736 17.1796 7.45801 16.2969ZM16.541 16.2969C16.3417 17.1796 16.0775 18.0162 15.7422 18.7705C15.6823 18.9053 15.6183 19.0366 15.5537 19.166C16.7345 18.5793 17.7489 17.7106 18.5098 16.6465C17.8898 16.508 17.2295 16.3913 16.541 16.2969ZM4.51367 9.17676C4.18238 10.0548 4 11.006 4 12C4 12.9937 4.18258 13.9445 4.51367 14.8223C5.33144 14.6168 6.21135 14.45 7.12891 14.3223C7.04294 13.5557 7 12.7751 7 12C7 11.2246 7.04287 10.4436 7.12891 9.67676C6.21131 9.54903 5.33146 9.38225 4.51367 9.17676ZM19.4854 9.17676C18.6675 9.38221 17.7877 9.54906 16.8701 9.67676C16.9562 10.4436 17 11.2245 17 12C17 12.7752 16.9561 13.5557 16.8701 14.3223C17.7877 14.45 18.6676 14.6168 19.4854 14.8223C19.8165 13.9444 20 12.9938 20 12C20 11.0059 19.8167 10.0549 19.4854 9.17676ZM14.8818 9.88965C13.9329 9.96289 12.9643 10 12 10C11.0354 10 10.0665 9.96294 9.11719 9.88965C9.03982 10.5761 9 11.2853 9 12C9 12.7144 9.03989 13.4232 9.11719 14.1094C10.0664 14.0361 11.0354 14 12 14C12.9643 14 13.9329 14.0361 14.8818 14.1094C14.9591 13.4232 15 12.7144 15 12C15 11.2852 14.9592 10.5761 14.8818 9.88965ZM12 4C11.5975 4 10.8238 4.3797 10.085 6.04199C9.83595 6.60227 9.62893 7.23219 9.46387 7.90918C10.2937 7.96848 11.1449 8 12 8C12.8547 8 13.7057 7.96844 14.5352 7.90918C14.3701 7.23228 14.164 6.60221 13.915 6.04199C13.1762 4.3797 12.4025 4 12 4ZM8.44531 4.83301C7.26478 5.41965 6.25006 6.28861 5.48926 7.35254C6.10924 7.4911 6.7695 7.60765 7.45801 7.70215C7.65733 6.81973 7.92264 5.98364 8.25781 5.22949C8.31777 5.09461 8.38061 4.9625 8.44531 4.83301ZM15.5537 4.83301C15.6185 4.96263 15.6822 5.09448 15.7422 5.22949C16.0773 5.98358 16.3417 6.8198 16.541 7.70215C17.2295 7.60767 17.8898 7.49107 18.5098 7.35254C17.7488 6.28859 16.7344 5.41957 15.5537 4.83301Z" fill="#FF00FF"/>
</svg>
