<svg width="24" height="24" viewBox="0 0 24 24" fill="none" xmlns="http://www.w3.org/2000/svg">
<path d="M13 4.75391C16.2401 5.19691 18.8031 7.75986 19.2461 11H22V13H19.2461C18.8031 16.2401 16.2401 18.8021 13 19.2451V22H11V19.2451C7.75992 18.8021 5.1969 16.2401 4.75391 13H2V11H4.75391C5.19691 7.75986 7.75986 5.19691 11 4.75391V2H13V4.75391ZM12 6.68457C9.06417 6.68457 6.68457 9.06417 6.68457 12C6.68457 14.9358 9.06417 17.3154 12 17.3154C14.9358 17.3154 17.3154 14.9358 17.3154 12C17.3154 9.06417 14.9358 6.68457 12 6.68457ZM12 10C13.1046 10 14 10.8954 14 12C14 13.1046 13.1046 14 12 14C10.8954 14 10 13.1046 10 12C10 10.8954 10.8954 10 12 10Z" fill="#FF00FF"/>
</svg>
