<svg width="24" height="24" viewBox="0 0 24 24" fill="none" xmlns="http://www.w3.org/2000/svg">
<path d="M9.8783 1.00778C10.1838 0.970325 10.4898 1.07531 10.7074 1.29294L20.7074 11.2929C20.9932 11.5789 21.0788 12.0092 20.9242 12.3828C20.7694 12.7563 20.4046 12.9998 20.0004 13H11.0004V15H21.0004L21.1263 15.0078C21.4158 15.0446 21.678 15.2069 21.8392 15.455C22.0004 15.7033 22.0424 16.0086 21.9584 16.2881L21.9144 16.4062L20.9701 18.5302C20.1676 20.3358 18.3765 21.4998 16.4008 21.5H7.59998C5.74752 21.5 4.05795 20.477 3.19275 18.8613L3.03064 18.5302L2.0863 16.4062C1.94885 16.0969 1.97714 15.7389 2.1615 15.455C2.34598 15.1713 2.66194 15 3.00037 15H9.00037V13H4.00037C3.6403 13 3.30783 12.8063 3.13025 12.4931C2.95274 12.1796 2.95759 11.7943 3.14294 11.4853L9.14294 1.48532L9.2074 1.39059C9.36963 1.17958 9.61098 1.04069 9.8783 1.00778ZM4.85876 17.7187L4.95544 17.917C5.47459 18.8863 6.48856 19.5 7.59998 19.5H16.4008C17.586 19.4998 18.6604 18.8017 19.142 17.7187L19.4613 17H4.53943L4.85876 17.7187ZM5.76697 11H17.5863L10.1986 3.61227L5.76697 11Z" fill="#FF00FF"/>
</svg>
