<svg width="24" height="24" viewBox="0 0 24 24" fill="none" xmlns="http://www.w3.org/2000/svg">
<path d="M11.5 5.49997H11C7.13402 5.49998 4.00001 8.63399 4 12.5V12.75C4 16.4779 7.02208 19.5 10.75 19.5C14.4779 19.5 17.5 16.4779 17.5 12.75V7.41403L14.707 10.207L13.293 8.79294L17.793 4.29294L17.8662 4.22653C18.0442 4.0807 18.2679 3.99997 18.5 3.99997C18.7652 3.99997 19.0195 4.10541 19.207 4.29294L23.707 8.79294L22.293 10.207L19.5 7.41403V12.75C19.5 17.5825 15.5825 21.5 10.75 21.5C5.91751 21.5 2 17.5825 2 12.75V12.5C2.00001 7.68467 5.78168 3.75262 10.5371 3.51169L11 3.49997H11.5V5.49997Z" fill="#FF00FF"/>
</svg>
