<svg width="24" height="24" viewBox="0 0 24 24" fill="none" xmlns="http://www.w3.org/2000/svg">
<path d="M10.8662 2.56921C11.871 2.44771 12.8634 2.4889 13.8135 2.67371L13.4307 4.6366C12.6831 4.49124 11.9013 4.45847 11.1064 4.55457L10.7646 4.60339C6.67994 5.28566 3.92138 9.15049 4.60352 13.2352L4.67676 13.6141C5.52749 17.489 9.27819 20.0572 13.2354 19.3964L13.6143 19.3231C17.4891 18.4724 20.0574 14.7217 19.3965 10.7645L20.3828 10.5995L21.3691 10.4354C22.2061 15.4479 18.9531 20.1986 14.0449 21.2762L13.5645 21.369C8.552 22.206 3.80131 18.953 2.72363 14.0448L2.63086 13.5643C1.76694 8.39019 5.26141 3.4949 10.4355 2.63074L10.8662 2.56921ZM22.4141 2.99988L21.707 3.70691L20.5703 4.84265C21.2469 4.92187 21.9491 5.17798 22.625 5.71863L21.375 7.28113C20.5531 6.62372 19.6379 6.73182 18.7383 7.15515C18.2946 7.36396 17.9053 7.6302 17.623 7.85046C17.4836 7.95927 17.3739 8.05414 17.3018 8.11902C17.266 8.15113 17.2398 8.17593 17.2236 8.19128C17.2156 8.19896 17.2098 8.2042 17.207 8.20691L12 13.4139L10.5859 11.9999L15.793 6.79285V6.79187H15.7939L15.7959 6.78992C15.7969 6.78894 15.7976 6.78728 15.7988 6.78601C15.8017 6.78318 15.8052 6.77949 15.8096 6.77527C15.8144 6.77052 15.8205 6.76508 15.8271 6.75867L21 1.58582L22.4141 2.99988Z" fill="#FF00FF"/>
</svg>
