<svg width="24" height="24" viewBox="0 0 24 24" fill="none" xmlns="http://www.w3.org/2000/svg">
<path d="M3.39233 5.09085C7.0106 0.601659 13.6 -0.34614 18.3835 3.0137L18.8367 3.34866C23.2519 6.79529 24.31 13.0012 21.2664 17.6817L20.948 18.1436C20.1611 19.2284 19.2068 20.1287 18.1453 20.833L17.0398 19.167C17.9064 18.592 18.6852 17.8571 19.3289 16.9698L19.5876 16.5938C22.0631 12.7879 21.2108 7.73849 17.6042 4.92386L17.2341 4.65042C13.3092 1.89365 7.90554 2.67952 4.94897 6.34671L4.67065 6.71097C1.79318 10.6781 2.72336 16.1921 6.76538 19.0313L6.19019 19.8487L5.61597 20.667C0.668741 17.192 -0.487127 10.4161 3.05151 5.53714L3.39233 5.09085ZM13.0876 5.89261C14.727 6.20059 15.9133 7.24304 16.5007 8.40921L15.6082 8.85843L14.7146 9.30862C14.4331 8.74987 13.8842 8.20593 13.0876 7.95023L13.0876 11.0518C13.7231 11.2024 14.3999 11.4055 14.9685 11.7383C15.396 11.9886 15.8011 12.3314 16.0945 12.8116C16.3907 13.2963 16.5358 13.8601 16.5359 14.4903C16.5359 15.5748 16.0656 16.5418 15.2419 17.2188C14.6561 17.7002 13.9191 18.0137 13.0876 18.1514V19.5H11.0876V18.1621C9.14975 17.887 7.84366 16.81 7.11206 15.3985L8.88745 14.4785C9.28908 15.2535 9.96326 15.8956 11.0876 16.1328V12.6641C10.4706 12.5219 9.81496 12.3357 9.26538 12.0362C8.842 11.8053 8.4311 11.4843 8.12964 11.0225C7.82301 10.5526 7.67165 10.0018 7.67163 9.38675C7.67163 8.36408 8.10734 7.42962 8.92261 6.77151C9.50357 6.30276 10.2413 6.00183 11.0876 5.8721V4.50003H13.0876V5.89261ZM13.0876 16.1065C13.4615 16.005 13.756 15.8517 13.9724 15.6739C14.3422 15.3699 14.5359 14.9656 14.5359 14.4903C14.5358 14.1765 14.4665 13.984 14.3875 13.8545C14.3055 13.7205 14.1736 13.5912 13.9578 13.4649C13.7201 13.3258 13.4302 13.2162 13.0876 13.1182V16.1065ZM11.0876 7.90921C10.6865 8.00697 10.3876 8.15845 10.1785 8.32718C9.83878 8.60136 9.67163 8.96177 9.67163 9.38675C9.67165 9.66356 9.73581 9.82347 9.80444 9.92874C9.87813 10.0417 10.0029 10.1606 10.2224 10.2803C10.4605 10.4101 10.7489 10.5104 11.0876 10.6026L11.0876 7.90921Z" fill="#FF00FF"/>
</svg>
