<svg width="24" height="24" viewBox="0 0 24 24" fill="none" xmlns="http://www.w3.org/2000/svg">
<path d="M17.7578 2.03009C18.0564 1.95553 18.3726 2.02236 18.6152 2.21173C18.8579 2.40121 19 2.69194 19 2.99982C19 6.96468 15.9421 9.44927 13 9.91779V15.9481C14.8151 13.4675 17.6435 11.9998 21 11.9998V13.9998C16.864 13.9998 13.7122 16.7212 12.9873 21.1609H11.0127C10.2877 16.7212 7.13605 13.9998 3 13.9998V11.9998C6.35654 11.9998 9.18492 13.4674 11 15.9481V9.91779C8.05787 9.44929 5 6.96469 5 2.99982L5.00684 2.88556C5.0373 2.621 5.17237 2.37756 5.38477 2.21173C5.62739 2.02236 5.94358 1.95553 6.24219 2.03009C10.0829 2.99028 13.9171 2.99028 17.7578 2.03009ZM16.8359 4.28009C13.6126 4.9041 10.3864 4.90423 7.16309 4.28009C7.77615 6.61721 10.0188 7.99982 12 7.99982L12.2188 7.99396C14.1433 7.8969 16.2452 6.53141 16.8359 4.28009Z" fill="#FF00FF"/>
</svg>
