<svg width="24" height="24" viewBox="0 0 24 24" fill="none" xmlns="http://www.w3.org/2000/svg">
<path d="M5.11523 5.11523C7.93567 2.2948 12.5086 2.29484 15.3291 5.11523C17.9095 7.69568 18.1266 11.7412 15.9854 14.5713L21.207 19.793L19.793 21.207L14.5713 15.9854C11.7412 18.1266 7.69568 17.9095 5.11523 15.3291C2.29484 12.5086 2.2948 7.93567 5.11523 5.11523ZM13.915 6.5293C11.8756 4.48995 8.56868 4.48991 6.5293 6.5293C4.48991 8.56868 4.48995 11.8756 6.5293 13.915C8.5687 15.9544 11.8756 15.9544 13.915 13.915C15.9544 11.8756 15.9544 8.5687 13.915 6.5293Z" fill="#FF00FF"/>
</svg>
