<svg width="24" height="24" viewBox="0 0 24 24" fill="none" xmlns="http://www.w3.org/2000/svg">
<path fill-rule="evenodd" clip-rule="evenodd" d="M11.7119 2.042C11.931 1.97609 12.1674 1.98732 12.3808 2.0752L20.874 5.5752L21.0039 5.64063C21.2922 5.81201 21.4788 6.11932 21.4922 6.46094V6.46778L21.4925 6.47344C21.4928 6.47635 21.493 6.47972 21.4932 6.4834L21.4935 6.50605V6.50611C21.4937 6.516 21.4938 6.52739 21.4941 6.54005C21.4954 6.58789 21.4969 6.65658 21.498 6.74415C21.5002 6.91971 21.5012 7.17169 21.4951 7.4834C21.4829 8.10632 21.444 8.97445 21.3359 9.95606C21.1366 11.7664 20.6911 14.0799 19.666 15.9522L19.4531 16.3213C18.3428 18.1407 16.5423 19.5392 15.0947 20.4619C13.6548 21.3797 12.3669 21.9378 12.4687 21.8838C12.2364 22.007 11.9662 22.0327 11.7168 21.959L11.6113 21.9209H11.6103L11.6094 21.9199C11.6089 21.9197 11.6082 21.9196 11.6074 21.9196C11.6065 21.9195 11.6054 21.9193 11.6045 21.919C11.603 21.9183 11.6014 21.9175 11.5995 21.9167C11.5973 21.9156 11.5947 21.9144 11.5918 21.9131L11.5723 21.9044L11.5459 21.8926L11.5372 21.8888L11.5369 21.8886C11.4987 21.8719 11.4464 21.8489 11.3818 21.8193C11.2418 21.7552 11.0425 21.6607 10.7988 21.5381C10.3122 21.2932 9.64243 20.9324 8.90722 20.4639C7.5496 19.5987 5.88125 18.3144 4.76269 16.6572L4.54687 16.3213C3.36919 14.3914 2.87672 11.8872 2.66405 9.95606C2.55596 8.97445 2.51709 8.10632 2.50487 7.4834C2.49877 7.17169 2.49973 6.91971 2.50194 6.74415C2.50305 6.65658 2.50458 6.58789 2.50585 6.54005C2.50619 6.52737 2.50632 6.51595 2.50643 6.50605L2.50683 6.4834C2.50695 6.47973 2.50721 6.47635 2.50743 6.47343L2.5078 6.46778V6.46094L2.5244 6.31641C2.58593 5.9867 2.80988 5.70548 3.12597 5.5752L11.6191 2.0752L11.7119 2.042ZM4.5033 7.25947V7.25948C4.50345 7.31807 4.50361 7.37975 4.50487 7.44434C4.5162 8.02199 4.55225 8.82847 4.65233 9.73731C4.85605 11.587 5.31028 13.733 6.2539 15.2793L6.42479 15.5449C7.31502 16.8611 8.71175 17.9666 9.98241 18.7764C10.6488 19.201 11.2568 19.5303 11.6973 19.752C11.7733 19.7903 11.8451 19.8239 11.9108 19.8548C11.9416 19.8692 11.971 19.8831 11.999 19.8965C12.4428 19.6849 13.1644 19.3205 14.0195 18.7754C15.3744 17.9118 16.8718 16.7119 17.7461 15.2793L17.917 14.9824C18.7452 13.4658 19.1567 11.4714 19.3476 9.73731C19.4477 8.82847 19.4838 8.02199 19.4951 7.44434C19.4963 7.38442 19.4961 7.32701 19.496 7.27224V7.27212V7.27188C19.4959 7.23714 19.4958 7.20347 19.4961 7.1709L12 4.08106L4.50292 7.1709C4.50315 7.19958 4.50322 7.22911 4.5033 7.25947ZM13 6.50001V12H11V6.50001H13ZM12 17C12.8284 17 13.5 16.3284 13.5 15.5C13.5 14.6716 12.8284 14 12 14C11.1716 14 10.5 14.6716 10.5 15.5C10.5 16.3284 11.1716 17 12 17Z" fill="#FF00FF"/>
</svg>
