<svg width="24" height="24" viewBox="0 0 24 24" fill="none" xmlns="http://www.w3.org/2000/svg">
<path d="M11.6116 2.16375C11.8598 2.05927 12.1398 2.05927 12.388 2.16375L20.9134 5.7536C21.2711 5.90422 21.5116 6.2483 21.5159 6.63641C21.5879 13.1222 18.8744 19.8492 12.3362 22.3747C12.1208 22.4579 11.8788 22.4579 11.6634 22.3747C5.12543 19.8491 2.41176 13.1217 2.48369 6.63641C2.488 6.24834 2.72858 5.90425 3.08623 5.7536L11.6116 2.16375ZM12.0003 8.99969C10.8958 8.99969 10.0005 9.89526 10.0003 10.9997C10.0003 11.7397 10.4029 12.3842 11.0003 12.7302V14.9997H13.0003V12.7302C13.5974 12.3842 14.0003 11.7395 14.0003 10.9997C14.0001 9.89537 13.1046 8.99987 12.0003 8.99969Z" fill="#FF00FF"/>
</svg>
