<svg width="24" height="24" viewBox="0 0 24 24" fill="none" xmlns="http://www.w3.org/2000/svg">
<path d="M11.6116 2.16375C11.8598 2.05927 12.1398 2.05927 12.388 2.16375L20.9134 5.7536C21.2711 5.90422 21.5116 6.2483 21.5159 6.63641C21.5879 13.1222 18.8744 19.8492 12.3362 22.3747C12.1208 22.4579 11.8788 22.4579 11.6634 22.3747C5.12543 19.8491 2.41176 13.1217 2.48369 6.63641C2.488 6.24834 2.72858 5.90425 3.08623 5.7536L11.6116 2.16375ZM10.9749 12.9548L8.76201 10.3522L7.23857 11.6472L10.2132 15.1472L10.2884 15.2263C10.4729 15.4008 10.7182 15.4996 10.9749 15.4997C11.2682 15.4996 11.5477 15.3706 11.7376 15.1472L17.262 8.64715L15.7386 7.35223L10.9749 12.9548Z" fill="#FF00FF"/>
</svg>
