<svg width="24" height="24" viewBox="0 0 24 24" fill="none" xmlns="http://www.w3.org/2000/svg">
<path d="M11.6116 2.16375C11.8598 2.05927 12.1398 2.05927 12.388 2.16375L20.9134 5.7536C21.2711 5.90422 21.5116 6.2483 21.5159 6.63641C21.5879 13.1222 18.8744 19.8492 12.3362 22.3747C12.1208 22.4579 11.8788 22.4579 11.6634 22.3747C5.12543 19.8491 2.41176 13.1217 2.48369 6.63641C2.488 6.24834 2.72858 5.90425 3.08623 5.7536L11.6116 2.16375ZM12.0003 14.4997C11.172 14.4997 10.5005 15.1714 10.5003 15.9997C10.5003 16.8281 11.1719 17.4997 12.0003 17.4997C12.8286 17.4995 13.5003 16.828 13.5003 15.9997C13.5001 15.1715 12.8285 14.4999 12.0003 14.4997ZM11.0003 6.99969V12.4997H13.0003V6.99969H11.0003Z" fill="#FF00FF"/>
</svg>
