<svg width="24" height="24" viewBox="0 0 24 24" fill="none" xmlns="http://www.w3.org/2000/svg">
<path d="M11.7117 2.04224C11.9308 1.97634 12.1672 1.98759 12.3806 2.07544L20.8738 5.57544L21.0037 5.64087C21.292 5.81224 21.4786 6.11956 21.4919 6.46118V6.46802C21.4921 6.47176 21.4927 6.47737 21.4929 6.48364C21.4933 6.49687 21.4933 6.51646 21.4939 6.54028C21.4952 6.58812 21.4967 6.65696 21.4978 6.74438C21.5 6.91994 21.501 7.17206 21.4949 7.48364C21.4827 8.10655 21.4438 8.9748 21.3357 9.9563C21.1363 11.7666 20.6908 14.0802 19.6658 15.9524L19.4529 16.3215C18.3425 18.1408 16.542 19.5395 15.0945 20.4622C13.6559 21.3791 12.3691 21.9369 12.4685 21.884C12.2362 22.0071 11.9658 22.0329 11.7166 21.9592L11.6111 21.9211H11.6101L11.6091 21.9202C11.608 21.9198 11.6059 21.9199 11.6042 21.9192C11.601 21.9178 11.5968 21.9156 11.5916 21.9133C11.5805 21.9086 11.5651 21.9013 11.5457 21.8928C11.5068 21.8758 11.4514 21.8515 11.3816 21.8196C11.2416 21.7554 11.0422 21.6609 10.7986 21.5383C10.3119 21.2934 9.64216 20.9326 8.90698 20.4641C7.54939 19.5989 5.881 18.3146 4.76245 16.6575L4.54663 16.3215C3.369 14.3917 2.8765 11.8874 2.66382 9.9563C2.55574 8.9748 2.51686 8.10655 2.50464 7.48364C2.49853 7.17207 2.4995 6.91994 2.50171 6.74438C2.50281 6.65696 2.50435 6.58812 2.50562 6.54028C2.50625 6.51647 2.50616 6.49687 2.50659 6.48364C2.5068 6.47738 2.50742 6.47176 2.50757 6.46802V6.46118L2.52417 6.31665C2.58568 5.98702 2.80978 5.70576 3.12573 5.57544L11.6189 2.07544L11.7117 2.04224ZM4.50269 7.17114C4.50335 7.25509 4.50272 7.3466 4.50464 7.44458C4.51597 8.02222 4.55203 8.82882 4.6521 9.73755C4.85583 11.5872 5.31008 13.7333 6.25366 15.2795L6.42456 15.5452C7.31478 16.8613 8.71155 17.9668 9.98218 18.7766C10.6485 19.2012 11.2565 19.5305 11.697 19.7522C11.8087 19.8084 11.9111 19.8547 11.9988 19.8967C12.4425 19.6852 13.1643 19.3206 14.0193 18.7756C15.374 17.9121 16.8716 16.712 17.7458 15.2795L17.9167 14.9827C18.7449 13.4661 19.1564 11.4716 19.3474 9.73755C19.4475 8.82883 19.4835 8.02222 19.4949 7.44458C19.4968 7.3466 19.4952 7.25508 19.4958 7.17114L11.9998 4.0813L4.50269 7.17114ZM17.2283 9.18481L12.0623 14.6848C11.8736 14.8855 11.6101 14.9998 11.3347 15.0002C11.0592 15.0006 10.7954 14.8871 10.6062 14.6868L7.77319 11.6868L9.22632 10.3137L11.3308 12.5413L15.7712 7.81567L17.2283 9.18481Z" fill="#FF00FF"/>
</svg>
