<svg width="24" height="24" viewBox="0 0 24 24" fill="none" xmlns="http://www.w3.org/2000/svg">
<path d="M12.0002 2.5C12.3789 2.50009 12.7254 2.71402 12.8948 3.05273L16.8987 11.0605L21.4631 8.15625C21.8043 7.93923 22.2433 7.94859 22.5745 8.18066C22.9055 8.41279 23.0644 8.82211 22.9768 9.2168L20.7542 19.2168C20.6525 19.6743 20.2462 19.9999 19.7776 20H4.2229C3.75422 20 3.34803 19.6743 3.24634 19.2168L1.02368 9.2168C0.936044 8.82203 1.09489 8.41278 1.42603 8.18066C1.7572 7.94866 2.1962 7.93915 2.53736 8.15625L7.10083 11.0605L11.1057 3.05273L11.177 2.93164C11.3619 2.66374 11.6688 2.5 12.0002 2.5ZM8.39478 12.9473C8.26819 13.2004 8.0396 13.3883 7.76685 13.4639C7.49416 13.5393 7.20186 13.4956 6.96314 13.3438L3.50025 11.1396L5.02466 18H18.9758L20.4993 11.1396L17.0374 13.3438C16.7987 13.4956 16.5063 13.5392 16.2336 13.4639C15.9608 13.3883 15.7323 13.2004 15.6057 12.9473L12.0002 5.73633L8.39478 12.9473Z" fill="#FF00FF"/>
</svg>
