<svg width="24" height="24" viewBox="0 0 24 24" fill="none" xmlns="http://www.w3.org/2000/svg">
<path d="M19.8457 3.01169C20.1585 2.96281 20.4794 3.0653 20.707 3.29294C20.9347 3.52058 21.0372 3.84151 20.9883 4.15427L20.958 4.28708L15.5576 22.2871C15.4354 22.6943 15.0693 22.9801 14.6445 22.999C14.2729 23.0155 13.9275 22.825 13.7412 22.5127L13.6719 22.3711L10.2305 13.7685L1.62891 10.3281C1.23413 10.1702 0.982051 9.78021 1.00098 9.35544C1.01992 8.93068 1.30564 8.56453 1.71289 8.44235L19.7129 3.04196L19.8457 3.01169ZM5.0293 9.53415L10.7588 11.8261L12.793 9.79294L14.207 11.207L12.1729 13.2402L14.4648 18.9697L18.5078 5.49118L5.0293 9.53415Z" fill="#FF00FF"/>
</svg>
