<svg width="24" height="24" viewBox="0 0 24 24" fill="none" xmlns="http://www.w3.org/2000/svg">
<path d="M20.7476 3.66437L17.2788 7.56573C17.5837 7.74325 17.8759 7.92689 18.1519 8.11359C19.7802 9.21521 20.9705 10.4549 21.4849 11.0306C21.9802 11.5854 21.9804 12.4153 21.4849 12.97C20.9705 13.5457 19.7804 14.7854 18.1519 15.887C16.5323 16.9826 14.3923 18.0002 12.0005 18.0003C10.7884 18.0003 9.64099 17.7376 8.59326 17.3372L4.74756 21.6644L3.25342 20.3362L6.72119 16.4339C6.41657 16.2565 6.12492 16.0736 5.84912 15.887C4.22087 14.7856 3.03072 13.5459 2.51611 12.97C2.0204 12.4152 2.0204 11.5854 2.51611 11.0306L2.74072 10.7855C3.33543 10.1476 4.42413 9.07754 5.84912 8.11359C7.46878 7.01799 9.60862 6.00031 12.0005 6.00031C13.2127 6.00037 14.3599 6.26195 15.4077 6.66241L19.2534 2.33624L20.7476 3.66437ZM10.0376 15.7122C10.6735 15.8935 11.3312 16.0003 12.0005 16.0003C13.8336 16.0002 15.5796 15.2114 17.0308 14.2298C18.1885 13.4466 19.102 12.5754 19.6528 12.0003C19.102 11.4253 18.1883 10.5539 17.0308 9.77081C16.6769 9.53144 16.3053 9.30282 15.9194 9.09503L10.0376 15.7122ZM12.0005 8.00031C10.1672 8.00031 8.42147 8.78913 6.97021 9.77081C5.81215 10.5542 4.89801 11.4252 4.34717 12.0003C4.89804 12.5754 5.81236 13.4466 6.97021 14.2298C7.32399 14.4691 7.69579 14.6959 8.08154 14.9036L13.9634 8.28741C13.3274 8.10605 12.6699 8.00035 12.0005 8.00031Z" fill="#FF00FF"/>
</svg>
