<svg width="24" height="24" viewBox="0 0 24 24" fill="none" xmlns="http://www.w3.org/2000/svg">
<path d="M12.0004 6C14.3922 6.00009 16.5321 7.01769 18.1517 8.11328C19.7802 9.21495 20.9704 10.4546 21.4847 11.0303L21.5717 11.1377C21.9781 11.688 21.9493 12.4496 21.4847 12.9697C20.9704 13.5454 19.7802 14.7851 18.1517 15.8867C16.5321 16.9823 14.3922 17.9999 12.0004 18C9.60852 18 7.46865 16.9823 5.849 15.8867C4.42408 14.9228 3.33533 13.8528 2.7406 13.2148L2.51599 12.9697C2.02028 12.4149 2.02028 11.5851 2.51599 11.0303L2.7406 10.7852C3.33533 10.1472 4.42408 9.07718 5.849 8.11328C7.46865 7.0177 9.60852 6 12.0004 6ZM12.0004 8C10.1671 8 8.42134 8.78885 6.97009 9.77051C5.81209 10.5538 4.89789 11.4249 4.34705 12C4.89789 12.5751 5.81209 13.4462 6.97009 14.2295C8.42134 15.2112 10.1671 16 12.0004 16C13.8336 15.9999 15.5794 15.2112 17.0306 14.2295C18.1883 13.4463 19.1019 12.5751 19.6527 12C19.1019 11.4249 18.1883 10.5537 17.0306 9.77051C15.5794 8.78883 13.8336 8.00009 12.0004 8ZM12.0004 10C13.1048 10.0002 14.0004 10.8955 14.0004 12C14.0004 13.1045 13.1048 13.9998 12.0004 14C10.8958 14 10.0004 13.1046 10.0004 12C10.0004 10.8954 10.8958 10 12.0004 10Z" fill="#FF00FF"/>
</svg>
