<svg width="24" height="24" viewBox="0 0 24 24" fill="none" xmlns="http://www.w3.org/2000/svg">
<path d="M13.3672 1.5C14.7302 1.50002 15.8134 2.61563 15.8135 3.96484C15.8135 4.1385 15.926 4.36312 16.1885 4.51367L16.3252 4.59375L16.4219 4.64453C16.6433 4.74381 16.8397 4.72052 16.958 4.65137L17.1826 4.53516C18.3202 4.01763 19.6774 4.45045 20.3076 5.55566L21.6748 7.95312L21.7871 8.17676C22.2567 9.23478 21.9291 10.492 20.9912 11.1768L20.7803 11.3145C20.6413 11.3959 20.5 11.6039 20.5029 11.9199L20.5039 12L20.5029 12.0342V12.0801C20.5 12.3961 20.6413 12.6041 20.7803 12.6855L20.9912 12.8232C21.9291 13.508 22.2567 14.7652 21.7871 15.8232L21.6748 16.0469L20.3076 18.4443C19.6774 19.5496 18.3202 19.9824 17.1826 19.4648L16.958 19.3486C16.8396 19.2794 16.6426 19.2558 16.4209 19.3555L16.3252 19.4062L16.1885 19.4863C15.926 19.6369 15.8135 19.8615 15.8135 20.0352C15.8134 21.3844 14.7302 22.5 13.3672 22.5H10.6328C9.26973 22.5 8.18658 21.3844 8.1865 20.0352C8.1865 19.8833 8.10041 19.6921 7.9033 19.5459L7.8115 19.4863L7.67478 19.4062C7.44727 19.2701 7.23729 19.2678 7.09763 19.3223L7.04197 19.3486C5.93774 19.9944 4.55005 19.6709 3.82713 18.6562L3.69236 18.4443L2.32517 16.0469C1.65708 14.8747 2.0492 13.37 3.2197 12.6855L3.27146 12.6494C3.37449 12.5649 3.46803 12.4101 3.49119 12.1934L3.49705 12.0801C3.49681 12.0534 3.49607 12.0267 3.49607 12C3.49607 11.9733 3.49681 11.9466 3.49705 11.9199L3.49119 11.8066C3.46803 11.5899 3.37449 11.4351 3.27146 11.3506L3.2197 11.3145C2.04919 10.63 1.65707 9.12533 2.32517 7.95312L3.69236 5.55566L3.82713 5.34375C4.55005 4.32909 5.93775 4.00564 7.04197 4.65137L7.09763 4.67773C7.23729 4.73221 7.44727 4.72991 7.67478 4.59375L7.8115 4.51367L7.9033 4.4541C8.10041 4.30787 8.1865 4.11673 8.1865 3.96484C8.18658 2.61562 9.26973 1.5 10.6328 1.5H13.3672ZM10.6328 3.5C10.3983 3.5 10.1866 3.69602 10.1865 3.96484C10.1865 4.92108 9.64371 5.70708 8.94724 6.16211L8.80662 6.24902L8.70213 6.31055C7.99375 6.73447 7.04624 6.87847 6.20017 6.46777L6.0322 6.37793C5.85182 6.27248 5.62286 6.3097 5.48338 6.46973L5.42967 6.5459L4.06248 8.94336C3.93126 9.17364 4.0145 9.46248 4.22849 9.58789L4.38865 9.68945C5.10702 10.187 5.45575 10.9979 5.49314 11.7725L5.49705 11.9375C5.49686 11.9581 5.49607 11.9793 5.49607 12C5.49607 12.0207 5.49686 12.0418 5.49705 12.0625L5.49314 12.2275C5.45576 13.0021 5.10702 13.813 4.38865 14.3105L4.22849 14.4121C4.0145 14.5375 3.93127 14.8264 4.06248 15.0566L5.42967 17.4541L5.48338 17.5303C5.62286 17.6903 5.85182 17.7275 6.0322 17.6221L6.20017 17.5322C7.04624 17.1215 7.99374 17.2655 8.70213 17.6895L8.80662 17.751L8.94724 17.8379C9.64372 18.2929 10.1865 19.0789 10.1865 20.0352C10.1866 20.304 10.3983 20.5 10.6328 20.5H13.3672C13.6016 20.5 13.8134 20.304 13.8135 20.0352C13.8135 19.0153 14.4304 18.1885 15.1933 17.751L15.2978 17.6895L15.4424 17.6084C16.1812 17.2229 17.1366 17.136 17.9678 17.6221L18.0478 17.6592C18.2392 17.7239 18.4593 17.6486 18.5703 17.4541L19.9375 15.0566L19.9765 14.9678C20.0359 14.7864 19.9801 14.5878 19.8447 14.4658L19.7715 14.4121C18.89 13.8966 18.4951 12.9398 18.5029 12.0625V12.0615L18.5039 12.0264V12C18.5039 11.9794 18.5031 11.9589 18.5029 11.9385V11.9375C18.4951 11.0602 18.89 10.1034 19.7715 9.58789L19.8447 9.53418C19.9801 9.41218 20.0359 9.21355 19.9765 9.03223L19.9375 8.94336L18.5703 6.5459C18.4593 6.35142 18.2392 6.27605 18.0478 6.34082L17.9678 6.37793C17.1366 6.86398 16.1812 6.77708 15.4424 6.3916L15.2978 6.31055L15.1933 6.24902C14.4304 5.81149 13.8135 4.98472 13.8135 3.96484C13.8134 3.69603 13.6016 3.50002 13.3672 3.5H10.6328ZM12 7.2002C14.6363 7.20021 16.7519 9.36113 16.7519 12C16.7519 14.6389 14.6363 16.7998 12 16.7998C9.36365 16.7998 7.24802 14.6389 7.24802 12C7.24802 9.36112 9.36365 7.2002 12 7.2002ZM12 9.2002C10.4922 9.2002 9.24802 10.4415 9.24802 12C9.24802 13.5585 10.4922 14.7998 12 14.7998C13.5077 14.7998 14.7519 13.5585 14.7519 12C14.7519 10.4415 13.5077 9.20021 12 9.2002Z" fill="#FF00FF"/>
</svg>
