<svg width="24" height="24" viewBox="0 0 24 24" fill="none" xmlns="http://www.w3.org/2000/svg">
<path d="M18.25 1.5C19.9069 1.5 21.25 2.84315 21.25 4.5C21.25 6.15685 19.9069 7.5 18.25 7.5C17.4731 7.5 16.7665 7.20392 16.2344 6.7207L8.21484 11.0391C8.23801 11.1893 8.25 11.3433 8.25 11.5C8.25 11.7158 8.22618 11.9264 8.18262 12.1299L16.3662 17.166C16.8807 16.7503 17.5358 16.5 18.25 16.5C19.9069 16.5 21.25 17.8431 21.25 19.5C21.25 21.1569 19.9069 22.5 18.25 22.5C16.5931 22.5 15.25 21.1569 15.25 19.5C15.25 19.284 15.2727 19.0728 15.3164 18.8691L7.13281 13.833C6.61833 14.2487 5.96414 14.5 5.25 14.5C3.59315 14.5 2.25 13.1569 2.25 11.5C2.25 9.84315 3.59315 8.5 5.25 8.5C6.02546 8.5 6.73022 8.7964 7.2627 9.2793L15.2861 4.95996C15.2629 4.80976 15.25 4.65622 15.25 4.5C15.25 2.84315 16.5931 1.5 18.25 1.5ZM18.25 18.5C17.8911 18.5 17.5751 18.6884 17.3975 18.9766C17.304 19.1281 17.25 19.3062 17.25 19.5C17.25 20.0523 17.6977 20.5 18.25 20.5C18.8023 20.5 19.25 20.0523 19.25 19.5C19.25 18.9823 18.8567 18.5562 18.3525 18.5049L18.25 18.5ZM5.25 10.5C4.69772 10.5 4.25 10.9477 4.25 11.5C4.25 12.0523 4.69772 12.5 5.25 12.5C5.60894 12.5 5.92485 12.3116 6.10254 12.0234C6.19599 11.8719 6.25 11.6938 6.25 11.5C6.25 10.9477 5.80228 10.5 5.25 10.5ZM18.25 3.5C17.6977 3.5 17.25 3.94772 17.25 4.5C17.25 4.67333 17.2936 4.8337 17.3691 4.97363C17.5395 5.28913 17.8708 5.5 18.25 5.5C18.8023 5.5 19.25 5.05228 19.25 4.5C19.25 3.94772 18.8023 3.5 18.25 3.5Z" fill="#FF00FF"/>
</svg>
