<svg width="24" height="24" viewBox="0 0 24 24" fill="none" xmlns="http://www.w3.org/2000/svg">
<path d="M16.7703 10.0068C18.1171 10.0707 19.403 10.6097 20.3728 11.5361C21.4088 12.5259 21.9998 13.8785 21.9998 15.2988L21.9958 15.4922C21.9152 17.4877 20.606 19.3285 19.4949 20.5703C18.8974 21.238 18.3029 21.7917 17.8591 22.1777C17.6366 22.3713 17.4497 22.524 17.3171 22.6299C17.2509 22.6828 17.1982 22.7252 17.1609 22.7539C17.1424 22.7681 17.1275 22.7791 17.1169 22.7871C17.1118 22.791 17.1074 22.7945 17.1042 22.7969C17.1028 22.798 17.1013 22.7991 17.1003 22.7998L17.0984 22.8008L16.4998 22L17.0974 22.8018C16.7428 23.066 16.2566 23.066 15.9021 22.8018L16.4998 22L15.9011 22.8008L15.8992 22.7998C15.8982 22.7991 15.8967 22.798 15.8953 22.7969C15.8921 22.7945 15.8877 22.791 15.8826 22.7871C15.872 22.7791 15.857 22.7681 15.8386 22.7539C15.8013 22.7251 15.7486 22.6828 15.6824 22.6299C15.5498 22.524 15.3629 22.3713 15.1404 22.1777C14.6966 21.7916 14.102 21.238 13.5046 20.5703C12.3935 19.3285 11.0843 17.4876 11.0037 15.4922L10.9998 15.2988C10.9998 13.8785 11.5908 12.5259 12.6267 11.5361C13.6612 10.5478 15.0555 10.0001 16.4998 10L16.7703 10.0068ZM13.6541 2.00391C15.2392 2.08421 16.4998 3.39489 16.4998 5V6H21.9998C22.2936 6 22.5725 6.12944 22.7625 6.35352C22.9524 6.57773 23.0343 6.87421 22.9861 7.16406L22.4861 10.1641L20.5134 9.83594L20.8191 8H3.21069L5.32593 19H9.99976V21H5.32593C4.3672 20.9999 3.54325 20.3194 3.36206 19.3779L1.01733 7.18848C0.961189 6.89575 1.03946 6.59312 1.22925 6.36328C1.41916 6.13346 1.70162 6.00008 1.99976 6H7.49976V5C7.49976 3.34323 8.84302 2.00014 10.4998 2H13.4998L13.6541 2.00391ZM16.4998 12C15.5572 12.0001 14.6617 12.3584 14.0085 12.9824C13.357 13.6049 12.9998 14.4392 12.9998 15.2988L13.0105 15.5391C13.1124 16.7505 13.9607 18.0805 14.9949 19.2363C15.5223 19.8258 16.053 20.3211 16.4529 20.6689C16.4684 20.6825 16.4846 20.695 16.4998 20.708C16.5149 20.695 16.5311 20.6825 16.5466 20.6689C16.9465 20.3211 17.4772 19.8258 18.0046 19.2363C19.1076 18.0035 19.9998 16.5727 19.9998 15.2988L19.9958 15.1377C19.9542 14.3355 19.6018 13.566 18.991 12.9824C18.3785 12.3974 17.5531 12.0455 16.6755 12.0039L16.4998 12ZM10.4998 4C9.94759 4.00014 9.49976 4.4478 9.49976 5V6H14.4998V5C14.4998 4.48232 14.1064 4.05621 13.6023 4.00488L13.4998 4H10.4998Z" fill="#FF00FF"/>
</svg>
