<svg width="24" height="24" viewBox="0 0 24 24" fill="none" xmlns="http://www.w3.org/2000/svg">
<path d="M13.6541 2.00391C15.2392 2.08421 16.4998 3.39489 16.4998 5V6H21.9998C22.2979 6 22.5803 6.13347 22.7703 6.36328C22.9601 6.59315 23.0384 6.89568 22.9822 7.18848L20.6375 19.3779C20.4562 20.3194 19.6324 21 18.6736 21H5.32593C4.3672 20.9999 3.54325 20.3194 3.36206 19.3779L1.01733 7.18848C0.961189 6.89575 1.03946 6.59312 1.22925 6.36328C1.41916 6.13346 1.70162 6.00008 1.99976 6H7.49976V5C7.49976 3.34323 8.84302 2.00014 10.4998 2H13.4998L13.6541 2.00391ZM5.32593 19H18.6736L20.7888 8H3.21069L5.32593 19ZM10.4998 4C9.94759 4.00014 9.49976 4.4478 9.49976 5V6H14.4998V5C14.4998 4.48232 14.1064 4.05621 13.6023 4.00488L13.4998 4H10.4998Z" fill="#FF00FF"/>
</svg>
