<svg width="24" height="24" viewBox="0 0 24 24" fill="none" xmlns="http://www.w3.org/2000/svg">
<path d="M7.5 19C8.32843 19 9 19.6716 9 20.5C9 21.3284 8.32843 22 7.5 22C6.67157 22 6 21.3284 6 20.5C6 19.6716 6.67157 19 7.5 19ZM18.5 19C19.3284 19 20 19.6716 20 20.5C20 21.3284 19.3284 22 18.5 22C17.6716 22 17 21.3284 17 20.5C17 19.6716 17.6716 19 18.5 19ZM3 3C3.43033 3 3.81204 3.27541 3.94824 3.68359L4.7207 6H22C22.3161 6 22.614 6.14971 22.8027 6.40332C22.9912 6.6568 23.0487 6.98456 22.958 7.28711L19.958 17.2871C19.8311 17.7101 19.4416 18 19 18H7C6.55839 18 6.16889 17.7101 6.04199 17.2871L3.04199 7.28711L2.2793 5H0.5V3H3ZM7.74414 16H18.2559L20.6562 8H5.34375L7.74414 16Z" fill="#FF00FF"/>
</svg>
