<svg width="24" height="24" viewBox="0 0 24 24" fill="none" xmlns="http://www.w3.org/2000/svg">
<path d="M15.207 11.2929C15.3945 11.4804 15.5 11.7348 15.5 11.9999C15.5 12.232 15.4192 12.4558 15.2734 12.6337L15.207 12.707L10.707 17.207L9.29297 15.7929L12.0859 12.9999H2V10.9999H12.0859L9.29297 8.20697L10.707 6.79291L15.207 11.2929ZM21.207 11.2929C21.3945 11.4804 21.5 11.7348 21.5 11.9999C21.5 12.232 21.4193 12.4558 21.2734 12.6337L21.207 12.707L16.707 17.207L15.293 15.7929L19.0859 11.9999L15.293 8.20697L16.707 6.79291L21.207 11.2929Z" fill="#FF00FF"/>
</svg>
