<svg width="24" height="24" viewBox="0 0 24 24" fill="none" xmlns="http://www.w3.org/2000/svg">
<path d="M12 2C17.5228 2 22 6.47715 22 12C22 17.5228 17.5228 22 12 22C6.47715 22 2 17.5228 2 12C2 6.47715 6.47715 2 12 2ZM12 4C7.58172 4 4 7.58172 4 12C4 16.4183 7.58172 20 12 20C16.4183 20 20 16.4183 20 12C20 7.58172 16.4183 4 12 4ZM12 5.625C12.3473 5.625 12.6622 5.83037 12.8018 6.14844L14.084 9.07324L17.1084 9.45117C17.4421 9.49282 17.722 9.7223 17.8291 10.041C17.9361 10.36 17.8515 10.7127 17.6104 10.9473L15.3467 13.1475L15.9502 16.3379C16.0137 16.675 15.8744 17.0184 15.5938 17.2158C15.3481 17.3885 15.0336 17.4215 14.7607 17.3105L14.6465 17.2539L12 15.6963L9.35352 17.2539C9.05765 17.428 8.68709 17.4133 8.40625 17.2158C8.12564 17.0184 7.98626 16.675 8.0498 16.3379L8.65234 13.1475L6.38965 10.9473C6.14846 10.7127 6.06389 10.36 6.1709 10.041C6.27801 9.7223 6.55794 9.49282 6.8916 9.45117L9.91504 9.07324C10.0955 8.66179 10.2765 8.25032 10.457 7.83887C10.7042 7.27543 10.9511 6.71187 11.1982 6.14844L11.2588 6.03516C11.4172 5.78251 11.6959 5.625 12 5.625ZM11.3184 10.2324C11.21 10.4795 10.9944 10.6606 10.7373 10.7275L10.625 10.75L8.91602 10.9619L10.21 12.2207C10.4204 12.4254 10.5145 12.7223 10.46 13.0107L10.127 14.7676L11.5566 13.9268L11.6621 13.874C11.9141 13.7685 12.2039 13.786 12.4434 13.9268L13.8721 14.7676L13.54 13.0107C13.4855 12.7223 13.5796 12.4254 13.79 12.2207L15.083 10.9619L13.375 10.75C13.0691 10.7119 12.8055 10.5147 12.6816 10.2324L11.999 8.67773C11.7718 9.1958 11.5456 9.71436 11.3184 10.2324Z" fill="#FF00FF"/>
</svg>
