<svg width="24" height="24" viewBox="0 0 24 24" fill="none" xmlns="http://www.w3.org/2000/svg">
<path d="M11.751 2.01236C12.2372 2.04449 12.6771 2.2628 13 2.5856L21.4141 10.9997C21.7829 11.3685 22.0149 11.8907 21.9893 12.4596C21.7485 17.7694 17.3687 21.9997 12 21.9997C6.47715 21.9997 2 17.5225 2 11.9997C2.00018 6.63113 6.2304 2.2512 11.54 2.01041L11.751 2.01236ZM11.5967 4.01138C7.36636 4.22108 4.00018 7.71683 4 11.9997C4 16.4179 7.58172 19.9997 12 19.9997C16.283 19.9997 19.7786 16.6334 19.9883 12.403L11.5967 4.01138ZM15.8945 14.4479C15.1585 15.9173 13.7276 16.9997 12 16.9997C10.2724 16.9997 8.84149 15.9173 8.10547 14.4479L9.89453 13.5514C10.3562 14.4731 11.1638 14.9997 12 14.9997C12.8362 14.9997 13.6438 14.4731 14.1055 13.5514L15.8945 14.4479Z" fill="#FF00FF"/>
</svg>
