<svg width="24" height="24" viewBox="0 0 24 24" fill="none" xmlns="http://www.w3.org/2000/svg">
<path d="M11.6123 3.07812C11.9014 2.95651 12.2343 2.97651 12.5088 3.13867L23.5088 9.63867L23.6172 9.71289C23.857 9.90091 24 10.1905 24 10.5C24 10.8095 23.857 11.0991 23.6172 11.2871L23.5088 11.3613L12.5088 17.8613C12.195 18.0467 11.805 18.0467 11.4912 17.8613L8 15.7979V20.5H6V14.6162L0.491211 11.3613C0.186739 11.1814 1.23099e-08 10.8537 0 10.5C2.65803e-07 10.1463 0.186739 9.81859 0.491211 9.63867L11.4912 3.13867L11.6123 3.07812ZM2.96582 10.5L6.93164 12.8428L12.4453 9.16797L13.5547 10.832L8.84277 13.9727L12 15.8379L21.0332 10.5L12 5.16113L2.96582 10.5Z" fill="#FF00FF"/>
</svg>
