<svg width="24" height="24" viewBox="0 0 24 24" fill="none" xmlns="http://www.w3.org/2000/svg">
<path d="M12.0004 18C13.1048 18.0002 14.0004 18.8955 14.0004 20C14.0004 21.1045 13.1048 21.9998 12.0004 22C10.8958 22 10.0004 21.1046 10.0004 20C10.0004 18.8954 10.8958 18 12.0004 18ZM12.0004 1.5C15.7247 1.50019 18.5004 4.33606 18.5004 7.9209C18.5003 9.73748 17.7564 11.2517 16.5297 12.3125C15.6773 13.0495 14.6288 13.536 13.5004 13.7939V16H10.5004V11.0908L11.9066 11.0029C13.0478 10.9317 13.9639 10.5642 14.5668 10.043C15.1412 9.54622 15.5003 8.85751 15.5004 7.9209C15.5004 5.99847 14.0734 4.50018 12.0004 4.5C9.90436 4.5 8.38774 6.03671 7.974 8.20215L6.50037 7.9209L5.02673 7.63867C5.63817 4.43911 8.10995 1.5 12.0004 1.5Z" fill="#FF00FF"/>
</svg>
