<svg width="24" height="24" viewBox="0 0 24 24" fill="none" xmlns="http://www.w3.org/2000/svg">
<path d="M18.25 9V18.0859L21.043 15.293L22.457 16.707L17.957 21.207C17.7695 21.3946 17.5152 21.5 17.25 21.5C17.0179 21.5 16.7942 21.4193 16.6162 21.2734L16.543 21.207L12.043 16.707L13.457 15.293L16.25 18.0859V9H18.25ZM6.75 2.5C7.01521 2.5 7.2695 2.60544 7.45703 2.79297L11.957 7.29297L10.543 8.70703L7.75 5.91406V15H5.75V5.91406L2.95703 8.70703L1.54297 7.29297L6.04297 2.79297L6.11621 2.72656C6.29416 2.58072 6.51791 2.50001 6.75 2.5Z" fill="#FF00FF"/>
</svg>
