<svg width="24" height="24" viewBox="0 0 24 24" fill="none" xmlns="http://www.w3.org/2000/svg">
<path d="M14.1073 0.792908C20.2966 6.98237 20.2966 17.0175 14.1073 23.207L12.6932 21.7929C18.1014 16.3845 18.1014 7.61539 12.6932 2.20697L14.1073 0.792908ZM11.3065 3.59271C15.9496 8.23583 15.9496 15.764 11.3065 20.4072L9.89246 18.9931C13.7545 15.131 13.7545 8.86884 9.89246 5.00677L11.3065 3.59271ZM8.50671 6.39252C11.6034 9.48923 11.6034 14.5106 8.50671 17.6074L7.09265 16.1933C9.40832 13.8776 9.40832 10.1222 7.09265 7.80658L8.50671 6.39252ZM5.70691 9.1933C7.25697 10.7436 7.25697 13.2563 5.70691 14.8066L4.29285 13.3925C5.06186 12.6233 5.06186 11.3766 4.29285 10.6074L5.70691 9.1933Z" fill="#FF00FF"/>
</svg>
