<svg width="24" height="24" viewBox="0 0 24 24" fill="none" xmlns="http://www.w3.org/2000/svg">
<path d="M11.9999 4.5C15.8744 4.5 18.1634 6.32649 19.4471 8.18066C20.0768 9.0902 20.4578 9.99409 20.6825 10.668C20.7216 10.7852 20.7547 10.8968 20.785 11H22.4999V13H20.9999V19H22.4999V21H1.49988V19H2.99988V13H1.49988V11H3.21472C3.24509 10.8968 3.27819 10.7852 3.31726 10.668C3.5419 9.99411 3.92295 9.0902 4.55261 8.18066C5.83629 6.32649 8.12543 4.50005 11.9999 4.5ZM4.99988 19H7.99988V13H4.99988V19ZM9.99988 19H13.9999V13H9.99988V19ZM15.9999 19H18.9999V13H15.9999V19ZM11.9999 6.5C8.87457 6.50005 7.16343 7.92358 6.19714 9.31934C5.78873 9.90929 5.51148 10.5043 5.3241 11H18.6757C18.4883 10.5043 18.211 9.90929 17.8026 9.31934C16.8363 7.92358 15.1252 6.5 11.9999 6.5ZM13.9999 3H10.9999V1H14.9999L13.9999 3Z" fill="#FF00FF"/>
</svg>
