<svg width="24" height="24" viewBox="0 0 24 24" fill="none" xmlns="http://www.w3.org/2000/svg">
<path d="M8 4C9.19628 4 10.4206 4.20957 11.376 4.83496C11.6061 4.98559 11.8144 5.15744 12 5.34863C12.1856 5.15744 12.3939 4.98559 12.624 4.83496C13.5794 4.20957 14.8037 4 16 4H22L22.1025 4.00488C22.6067 4.05621 23 4.48232 23 5V17.0908C23 17.6431 22.5523 18.0908 22 18.0908H16C14.9694 18.0908 14.191 18.2595 13.7002 18.5654C13.2863 18.8234 13 19.2203 13 20H11C11 19.2203 10.7137 18.8234 10.2998 18.5654C9.80899 18.2595 9.03058 18.0908 8 18.0908H2C1.44772 18.0908 1 17.6431 1 17.0908V5L1.00488 4.89746C1.05621 4.39333 1.48232 4 2 4H8ZM3 16.0908H8C9.03648 16.0908 10.1062 16.2315 11 16.6709V8C11 7.21537 10.7077 6.78759 10.2803 6.50781C9.78794 6.18574 9.01248 6 8 6H3V16.0908ZM16 6C14.9875 6 14.2121 6.18574 13.7197 6.50781C13.2923 6.78759 13 7.21537 13 8V16.6709C13.8938 16.2315 14.9635 16.0908 16 16.0908H21V6H16Z" fill="#FF00FF"/>
</svg>
