<svg width="24" height="24" viewBox="0 0 24 24" fill="none" xmlns="http://www.w3.org/2000/svg">
<path d="M12 2C17.5228 2 22 6.47715 22 12C22 12.0332 21.9984 12.0665 21.9951 12.0996C21.8523 13.5278 21.3582 14.5676 20.5059 15.2246C19.687 15.8556 18.7033 15.9996 17.8809 16.0273C17.4615 16.0415 17.0423 16.0262 16.668 16.0107C16.2798 15.9947 15.9479 15.979 15.6426 15.9844C15.1386 15.9933 14.9121 16.0621 14.8105 16.1182L14.7451 16.167C14.5463 16.3892 14.4375 16.702 14.4131 17.1865C14.3868 17.7078 14.4584 18.2134 14.5049 18.8701C14.5433 19.4136 14.5815 20.2119 14.2275 20.8721C13.7897 21.6886 12.9588 22 12 22C6.47715 22 2 17.5228 2 12C2 6.47715 6.47715 2 12 2ZM12 4C7.58172 4 4 7.58172 4 12C4 16.4183 7.58172 20 12 20C12.2811 20 12.4084 19.9563 12.4502 19.9365C12.4722 19.926 12.4643 19.9278 12.4648 19.9268C12.5095 19.8434 12.5523 19.612 12.5098 19.0107C12.4752 18.5227 12.3806 17.7684 12.415 17.0859C12.4513 16.3666 12.6298 15.5314 13.2549 14.833L13.3828 14.7012C14.042 14.0785 14.9528 13.996 15.6064 13.9844C15.9851 13.9777 16.3878 13.9967 16.751 14.0117C17.128 14.0273 17.4783 14.0396 17.8135 14.0283C18.4999 14.0051 18.9675 13.8854 19.2852 13.6406C19.5653 13.4247 19.8861 12.9852 19.998 11.9473C19.9697 7.55326 16.4007 4 12 4ZM7.75 12.75C8.44036 12.75 9 13.3096 9 14C9 14.6904 8.44036 15.25 7.75 15.25C7.05964 15.25 6.5 14.6904 6.5 14C6.5 13.3096 7.05964 12.75 7.75 12.75ZM7.75 8.25C8.44036 8.25 9 8.80964 9 9.5C9 10.1904 8.44036 10.75 7.75 10.75C7.05964 10.75 6.5 10.1904 6.5 9.5C6.5 8.80964 7.05964 8.25 7.75 8.25ZM15.5 7.5C16.1904 7.5 16.75 8.05964 16.75 8.75C16.75 9.44036 16.1904 10 15.5 10C14.8096 10 14.25 9.44036 14.25 8.75C14.25 8.05964 14.8096 7.5 15.5 7.5ZM11.25 6C11.9404 6 12.5 6.55964 12.5 7.25C12.5 7.94036 11.9404 8.5 11.25 8.5C10.5596 8.5 10 7.94036 10 7.25C10 6.55964 10.5596 6 11.25 6Z" fill="#FF00FF"/>
</svg>
