<svg width="24" height="24" viewBox="0 0 24 24" fill="none" xmlns="http://www.w3.org/2000/svg">
<path fill-rule="evenodd" clip-rule="evenodd" d="M14.4773 2.6652C16.0348 2.53554 17.5221 3.32569 18.2898 4.68375H18.2908L21.0193 9.14372L21.0417 9.18375C22.233 11.3497 20.6661 14.0002 18.1941 14.0002H15.7048L16.6843 19.2238C16.9545 20.6665 15.8475 22 14.3796 22.0002C13.4471 22.0001 12.6038 21.447 12.2322 20.592C11.4648 18.8265 10.7507 17.2676 9.59546 15.967C8.46718 14.6966 6.86862 13.6237 4.25757 12.9709C3.81253 12.8595 3.49979 12.4589 3.49976 12.0002V4.50016C3.49979 3.98018 3.89859 3.54737 4.41675 3.50407L14.4773 2.6652ZM14.6433 4.65836L5.49976 5.42008V11.2394C8.04545 11.9982 9.79413 13.1792 11.0906 14.6388C12.485 16.2089 13.3081 18.0509 14.0662 19.7951C14.1205 19.9198 14.2437 20.0001 14.3796 20.0002C14.5954 20 14.7582 19.804 14.7185 19.592L13.5173 13.1847C13.4625 12.8924 13.5403 12.5904 13.7302 12.3615C13.9202 12.1327 14.2024 12.0002 14.4998 12.0002H18.1941C19.1424 12.0002 19.7444 10.9863 19.2927 10.1545L16.5847 5.7277C16.5767 5.71461 16.5687 5.70111 16.5613 5.68766C16.1809 4.99624 15.4297 4.59293 14.6433 4.65836Z" fill="#FF00FF"/>
</svg>
