<svg width="24" height="24" viewBox="0 0 24 24" fill="none" xmlns="http://www.w3.org/2000/svg">
<path d="M14.3798 2C15.8478 2.00013 16.955 3.33442 16.6844 4.77734L15.705 10H18.1942C20.6662 10 22.2332 12.6504 21.0419 14.8164C21.0345 14.8298 21.0274 14.8434 21.0194 14.8564L18.2909 19.3164L18.2899 19.3154C17.5224 20.674 16.0352 21.4646 14.4774 21.335L4.41687 20.4961C3.89862 20.4529 3.49988 20.0201 3.49988 19.5V12C3.49988 11.5412 3.81257 11.1416 4.25769 11.0303C6.86891 10.3774 8.46727 9.30358 9.59558 8.0332C10.7508 6.73252 11.465 5.17367 12.2323 3.4082C12.604 2.55315 13.4472 2.00004 14.3798 2ZM14.3798 4C14.2438 4.00004 14.1207 4.08032 14.0663 4.20508C13.3082 5.94927 12.4851 7.79129 11.0907 9.36133C9.79429 10.8209 8.04546 12.001 5.49988 12.7598V18.5801L14.6434 19.3418C15.4299 19.4072 16.181 19.004 16.5614 18.3125C16.5688 18.299 16.5768 18.2856 16.5848 18.2725L19.2928 13.8447C19.7436 13.013 19.1422 12 18.1942 12H14.4999C14.2024 12 13.9203 11.8676 13.7303 11.6387C13.5404 11.4098 13.4626 11.1078 13.5175 10.8154L14.7186 4.4082C14.7583 4.19615 14.5955 4.00013 14.3798 4Z" fill="#FF00FF"/>
</svg>
