<svg width="24" height="24" viewBox="0 0 24 24" fill="none" xmlns="http://www.w3.org/2000/svg">
<path d="M18.8906 3.00391C19.3231 3.0416 19.6864 3.35639 19.7803 3.78711L19.8672 4.22461C20.0443 5.22851 20.0489 6.11544 19.8555 6.91406C19.6299 7.84512 19.1535 8.57695 18.5186 9.19238C17.902 9.78994 17.1302 10.2827 16.3057 10.752C15.8896 10.9887 15.4433 11.2287 14.9824 11.4766C14.7502 11.6014 14.5126 11.7287 14.2705 11.8604L14.0176 12L14.2705 12.1396C14.5126 12.2713 14.7502 12.3986 14.9824 12.5234C15.4433 12.7713 15.8896 13.0113 16.3057 13.248C17.1302 13.7173 17.902 14.2101 18.5186 14.8076C19.1535 15.423 19.6299 16.1549 19.8555 17.0859C20.0489 17.8846 20.0443 18.7715 19.8672 19.7754L19.7803 20.2129C19.6864 20.6436 19.3231 20.9584 18.8906 20.9961L18.8037 21H5.19629C4.75545 20.9998 4.37088 20.7115 4.24219 20.2969L4.21973 20.2129C3.96184 19.0268 3.92347 17.9986 4.14453 17.0859C4.3701 16.1549 4.84646 15.423 5.48145 14.8076C6.09804 14.2101 6.86984 13.7173 7.69434 13.248C8.11052 13.0112 8.55753 12.7713 9.01855 12.5234C9.33084 12.3555 9.651 12.1815 9.98145 12C9.651 11.8185 9.33084 11.6445 9.01855 11.4766C8.55753 11.2287 8.11052 10.9888 7.69434 10.752C6.86984 10.2827 6.09804 9.78995 5.48145 9.19238C4.84646 8.57695 4.3701 7.84512 4.14453 6.91406C3.92347 6.00144 3.96184 4.97324 4.21973 3.78711L4.24219 3.70312C4.37088 3.28846 4.75545 3.00021 5.19629 3H18.8037L18.8906 3.00391ZM12.5498 13.4736C12.2526 13.3068 11.8936 13.2859 11.5811 13.4111L11.4502 13.4736C10.9262 13.7678 10.4271 14.0366 9.96484 14.2852C9.49956 14.5354 9.07497 14.7636 8.68359 14.9863C7.89241 15.4366 7.30164 15.8288 6.87305 16.2441C6.46311 16.6415 6.21127 17.0517 6.08887 17.5566C5.99814 17.9312 5.97025 18.3977 6.04102 19H17.959C18.0297 18.3977 18.0028 17.9312 17.9121 17.5566C17.7897 17.0515 17.5369 16.6416 17.127 16.2441C16.6984 15.8288 16.1076 15.4366 15.3164 14.9863C14.925 14.7636 14.5004 14.5354 14.0352 14.2852C13.8041 14.1609 13.5634 14.0313 13.3154 13.8965L12.5498 13.4736ZM6.04102 5C5.97025 5.60233 5.99814 6.06878 6.08887 6.44336C6.21127 6.94834 6.46311 7.35849 6.87305 7.75586C7.30164 8.17125 7.89241 8.56335 8.68359 9.01367C9.07497 9.23643 9.49956 9.46464 9.96484 9.71484C10.4271 9.96342 10.9262 10.2322 11.4502 10.5264L11.5811 10.5889C11.8936 10.7141 12.2526 10.6932 12.5498 10.5264L13.3154 10.1035C13.5634 9.96867 13.8041 9.83912 14.0352 9.71484C14.5004 9.46464 14.925 9.23642 15.3164 9.01367C16.1076 8.56336 16.6984 8.17125 17.127 7.75586C17.5369 7.35843 17.7897 6.94845 17.9121 6.44336C18.0028 6.06877 18.0297 5.60234 17.959 5H6.04102Z" fill="#FF00FF"/>
</svg>
