<svg width="24" height="24" viewBox="0 0 24 24" fill="none" xmlns="http://www.w3.org/2000/svg">
<path d="M16.5 2C19.5853 2 22 4.61789 22 7.7373C21.9998 10.3823 20.4093 12.8151 17.7793 13.5381L17.5215 13.6035C15.4761 14.0669 13.4437 13.4575 11.7227 12.9609C10.0079 12.4662 8.56672 12.0699 7.19434 12.2939L6.91992 12.3477C5.16904 12.7446 4.00019 14.3366 4 16.2627C4 18.3755 5.61472 20 7.5 20C9.38528 20 11 18.3755 11 16.2627V15.3154H13V16.2627C13 19.3821 10.5853 22 7.5 22C4.41472 22 2 19.3821 2 16.2627C2.00019 13.5324 3.69501 11.0272 6.47852 10.3965L6.86133 10.3223C8.77642 10.009 10.6637 10.5735 12.2773 11.0391C14.1065 11.5669 15.6249 11.9821 17.0801 11.6523L17.2422 11.6123C18.9028 11.1563 19.9998 9.60334 20 7.7373C20 5.62455 18.3853 4 16.5 4C14.6147 4 13 5.62455 13 7.7373V8.68457H11V7.7373C11 4.61789 13.4147 2 16.5 2Z" fill="#FF00FF"/>
</svg>
