<svg width="24" height="24" viewBox="0 0 24 24" fill="none" xmlns="http://www.w3.org/2000/svg">
<path d="M11.5898 3.99988C13.4731 3.99988 15 5.5268 15 7.41003C14.9999 9.10686 13.7521 10.5451 12.0723 10.785L6.40039 11.5956C5.31003 11.7513 4.5 12.6856 4.5 13.787C4.50014 15.0091 5.4908 15.9997 6.71289 15.9999H18.5859L15.793 13.2069L17.207 11.7928L21.707 16.2928C22.0731 16.659 22.0957 17.238 21.7754 17.6307L21.707 17.7069L17.207 22.2069L15.793 20.7928L18.5859 17.9999H6.71289C4.38623 17.9997 2.50014 16.1137 2.5 13.787C2.5 11.6903 4.04166 9.91273 6.11719 9.61609L11.7891 8.80554C12.4836 8.70633 12.9999 8.11156 13 7.41003C13 6.63137 12.3685 5.99988 11.5898 5.99988H7V3.99988H11.5898Z" fill="#FF00FF"/>
</svg>
