<svg width="24" height="24" viewBox="0 0 24 24" fill="none" xmlns="http://www.w3.org/2000/svg">
<path d="M7.49988 4.5V16.5859L10.2928 13.793L11.7069 15.207L7.20691 19.707C7.01938 19.8945 6.76507 20 6.49988 20C6.26781 20 6.04402 19.9193 5.86609 19.7734L5.79285 19.707L1.29285 15.207L2.70691 13.793L5.49988 16.5859V4.5H7.49988ZM17.4999 4C17.7651 4 18.0194 4.10546 18.2069 4.29297L22.7069 8.79297L21.2928 10.207L18.4999 7.41406V19.5H16.4999V7.41406L13.7069 10.207L12.2928 8.79297L16.7928 4.29297L16.8661 4.22656C17.044 4.08075 17.2678 4.00002 17.4999 4Z" fill="#FF00FF"/>
</svg>
