<svg width="24" height="24" viewBox="0 0 24 24" fill="none" xmlns="http://www.w3.org/2000/svg">
<path d="M21.707 3.70697L17.8301 7.58295C17.9401 8.03739 18 8.51166 18 8.99994V14.9999C18 18.3136 15.3137 20.9999 12 20.9999C9.93765 20.9999 8.11803 19.9597 7.03809 18.3749L3.70703 21.707L2.29297 20.2929L6.16992 16.415C6.06016 15.9611 6 15.4875 6 14.9999V8.99994C6.00004 5.68629 8.68635 2.99998 12 2.99994C14.0618 2.99994 15.8809 4.03995 16.9609 5.62396L20.293 2.29291L21.707 3.70697ZM8.49121 16.9218C9.17101 18.1604 10.4874 18.9999 12 18.9999C14.2091 18.9999 16 17.2091 16 14.9999V9.414L8.49121 16.9218ZM12 4.99994C9.79092 4.99998 8.00004 6.79086 8 8.99994V14.5859L15.5078 7.07709C14.8278 5.83925 13.5121 4.99994 12 4.99994Z" fill="#FF00FF"/>
</svg>
