<svg width="24" height="24" viewBox="0 0 24 24" fill="none" xmlns="http://www.w3.org/2000/svg">
<path d="M12 12.25C14.5176 12.25 16.9099 13.0862 18.6943 14.4424C20.4703 15.7922 21.75 17.7515 21.75 20C21.75 20.6904 21.1904 21.25 20.5 21.25H3.5C2.80964 21.25 2.25 20.6904 2.25 20C2.25 17.7515 3.52974 15.7922 5.30566 14.4424C7.0901 13.0862 9.48244 12.25 12 12.25ZM12 14.75C10.0177 14.75 8.15987 15.4139 6.81934 16.4326C5.91914 17.1168 5.30023 17.9199 4.9873 18.75H19.0127C18.6998 17.9199 18.0809 17.1168 17.1807 16.4326C15.8401 15.4139 13.9823 14.75 12 14.75ZM12 2.25C14.3472 2.25 16.25 4.15279 16.25 6.5C16.25 8.84721 14.3472 10.75 12 10.75C9.65279 10.75 7.75 8.84721 7.75 6.5C7.75 4.15279 9.65279 2.25 12 2.25ZM12 4.75C11.0335 4.75 10.25 5.5335 10.25 6.5C10.25 7.4665 11.0335 8.25 12 8.25C12.9665 8.25 13.75 7.4665 13.75 6.5C13.75 5.5335 12.9665 4.75 12 4.75Z" fill="#FF00FF"/>
</svg>
