<svg width="24" height="24" viewBox="0 0 24 24" fill="none" xmlns="http://www.w3.org/2000/svg">
<path d="M3.86816 3.86816C8.35919 -0.622866 15.6408 -0.622865 20.1318 3.86816C24.6229 8.35919 24.6229 15.6408 20.1318 20.1318C15.6408 24.6229 8.35919 24.6229 3.86816 20.1318C-0.622866 15.6408 -0.622865 8.35919 3.86816 3.86816ZM18.0107 5.98926C14.6913 2.6698 9.30871 2.6698 5.98926 5.98926C2.6698 9.30871 2.6698 14.6913 5.98926 18.0107C9.30871 21.3302 14.6913 21.3302 18.0107 18.0107C21.3302 14.6913 21.3302 9.30872 18.0107 5.98926ZM12.75 7C12.8881 7 13 7.11193 13 7.25V11.25C13 11.3881 13.1119 11.5 13.25 11.5H16.75C16.8881 11.5 17 11.6119 17 11.75V14.25C17 14.3881 16.8881 14.5 16.75 14.5H11.5C10.6716 14.5 10 13.8284 10 13V7.25C10 7.11193 10.1119 7 10.25 7H12.75Z" fill="#FF00FF"/>
</svg>
