<svg width="24" height="24" viewBox="0 0 24 24" fill="none" xmlns="http://www.w3.org/2000/svg">
<path d="M11.3234 2.67688C11.421 2.57935 11.5793 2.57928 11.6769 2.67688L13.0909 4.0929C13.1884 4.1905 13.1884 4.3488 13.0909 4.44641L6.7677 10.7765H20.7501C20.888 10.7765 20.9999 10.8887 21.0001 11.0265V13.0294C21.0001 13.1675 20.8881 13.2794 20.7501 13.2794H6.7677L13.09 19.5538C13.188 19.6513 13.1877 19.8105 13.09 19.9083L11.6759 21.3234C11.5785 21.4207 11.4211 21.4213 11.3234 21.3243L2.86633 12.9132C2.37818 12.4245 2.37818 11.6324 2.86633 11.1437L11.3234 2.67688Z" fill="#FF00FF"/>
</svg>
