<svg width="24" height="24" viewBox="0 0 24 24" fill="none" xmlns="http://www.w3.org/2000/svg">
<path d="M15.5868 1C16.0104 1 16.3265 1.38965 16.2401 1.80469L15.8339 3.73828C18.1706 4.15725 19.87 5.60684 19.87 7.84082C19.8699 9.88392 18.4378 11.2707 16.6991 11.7637C18.085 12.445 18.9774 13.7843 18.9774 15.4287C18.9774 18.2242 16.4636 20.3857 12.5165 20.3857H12.1327L11.6962 22.4688C11.6308 22.7802 11.3547 23.0023 11.037 23L8.57117 22.9814C8.14923 22.9783 7.83574 22.5882 7.92273 22.1748L8.30359 20.3857H4.49988C4.17997 20.3856 3.94309 20.0895 4.0116 19.7773L7.49695 4.00293C7.54772 3.77441 7.75024 3.61154 7.98425 3.61133H12.0282L12.4725 1.52832C12.5379 1.21996 12.8095 1 13.1249 1H15.5868ZM9.28601 13.1973L8.39832 17.2148H12.4227C14.1615 17.2148 15.1717 16.3447 15.1718 15.0996C15.1718 13.8779 14.1854 13.1973 12.5643 13.1973H9.28601ZM10.6971 6.80664L9.94031 10.2363H13.8094C15.1487 10.2363 16.0878 9.62527 16.0878 8.42773C16.0877 7.41705 15.3128 6.80664 13.9735 6.80664H10.6971Z" fill="#FF00FF"/>
</svg>
