<svg width="24" height="24" viewBox="0 0 24 24" fill="none" xmlns="http://www.w3.org/2000/svg">
<path d="M20 2.5C21.933 2.5 23.5 4.067 23.5 6V18C23.5 19.933 21.933 21.5 20 21.5H4C2.067 21.5 0.5 19.933 0.5 18V6C0.5 4.067 2.067 2.5 4 2.5H20ZM4 5.5C3.72386 5.5 3.5 5.72386 3.5 6V18C3.5 18.2761 3.72386 18.5 4 18.5H20C20.2761 18.5 20.5 18.2761 20.5 18V6C20.5 5.72386 20.2761 5.5 20 5.5H4ZM10.75 8.5C10.8881 8.5 11 8.61193 11 8.75V11.25C11 11.3881 10.8881 11.5 10.75 11.5H7.25C7.11193 11.5 7 11.3881 7 11.25V8.75C7 8.61193 7.11193 8.5 7.25 8.5H10.75Z" fill="#FF00FF"/>
</svg>
