<svg width="24" height="24" viewBox="0 0 24 24" fill="none" xmlns="http://www.w3.org/2000/svg">
<path d="M18.9395 3.29303C19.0371 3.19544 19.1953 3.19541 19.293 3.29303L20.707 4.70709C20.8046 4.80472 20.8046 4.96299 20.707 5.06061L13.7676 12.0001L20.707 18.9395C20.8046 19.0371 20.8046 19.1954 20.707 19.293L19.293 20.7071C19.1954 20.8047 19.0371 20.8047 18.9395 20.7071L12 13.7676L5.06055 20.7071C4.96294 20.8047 4.80467 20.8047 4.70703 20.7071L3.29297 19.293C3.19534 19.1954 3.19534 19.0371 3.29297 18.9395L10.2324 12.0001L3.29297 5.06061C3.19534 4.96298 3.19534 4.80472 3.29297 4.70709L4.70703 3.29303C4.80467 3.19544 4.96293 3.19541 5.06055 3.29303L12 10.2325L18.9395 3.29303Z" fill="#FF00FF"/>
</svg>
