<svg width="24" height="24" viewBox="0 0 24 24" fill="none" xmlns="http://www.w3.org/2000/svg">
<path d="M4.68542 4.68536C7.59882 1.77197 12.3218 1.77206 15.2352 4.68536C17.8479 7.29805 18.1161 11.3649 16.0428 14.2781L21.3212 19.5565C21.4199 19.6552 21.4697 19.7046 21.4882 19.7615C21.5044 19.8116 21.5044 19.8658 21.4882 19.9158C21.4696 19.9728 21.4199 20.0221 21.3212 20.1209L20.121 21.3211C20.0222 21.4199 19.9729 21.4696 19.9159 21.4881C19.8658 21.5044 19.8117 21.5043 19.7616 21.4881C19.7046 21.4696 19.6552 21.4198 19.5565 21.3211L14.2782 16.0428C11.365 18.116 7.29811 17.8478 4.68542 15.2352C1.77212 12.3217 1.77203 7.59876 4.68542 4.68536ZM13.4706 6.45001C11.5319 4.51146 8.38871 4.51137 6.45007 6.45001C4.51143 8.38865 4.51152 11.5318 6.45007 13.4705C8.38876 15.4092 11.5319 15.4092 13.4706 13.4705C15.4093 11.5318 15.4093 8.3887 13.4706 6.45001Z" fill="#FF00FF"/>
</svg>
