<svg width="24" height="24" viewBox="0 0 24 24" fill="none" xmlns="http://www.w3.org/2000/svg">
<path d="M10.9169 1.94165C11.2439 1.08269 12.4591 1.08266 12.786 1.94165L15.2264 8.35376L22.08 8.6936C22.9976 8.73956 23.3729 9.89563 22.6571 10.4719L17.3124 14.7747L19.1073 21.3967C19.3478 22.2839 18.3651 22.9981 17.5956 22.4954L11.8514 18.7434L6.1073 22.4963C5.33799 22.9987 4.35559 22.2846 4.59558 21.3977L6.38953 14.7747L1.04578 10.4719C0.329922 9.89551 0.705959 8.7392 1.6239 8.6936L8.47546 8.35376L10.9169 1.94165ZM10.2313 10.7698L5.68152 10.9954L9.22937 13.8518L8.03796 18.2473L11.8514 15.7571L15.6639 18.2473L14.4735 13.8518L18.0204 10.9954L13.4716 10.7698L11.8514 6.51196L10.2313 10.7698Z" fill="#FF00FF"/>
</svg>
