<svg width="24" height="24" viewBox="0 0 24 24" fill="none" xmlns="http://www.w3.org/2000/svg">
<path d="M17.75 13.5C17.8881 13.5 18 13.6119 18 13.75V16.25H21.75C21.8881 16.25 22 16.3619 22 16.5V18.5C22 18.6381 21.8881 18.75 21.75 18.75H18V21.25C18 21.3881 17.8881 21.5 17.75 21.5H15.75C15.6119 21.5 15.5 21.3881 15.5 21.25V13.75C15.5 13.6119 15.6119 13.5 15.75 13.5H17.75ZM13.5 18.75H2.25C2.11193 18.75 2 18.6381 2 18.5V16.5C2 16.3619 2.11193 16.25 2.25 16.25H13.5V18.75ZM11.25 2.5C11.3881 2.5 11.5 2.61193 11.5 2.75V5.25H21.75C21.8881 5.25 22 5.36193 22 5.5V7.5C22 7.63807 21.8881 7.75 21.75 7.75H11.5V10.25C11.5 10.3881 11.3881 10.5 11.25 10.5H9.25C9.11193 10.5 9 10.3881 9 10.25V2.75C9 2.61193 9.11193 2.5 9.25 2.5H11.25ZM7 7.75H2.25C2.11193 7.75 2 7.63807 2 7.5V5.5C2 5.36193 2.11193 5.25 2.25 5.25H7V7.75Z" fill="#FF00FF"/>
</svg>
