<svg width="24" height="24" viewBox="0 0 24 24" fill="none" xmlns="http://www.w3.org/2000/svg">
<path d="M10.7705 1.66431C10.8322 1.54093 10.982 1.49052 11.1055 1.552L12.8945 2.44653C13.018 2.50829 13.0686 2.65897 13.0068 2.78247L10.084 8.62524L12.4746 10.7502H17C17.4329 10.7504 17.8358 10.9748 18.0635 11.343C18.2907 11.7112 18.3114 12.1717 18.1182 12.5588L17.0068 14.7795L21.6426 18.8997C21.7456 18.9913 21.7554 19.149 21.6641 19.2522L20.3359 20.7483C20.2442 20.8511 20.0855 20.8604 19.9824 20.7688L15.8496 17.095L13.2305 22.3352C13.1687 22.4586 13.018 22.5082 12.8945 22.4465L11.1055 21.553C10.9823 21.4912 10.9326 21.3414 10.9941 21.218L13.9141 15.3752L11.5244 13.2502H7C6.56715 13.2501 6.16428 13.0255 5.93652 12.6575C5.70916 12.2893 5.68867 11.8288 5.88184 11.4417L6.99121 9.22095L2.35645 5.10083C2.25345 5.00922 2.24461 4.85148 2.33594 4.74829L3.66406 3.2522C3.7558 3.14944 3.91354 3.14021 4.0166 3.23169L8.14941 6.90552L10.7705 1.66431Z" fill="#FF00FF"/>
</svg>
