<svg width="24" height="24" viewBox="0 0 24 24" fill="none" xmlns="http://www.w3.org/2000/svg">
<path d="M10.7697 1.66492C10.8314 1.54145 10.9821 1.49092 11.1056 1.55261L12.8947 2.44617C13.0181 2.50794 13.0677 2.65863 13.006 2.7821L9.02258 10.7499H17.0001C17.4331 10.75 17.8358 10.9744 18.0636 11.3427C18.291 11.7109 18.3116 12.1713 18.1183 12.5585L13.2296 22.3348C13.1678 22.4581 13.0181 22.5078 12.8947 22.4462L11.1056 21.5526C10.9822 21.491 10.9318 21.3411 10.9933 21.2177L14.9777 13.2499H7.00012C6.56703 13.2499 6.16444 13.0254 5.93665 12.6571C5.70921 12.2888 5.68858 11.8285 5.88196 11.4413L10.7697 1.66492Z" fill="#FF00FF"/>
</svg>
