<svg width="24" height="24" viewBox="0 0 24 24" fill="none" xmlns="http://www.w3.org/2000/svg">
<path d="M12.0001 18C12.8284 18.0002 13.5001 18.6717 13.5001 19.5C13.5001 20.3283 12.8284 20.9998 12.0001 21C11.1718 20.9999 10.5001 20.3284 10.5001 19.5C10.5002 18.6717 11.1718 18.0001 12.0001 18ZM12.0001 1.75C15.5869 1.75014 18.2501 4.47456 18.2501 7.9209C18.25 9.66421 17.5378 11.1092 16.3654 12.123C15.5 12.8712 14.4189 13.3557 13.2501 13.5928V15.75C13.2501 15.8881 13.1382 16 13.0001 16H11.0001C10.8621 15.9999 10.7501 15.888 10.7501 15.75V11.5605C10.7501 11.4286 10.8528 11.3189 10.9845 11.3105L11.922 11.252C13.1059 11.1781 14.0781 10.7966 14.7306 10.2324C15.3594 9.68867 15.75 8.93088 15.7501 7.9209C15.7501 5.85991 14.2108 4.25014 12.0001 4.25C9.83693 4.25008 8.27552 5.78466 7.77942 7.91016C7.74806 8.04453 7.61806 8.13414 7.48254 8.1084L5.51868 7.73242C5.38309 7.70648 5.29337 7.57518 5.32336 7.44043C5.99446 4.42569 8.35782 1.75008 12.0001 1.75Z" fill="#FF00FF"/>
</svg>
