<svg width="24" height="24" viewBox="0 0 24 24" fill="none" xmlns="http://www.w3.org/2000/svg">
<path d="M12.25 2C17.9109 2 22.5 6.58908 22.5 12.25C22.5 17.9109 17.9109 22.5 12.25 22.5C6.58908 22.5 2 17.9109 2 12.25C2 6.58908 6.58908 2 12.25 2ZM12.25 16.5C11.6469 16.5 11.0462 16.5152 10.4541 16.5449C10.5883 17.1285 10.7504 17.6724 10.9404 18.1611C11.2461 18.9471 11.5655 19.4445 11.835 19.7256C12.0993 20.0012 12.2418 20 12.25 20C12.2582 20 12.4007 20.0012 12.665 19.7256C12.9345 19.4445 13.2539 18.9471 13.5596 18.1611C13.7496 17.6725 13.9108 17.1284 14.0449 16.5449C13.4532 16.5152 12.8528 16.5 12.25 16.5ZM7.94336 16.7676C7.32903 16.8474 6.73658 16.9441 6.1748 17.0586C6.8389 17.8965 7.6716 18.5937 8.62305 19.0986C8.61895 19.0882 8.61443 19.0779 8.61035 19.0674C8.33551 18.3607 8.1143 17.5846 7.94336 16.7676ZM16.5557 16.7676C16.3847 17.5845 16.1645 18.3607 15.8896 19.0674C15.8855 19.078 15.8801 19.0881 15.876 19.0986C16.8276 18.5938 17.66 17.8965 18.3242 17.0586C17.7624 16.9441 17.17 16.8473 16.5557 16.7676ZM4.92285 9.72363C4.64982 10.5156 4.5 11.3652 4.5 12.25C4.5 13.1344 4.65001 13.9836 4.92285 14.7754C5.75978 14.5748 6.65617 14.4149 7.58691 14.293C7.52913 13.6158 7.5 12.9304 7.5 12.25C7.5 11.5693 7.52908 10.8836 7.58691 10.2061C6.65613 10.0841 5.75981 9.92421 4.92285 9.72363ZM19.5762 9.72363C18.7392 9.92417 17.8429 10.0841 16.9121 10.2061C16.97 10.8836 17 11.5692 17 12.25C17 12.9304 16.9699 13.6158 16.9121 14.293C17.8429 14.4149 18.7392 14.5749 19.5762 14.7754C19.8491 13.9835 20 13.1345 20 12.25C20 11.3651 19.8493 10.5157 19.5762 9.72363ZM14.4229 10.4375C13.7022 10.4786 12.9746 10.5 12.25 10.5C11.525 10.5 10.7971 10.4786 10.0762 10.4375C10.0262 11.0296 10 11.6374 10 12.25C10 12.8623 10.0262 13.4697 10.0762 14.0615C10.7971 14.0204 11.5251 14 12.25 14C12.9746 14 13.7023 14.0205 14.4229 14.0615C14.4728 13.4697 14.5 12.8623 14.5 12.25C14.5 11.6373 14.4729 11.0296 14.4229 10.4375ZM12.25 4.5C12.2418 4.5 12.0993 4.49879 11.835 4.77441C11.5655 5.05546 11.2461 5.55285 10.9404 6.33887C10.7505 6.82732 10.5882 7.37089 10.4541 7.9541C11.0462 7.98383 11.6469 8 12.25 8C12.8528 8 13.4531 7.9838 14.0449 7.9541C13.9108 7.37097 13.7495 6.82726 13.5596 6.33887C13.2539 5.55285 12.9345 5.05546 12.665 4.77441C12.4007 4.49879 12.2582 4.5 12.25 4.5ZM8.62305 5.40039C7.67166 5.90521 6.83892 6.60269 6.1748 7.44043C6.7366 7.55492 7.329 7.65166 7.94336 7.73145C8.11427 6.91478 8.33562 6.13908 8.61035 5.43262C8.61454 5.42184 8.61883 5.41113 8.62305 5.40039ZM15.8896 5.43262C16.1644 6.13902 16.3848 6.91486 16.5557 7.73145C17.17 7.65168 17.7624 7.5549 18.3242 7.44043C17.66 6.60268 16.8275 5.90515 15.876 5.40039C15.8802 5.41124 15.8854 5.42173 15.8896 5.43262Z" fill="#FF00FF"/>
</svg>
