<svg width="24" height="24" viewBox="0 0 24 24" fill="none" xmlns="http://www.w3.org/2000/svg">
<path d="M5.25024 14.5C5.38811 14.5002 5.50024 14.6121 5.50024 14.75V19H18.5002V14.75C18.5002 14.6119 18.6122 14.5 18.7502 14.5H21.2502C21.3881 14.5002 21.5002 14.6121 21.5002 14.75V20.5C21.5002 21.3282 20.8283 21.9996 20.0002 22H4.00024C3.17182 22 2.50024 21.3284 2.50024 20.5V14.75C2.50024 14.6119 2.61217 14.5 2.75024 14.5H5.25024ZM18.0002 2C18.5383 2.00025 19.036 2.2887 19.303 2.75586L23.303 9.75586C23.5256 10.1458 23.5617 10.6157 23.4016 11.0352C23.2413 11.4546 22.9008 11.7806 22.4749 11.9229C17.6456 13.5326 14.6149 13.1248 11.7317 12.6006C8.99153 12.1024 6.50433 11.5353 2.32544 12.4639C1.75376 12.5909 1.16032 12.3734 0.805908 11.9072C0.451617 11.4408 0.401365 10.8108 0.677002 10.2939L4.677 2.79395C4.9052 2.36649 5.3232 2.07871 5.79517 2.01367L6.00024 2H18.0002ZM4.73853 9.05371C7.87059 8.77249 10.1452 9.26331 12.2688 9.64941C14.4915 10.0535 16.6086 10.3577 19.7522 9.58887L17.1292 5H6.89966L4.73853 9.05371Z" fill="#FF00FF"/>
</svg>
