<svg width="24" height="24" viewBox="0 0 24 24" fill="none" xmlns="http://www.w3.org/2000/svg">
<path d="M13.9285 2C16.6591 2.00012 18.4665 3.20471 19.7917 4.97168C19.9926 5.21264 19.9525 5.53455 19.7517 5.73535L17.7429 7.66309C17.4618 7.94371 17.0208 7.863 16.8201 7.58203C16.1775 6.57803 15.2935 5.89553 14.0486 5.89551C12.5225 5.89551 11.1569 6.89959 11.197 9.1084C11.197 9.42956 11.1969 9.83104 11.2371 10.1924H15.9363C16.3378 10.1925 16.579 10.5546 16.5388 10.916L16.0564 13.0439C15.9761 13.3652 15.735 13.5264 15.4539 13.5264H11.8396C12.0002 15.1328 11.518 17.3013 10.6345 18.1045H17.9441C18.3055 18.1045 18.5868 18.4658 18.5066 18.8271L17.9041 21.5186C17.8237 21.7995 17.6225 22 17.3416 22H3.60718C3.20565 22 2.96459 21.6387 3.00464 21.2773L3.48608 19.1484C3.52625 18.9478 3.6869 18.7474 3.88745 18.707C6.05613 18.0243 7.82397 16.3772 7.82397 14.6904C7.82393 14.4896 7.78306 14.1284 7.74292 13.9277L7.66284 13.5664H5.37378C5.0125 13.5664 4.73128 13.205 4.81128 12.8438L5.21362 10.6748C5.29391 10.3938 5.53424 10.2336 5.81519 10.2334H6.90015C6.77966 9.67115 6.73901 9.10815 6.73901 8.5459C6.73917 4.44968 10.0731 2 13.9285 2Z" fill="#FF00FF"/>
</svg>
