<svg width="24" height="24" viewBox="0 0 24 24" fill="none" xmlns="http://www.w3.org/2000/svg">
<path d="M15.0913 2C17.0446 2 18.638 2.53972 19.8882 3.41309C20.2066 3.63547 20.2393 4.09597 19.9644 4.37012L18.1138 6.22168C17.9001 6.4353 17.5697 6.45516 17.3169 6.28906C16.7354 5.90629 16.0279 5.67578 15.0913 5.67578C14.163 5.67582 11.3698 5.7853 10.2466 10.1416H14.1353C14.411 10.1416 14.6183 10.3929 14.5649 10.6631L14.1284 12.8906C14.0703 13.1857 13.8118 13.3984 13.5112 13.3984H9.81592C9.77298 17.8477 12.4594 18.3515 13.3081 18.3516C14.1072 18.3516 14.8288 18.1435 15.4829 17.707C15.7329 17.5401 16.065 17.5676 16.2778 17.7803L17.9214 19.4238C18.1808 19.683 18.1672 20.1131 17.8853 20.3477C16.6683 21.3584 15.1453 22 13.0649 22C10.5624 21.9999 5.44364 20.8964 5.4917 13.3984H3.43799C3.16266 13.3984 2.95537 13.1462 3.0083 12.876L3.44482 10.6484C3.50263 10.3535 3.76152 10.1416 4.06201 10.1416H5.80518C7.26819 2.55283 13.3345 2.00009 15.0913 2Z" fill="#FF00FF"/>
</svg>
