<svg width="24" height="24" viewBox="0 0 24 24" fill="none" xmlns="http://www.w3.org/2000/svg">
<path d="M16.0381 1C16.2675 1 16.4382 1.22579 16.3896 1.46484L15.9482 3.63281C17.4549 4.12631 18.6794 5.01094 19.4355 6.10254C19.544 6.25914 19.5104 6.47728 19.3691 6.60059L17.5117 8.22168C17.3483 8.3642 17.1062 8.32574 16.9727 8.15137C16.0337 6.92429 14.5608 6.23055 12.9658 6.23047C11.2306 6.23047 10.0734 7.05114 10.0732 8.23047C10.0732 9.20475 10.941 9.71769 13.5918 10.333H13.5938C16.9677 11.1023 18.5107 12.5899 18.5107 15.1025C18.5107 18.2525 16.0986 20.5781 12.335 20.8242L11.9668 22.6953C11.9318 22.8729 11.7844 23 11.6143 23H8.69824C8.46605 22.9998 8.2949 22.7683 8.34863 22.5273L8.81543 20.4326C6.93847 19.8641 5.43055 18.7561 4.55762 17.3896C4.45527 17.2294 4.49409 17.0134 4.6377 16.8945L6.6748 15.208C6.84275 15.069 7.08643 15.116 7.21094 15.2998C8.28351 16.883 9.92654 17.8202 11.9053 17.8203C13.6887 17.8203 15.0388 16.8976 15.0391 15.5645C15.0391 14.5389 14.3641 14.0772 12.0986 13.5645C8.19398 12.6927 6.65137 11.1534 6.65137 8.64062C6.65158 5.72544 8.95445 3.52319 12.4287 3.2373L12.8096 1.30469C12.8446 1.12711 12.9919 1 13.1621 1H16.0381Z" fill="#FF00FF"/>
</svg>
