<svg width="24" height="24" viewBox="0 0 24 24" fill="none" xmlns="http://www.w3.org/2000/svg">
<path d="M21.25 17.75C21.3881 17.75 21.5 17.8619 21.5 18V20C21.5 20.1381 21.3881 20.25 21.25 20.25H2.75C2.61193 20.25 2.5 20.1381 2.5 20V18C2.5 17.8619 2.61193 17.75 2.75 17.75H21.25ZM21.25 10.75C21.3881 10.75 21.5 10.8619 21.5 11V13C21.5 13.1381 21.3881 13.25 21.25 13.25H2.75C2.61193 13.25 2.5 13.1381 2.5 13V11C2.5 10.8619 2.61193 10.75 2.75 10.75H21.25ZM21.25 3.75C21.3881 3.75 21.5 3.86193 21.5 4V6C21.5 6.13807 21.3881 6.25 21.25 6.25H2.75C2.61193 6.25 2.5 6.13807 2.5 6V4C2.5 3.86193 2.61193 3.75 2.75 3.75H21.25Z" fill="#FF00FF"/>
</svg>
