<svg width="24" height="24" viewBox="0 0 24 24" fill="none" xmlns="http://www.w3.org/2000/svg">
<path d="M12 2.75C9.92893 2.75 8.25 4.42893 8.25 6.5V12C8.25 14.0711 9.92893 15.75 12 15.75C14.0711 15.75 15.75 14.0711 15.75 12V6.5C15.75 4.42893 14.0711 2.75 12 2.75ZM12 5.25C12.6904 5.25 13.25 5.80964 13.25 6.5V12C13.25 12.6904 12.6904 13.25 12 13.25C11.3096 13.25 10.75 12.6904 10.75 12V6.5C10.75 5.80964 11.3096 5.25 12 5.25ZM5.25 10.75C5.94036 10.75 6.5 11.3096 6.5 12C6.5 14.8995 8.85051 17.25 11.75 17.25H12.25C15.1495 17.25 17.5 14.8995 17.5 12C17.5 11.3096 18.0596 10.75 18.75 10.75C19.4404 10.75 20 11.3096 20 12C20 16.0041 16.9746 19.3023 13.084 19.7246L13.0791 19.7251L13.25 19.75C13.9404 19.75 14.5 20.3096 14.5 21C14.5 21.6904 13.9404 22.25 13.25 22.25H10.75C10.0596 22.25 9.5 21.6904 9.5 21C9.5 20.3096 10.0596 19.75 10.75 19.75L10.9209 19.7251L10.916 19.7246C7.02541 19.3023 4 16.0041 4 12C4 11.3096 4.55964 10.75 5.25 10.75Z" fill="#FF00FF"/>
</svg>
