<svg width="24" height="24" viewBox="0 0 24 24" fill="none" xmlns="http://www.w3.org/2000/svg">
<path fill-rule="evenodd" clip-rule="evenodd" d="M5.15497 14.1954C5.0656 14.1373 4.94524 14.1539 4.87665 14.2344L3.54754 15.7979C3.47393 15.8845 3.48665 16.0137 3.57977 16.0801C4.23658 16.5418 4.98226 16.883 5.73114 17.1631C7.22167 17.7205 9.44655 18.251 12.4997 18.251C15.5528 18.251 17.7778 17.7206 19.2682 17.1631C20.0171 16.883 20.7631 16.5416 21.4196 16.0801C21.5127 16.0138 21.5262 15.8845 21.4528 15.7979L20.1237 14.2344C20.0552 14.1538 19.9339 14.1373 19.8444 14.1954C19.3889 14.4924 18.8836 14.7143 18.3757 14.9044C17.1716 15.3547 15.2493 15.832 12.4997 15.8321C9.75003 15.832 7.82783 15.3547 6.62372 14.9044C6.11579 14.7143 5.61049 14.4924 5.15497 14.1954ZM16.071 5.97858C15.9054 5.97865 15.7713 6.11285 15.7712 6.27838V9.76959C15.7712 9.93523 15.9054 10.0693 16.071 10.0694H17.9255C18.091 10.0692 18.2253 9.93513 18.2253 9.76959V6.27838C18.2251 6.11295 18.0909 5.97881 17.9255 5.97858H16.071ZM3.7995 5.97858C3.63407 5.97875 3.49987 6.11295 3.49969 6.27838V9.76959C3.49969 9.93517 3.63396 10.0692 3.7995 10.0694H5.65399C5.81948 10.0692 5.95477 9.93514 5.95477 9.76959V6.27838C5.95459 6.11299 5.81937 5.97881 5.65399 5.97858H3.7995Z" fill="#FF00FF"/>
</svg>
