<svg width="24" height="24" viewBox="0 0 24 24" fill="none" xmlns="http://www.w3.org/2000/svg">
<path d="M6.60022 11C6.74012 11 6.81043 11.0001 6.86389 11.0273C6.91083 11.0513 6.94934 11.0898 6.97327 11.1367C7.00042 11.1902 6.99963 11.2605 6.99963 11.4004V21.5996C6.99963 21.7393 7.00035 21.8098 6.97327 21.8633C6.94935 21.9102 6.9108 21.9487 6.86389 21.9727C6.81043 21.9999 6.74012 22 6.60022 22H4.40002C4.26003 22 4.18983 21.9999 4.13635 21.9727C4.0894 21.9487 4.05091 21.9103 4.02698 21.8633C3.99987 21.8098 3.99963 21.7394 3.99963 21.5996V11.4004C3.99963 11.2605 3.9998 11.1902 4.02698 11.1367C4.05093 11.0897 4.08937 11.0513 4.13635 11.0273C4.18983 11.0001 4.26003 11 4.40002 11H6.60022ZM13.1002 11C13.2401 11 13.3104 11.0001 13.3639 11.0273C13.4108 11.0513 13.4493 11.0898 13.4733 11.1367C13.5004 11.1902 13.4996 11.2605 13.4996 11.4004V21.5996C13.4996 21.7393 13.5003 21.8098 13.4733 21.8633C13.4493 21.9102 13.4108 21.9487 13.3639 21.9727C13.3104 21.9999 13.2401 22 13.1002 22H10.9C10.76 22 10.6898 21.9999 10.6364 21.9727C10.5894 21.9487 10.5509 21.9103 10.527 21.8633C10.4999 21.8098 10.4996 21.7394 10.4996 21.5996V11.4004C10.4996 11.2605 10.4998 11.1902 10.527 11.1367C10.5509 11.0897 10.5894 11.0513 10.6364 11.0273C10.6898 11.0001 10.76 11 10.9 11H13.1002ZM19.6002 11C19.7401 11 19.8104 11.0001 19.8639 11.0273C19.9108 11.0513 19.9493 11.0897 19.9733 11.1367C20.0004 11.1902 19.9996 11.2605 19.9996 11.4004V21.5996C19.9996 21.7393 20.0003 21.8098 19.9733 21.8633C19.9493 21.9102 19.9108 21.9487 19.8639 21.9727C19.8104 21.9999 19.7401 22 19.6002 22H17.4C17.26 22 17.1898 21.9999 17.1364 21.9727C17.0894 21.9487 17.0509 21.9103 17.027 21.8633C16.9999 21.8098 16.9996 21.7394 16.9996 21.5996V11.4004C16.9996 11.2605 16.9998 11.1902 17.027 11.1367C17.0509 11.0897 17.0894 11.0513 17.1364 11.0273C17.1898 11.0001 17.26 11 17.4 11H19.6002ZM11.277 2.18555C11.7271 1.93797 12.2731 1.93797 12.7233 2.18555L23.6871 8.21582C23.8097 8.28322 23.8712 8.31757 23.9049 8.36719C23.9344 8.41077 23.9495 8.46302 23.9479 8.51562C23.9459 8.57545 23.9116 8.63657 23.8444 8.75879L22.7838 10.6865C22.7164 10.809 22.683 10.8705 22.6334 10.9043C22.5898 10.934 22.5378 10.9489 22.485 10.9473C22.425 10.9454 22.3635 10.9122 22.2408 10.8447L12.193 5.31836C12.1228 5.27976 12.0875 5.25959 12.0504 5.25195C12.0175 5.24523 11.9828 5.24523 11.9498 5.25195C11.9127 5.25957 11.8775 5.27971 11.8073 5.31836L1.7594 10.8447C1.63684 10.9121 1.57519 10.9453 1.51526 10.9473C1.46249 10.9489 1.41049 10.934 1.36682 10.9043C1.31723 10.8706 1.28289 10.8091 1.21545 10.6865L0.155884 8.75879C0.0886365 8.63653 0.0543946 8.57546 0.0523682 8.51562C0.0507034 8.46299 0.0658204 8.41079 0.0953369 8.36719C0.129055 8.31755 0.190486 8.28327 0.31311 8.21582L11.277 2.18555Z" fill="#FF00FF"/>
</svg>
