<svg width="24" height="24" viewBox="0 0 24 24" fill="none" xmlns="http://www.w3.org/2000/svg">
<path d="M10.75 3C10.8881 3 11 3.11193 11 3.25V5.25C11 5.38807 10.8881 5.5 10.75 5.5H7C5.61934 5.50007 4.5 6.61933 4.5 8V18.5H17C18.3807 18.4999 19.5 17.3807 19.5 16V14.25C19.5 14.1119 19.6119 14 19.75 14H21.75C21.8881 14 22 14.1119 22 14.25V16C22 18.7614 19.7614 20.9999 17 21H3.5L3.34668 20.9922C2.64075 20.9205 2.07949 20.3593 2.00781 19.6533L2 19.5V8C2 5.32476 4.10116 3.14059 6.74316 3.00684L7 3H10.75ZM18.7451 6.25488H22V8.75488H18.7451V12H16.2451V8.75488H13V6.25488H16.2451V3H18.7451V6.25488Z" fill="#FF00FF"/>
</svg>
