<svg width="24" height="24" viewBox="0 0 24 24" fill="none" xmlns="http://www.w3.org/2000/svg">
<path d="M15.8842 20.3848C14.8469 21.422 13.3732 21.8758 12.0004 21.876C10.6276 21.876 9.154 21.4217 8.11658 20.3848L9.88416 18.6172C10.3468 19.0793 11.124 19.376 12.0004 19.376C12.8769 19.3758 13.6541 19.0795 14.1166 18.6172L15.8842 20.3848ZM12.0004 2C14.9285 2.00018 17.4707 4.01857 18.1361 6.87012L20.184 15.6465C20.3347 16.295 19.8829 16.9177 19.2406 16.9932L19.1097 17.001H4.89099C4.18053 17.0009 3.65588 16.3384 3.81677 15.6465L5.86462 6.87012C6.53009 4.01845 9.07207 2.00001 12.0004 2ZM12.0004 4.50098C10.2339 4.50098 8.70059 5.7182 8.29919 7.43848L6.65173 14.501H17.349L15.7015 7.43848C15.3002 5.71833 13.7667 4.50116 12.0004 4.50098Z" fill="#FF00FF"/>
</svg>
