<svg width="24" height="24" viewBox="0 0 24 24" fill="none" xmlns="http://www.w3.org/2000/svg">
<path d="M11.166 1.00904L20.166 2.00904C20.8631 2.08665 21.4137 2.63716 21.4912 3.33424L22.4912 12.3342C22.5415 12.7871 22.3828 13.2386 22.0605 13.5608L12.5605 23.0608C11.9748 23.6465 11.0252 23.6465 10.4395 23.0608L0.439453 13.0608C0.158186 12.7795 4.17839e-05 12.398 0 12.0003C0 11.6025 0.158198 11.221 0.439453 10.9397L9.93945 1.43971C10.2617 1.11749 10.7131 0.95872 11.166 1.00904ZM3.62109 12.0003L11.5 19.8792L19.4297 11.9495L18.6416 4.85865L11.5508 4.07057L3.62109 12.0003ZM14.75 7.00025C15.716 7.00025 16.5 7.78425 16.5 8.75025C16.4999 9.71614 15.7159 10.5003 14.75 10.5003C13.7841 10.5003 13.0001 9.71614 13 8.75025C13 7.78425 13.784 7.00025 14.75 7.00025Z" fill="#FF00FF"/>
</svg>
