<svg width="24" height="24" viewBox="0 0 24 24" fill="none" xmlns="http://www.w3.org/2000/svg">
<path d="M13.707 0.29303C13.8047 0.195411 13.9629 0.195435 14.0605 0.29303L17.8838 4.11627C18.1182 4.35067 18.25 4.66858 18.25 5.00006C18.25 5.33152 18.1181 5.64946 17.8838 5.88385L14.0605 9.70709C13.9629 9.8046 13.8046 9.80468 13.707 9.70709L12.293 8.29303C12.1954 8.19544 12.1955 8.03714 12.293 7.93951L13.9824 6.25006H11.5C8.04831 6.25013 5.25005 9.04836 5.25 12.5001C5.25005 15.9517 8.04833 18.75 11.5 18.7501C14.8679 18.75 17.6138 16.0858 17.7451 12.7501C17.7506 12.6122 17.862 12.5001 18 12.5001H20C20.1381 12.5001 20.251 12.613 20.2471 12.751C20.1142 17.4674 16.2485 21.25 11.5 21.2501C6.66761 21.25 2.75005 17.3325 2.75 12.5001C2.75005 7.66765 6.66759 3.75013 11.5 3.75006H13.9824L12.293 2.06061C12.1954 1.96302 12.1955 1.80472 12.293 1.70709L13.707 0.29303Z" fill="#FF00FF"/>
</svg>
