<svg width="24" height="24" viewBox="0 0 24 24" fill="none" xmlns="http://www.w3.org/2000/svg">
<path d="M9.5 12.5C10.3284 12.5 11 13.1716 11 14V20L10.9922 20.1533C10.9154 20.9097 10.2767 21.5 9.5 21.5H3.5C2.67157 21.5 2 20.8284 2 20V14C2 13.1716 2.67158 12.5 3.5 12.5H9.5ZM21.75 14.5C21.8881 14.5 22 14.6119 22 14.75V20L21.9922 20.1533C21.9205 20.8593 21.3593 21.4205 20.6533 21.4922L20.5 21.5H15.25C15.1119 21.5 15 21.3881 15 21.25V19.25C15 19.1119 15.1119 19 15.25 19H19.5V14.75C19.5 14.6119 19.6119 14.5 19.75 14.5H21.75ZM4.5 19H8.5V15H4.5V19ZM15.5 12.5C16.3284 12.5 17 13.1716 17 14C17 14.8284 16.3284 15.5 15.5 15.5C14.6716 15.5 14 14.8284 14 14C14 13.1716 14.6716 12.5 15.5 12.5ZM10.5 7.5C11.3284 7.5 12 8.17157 12 9C12 9.82843 11.3284 10.5 10.5 10.5C9.67157 10.5 9 9.82843 9 9C9 8.17157 9.67157 7.5 10.5 7.5ZM8.75 2.5C8.88807 2.5 9 2.61193 9 2.75V4.75C9 4.88807 8.88807 5 8.75 5H4.5V9.25C4.5 9.38807 4.38807 9.5 4.25 9.5H2.25C2.11193 9.5 2 9.38807 2 9.25V4L2.00781 3.84668C2.07949 3.14069 2.64069 2.57949 3.34668 2.50781L3.5 2.5H8.75ZM20.5 2.5C21.3284 2.5 22 3.17158 22 4V8L21.9922 8.15332C21.9154 8.90972 21.2767 9.5 20.5 9.5H16.5C15.6716 9.5 15 8.82843 15 8V4C15 3.17157 15.6716 2.5 16.5 2.5H20.5ZM17.5 7H19.5V5H17.5V7Z" fill="#FF00FF"/>
</svg>
