<svg width="24" height="24" viewBox="0 0 24 24" fill="none" xmlns="http://www.w3.org/2000/svg">
<path d="M19.6409 2.80286C20.0813 2.6708 20.5589 2.79122 20.884 3.11633C21.2091 3.44149 21.3296 3.91912 21.1975 4.3595L15.7971 22.3595C15.6443 22.8683 15.1863 23.2254 14.6555 23.2491C14.1248 23.2726 13.6371 22.9572 13.4397 22.464L10.0383 13.9611L1.53638 10.5607C1.04306 10.3633 0.727785 9.87562 0.751221 9.34485C0.774883 8.81399 1.13195 8.35606 1.64087 8.20325L19.6409 2.80286ZM5.78735 9.56848L10.6985 11.5333L12.4397 9.79309C12.5373 9.69552 12.6956 9.69548 12.7932 9.79309L14.2073 11.2072C14.3047 11.3048 14.3048 11.4631 14.2073 11.5607L12.4661 13.3009L14.4309 18.212L18.135 5.86438L5.78735 9.56848Z" fill="#FF00FF"/>
</svg>
