<svg width="24" height="24" viewBox="0 0 24 24" fill="none" xmlns="http://www.w3.org/2000/svg">
<path d="M18.25 1.25C20.0449 1.25 21.5 2.70507 21.5 4.5C21.5 6.29493 20.0449 7.75 18.25 7.75C17.473 7.75 16.7603 7.4764 16.2012 7.02148L8.4834 11.1758C8.49396 11.2824 8.5 11.3906 8.5 11.5C8.5 11.6728 8.48593 11.8423 8.45996 12.0078L16.3525 16.8643C16.8867 16.479 17.5411 16.25 18.25 16.25C20.0449 16.25 21.5 17.7051 21.5 19.5C21.5 21.2949 20.0449 22.75 18.25 22.75C16.4551 22.75 15 21.2949 15 19.5C15 19.3269 15.013 19.157 15.0391 18.9912L7.14648 14.1348C6.61234 14.5199 5.95882 14.75 5.25 14.75C3.45507 14.75 2 13.2949 2 11.5C2 9.70507 3.45507 8.25 5.25 8.25C6.02605 8.25 6.73802 8.52269 7.29688 8.97656L15.0156 4.82129C15.0053 4.7156 15 4.60842 15 4.5C15 2.70507 16.4551 1.25 18.25 1.25ZM18.25 18.75C17.8358 18.75 17.5 19.0858 17.5 19.5C17.5 19.9142 17.8358 20.25 18.25 20.25C18.6642 20.25 19 19.9142 19 19.5C19 19.0858 18.6642 18.75 18.25 18.75ZM5.25 10.75C4.83579 10.75 4.5 11.0858 4.5 11.5C4.5 11.9142 4.83579 12.25 5.25 12.25C5.66421 12.25 6 11.9142 6 11.5C6 11.0858 5.66421 10.75 5.25 10.75ZM18.25 3.75C17.8358 3.75 17.5 4.08579 17.5 4.5C17.5 4.91421 17.8358 5.25 18.25 5.25C18.6642 5.25 19 4.91421 19 4.5C19 4.08579 18.6642 3.75 18.25 3.75Z" fill="#FF00FF"/>
</svg>
