<svg width="24" height="24" viewBox="0 0 24 24" fill="none" xmlns="http://www.w3.org/2000/svg">
<path d="M4.25 14C4.38807 14 4.5 14.1119 4.5 14.25V18.5H19.5V14.25C19.5 14.1119 19.6119 14 19.75 14H21.75C21.8881 14 22 14.1119 22 14.25V19.5L21.9922 19.6533C21.9205 20.3593 21.3593 20.9205 20.6533 20.9922L20.5 21H3.5L3.34668 20.9922C2.64069 20.9205 2.07949 20.3593 2.00781 19.6533L2 19.5V14.25C2 14.1119 2.11193 14 2.25 14H4.25ZM12 1.5C12.3313 1.50009 12.6495 1.63196 12.8838 1.86621L17.707 6.68945C17.8047 6.78708 17.8047 6.94534 17.707 7.04297L16.293 8.45703C16.1953 8.55451 16.037 8.55461 15.9395 8.45703L13.25 5.76758V14.75C13.25 14.8881 13.1381 15 13 15H11C10.8621 14.9999 10.75 14.888 10.75 14.75V5.76758L8.06055 8.45703C7.9629 8.55451 7.80461 8.55461 7.70703 8.45703L6.29297 7.04297C6.19554 6.94538 6.19554 6.78705 6.29297 6.68945L11.1162 1.86621L11.208 1.7832C11.4303 1.60115 11.7101 1.50006 12 1.5Z" fill="#FF00FF"/>
</svg>
