<svg width="24" height="24" viewBox="0 0 24 24" fill="none" xmlns="http://www.w3.org/2000/svg">
<path d="M14.4999 1.5C15.8806 1.5 16.9999 2.61929 16.9999 4V6.5H19.9999C20.6984 6.5 21.3047 6.98249 21.4618 7.66309L23.8964 18.2129C24.4024 20.4059 22.7368 22.4998 20.4862 22.5H3.51453C1.26373 22.5 -0.40272 20.406 0.103394 18.2129L2.53796 7.66309C2.69502 6.98251 3.30143 6.50004 3.99988 6.5H6.99988V4C6.99988 2.61931 8.1192 1.50004 9.49988 1.5H14.4999ZM3.02722 18.8877C2.95495 19.201 3.193 19.5 3.51453 19.5H20.4862C20.8075 19.4998 21.0456 19.2008 20.9735 18.8877L18.8065 9.5H5.19324L3.02722 18.8877ZM9.99988 6.5H13.9999V4.5H9.99988V6.5Z" fill="#FF00FF"/>
</svg>
