<svg width="24" height="24" viewBox="0 0 24 24" fill="none" xmlns="http://www.w3.org/2000/svg">
<path d="M19.2178 3.80396C19.3169 3.70786 19.4763 3.71065 19.5703 3.81177C23.8101 8.37364 23.8102 15.6269 19.5703 20.1887C19.4763 20.2897 19.3169 20.2925 19.2178 20.1965L17.7822 18.804C17.6831 18.7078 17.681 18.5492 17.7744 18.4475C21.0748 14.8548 21.0748 9.14466 17.7744 5.552C17.6813 5.45035 17.6833 5.29259 17.7822 5.19653L19.2178 3.80396ZM10.6133 4.4729C11.1137 4.17399 11.7497 4.53368 11.75 5.11646V18.8831C11.75 19.4661 11.1139 19.8254 10.6133 19.5266C7.77182 17.8307 4.88787 16.1858 1.76172 15.0774C1.45734 14.9695 1.25008 14.6835 1.25 14.3606V9.63989C1.25 9.31691 1.45728 9.03094 1.76172 8.9231C4.90928 7.80848 7.759 6.17784 10.6133 4.4729ZM15.7285 7.3147C15.8291 7.22036 15.9877 7.22522 16.0781 7.32935C18.3071 9.89567 18.3073 14.1049 16.0781 16.6711C15.9876 16.7753 15.8291 16.7794 15.7285 16.6848L14.2715 15.3147C14.1714 15.2201 14.1675 15.0628 14.2549 14.9563C15.5813 13.3454 15.5813 10.6551 14.2549 9.04419C14.1672 8.93762 14.1711 8.77945 14.2715 8.68481L15.7285 7.3147ZM9.25 8.15845C7.46586 9.15263 5.65107 10.1172 3.75 10.8694V13.1301C5.65079 13.8822 7.46604 14.847 9.25 15.8411V8.15845Z" fill="#FF00FF"/>
</svg>
