<svg width="24" height="24" viewBox="0 0 24 24" fill="none" xmlns="http://www.w3.org/2000/svg">
<path d="M20.4395 1.79303C20.5371 1.6954 20.6953 1.6954 20.793 1.79303L22.207 3.20709C22.3046 3.30473 22.3046 3.46299 22.207 3.56061L20.6318 5.13483C23.7736 9.68525 23.4203 16.0462 19.5703 20.1885C19.4763 20.2897 19.3169 20.2924 19.2178 20.1964L17.7822 18.8038C17.6831 18.7076 17.681 18.549 17.7744 18.4473C20.6757 15.2889 21.0252 10.4954 18.8252 6.94147L17.0137 8.75299C18.2417 11.2694 17.9313 14.5375 16.0781 16.671C15.9877 16.775 15.8291 16.7798 15.7285 16.6856L14.2715 15.3145C14.1714 15.2199 14.1674 15.0626 14.2549 14.9561C15.1919 13.8181 15.466 12.1417 15.0791 10.6876L11.75 14.0176V18.8829C11.75 19.4659 11.1139 19.8262 10.6133 19.5274C9.69748 18.9808 8.77601 18.4417 7.84473 17.9219L3.56055 22.2071C3.46293 22.3047 3.30465 22.3047 3.20703 22.2071L1.79297 20.793C1.69535 20.6954 1.69538 20.5371 1.79297 20.4395L5.53418 16.6973C4.30854 16.0887 3.05628 15.5362 1.76172 15.0772C1.45728 14.9693 1.25 14.6834 1.25 14.3604V9.63971C1.25 9.3167 1.45724 9.03074 1.76172 8.92291C4.90931 7.80828 7.75897 6.17768 10.6133 4.47272C11.1138 4.17374 11.75 4.53423 11.75 5.11725V10.4825L20.4395 1.79303ZM9.25 8.15826C7.46584 9.15246 5.6511 10.117 3.75 10.8692V13.1299C4.99761 13.6236 6.20824 14.209 7.39746 14.834L9.25 12.9825V8.15826Z" fill="#FF00FF"/>
</svg>
